<svg xmlns="http://www.w3.org/2000/svg" width="20" height="20" viewBox="0 0 20 20" fill="none">
    <g filter="url(#filter0_b_2981_2076)">
      <circle cx="10" cy="10" r="10" fill="black"/>
    </g>
    <path fill-rule="evenodd" clip-rule="evenodd" d="M5.26588 5.27753C5.43617 5.10711 5.66711 5.01137 5.9079 5.01137C6.14869 5.01137 6.37963 5.10711 6.54992 5.27753L9.99432 8.72572L13.4387 5.27753C13.5225 5.19071 13.6227 5.12145 13.7335 5.07381C13.8443 5.02616 13.9634 5.00108 14.084 5.00003C14.2046 4.99899 14.3242 5.02199 14.4358 5.0677C14.5474 5.11341 14.6488 5.18091 14.734 5.26627C14.8193 5.35162 14.8867 5.45313 14.9324 5.56485C14.978 5.67657 15.001 5.79628 15 5.91699C14.9989 6.0377 14.9739 6.15699 14.9263 6.2679C14.8787 6.37881 14.8095 6.47913 14.7228 6.56299L11.2784 10.0112L14.7228 13.4594C14.8882 13.6308 14.9797 13.8604 14.9776 14.0988C14.9756 14.3372 14.8801 14.5652 14.7117 14.7337C14.5433 14.9023 14.3156 14.9979 14.0775 15C13.8394 15.002 13.61 14.9104 13.4387 14.7448L9.99432 11.2966L6.54992 14.7448C6.37865 14.9104 6.14927 15.002 5.91117 15C5.67307 14.9979 5.44531 14.9023 5.27694 14.7337C5.10857 14.5652 5.01307 14.3372 5.011 14.0988C5.00893 13.8604 5.10046 13.6308 5.26588 13.4594L8.71028 10.0112L5.26588 6.56299C5.09564 6.39251 5 6.16132 5 5.92026C5 5.6792 5.09564 5.44801 5.26588 5.27753Z" fill="white"/>
    <defs>
      <filter id="filter0_b_2981_2076" x="-8" y="-8" width="36" height="36" filterUnits="userSpaceOnUse" color-interpolation-filters="sRGB">
        <feFlood flood-opacity="0" result="BackgroundImageFix"/>
        <feGaussianBlur in="BackgroundImageFix" stdDeviation="4"/>
        <feComposite in2="SourceAlpha" operator="in" result="effect1_backgroundBlur_2981_2076"/>
        <feBlend mode="normal" in="SourceGraphic" in2="effect1_backgroundBlur_2981_2076" result="shape"/>
      </filter>
    </defs>
  </svg>