<svg xmlns="http://www.w3.org/2000/svg" width="20" height="20" viewBox="0 0 20 20" fill="none">
<path d="M15 15.4168C14.6685 15.4168 14.3506 15.2851 14.1162 15.0507C13.8817 14.8163 13.75 14.4984 13.75 14.1668C13.75 13.8353 13.8817 13.5174 14.1162 13.2829C14.3506 13.0485 14.6685 12.9168 15 12.9168C15.3316 12.9168 15.6495 13.0485 15.8839 13.2829C16.1183 13.5174 16.25 13.8353 16.25 14.1668C16.25 14.4984 16.1183 14.8163 15.8839 15.0507C15.6495 15.2851 15.3316 15.4168 15 15.4168ZM16.25 7.91683L17.8834 10.0002H14.1667V7.91683M5.00004 15.4168C4.66852 15.4168 4.35058 15.2851 4.11616 15.0507C3.88174 14.8163 3.75004 14.4984 3.75004 14.1668C3.75004 13.8353 3.88174 13.5174 4.11616 13.2829C4.35058 13.0485 4.66852 12.9168 5.00004 12.9168C5.33156 12.9168 5.6495 13.0485 5.88392 13.2829C6.11835 13.5174 6.25004 13.8353 6.25004 14.1668C6.25004 14.4984 6.11835 14.8163 5.88392 15.0507C5.6495 15.2851 5.33156 15.4168 5.00004 15.4168ZM16.6667 6.66683H14.1667V3.3335H2.50004C1.57504 3.3335 0.833374 4.07516 0.833374 5.00016V14.1668H2.50004C2.50004 14.8299 2.76343 15.4658 3.23227 15.9346C3.70111 16.4034 4.337 16.6668 5.00004 16.6668C5.66308 16.6668 6.29897 16.4034 6.76781 15.9346C7.23665 15.4658 7.50004 14.8299 7.50004 14.1668H12.5C12.5 14.8299 12.7634 15.4658 13.2323 15.9346C13.7011 16.4034 14.337 16.6668 15 16.6668C15.6631 16.6668 16.299 16.4034 16.7678 15.9346C17.2367 15.4658 17.5 14.8299 17.5 14.1668H19.1667V10.0002L16.6667 6.66683Z" fill="#EDEDED"/>
</svg>