<svg xmlns="http://www.w3.org/2000/svg" width="20" height="20" viewBox="0 0 20 20" fill="none">
<path d="M10.6958 2.63425C10.7422 2.59905 10.7834 2.55753 10.8183 2.51092H12.9533C13.1143 2.50222 13.2757 2.50222 13.4366 2.51092H13.4683C13.9427 2.50958 14.4113 2.61436 14.84 2.81758C15.623 3.12473 16.3003 3.65209 16.79 4.33592C17.1606 4.85373 17.4128 5.44676 17.5286 6.07295C17.6444 6.69914 17.621 7.34313 17.46 7.95925L14.7258 5.26175C14.6088 5.14634 14.451 5.08167 14.2866 5.08175H10.3075C10.1798 5.08694 10.0568 5.13115 9.95498 5.20842L8.38498 6.39842C8.3006 6.46266 8.2044 6.50965 8.10187 6.53671C7.99933 6.56377 7.89247 6.57037 7.78738 6.55614C7.6823 6.5419 7.58105 6.5071 7.48941 6.45373C7.39777 6.40036 7.31755 6.32946 7.25331 6.24508C7.18945 6.16203 7.14268 6.06716 7.11568 5.96593C7.08869 5.86471 7.08201 5.75914 7.09603 5.65532C7.11006 5.5515 7.1445 5.45149 7.19739 5.36105C7.25027 5.27062 7.32054 5.19155 7.40414 5.12842L10.6958 2.63425ZM6.58248 11.8626L6.57081 11.8734L5.75914 12.6801L5.74831 12.6901C5.60617 12.8252 5.417 12.8998 5.22087 12.8979C5.02473 12.896 4.83702 12.8179 4.69748 12.6801C4.62776 12.611 4.57242 12.5287 4.53466 12.4381C4.49689 12.3475 4.47745 12.2503 4.47745 12.1522C4.47745 12.054 4.49689 11.9568 4.53466 11.8662C4.57242 11.7756 4.62776 11.6934 4.69748 11.6243L5.50914 10.8176C5.65051 10.6776 5.84143 10.5991 6.04039 10.5991C6.23935 10.5991 6.43027 10.6776 6.57164 10.8176C6.7106 10.9553 6.78967 11.1422 6.79169 11.3379C6.79372 11.5335 6.71855 11.722 6.58248 11.8626ZM6.33998 13.2776C6.2039 13.4181 6.12873 13.6067 6.13076 13.8023C6.13279 13.9979 6.21185 14.1849 6.35081 14.3226C6.64414 14.6143 7.11998 14.6143 7.41331 14.3226L8.22498 13.5159C8.30366 13.4379 8.3639 13.3433 8.40129 13.239C8.43869 13.1347 8.45229 13.0233 8.44111 12.9131C8.42993 12.8028 8.39424 12.6965 8.33666 12.6018C8.27907 12.5071 8.20106 12.4265 8.10831 12.3659C7.96593 12.2722 7.79604 12.2295 7.62628 12.2446C7.45652 12.2597 7.29688 12.3319 7.17331 12.4493L7.16248 12.4609L6.35081 13.2668L6.33998 13.2776ZM4.58331 9.50592C4.65303 9.57503 4.70836 9.65726 4.74613 9.74787C4.78389 9.83848 4.80334 9.93567 4.80334 10.0338C4.80334 10.132 4.78389 10.2292 4.74613 10.3198C4.70836 10.4104 4.65303 10.4926 4.58331 10.5618L3.77164 11.3684C3.63024 11.5087 3.43914 11.5874 3.23998 11.5874C3.04081 11.5874 2.84972 11.5087 2.70831 11.3684C2.63859 11.2993 2.58325 11.2171 2.54549 11.1265C2.50772 11.0359 2.48828 10.9387 2.48828 10.8405C2.48828 10.7423 2.50772 10.6451 2.54549 10.5545C2.58325 10.4639 2.63859 10.3817 2.70831 10.3126L3.52081 9.50592C3.66218 9.36592 3.8531 9.28739 4.05206 9.28739C4.25102 9.28739 4.44194 9.36592 4.58331 9.50592ZM9.87748 14.1034C9.94719 14.1725 10.0025 14.2548 10.0403 14.3454C10.0781 14.436 10.0975 14.5332 10.0975 14.6313C10.0975 14.7295 10.0781 14.8267 10.0403 14.9173C10.0025 15.0079 9.94719 15.0901 9.87748 15.1593L9.06581 15.9659C8.92444 16.1059 8.73352 16.1844 8.53456 16.1844C8.3356 16.1844 8.14468 16.1059 8.00331 15.9659C7.89262 15.8562 7.81922 15.7144 7.7935 15.5607C7.76778 15.407 7.79104 15.249 7.85998 15.1093L7.86081 15.1076C7.89715 15.0344 7.9453 14.9677 8.00331 14.9101L8.81498 14.1034C8.95635 13.9634 9.14727 13.8849 9.34623 13.8849C9.54519 13.8849 9.7361 13.9634 9.87748 14.1034ZM4.45331 4.02508C5.00663 3.47537 5.67759 3.05853 6.41556 2.80605C7.15353 2.55356 7.93922 2.47202 8.71331 2.56758L6.64998 4.13175C6.43506 4.29435 6.25443 4.49785 6.11848 4.73055C5.98254 4.96325 5.89397 5.22054 5.85788 5.48761C5.82178 5.75467 5.83888 6.02624 5.90817 6.28668C5.97747 6.54711 6.0976 6.79127 6.26164 7.00508C6.59285 7.43681 7.08137 7.72002 7.6206 7.79292C8.15983 7.86583 8.70601 7.72252 9.13998 7.39425L10.5433 6.33175H14.0308L16.9533 9.21508C16.9627 9.22673 16.9727 9.23786 16.9833 9.24842L17.9416 10.2068C18.1572 10.4253 18.2808 10.7183 18.2868 11.0252C18.2928 11.3322 18.1809 11.6297 17.9741 11.8566C17.7673 12.0835 17.4813 12.2224 17.1752 12.2448C16.869 12.2671 16.5659 12.1712 16.3283 11.9768L16.2483 11.8968C16.2328 11.881 16.2161 11.8665 16.1983 11.8534L15.2875 10.9434C15.249 10.9036 15.2031 10.8719 15.1522 10.85C15.1014 10.8282 15.0467 10.8167 14.9914 10.8162C14.9361 10.8157 14.8812 10.8263 14.83 10.8472C14.7788 10.8682 14.7323 10.8991 14.6931 10.9383C14.654 10.9774 14.6231 11.0239 14.6021 11.0751C14.5812 11.1263 14.5706 11.1812 14.5711 11.2365C14.5716 11.2918 14.5831 11.3465 14.6049 11.3973C14.6268 11.4482 14.6585 11.4941 14.6983 11.5326L15.6566 12.4909C15.6916 12.5251 15.7266 12.5584 15.7633 12.5901L15.8 12.6268C15.8802 12.7053 15.9441 12.799 15.9879 12.9023C16.0317 13.0057 16.0546 13.1168 16.0552 13.2291C16.0558 13.3413 16.0341 13.4526 15.9914 13.5565C15.9487 13.6603 15.8859 13.7547 15.8065 13.8341C15.7271 13.9135 15.6327 13.9763 15.5289 14.019C15.425 14.0617 15.3137 14.0834 15.2015 14.0828C15.0892 14.0822 14.9781 14.0593 14.8747 14.0155C14.7714 13.9717 14.6777 13.9078 14.5991 13.8276L14.4575 13.6868C14.3987 13.6281 14.3238 13.5884 14.2423 13.5727C14.1608 13.5569 14.0765 13.5659 14.0001 13.5984C13.9237 13.6309 13.8588 13.6854 13.8136 13.7551C13.7685 13.8247 13.7452 13.9063 13.7466 13.9893C13.7453 14.0456 13.7555 14.1017 13.7766 14.1539C13.7976 14.2062 13.8291 14.2537 13.8691 14.2934L14.055 14.4793C14.1316 14.5514 14.1929 14.6381 14.2353 14.7344C14.2778 14.8306 14.3004 14.9344 14.302 15.0396C14.3036 15.1447 14.2841 15.2492 14.2445 15.3466C14.205 15.4441 14.1463 15.5327 14.0719 15.607C13.9976 15.6814 13.909 15.7401 13.8115 15.7796C13.7141 15.8192 13.6096 15.8387 13.5045 15.8371C13.3993 15.8355 13.2955 15.8129 13.1992 15.7704C13.103 15.728 13.0163 15.6667 12.9441 15.5901H12.9433L12.9333 15.5793L12.7583 15.4043C12.7198 15.3653 12.6739 15.3343 12.6233 15.3132C12.5728 15.2921 12.5185 15.2812 12.4637 15.2812C12.4089 15.2812 12.3547 15.2921 12.3041 15.3132C12.2535 15.3343 12.2077 15.3653 12.1691 15.4043C12.091 15.4824 12.0471 15.5883 12.0471 15.6988C12.0471 15.8093 12.091 15.9153 12.1691 15.9934L12.3508 16.1759C12.4256 16.2498 12.4851 16.3377 12.526 16.4345C12.5668 16.5314 12.5882 16.6354 12.5888 16.7405C12.5895 16.8456 12.5694 16.9498 12.5298 17.0472C12.4902 17.1446 12.4318 17.2332 12.3579 17.308C12.284 17.3828 12.1961 17.4423 12.0993 17.4832C12.0024 17.524 11.8984 17.5453 11.7933 17.546C11.6882 17.5467 11.584 17.5266 11.4866 17.487C11.3892 17.4474 11.3006 17.389 11.2258 17.3151L10.0333 16.1818L10.4708 15.7468C10.6182 15.6008 10.7352 15.427 10.815 15.2356C10.8948 15.0441 10.9359 14.8388 10.9359 14.6313C10.9359 14.4239 10.8948 14.2185 10.815 14.0271C10.7352 13.8356 10.6182 13.6619 10.4708 13.5159C10.3149 13.3611 10.1286 13.2403 9.92361 13.1611C9.71865 13.0819 9.49949 13.0461 9.27998 13.0559C9.28964 12.8373 9.25341 12.619 9.17361 12.4152C9.09381 12.2114 8.97221 12.0265 8.81664 11.8726C8.66086 11.7178 8.47468 11.597 8.26986 11.5179C8.06504 11.4387 7.84602 11.4028 7.62664 11.4126C7.63624 11.1941 7.59997 10.9759 7.52017 10.7723C7.44037 10.5686 7.31881 10.3839 7.16331 10.2301C6.96522 10.0336 6.71905 9.89262 6.4494 9.82111C6.17974 9.74961 5.89604 9.75011 5.62664 9.82258C5.58034 9.47968 5.42181 9.16175 5.17581 8.91842C4.90166 8.64668 4.53827 8.48359 4.15302 8.45937C3.76778 8.43516 3.38682 8.55148 3.08081 8.78675C2.884 7.94191 2.9068 7.06074 3.14706 6.22721C3.38732 5.39368 3.83702 4.63556 4.45331 4.02508Z" fill="#9197B3"/>
</svg>