<svg xmlns="http://www.w3.org/2000/svg" width="16" height="17" viewBox="0 0 16 17" fill="none">
<path d="M2.66665 14.5002C2.29998 14.5002 1.98598 14.3695 1.72465 14.1082C1.46331 13.8468 1.33287 13.5331 1.33331 13.1668V5.8335C1.33331 5.46683 1.46398 5.15283 1.72531 4.8915C1.98665 4.63016 2.30043 4.49972 2.66665 4.50016H5.33331V3.16683C5.33331 2.80016 5.46398 2.48616 5.72531 2.22483C5.98665 1.9635 6.30043 1.83305 6.66665 1.8335H9.33331C9.69998 1.8335 10.014 1.96416 10.2753 2.2255C10.5366 2.48683 10.6671 2.80061 10.6666 3.16683V4.50016H13.3333C13.7 4.50016 14.014 4.63083 14.2753 4.89216C14.5366 5.1535 14.6671 5.46727 14.6666 5.8335V13.1668C14.6666 13.5335 14.536 13.8475 14.2746 14.1088C14.0133 14.3702 13.6995 14.5006 13.3333 14.5002H2.66665ZM2.66665 13.1668H13.3333V5.8335H2.66665V13.1668ZM6.66665 4.50016H9.33331V3.16683H6.66665V4.50016Z" fill="#9197B3"/>
</svg>