<svg width="18" height="18" viewBox="0 0 18 18" fill="none" xmlns="http://www.w3.org/2000/svg">
<path d="M2.25 4.5H15.75V13.5H2.25V4.5ZM9 6.75C9.59674 6.75 10.169 6.98705 10.591 7.40901C11.0129 7.83097 11.25 8.40326 11.25 9C11.25 9.59674 11.0129 10.169 10.591 10.591C10.169 11.0129 9.59674 11.25 9 11.25C8.40326 11.25 7.83097 11.0129 7.40901 10.591C6.98705 10.169 6.75 9.59674 6.75 9C6.75 8.40326 6.98705 7.83097 7.40901 7.40901C7.83097 6.98705 8.40326 6.75 9 6.75ZM5.25 6C5.25 6.39782 5.09196 6.77936 4.81066 7.06066C4.52936 7.34196 4.14782 7.5 3.75 7.5V10.5C4.14782 10.5 4.52936 10.658 4.81066 10.9393C5.09196 11.2206 5.25 11.6022 5.25 12H12.75C12.75 11.6022 12.908 11.2206 13.1893 10.9393C13.4706 10.658 13.8522 10.5 14.25 10.5V7.5C13.8522 7.5 13.4706 7.34196 13.1893 7.06066C12.908 6.77936 12.75 6.39782 12.75 6H5.25Z" fill="#9197B3"/>
</svg>
