<svg width="390" height="100" viewBox="0 0 390 100" fill="none" xmlns="http://www.w3.org/2000/svg">
<rect width="390" height="100" rx="10" fill="#0196FB"/>
<g clip-path="url(#clip0_3485_7788)">
<path d="M133.656 51.8168C133.656 51.8168 142.83 51.5148 145.567 53.6164C148.305 55.718 137.643 56.3084 124.951 56.1157C124.951 56.1157 133.052 52.6831 133.658 51.8168H133.656Z" fill="url(#paint0_linear_3485_7788)"/>
<path d="M143.512 38.5706C142.954 36.7122 141.433 36.0016 141.261 35.9265C141.038 35.8294 140.8 35.7816 140.565 35.7816C140.159 35.7816 139.758 35.9237 139.436 36.197C139.429 36.2025 139.424 36.208 139.417 36.2134L135.145 26.3612C135.137 26.3435 135.129 26.3257 135.12 26.3093C130.962 17.5066 128.579 15.7029 127.749 15.3353C127.525 15.2369 127.286 15.1863 127.045 15.1863C126.869 15.1863 126.693 15.2123 126.524 15.2656L120.961 17.0106V16.2795C120.961 15.5484 120.519 14.8925 119.845 14.6261L116.06 13.123C115.854 13.041 115.637 13 115.418 13C115.261 13 115.104 13.0219 114.95 13.0642L109.111 14.693C108.632 14.827 108.232 15.159 108.009 15.6072C107.786 16.0554 107.76 16.5788 107.94 17.0461L108.641 18.8785C108.817 19.3404 109.167 19.6888 109.591 19.8719L109.773 20.5879L100.032 23.5996C99.7871 23.6748 99.5614 23.8032 99.3707 23.9768C92.4633 30.2461 90.1717 37.584 90.0771 37.8942C89.9364 38.356 89.9892 38.8561 90.2217 39.2784L90.8977 40.5082C91.187 41.0357 91.713 41.3677 92.2889 41.4169C92.7851 47.0576 96.1584 51.5916 96.3084 51.7911C96.4801 52.0193 96.7046 52.2024 96.9615 52.324C105.551 56.3837 114.921 56.974 115.316 56.9973C115.35 56.9986 115.384 57 115.418 57H115.457C127.801 56.7226 132.189 53.8612 132.65 53.536C132.896 53.3611 133.095 53.1261 133.225 52.8514C133.687 51.8826 134.142 50.4861 134.607 48.6045C139.141 48.1904 141.98 44.5939 142.104 44.4354C142.136 44.393 142.167 44.3493 142.197 44.3042C143.568 42.1602 144.011 40.2308 143.512 38.5706ZM138.943 38.4667C138.984 38.8384 138.959 39.2866 138.757 39.4328C138.587 39.5571 138.219 39.7061 137.44 39.7088H137.413C136.998 39.7088 136.641 39.6774 136.328 39.6091C136.332 39.5899 136.335 39.5708 136.337 39.553L136.462 39.5858C136.612 39.6268 136.763 39.646 136.915 39.646C137.33 39.646 137.737 39.497 138.058 39.2183L138.941 38.4544C138.941 38.4544 138.941 38.4626 138.943 38.4667ZM141.288 43.7098C141.277 43.7276 141.265 43.7453 141.252 43.7604C141.137 43.9107 138.375 47.4088 134.019 47.5455C133.979 47.5496 133.885 47.555 133.743 47.5605C133.236 49.7441 132.734 51.362 132.25 52.3773C132.2 52.4825 132.124 52.5727 132.03 52.641C131.857 52.7626 127.665 55.6322 115.433 55.9068H115.418C115.404 55.9068 115.392 55.9068 115.378 55.9055C114.992 55.8836 105.824 55.3056 97.4198 51.3333C97.3211 51.2868 97.2346 51.2158 97.1683 51.1283C97.0196 50.9316 93.5233 46.2309 93.3178 40.5588C93.3138 40.4371 93.311 40.3128 93.3097 40.1884L92.5472 40.3196C92.5093 40.3265 92.4715 40.3292 92.4336 40.3292C92.1916 40.3292 91.9631 40.1966 91.8428 39.978L91.1668 38.7482C91.0775 38.5856 91.0573 38.3929 91.1113 38.2153C91.2019 37.9174 93.407 30.8583 100.094 24.7898C100.167 24.7229 100.254 24.6737 100.348 24.645L111.079 21.3272L110.459 18.8976L110.417 18.9072C110.371 18.9168 110.325 18.9209 110.28 18.9209C110.006 18.9209 109.751 18.7514 109.65 18.4836L108.948 16.6512C108.879 16.4722 108.889 16.2713 108.974 16.0978C109.061 15.9256 109.215 15.7985 109.399 15.7466L115.238 14.1178C115.297 14.1014 115.357 14.0932 115.418 14.0932C115.501 14.0932 115.585 14.1096 115.665 14.141L119.451 15.6441C119.709 15.7466 119.879 15.998 119.879 16.2795V17.9288C119.879 18.1393 119.783 18.3374 119.621 18.4658C119.617 18.4699 119.613 18.4727 119.609 18.4754V18.5793L126.845 16.3096C126.91 16.2891 126.977 16.2795 127.045 16.2795C127.137 16.2795 127.23 16.2986 127.315 16.3369C127.561 16.4448 129.834 17.6583 134.144 26.7794C134.148 26.7862 138.48 36.775 138.48 36.775C138.599 37.0511 138.526 37.3722 138.3 37.5689L137.354 38.3888C137.231 38.4954 137.074 38.5528 136.915 38.5528C136.856 38.5528 136.798 38.5446 136.74 38.5296L135.448 38.1811C135.373 38.699 135.261 39.4478 135.119 40.336C135.153 40.3511 135.187 40.3675 135.22 40.3838C135.819 40.6694 136.516 40.802 137.413 40.802H137.443C138.311 40.7993 138.948 40.6407 139.39 40.3196C140.04 39.8482 140.089 38.9832 140.016 38.341C139.993 38.1374 139.957 37.9256 139.907 37.7152C139.848 37.4637 139.935 37.2 140.131 37.0347C140.255 36.9294 140.409 36.8748 140.565 36.8748C140.656 36.8748 140.746 36.8939 140.833 36.9308C140.883 36.9527 142.053 37.4774 142.478 38.8889C142.88 40.2267 142.478 41.8487 141.288 43.7098Z" fill="#00BCFF"/>
<path d="M113.121 36.0929L111.648 36.3457L94.0033 39.3766L92.435 39.6457L91.759 38.4159L97.7402 37.2872L112.039 34.5898L113.121 36.0929Z" fill="#129BF1"/>
<path d="M127.046 16.9629C125.505 18.1476 123.885 19.7081 122.303 21.4134C118.525 23.6695 111.425 33.7621 111.425 33.7621L97.7402 37.2876L91.759 38.4163C91.759 38.4163 93.9222 31.3107 100.547 25.2983L111.736 21.8398L111.897 21.7892L112.178 22.9384L112.235 22.9234L116.716 21.7455L118.934 20.4064V19.5072L127.046 16.9629Z" fill="url(#paint1_linear_3485_7788)"/>
<path d="M137.862 37.0498L136.916 37.8697C136.916 37.8697 129.877 22.4287 126.907 19.2859L125.965 19.9691C125.965 19.9691 117.312 29.261 113.121 36.0933L112.039 34.5902C112.039 34.5902 116.954 27.1813 122.303 21.4134C123.885 19.7081 125.505 18.1476 127.046 16.9629C127.046 16.9629 129.209 17.9194 133.536 27.0747L137.862 37.0498Z" fill="url(#paint2_linear_3485_7788)"/>
<path d="M136.916 37.8695L134.888 37.3229C134.888 37.3229 130.022 25.3965 126.52 20.6712C126.331 20.4143 126.146 20.1793 125.965 19.9689L126.907 19.2856C129.877 22.4285 136.916 37.8695 136.916 37.8695Z" fill="#0078FC"/>
<path d="M119.205 16.2795V17.9288L119.138 17.9124L118.934 17.8646L115.689 17.0993L115.419 14.7764L119.205 16.2795Z" fill="#007FFD"/>
<path d="M115.689 17.0993L110.953 18.0969L110.281 18.2376L109.58 16.4052L115.419 14.7764L115.689 17.0993Z" fill="url(#paint3_linear_3485_7788)"/>
<path d="M118.934 17.8643V20.406L116.716 21.7451L115.689 17.0991L118.934 17.8643Z" fill="#D6D6D6"/>
<path d="M116.716 21.7451L112.235 22.923L112.178 22.938L111.897 21.7888L110.953 18.0966L115.689 17.0991L116.716 21.7451Z" fill="white"/>
<path d="M111.704 37.5578L94.2927 40.4656L93.9952 40.5339C93.9803 40.1527 93.983 39.766 94.0033 39.3765L111.648 36.3457C111.658 36.6532 111.675 37.0617 111.704 37.5578Z" fill="#CFCFCF"/>
<path d="M100.451 41.2187L97.3022 41.6956C97.3414 42.8025 97.482 43.8177 97.6632 44.7018H100.916C100.693 43.2069 100.524 41.835 100.451 41.2187ZM105.414 40.4658L101.26 41.0958C101.319 41.7913 101.45 43.2056 101.653 44.7018H106.01C105.648 42.51 105.414 40.4658 105.414 40.4658ZM106.139 45.4534H101.761C101.975 46.8759 102.255 48.2792 102.598 49.1278C104.919 49.4312 107.172 49.4845 107.172 49.4845C106.791 48.7151 106.432 47.1041 106.139 45.4534ZM97.8322 45.4534C98.2621 47.1874 98.7894 48.2546 98.7894 48.2546C99.56 48.5826 100.623 48.8245 101.733 49.0021C101.481 48.0743 101.239 46.757 101.032 45.4534H97.8322Z" stroke="black" stroke-miterlimit="10"/>
<path d="M111.704 37.5581L94.2926 40.4659L93.9952 40.5343C94.1953 46.0548 97.7078 50.7144 97.7078 50.7144C106.09 54.6771 115.419 55.2237 115.419 55.2237C112.639 47.9979 111.901 40.8472 111.704 37.5581ZM105.414 40.4659C105.414 40.4659 105.648 42.5102 106.01 44.702H101.653C101.45 43.2057 101.319 41.7914 101.259 41.0959L105.414 40.4659ZM97.6632 44.702C97.482 43.8179 97.3414 42.8026 97.3022 41.6957L100.451 41.2189C100.524 41.8351 100.693 43.207 100.916 44.702H97.6632ZM101.761 45.4535H106.139C106.432 47.1042 106.791 48.7152 107.172 49.4846C107.172 49.4846 104.919 49.4313 102.598 49.1279M101.733 49.0022C100.623 48.8246 99.56 48.5827 98.7894 48.2548C98.7894 48.2548 98.2621 47.1875 97.8322 45.4535H101.032" fill="white"/>
<path d="M126.52 20.6714C121.262 26.155 113.932 37.1864 113.932 37.1864L111.704 37.5581C111.901 40.8472 112.639 47.9978 115.419 55.2237C127.587 54.9504 131.643 52.0808 131.643 52.0808C133.401 48.3914 134.888 37.3231 134.888 37.3231C134.888 37.3231 130.022 25.3966 126.52 20.6714ZM129.48 37.3231C128.808 37.3231 128.263 36.4663 128.263 35.41C128.263 34.3537 128.808 33.497 129.48 33.497C130.152 33.497 130.697 34.3537 130.697 35.41C130.697 36.4663 130.152 37.3231 129.48 37.3231Z" fill="#D6D6D6"/>
<path d="M106.01 44.7018H101.653C101.45 43.2056 101.319 41.7913 101.26 41.0958L105.414 40.4658C105.414 40.4658 105.648 42.51 106.01 44.7018Z" fill="url(#paint4_linear_3485_7788)"/>
<path d="M100.916 44.7019H97.6632C97.482 43.8178 97.3414 42.8025 97.3022 41.6956L100.451 41.2188C100.524 41.835 100.693 43.2069 100.916 44.7019Z" fill="url(#paint5_linear_3485_7788)"/>
<path d="M101.733 49.0023C100.623 48.8247 99.56 48.5828 98.7894 48.2549C98.7894 48.2549 98.2621 47.1877 97.8322 45.4536H101.032C101.239 46.7572 101.481 48.0745 101.733 49.0023Z" fill="url(#paint6_linear_3485_7788)"/>
<path d="M107.172 49.4847C107.172 49.4847 104.919 49.4314 102.598 49.128C102.255 48.2795 101.975 46.8761 101.761 45.4536H106.139C106.432 47.1043 106.791 48.7154 107.172 49.4847Z" fill="url(#paint7_linear_3485_7788)"/>
<path d="M126.52 20.6711C121.262 26.1547 113.932 37.1861 113.932 37.1861L111.704 37.5578C111.675 37.0618 111.658 36.6532 111.648 36.3458L113.121 36.093C117.312 29.2607 125.965 19.9688 125.965 19.9688C126.146 20.1792 126.331 20.4142 126.52 20.6711Z" fill="#ADAEAE"/>
<path d="M129.48 37.3232C130.152 37.3232 130.697 36.4667 130.697 35.4101C130.697 34.3536 130.152 33.4971 129.48 33.4971C128.808 33.4971 128.263 34.3536 128.263 35.4101C128.263 36.4667 128.808 37.3232 129.48 37.3232Z" fill="black"/>
<path d="M122.303 21.4131C116.954 27.1809 112.039 34.5899 112.039 34.5899L97.7402 37.2872L111.425 33.7618C111.425 33.7618 118.525 23.6691 122.303 21.4131Z" fill="#00C8FD"/>
<path d="M125.289 43.4338C125.289 43.4338 122.99 47.1233 117.447 46.85C117.447 46.85 110.957 47.1233 108.794 41.1108C108.794 41.1108 107.983 38.5146 110.146 37.4214C110.022 37.4842 109.979 38.1442 109.964 38.2604C109.893 38.8288 109.916 39.4328 110.15 39.9616C110.421 40.5779 110.957 40.9796 111.587 41.1737C112.948 41.5905 114.254 41.324 115.549 40.858C116.561 40.4946 117.594 40.1857 118.642 39.9452C120.696 39.4724 123.38 39.0051 125.29 40.1898C125.32 40.2076 125.578 40.0792 125.613 40.0682C125.919 39.9644 126.231 39.8824 126.547 39.8141C127.664 39.5736 128.82 39.5189 129.956 39.6146C131.684 39.7594 133.37 40.2582 134.935 41.0042C135.726 41.3814 136.578 41.4907 137.449 41.488C138.25 41.4852 139.121 41.3623 139.788 40.8772C140.618 40.2732 140.802 39.2388 140.691 38.2659C140.664 38.0281 140.62 37.7931 140.568 37.5594C140.568 37.5594 143.581 38.8739 140.723 43.3409C140.723 43.3409 138.084 46.7434 133.986 46.865C133.986 46.865 127.725 47.3965 125.291 43.4338H125.289Z" fill="black"/>
<path d="M122.193 35.612C122.193 35.8785 121.98 36.093 121.718 36.093C121.329 36.093 120.941 36.1012 120.551 36.093C120.316 36.0875 120.081 36.0793 119.845 36.0889C119.61 36.0985 119.407 36.1408 119.184 36.1982C118.795 36.2993 118.406 36.4004 118.016 36.5029C117.772 36.5658 117.521 36.4168 117.458 36.1695C117.396 35.9222 117.543 35.6694 117.788 35.6065L118.448 35.4344L117.858 35.2444C117.608 35.1624 117.471 34.8932 117.551 34.6404C117.616 34.4368 117.803 34.3057 118.004 34.3057C118.051 34.3057 118.1 34.3139 118.149 34.3289C118.58 34.4614 119.011 34.6008 119.44 34.7416C119.841 34.8727 120.143 35.008 120.539 35.0695C120.935 35.131 121.292 35.116 121.669 35.1365C121.944 35.1515 122.193 35.3018 122.193 35.6147V35.612Z" fill="black"/>
</g>
<path d="M159.147 41L156.273 30.8182H158.257L160.092 38.3004H160.186L162.145 30.8182H163.95L165.913 38.3054H166.003L167.837 30.8182H169.821L166.947 41H165.128L163.089 33.8558H163.01L160.967 41H159.147ZM173.214 41.1491C172.448 41.1491 171.787 40.9901 171.23 40.6719C170.677 40.3504 170.251 39.8963 169.952 39.3097C169.654 38.7197 169.505 38.0253 169.505 37.2266C169.505 36.4411 169.654 35.7517 169.952 35.1584C170.254 34.5618 170.675 34.0978 171.215 33.7663C171.755 33.4316 172.39 33.2642 173.119 33.2642C173.59 33.2642 174.034 33.3404 174.452 33.4929C174.873 33.642 175.244 33.8741 175.565 34.1889C175.89 34.5038 176.145 34.9048 176.331 35.392C176.517 35.8759 176.609 36.4527 176.609 37.1222V37.674H170.35V36.4609H174.884C174.881 36.1162 174.806 35.8097 174.661 35.5412C174.515 35.2694 174.311 35.0556 174.049 34.8999C173.791 34.7441 173.489 34.6662 173.144 34.6662C172.776 34.6662 172.453 34.7557 172.175 34.9347C171.896 35.1103 171.679 35.3423 171.523 35.6307C171.371 35.9157 171.293 36.2289 171.29 36.5703V37.6293C171.29 38.0734 171.371 38.4545 171.533 38.7727C171.696 39.0876 171.923 39.3295 172.215 39.4986C172.506 39.6643 172.848 39.7472 173.239 39.7472C173.5 39.7472 173.737 39.7107 173.95 39.6378C174.162 39.5616 174.346 39.4505 174.501 39.3047C174.657 39.1589 174.775 38.9782 174.854 38.7628L176.535 38.9517C176.429 39.3958 176.227 39.7836 175.928 40.1151C175.633 40.4432 175.255 40.6984 174.795 40.8807C174.334 41.0597 173.807 41.1491 173.214 41.1491ZM179.524 30.8182V41H177.724V30.8182H179.524ZM184.297 41.1491C183.535 41.1491 182.88 40.9818 182.334 40.647C181.79 40.3123 181.371 39.8499 181.076 39.2599C180.784 38.6667 180.638 37.9839 180.638 37.2116C180.638 36.4361 180.787 35.7517 181.086 35.1584C181.384 34.5618 181.805 34.0978 182.348 33.7663C182.895 33.4316 183.542 33.2642 184.287 33.2642C184.907 33.2642 185.456 33.3786 185.933 33.6072C186.414 33.8326 186.796 34.1525 187.081 34.5668C187.366 34.9777 187.529 35.4583 187.569 36.0085H185.848C185.779 35.6406 185.613 35.334 185.351 35.0888C185.093 34.8402 184.746 34.7159 184.312 34.7159C183.944 34.7159 183.621 34.8153 183.343 35.0142C183.064 35.2098 182.847 35.4915 182.691 35.8594C182.539 36.2273 182.463 36.6681 182.463 37.1818C182.463 37.7022 182.539 38.1496 182.691 38.5241C182.844 38.8954 183.058 39.1821 183.333 39.3842C183.611 39.5831 183.938 39.6825 184.312 39.6825C184.577 39.6825 184.814 39.6328 185.023 39.5334C185.235 39.4306 185.413 39.2831 185.555 39.0909C185.698 38.8987 185.795 38.665 185.848 38.3899H187.569C187.526 38.9302 187.366 39.4091 187.091 39.8267C186.816 40.241 186.442 40.5658 185.968 40.8011C185.494 41.0331 184.937 41.1491 184.297 41.1491ZM191.969 41.1491C191.224 41.1491 190.577 40.9851 190.03 40.657C189.484 40.3288 189.059 39.8698 188.758 39.2798C188.459 38.6899 188.31 38.0005 188.31 37.2116C188.31 36.4228 188.459 35.7318 188.758 35.1385C189.059 34.5452 189.484 34.0845 190.03 33.7564C190.577 33.4283 191.224 33.2642 191.969 33.2642C192.715 33.2642 193.361 33.4283 193.908 33.7564C194.455 34.0845 194.878 34.5452 195.176 35.1385C195.478 35.7318 195.628 36.4228 195.628 37.2116C195.628 38.0005 195.478 38.6899 195.176 39.2798C194.878 39.8698 194.455 40.3288 193.908 40.657C193.361 40.9851 192.715 41.1491 191.969 41.1491ZM191.979 39.7074C192.384 39.7074 192.722 39.5964 192.994 39.3743C193.265 39.1489 193.467 38.8473 193.6 38.4695C193.736 38.0916 193.804 37.6707 193.804 37.2067C193.804 36.7393 193.736 36.3168 193.6 35.9389C193.467 35.5578 193.265 35.2545 192.994 35.0291C192.722 34.8037 192.384 34.6911 191.979 34.6911C191.565 34.6911 191.22 34.8037 190.945 35.0291C190.673 35.2545 190.47 35.5578 190.334 35.9389C190.201 36.3168 190.135 36.7393 190.135 37.2067C190.135 37.6707 190.201 38.0916 190.334 38.4695C190.47 38.8473 190.673 39.1489 190.945 39.3743C191.22 39.5964 191.565 39.7074 191.979 39.7074ZM196.748 41V33.3636H198.468V34.6612H198.558C198.717 34.2237 198.98 33.8823 199.348 33.6371C199.716 33.3885 200.155 33.2642 200.666 33.2642C201.183 33.2642 201.618 33.3902 201.973 33.642C202.331 33.8906 202.583 34.2304 202.729 34.6612H202.808C202.977 34.237 203.262 33.8989 203.663 33.647C204.068 33.3918 204.547 33.2642 205.1 33.2642C205.803 33.2642 206.376 33.4863 206.82 33.9304C207.265 34.3745 207.487 35.0225 207.487 35.8743V41H205.682V36.1527C205.682 35.6787 205.556 35.3324 205.304 35.1136C205.052 34.8916 204.744 34.7805 204.379 34.7805C203.945 34.7805 203.605 34.9164 203.36 35.1882C203.118 35.4567 202.997 35.8063 202.997 36.2372V41H201.232V36.0781C201.232 35.6837 201.113 35.3688 200.874 35.1335C200.639 34.8982 200.331 34.7805 199.95 34.7805C199.691 34.7805 199.456 34.8468 199.244 34.9794C199.032 35.1087 198.863 35.2926 198.737 35.5312C198.611 35.7666 198.548 36.0417 198.548 36.3565V41H196.748ZM212.285 41.1491C211.52 41.1491 210.858 40.9901 210.301 40.6719C209.748 40.3504 209.322 39.8963 209.024 39.3097C208.725 38.7197 208.576 38.0253 208.576 37.2266C208.576 36.4411 208.725 35.7517 209.024 35.1584C209.325 34.5618 209.746 34.0978 210.287 33.7663C210.827 33.4316 211.462 33.2642 212.191 33.2642C212.661 33.2642 213.105 33.3404 213.523 33.4929C213.944 33.642 214.315 33.8741 214.637 34.1889C214.962 34.5038 215.217 34.9048 215.402 35.392C215.588 35.8759 215.681 36.4527 215.681 37.1222V37.674H209.421V36.4609H213.956C213.952 36.1162 213.878 35.8097 213.732 35.5412C213.586 35.2694 213.382 35.0556 213.12 34.8999C212.862 34.7441 212.56 34.6662 212.216 34.6662C211.848 34.6662 211.524 34.7557 211.246 34.9347C210.968 35.1103 210.751 35.3423 210.595 35.6307C210.442 35.9157 210.364 36.2289 210.361 36.5703V37.6293C210.361 38.0734 210.442 38.4545 210.605 38.7727C210.767 39.0876 210.994 39.3295 211.286 39.4986C211.578 39.6643 211.919 39.7472 212.31 39.7472C212.572 39.7472 212.809 39.7107 213.021 39.6378C213.233 39.5616 213.417 39.4505 213.573 39.3047C213.729 39.1589 213.846 38.9782 213.926 38.7628L215.606 38.9517C215.5 39.3958 215.298 39.7836 215 40.1151C214.705 40.4432 214.327 40.6984 213.866 40.8807C213.405 41.0597 212.878 41.1491 212.285 41.1491ZM223.673 33.3636V34.7557H219.283V33.3636H223.673ZM220.367 31.5341H222.167V38.7031C222.167 38.9451 222.203 39.1307 222.276 39.2599C222.352 39.3859 222.452 39.4721 222.574 39.5185C222.697 39.5649 222.833 39.5881 222.982 39.5881C223.095 39.5881 223.198 39.5798 223.29 39.5632C223.386 39.5466 223.459 39.5317 223.509 39.5185L223.812 40.9254C223.716 40.9586 223.579 40.995 223.4 41.0348C223.224 41.0746 223.009 41.0978 222.753 41.1044C222.303 41.1177 221.897 41.0497 221.535 40.9006C221.174 40.7481 220.887 40.5128 220.675 40.1946C220.466 39.8764 220.364 39.4787 220.367 39.0014V31.5341ZM228.019 41.1491C227.273 41.1491 226.627 40.9851 226.08 40.657C225.533 40.3288 225.109 39.8698 224.808 39.2798C224.509 38.6899 224.36 38.0005 224.36 37.2116C224.36 36.4228 224.509 35.7318 224.808 35.1385C225.109 34.5452 225.533 34.0845 226.08 33.7564C226.627 33.4283 227.273 33.2642 228.019 33.2642C228.765 33.2642 229.411 33.4283 229.958 33.7564C230.505 34.0845 230.928 34.5452 231.226 35.1385C231.528 35.7318 231.678 36.4228 231.678 37.2116C231.678 38.0005 231.528 38.6899 231.226 39.2798C230.928 39.8698 230.505 40.3288 229.958 40.657C229.411 40.9851 228.765 41.1491 228.019 41.1491ZM228.029 39.7074C228.434 39.7074 228.772 39.5964 229.043 39.3743C229.315 39.1489 229.517 38.8473 229.65 38.4695C229.786 38.0916 229.854 37.6707 229.854 37.2067C229.854 36.7393 229.786 36.3168 229.65 35.9389C229.517 35.5578 229.315 35.2545 229.043 35.0291C228.772 34.8037 228.434 34.6911 228.029 34.6911C227.615 34.6911 227.27 34.8037 226.995 35.0291C226.723 35.2545 226.519 35.5578 226.384 35.9389C226.251 36.3168 226.185 36.7393 226.185 37.2067C226.185 37.6707 226.251 38.0916 226.384 38.4695C226.519 38.8473 226.723 39.1489 226.995 39.3743C227.27 39.5964 227.615 39.7074 228.029 39.7074ZM244.309 30.8182V41H242.669L237.871 34.0646H237.787V41H235.942V30.8182H237.593L242.385 37.7585H242.475V30.8182H244.309ZM249.212 41.1491C248.447 41.1491 247.785 40.9901 247.228 40.6719C246.675 40.3504 246.249 39.8963 245.951 39.3097C245.652 38.7197 245.503 38.0253 245.503 37.2266C245.503 36.4411 245.652 35.7517 245.951 35.1584C246.252 34.5618 246.673 34.0978 247.214 33.7663C247.754 33.4316 248.389 33.2642 249.118 33.2642C249.588 33.2642 250.032 33.3404 250.45 33.4929C250.871 33.642 251.242 33.8741 251.564 34.1889C251.889 34.5038 252.144 34.9048 252.329 35.392C252.515 35.8759 252.608 36.4527 252.608 37.1222V37.674H246.348V36.4609H250.883C250.879 36.1162 250.805 35.8097 250.659 35.5412C250.513 35.2694 250.309 35.0556 250.047 34.8999C249.789 34.7441 249.487 34.6662 249.143 34.6662C248.775 34.6662 248.451 34.7557 248.173 34.9347C247.895 35.1103 247.678 35.3423 247.522 35.6307C247.369 35.9157 247.291 36.2289 247.288 36.5703V37.6293C247.288 38.0734 247.369 38.4545 247.532 38.7727C247.694 39.0876 247.921 39.3295 248.213 39.4986C248.505 39.6643 248.846 39.7472 249.237 39.7472C249.499 39.7472 249.736 39.7107 249.948 39.6378C250.16 39.5616 250.344 39.4505 250.5 39.3047C250.656 39.1589 250.773 38.9782 250.853 38.7628L252.533 38.9517C252.427 39.3958 252.225 39.7836 251.927 40.1151C251.632 40.4432 251.254 40.6984 250.793 40.8807C250.332 41.0597 249.805 41.1491 249.212 41.1491ZM253.722 41V33.3636H255.522V41H253.722ZM254.627 32.2798C254.342 32.2798 254.097 32.1854 253.891 31.9964C253.686 31.8042 253.583 31.5739 253.583 31.3054C253.583 31.0336 253.686 30.8033 253.891 30.6143C254.097 30.4221 254.342 30.326 254.627 30.326C254.915 30.326 255.161 30.4221 255.363 30.6143C255.568 30.8033 255.671 31.0336 255.671 31.3054C255.671 31.5739 255.568 31.8042 255.363 31.9964C255.161 32.1854 254.915 32.2798 254.627 32.2798ZM260.286 44.0227C259.639 44.0227 259.084 43.9349 258.62 43.7592C258.156 43.5869 257.783 43.3549 257.502 43.0632C257.22 42.7715 257.024 42.4484 256.915 42.0938L258.536 41.701C258.609 41.8501 258.715 41.9976 258.854 42.1435C258.993 42.2926 259.18 42.4152 259.416 42.5114C259.654 42.6108 259.954 42.6605 260.316 42.6605C260.826 42.6605 261.249 42.5362 261.583 42.2876C261.918 42.0424 262.085 41.638 262.085 41.0746V39.6278H261.996C261.903 39.8134 261.767 40.004 261.588 40.1996C261.413 40.3951 261.179 40.5592 260.887 40.6918C260.599 40.8243 260.236 40.8906 259.798 40.8906C259.212 40.8906 258.68 40.7531 258.203 40.478C257.729 40.1996 257.351 39.7853 257.069 39.2351C256.791 38.6816 256.651 37.9889 256.651 37.157C256.651 36.3184 256.791 35.6108 257.069 35.0341C257.351 34.4541 257.73 34.0149 258.208 33.7166C258.685 33.415 259.217 33.2642 259.803 33.2642C260.251 33.2642 260.619 33.3404 260.907 33.4929C261.199 33.642 261.431 33.8227 261.603 34.0348C261.776 34.2436 261.906 34.4408 261.996 34.6264H262.095V33.3636H263.87V41.1243C263.87 41.7772 263.714 42.3175 263.403 42.745C263.091 43.1726 262.665 43.4924 262.125 43.7045C261.585 43.9167 260.972 44.0227 260.286 44.0227ZM260.301 39.4787C260.682 39.4787 261.007 39.3859 261.275 39.2003C261.544 39.0147 261.747 38.7479 261.887 38.3999C262.026 38.0518 262.095 37.6342 262.095 37.147C262.095 36.6664 262.026 36.2455 261.887 35.8842C261.751 35.523 261.548 35.2429 261.28 35.044C261.015 34.8419 260.688 34.7408 260.301 34.7408C259.9 34.7408 259.565 34.8452 259.296 35.054C259.028 35.2628 258.826 35.5495 258.69 35.9141C258.554 36.2753 258.486 36.6863 258.486 37.147C258.486 37.6143 258.554 38.0237 258.69 38.375C258.829 38.723 259.033 38.9948 259.301 39.1903C259.573 39.3826 259.906 39.4787 260.301 39.4787ZM267.106 36.5256V41H265.307V30.8182H267.067V34.6612H267.156C267.335 34.2304 267.612 33.8906 267.986 33.642C268.364 33.3902 268.845 33.2642 269.428 33.2642C269.958 33.2642 270.421 33.3752 270.815 33.5973C271.21 33.8194 271.515 34.1442 271.73 34.5717C271.949 34.9993 272.058 35.5213 272.058 36.1378V41H270.258V36.4162C270.258 35.9025 270.126 35.5031 269.861 35.218C269.599 34.9297 269.231 34.7855 268.757 34.7855C268.439 34.7855 268.154 34.8551 267.902 34.9943C267.653 35.1302 267.458 35.3274 267.315 35.5859C267.176 35.8445 267.106 36.1577 267.106 36.5256ZM273.564 41V30.8182H275.364V34.6264H275.438C275.531 34.4408 275.662 34.2436 275.831 34.0348C276 33.8227 276.229 33.642 276.517 33.4929C276.806 33.3404 277.174 33.2642 277.621 33.2642C278.211 33.2642 278.743 33.415 279.217 33.7166C279.694 34.0149 280.072 34.4574 280.35 35.044C280.632 35.6274 280.773 36.3433 280.773 37.1918C280.773 38.0303 280.635 38.7429 280.36 39.3295C280.085 39.9162 279.711 40.3636 279.237 40.6719C278.763 40.9801 278.226 41.1342 277.626 41.1342C277.188 41.1342 276.826 41.0613 276.537 40.9155C276.249 40.7696 276.017 40.594 275.841 40.3885C275.669 40.1797 275.535 39.9825 275.438 39.7969H275.334V41H273.564ZM275.329 37.1818C275.329 37.6757 275.399 38.1082 275.538 38.4794C275.68 38.8506 275.884 39.1406 276.149 39.3494C276.418 39.5549 276.743 39.6577 277.124 39.6577C277.522 39.6577 277.855 39.5516 278.123 39.3395C278.392 39.1241 278.594 38.8307 278.73 38.4595C278.869 38.085 278.938 37.6591 278.938 37.1818C278.938 36.7079 278.87 36.2869 278.735 35.919C278.599 35.5511 278.397 35.2628 278.128 35.054C277.86 34.8452 277.525 34.7408 277.124 34.7408C276.739 34.7408 276.413 34.8419 276.144 35.044C275.876 35.2462 275.672 35.5296 275.533 35.8942C275.397 36.2588 275.329 36.688 275.329 37.1818ZM281.895 41V33.3636H283.64V34.6364H283.72C283.859 34.1955 284.097 33.8558 284.435 33.6172C284.777 33.3752 285.166 33.2543 285.604 33.2543C285.703 33.2543 285.814 33.2592 285.937 33.2692C286.063 33.2758 286.167 33.2874 286.25 33.304V34.9595C286.174 34.933 286.053 34.9098 285.887 34.8899C285.725 34.8667 285.567 34.8551 285.415 34.8551C285.087 34.8551 284.792 34.9264 284.53 35.0689C284.271 35.2081 284.068 35.402 283.918 35.6506C283.769 35.8991 283.695 36.1858 283.695 36.5107V41H281.895ZM293.073 35.3821L291.433 35.5611C291.386 35.3954 291.305 35.2396 291.189 35.0938C291.076 34.9479 290.924 34.8303 290.732 34.7408C290.539 34.6513 290.304 34.6065 290.026 34.6065C289.651 34.6065 289.336 34.6877 289.081 34.8501C288.829 35.0125 288.705 35.223 288.708 35.4815C288.705 35.7036 288.786 35.8842 288.952 36.0234C289.121 36.1626 289.399 36.277 289.787 36.3665L291.09 36.6449C291.812 36.8007 292.349 37.0476 292.7 37.3857C293.055 37.7237 293.234 38.1662 293.237 38.7131C293.234 39.1937 293.093 39.6179 292.815 39.9858C292.54 40.3504 292.157 40.6354 291.666 40.8409C291.176 41.0464 290.612 41.1491 289.976 41.1491C289.041 41.1491 288.289 40.9536 287.719 40.5625C287.149 40.1681 286.809 39.6196 286.7 38.9169L288.455 38.7479C288.534 39.0926 288.703 39.3527 288.962 39.5284C289.22 39.7041 289.557 39.7919 289.971 39.7919C290.399 39.7919 290.742 39.7041 291 39.5284C291.262 39.3527 291.393 39.1357 291.393 38.8771C291.393 38.6584 291.308 38.4777 291.139 38.3352C290.974 38.1927 290.715 38.0833 290.364 38.0071L289.061 37.7337C288.329 37.5812 287.787 37.3243 287.435 36.9631C287.084 36.5985 286.91 36.1378 286.913 35.581C286.91 35.1103 287.038 34.7027 287.296 34.358C287.558 34.0099 287.921 33.7415 288.385 33.5526C288.852 33.3603 289.391 33.2642 290.001 33.2642C290.896 33.2642 291.6 33.4548 292.114 33.8359C292.631 34.2171 292.951 34.7325 293.073 35.3821Z" fill="white"/>
<path d="M74.5966 77L71.3125 65.3636H73.5795L75.6761 73.9148H75.7841L78.0227 65.3636H80.0852L82.3295 73.9205H82.4318L84.5284 65.3636H86.7955L83.5114 77H81.4318L79.1023 68.8352H79.0114L76.6761 77H74.5966ZM89.815 71.8864V77H87.7582V65.3636H89.7696V69.7557H89.8718C90.0764 69.2633 90.3927 68.875 90.8207 68.5909C91.2525 68.303 91.8018 68.1591 92.4684 68.1591C93.0745 68.1591 93.6029 68.286 94.0536 68.5398C94.5044 68.7936 94.8529 69.1648 95.0991 69.6534C95.3491 70.142 95.4741 70.7386 95.4741 71.4432V77H93.4173V71.7614C93.4173 71.1742 93.2658 70.7178 92.9627 70.392C92.6635 70.0625 92.243 69.8977 91.7014 69.8977C91.3377 69.8977 91.012 69.9773 90.7241 70.1364C90.44 70.2917 90.2165 70.517 90.0536 70.8125C89.8946 71.108 89.815 71.4659 89.815 71.8864ZM101.026 77.1705C100.151 77.1705 99.3956 76.9886 98.7593 76.625C98.1267 76.2576 97.64 75.7386 97.2991 75.0682C96.9581 74.3939 96.7877 73.6004 96.7877 72.6875C96.7877 71.7898 96.9581 71.0019 97.2991 70.3239C97.6438 69.642 98.1248 69.1117 98.7422 68.733C99.3597 68.3504 100.085 68.1591 100.918 68.1591C101.456 68.1591 101.964 68.2462 102.441 68.4205C102.922 68.5909 103.346 68.8561 103.714 69.2159C104.085 69.5758 104.377 70.0341 104.589 70.5909C104.801 71.1439 104.907 71.803 104.907 72.5682V73.1989H97.7536V71.8125H102.935C102.932 71.4186 102.846 71.0682 102.68 70.7614C102.513 70.4508 102.28 70.2064 101.981 70.0284C101.685 69.8504 101.341 69.7614 100.947 69.7614C100.526 69.7614 100.157 69.8636 99.8388 70.0682C99.5206 70.2689 99.2725 70.5341 99.0945 70.8636C98.9203 71.1894 98.8313 71.5473 98.8275 71.9375V73.1477C98.8275 73.6553 98.9203 74.0909 99.1059 74.4545C99.2915 74.8144 99.551 75.0909 99.8843 75.2841C100.218 75.4735 100.608 75.5682 101.055 75.5682C101.354 75.5682 101.625 75.5265 101.867 75.4432C102.11 75.3561 102.32 75.2292 102.498 75.0625C102.676 74.8958 102.81 74.6894 102.901 74.4432L104.822 74.6591C104.701 75.1667 104.47 75.6098 104.129 75.9886C103.791 76.3636 103.36 76.6553 102.833 76.8636C102.307 77.0682 101.704 77.1705 101.026 77.1705ZM106.239 77V68.2727H108.233V69.7273H108.324C108.483 69.2235 108.756 68.8352 109.142 68.5625C109.533 68.286 109.978 68.1477 110.478 68.1477C110.591 68.1477 110.718 68.1534 110.858 68.1648C111.002 68.1723 111.122 68.1856 111.216 68.2045V70.0966C111.129 70.0663 110.991 70.0398 110.802 70.017C110.616 69.9905 110.436 69.9773 110.262 69.9773C109.887 69.9773 109.55 70.0587 109.25 70.2216C108.955 70.3807 108.722 70.6023 108.552 70.8864C108.381 71.1705 108.296 71.4981 108.296 71.8693V77H106.239ZM115.679 77.1705C114.804 77.1705 114.048 76.9886 113.412 76.625C112.779 76.2576 112.293 75.7386 111.952 75.0682C111.611 74.3939 111.44 73.6004 111.44 72.6875C111.44 71.7898 111.611 71.0019 111.952 70.3239C112.297 69.642 112.778 69.1117 113.395 68.733C114.012 68.3504 114.738 68.1591 115.571 68.1591C116.109 68.1591 116.617 68.2462 117.094 68.4205C117.575 68.5909 117.999 68.8561 118.367 69.2159C118.738 69.5758 119.029 70.0341 119.242 70.5909C119.454 71.1439 119.56 71.803 119.56 72.5682V73.1989H112.406V71.8125H117.588C117.584 71.4186 117.499 71.0682 117.332 70.7614C117.166 70.4508 116.933 70.2064 116.634 70.0284C116.338 69.8504 115.993 69.7614 115.6 69.7614C115.179 69.7614 114.81 69.8636 114.492 70.0682C114.173 70.2689 113.925 70.5341 113.747 70.8636C113.573 71.1894 113.484 71.5473 113.48 71.9375V73.1477C113.48 73.6553 113.573 74.0909 113.759 74.4545C113.944 74.8144 114.204 75.0909 114.537 75.2841C114.87 75.4735 115.261 75.5682 115.707 75.5682C116.007 75.5682 116.278 75.5265 116.52 75.4432C116.762 75.3561 116.973 75.2292 117.151 75.0625C117.329 74.8958 117.463 74.6894 117.554 74.4432L119.475 74.6591C119.353 75.1667 119.122 75.6098 118.781 75.9886C118.444 76.3636 118.012 76.6553 117.486 76.8636C116.959 77.0682 116.357 77.1705 115.679 77.1705ZM134.106 65.3636V77H132.231L126.748 69.0739H126.651V77H124.543V65.3636H126.43L131.907 73.2955H132.009V65.3636H134.106ZM139.768 77.1705C138.893 77.1705 138.137 76.9886 137.501 76.625C136.868 76.2576 136.381 75.7386 136.04 75.0682C135.699 74.3939 135.529 73.6004 135.529 72.6875C135.529 71.7898 135.699 71.0019 136.04 70.3239C136.385 69.642 136.866 69.1117 137.483 68.733C138.101 68.3504 138.826 68.1591 139.66 68.1591C140.198 68.1591 140.705 68.2462 141.182 68.4205C141.663 68.5909 142.088 68.8561 142.455 69.2159C142.826 69.5758 143.118 70.0341 143.33 70.5909C143.542 71.1439 143.648 71.803 143.648 72.5682V73.1989H136.495V71.8125H141.677C141.673 71.4186 141.588 71.0682 141.421 70.7614C141.254 70.4508 141.021 70.2064 140.722 70.0284C140.427 69.8504 140.082 69.7614 139.688 69.7614C139.268 69.7614 138.898 69.8636 138.58 70.0682C138.262 70.2689 138.014 70.5341 137.836 70.8636C137.662 71.1894 137.573 71.5473 137.569 71.9375V73.1477C137.569 73.6553 137.662 74.0909 137.847 74.4545C138.033 74.8144 138.292 75.0909 138.626 75.2841C138.959 75.4735 139.349 75.5682 139.796 75.5682C140.095 75.5682 140.366 75.5265 140.608 75.4432C140.851 75.3561 141.061 75.2292 141.239 75.0625C141.417 74.8958 141.552 74.6894 141.643 74.4432L143.563 74.6591C143.442 75.1667 143.211 75.6098 142.87 75.9886C142.533 76.3636 142.101 76.6553 141.574 76.8636C141.048 77.0682 140.446 77.1705 139.768 77.1705ZM144.98 77V68.2727H147.037V77H144.98ZM146.014 67.0341C145.689 67.0341 145.408 66.9261 145.174 66.7102C144.939 66.4905 144.821 66.2273 144.821 65.9205C144.821 65.6098 144.939 65.3466 145.174 65.1307C145.408 64.911 145.689 64.8011 146.014 64.8011C146.344 64.8011 146.624 64.911 146.855 65.1307C147.09 65.3466 147.208 65.6098 147.208 65.9205C147.208 66.2273 147.09 66.4905 146.855 66.7102C146.624 66.9261 146.344 67.0341 146.014 67.0341ZM152.54 80.4545C151.801 80.4545 151.167 80.3542 150.636 80.1534C150.106 79.9564 149.68 79.6913 149.358 79.358C149.036 79.0246 148.812 78.6553 148.687 78.25L150.54 77.8011C150.623 77.9716 150.744 78.1402 150.903 78.3068C151.062 78.4773 151.276 78.6174 151.545 78.7273C151.818 78.8409 152.161 78.8977 152.574 78.8977C153.157 78.8977 153.64 78.7557 154.023 78.4716C154.405 78.1913 154.596 77.7292 154.596 77.0852V75.4318H154.494C154.388 75.6439 154.233 75.8617 154.028 76.0852C153.828 76.3087 153.56 76.4962 153.227 76.6477C152.898 76.7992 152.483 76.875 151.983 76.875C151.312 76.875 150.704 76.7178 150.159 76.4034C149.617 76.0852 149.185 75.6117 148.864 74.983C148.545 74.3504 148.386 73.5587 148.386 72.608C148.386 71.6496 148.545 70.8409 148.864 70.1818C149.185 69.5189 149.619 69.017 150.165 68.6761C150.71 68.3314 151.318 68.1591 151.989 68.1591C152.5 68.1591 152.92 68.2462 153.25 68.4205C153.583 68.5909 153.848 68.7973 154.045 69.0398C154.242 69.2784 154.392 69.5038 154.494 69.7159H154.608V68.2727H156.636V77.142C156.636 77.8883 156.458 78.5057 156.102 78.9943C155.746 79.483 155.259 79.8485 154.642 80.0909C154.024 80.3333 153.324 80.4545 152.54 80.4545ZM152.557 75.2614C152.992 75.2614 153.364 75.1553 153.67 74.9432C153.977 74.7311 154.21 74.4261 154.369 74.0284C154.528 73.6307 154.608 73.1534 154.608 72.5966C154.608 72.0473 154.528 71.5663 154.369 71.1534C154.214 70.7405 153.983 70.4205 153.676 70.1932C153.373 69.9621 153 69.8466 152.557 69.8466C152.098 69.8466 151.716 69.9659 151.409 70.2045C151.102 70.4432 150.871 70.7708 150.716 71.1875C150.56 71.6004 150.483 72.0701 150.483 72.5966C150.483 73.1307 150.56 73.5985 150.716 74C150.875 74.3977 151.108 74.7083 151.415 74.9318C151.725 75.1515 152.106 75.2614 152.557 75.2614ZM160.393 71.8864V77H158.336V65.3636H160.348V69.7557H160.45C160.654 69.2633 160.971 68.875 161.399 68.5909C161.831 68.303 162.38 68.1591 163.046 68.1591C163.652 68.1591 164.181 68.286 164.632 68.5398C165.082 68.7936 165.431 69.1648 165.677 69.6534C165.927 70.142 166.052 70.7386 166.052 71.4432V77H163.995V71.7614C163.995 71.1742 163.844 70.7178 163.541 70.392C163.241 70.0625 162.821 69.8977 162.279 69.8977C161.916 69.8977 161.59 69.9773 161.302 70.1364C161.018 70.2917 160.795 70.517 160.632 70.8125C160.473 71.108 160.393 71.4659 160.393 71.8864ZM167.832 77V65.3636H169.888V69.7159H169.974C170.08 69.5038 170.229 69.2784 170.423 69.0398C170.616 68.7973 170.877 68.5909 171.207 68.4205C171.536 68.2462 171.957 68.1591 172.468 68.1591C173.142 68.1591 173.75 68.3314 174.292 68.6761C174.837 69.017 175.269 69.5227 175.587 70.1932C175.909 70.8598 176.07 71.678 176.07 72.6477C176.07 73.6061 175.913 74.4205 175.599 75.0909C175.284 75.7614 174.856 76.2727 174.315 76.625C173.773 76.9773 173.159 77.1534 172.474 77.1534C171.974 77.1534 171.559 77.0701 171.229 76.9034C170.9 76.7367 170.635 76.536 170.434 76.3011C170.237 76.0625 170.083 75.8371 169.974 75.625H169.854V77H167.832ZM169.849 72.6364C169.849 73.2008 169.928 73.6951 170.087 74.1193C170.25 74.5436 170.483 74.875 170.786 75.1136C171.093 75.3485 171.464 75.4659 171.9 75.4659C172.354 75.4659 172.735 75.3447 173.042 75.1023C173.349 74.8561 173.58 74.5208 173.735 74.0966C173.894 73.6686 173.974 73.1818 173.974 72.6364C173.974 72.0947 173.896 71.6136 173.741 71.1932C173.585 70.7727 173.354 70.4432 173.048 70.2045C172.741 69.9659 172.358 69.8466 171.9 69.8466C171.46 69.8466 171.087 69.9621 170.78 70.1932C170.474 70.4242 170.241 70.7481 170.082 71.1648C169.926 71.5814 169.849 72.072 169.849 72.6364ZM181.218 77.1705C180.365 77.1705 179.627 76.983 179.002 76.608C178.377 76.233 177.892 75.7083 177.547 75.0341C177.206 74.3598 177.036 73.572 177.036 72.6705C177.036 71.7689 177.206 70.9792 177.547 70.3011C177.892 69.6231 178.377 69.0966 179.002 68.7216C179.627 68.3466 180.365 68.1591 181.218 68.1591C182.07 68.1591 182.809 68.3466 183.434 68.7216C184.059 69.0966 184.542 69.6231 184.882 70.3011C185.227 70.9792 185.399 71.7689 185.399 72.6705C185.399 73.572 185.227 74.3598 184.882 75.0341C184.542 75.7083 184.059 76.233 183.434 76.608C182.809 76.983 182.07 77.1705 181.218 77.1705ZM181.229 75.5227C181.691 75.5227 182.077 75.3958 182.388 75.142C182.699 74.8845 182.93 74.5398 183.081 74.108C183.237 73.6761 183.314 73.1951 183.314 72.6648C183.314 72.1307 183.237 71.6477 183.081 71.2159C182.93 70.7803 182.699 70.4337 182.388 70.1761C182.077 69.9186 181.691 69.7898 181.229 69.7898C180.756 69.7898 180.362 69.9186 180.047 70.1761C179.737 70.4337 179.504 70.7803 179.348 71.2159C179.197 71.6477 179.121 72.1307 179.121 72.6648C179.121 73.1951 179.197 73.6761 179.348 74.108C179.504 74.5398 179.737 74.8845 180.047 75.142C180.362 75.3958 180.756 75.5227 181.229 75.5227ZM186.737 77V68.2727H188.732V69.7273H188.822C188.982 69.2235 189.254 68.8352 189.641 68.5625C190.031 68.286 190.476 68.1477 190.976 68.1477C191.089 68.1477 191.216 68.1534 191.357 68.1648C191.5 68.1723 191.62 68.1856 191.714 68.2045V70.0966C191.627 70.0663 191.489 70.0398 191.3 70.017C191.114 69.9905 190.934 69.9773 190.76 69.9773C190.385 69.9773 190.048 70.0587 189.749 70.2216C189.453 70.3807 189.22 70.6023 189.05 70.8864C188.879 71.1705 188.794 71.4981 188.794 71.8693V77H186.737ZM199.571 70.5795L197.696 70.7841C197.643 70.5947 197.55 70.4167 197.417 70.25C197.288 70.0833 197.114 69.9489 196.895 69.8466C196.675 69.7443 196.406 69.6932 196.088 69.6932C195.66 69.6932 195.3 69.786 195.008 69.9716C194.72 70.1572 194.578 70.3977 194.582 70.6932C194.578 70.947 194.671 71.1534 194.86 71.3125C195.054 71.4716 195.372 71.6023 195.815 71.7045L197.304 72.0227C198.129 72.2008 198.743 72.483 199.145 72.8693C199.55 73.2557 199.754 73.7614 199.758 74.3864C199.754 74.9356 199.593 75.4205 199.275 75.8409C198.961 76.2576 198.523 76.5833 197.963 76.8182C197.402 77.053 196.758 77.1705 196.031 77.1705C194.963 77.1705 194.103 76.947 193.451 76.5C192.8 76.0492 192.412 75.4223 192.287 74.6193L194.292 74.4261C194.383 74.8201 194.576 75.1174 194.872 75.3182C195.167 75.5189 195.552 75.6193 196.025 75.6193C196.514 75.6193 196.906 75.5189 197.201 75.3182C197.501 75.1174 197.65 74.8693 197.65 74.5739C197.65 74.3239 197.554 74.1174 197.36 73.9545C197.171 73.7917 196.876 73.6667 196.474 73.5795L194.985 73.267C194.148 73.0928 193.529 72.7992 193.127 72.3864C192.726 71.9697 192.527 71.4432 192.531 70.8068C192.527 70.2689 192.673 69.803 192.968 69.4091C193.268 69.0114 193.682 68.7045 194.213 68.4886C194.747 68.2689 195.362 68.1591 196.059 68.1591C197.082 68.1591 197.887 68.3769 198.474 68.8125C199.065 69.2481 199.431 69.8371 199.571 70.5795ZM204.698 77V65.3636H206.806V70.2898H212.198V65.3636H214.311V77H212.198V72.0568H206.806V77H204.698ZM219.969 77.1705C219.094 77.1705 218.338 76.9886 217.702 76.625C217.069 76.2576 216.582 75.7386 216.242 75.0682C215.901 74.3939 215.73 73.6004 215.73 72.6875C215.73 71.7898 215.901 71.0019 216.242 70.3239C216.586 69.642 217.067 69.1117 217.685 68.733C218.302 68.3504 219.028 68.1591 219.861 68.1591C220.399 68.1591 220.906 68.2462 221.384 68.4205C221.865 68.5909 222.289 68.8561 222.656 69.2159C223.028 69.5758 223.319 70.0341 223.531 70.5909C223.743 71.1439 223.85 71.803 223.85 72.5682V73.1989H216.696V71.8125H221.878C221.874 71.4186 221.789 71.0682 221.622 70.7614C221.456 70.4508 221.223 70.2064 220.923 70.0284C220.628 69.8504 220.283 69.7614 219.889 69.7614C219.469 69.7614 219.1 69.8636 218.781 70.0682C218.463 70.2689 218.215 70.5341 218.037 70.8636C217.863 71.1894 217.774 71.5473 217.77 71.9375V73.1477C217.77 73.6553 217.863 74.0909 218.048 74.4545C218.234 74.8144 218.493 75.0909 218.827 75.2841C219.16 75.4735 219.55 75.5682 219.997 75.5682C220.296 75.5682 220.567 75.5265 220.81 75.4432C221.052 75.3561 221.262 75.2292 221.44 75.0625C221.618 74.8958 221.753 74.6894 221.844 74.4432L223.764 74.6591C223.643 75.1667 223.412 75.6098 223.071 75.9886C222.734 76.3636 222.302 76.6553 221.776 76.8636C221.249 77.0682 220.647 77.1705 219.969 77.1705ZM227.238 65.3636V77H225.182V65.3636H227.238ZM228.945 80.2727V68.2727H230.968V69.7159H231.087C231.194 69.5038 231.343 69.2784 231.536 69.0398C231.73 68.7973 231.991 68.5909 232.32 68.4205C232.65 68.2462 233.07 68.1591 233.582 68.1591C234.256 68.1591 234.864 68.3314 235.406 68.6761C235.951 69.017 236.383 69.5227 236.701 70.1932C237.023 70.8598 237.184 71.678 237.184 72.6477C237.184 73.6061 237.027 74.4205 236.712 75.0909C236.398 75.7614 235.97 76.2727 235.428 76.625C234.887 76.9773 234.273 77.1534 233.587 77.1534C233.087 77.1534 232.673 77.0701 232.343 76.9034C232.014 76.7367 231.748 76.536 231.548 76.3011C231.351 76.0625 231.197 75.8371 231.087 75.625H231.002V80.2727H228.945ZM230.962 72.6364C230.962 73.2008 231.042 73.6951 231.201 74.1193C231.364 74.5436 231.597 74.875 231.9 75.1136C232.207 75.3485 232.578 75.4659 233.014 75.4659C233.468 75.4659 233.849 75.3447 234.156 75.1023C234.462 74.8561 234.694 74.5208 234.849 74.0966C235.008 73.6686 235.087 73.1818 235.087 72.6364C235.087 72.0947 235.01 71.6136 234.855 71.1932C234.699 70.7727 234.468 70.4432 234.161 70.2045C233.855 69.9659 233.472 69.8466 233.014 69.8466C232.574 69.8466 232.201 69.9621 231.894 70.1932C231.587 70.4242 231.355 70.7481 231.195 71.1648C231.04 71.5814 230.962 72.072 230.962 72.6364ZM251.752 65.3636V77H249.877L244.394 69.0739H244.297V77H242.189V65.3636H244.075L249.553 73.2955H249.655V65.3636H251.752ZM257.413 77.1705C256.538 77.1705 255.783 76.9886 255.146 76.625C254.514 76.2576 254.027 75.7386 253.686 75.0682C253.345 74.3939 253.175 73.6004 253.175 72.6875C253.175 71.7898 253.345 71.0019 253.686 70.3239C254.031 69.642 254.512 69.1117 255.129 68.733C255.747 68.3504 256.472 68.1591 257.305 68.1591C257.843 68.1591 258.351 68.2462 258.828 68.4205C259.309 68.5909 259.733 68.8561 260.101 69.2159C260.472 69.5758 260.764 70.0341 260.976 70.5909C261.188 71.1439 261.294 71.803 261.294 72.5682V73.1989H254.14V71.8125H259.322C259.319 71.4186 259.233 71.0682 259.067 70.7614C258.9 70.4508 258.667 70.2064 258.368 70.0284C258.072 69.8504 257.728 69.7614 257.334 69.7614C256.913 69.7614 256.544 69.8636 256.226 70.0682C255.908 70.2689 255.659 70.5341 255.481 70.8636C255.307 71.1894 255.218 71.5473 255.214 71.9375V73.1477C255.214 73.6553 255.307 74.0909 255.493 74.4545C255.678 74.8144 255.938 75.0909 256.271 75.2841C256.604 75.4735 256.995 75.5682 257.442 75.5682C257.741 75.5682 258.012 75.5265 258.254 75.4432C258.497 75.3561 258.707 75.2292 258.885 75.0625C259.063 74.8958 259.197 74.6894 259.288 74.4432L261.209 74.6591C261.087 75.1667 260.856 75.6098 260.515 75.9886C260.178 76.3636 259.747 76.6553 259.22 76.8636C258.694 77.0682 258.091 77.1705 257.413 77.1705ZM262.626 77V68.2727H264.683V77H262.626ZM263.66 67.0341C263.334 67.0341 263.054 66.9261 262.819 66.7102C262.584 66.4905 262.467 66.2273 262.467 65.9205C262.467 65.6098 262.584 65.3466 262.819 65.1307C263.054 64.911 263.334 64.8011 263.66 64.8011C263.99 64.8011 264.27 64.911 264.501 65.1307C264.736 65.3466 264.853 65.6098 264.853 65.9205C264.853 66.2273 264.736 66.4905 264.501 66.7102C264.27 66.9261 263.99 67.0341 263.66 67.0341ZM270.185 80.4545C269.447 80.4545 268.812 80.3542 268.282 80.1534C267.752 79.9564 267.325 79.6913 267.003 79.358C266.681 79.0246 266.458 78.6553 266.333 78.25L268.185 77.8011C268.269 77.9716 268.39 78.1402 268.549 78.3068C268.708 78.4773 268.922 78.6174 269.191 78.7273C269.464 78.8409 269.806 78.8977 270.219 78.8977C270.803 78.8977 271.286 78.7557 271.668 78.4716C272.051 78.1913 272.242 77.7292 272.242 77.0852V75.4318H272.14C272.034 75.6439 271.878 75.8617 271.674 76.0852C271.473 76.3087 271.206 76.4962 270.873 76.6477C270.543 76.7992 270.128 76.875 269.628 76.875C268.958 76.875 268.35 76.7178 267.805 76.4034C267.263 76.0852 266.831 75.6117 266.509 74.983C266.191 74.3504 266.032 73.5587 266.032 72.608C266.032 71.6496 266.191 70.8409 266.509 70.1818C266.831 69.5189 267.265 69.017 267.81 68.6761C268.356 68.3314 268.964 68.1591 269.634 68.1591C270.146 68.1591 270.566 68.2462 270.896 68.4205C271.229 68.5909 271.494 68.7973 271.691 69.0398C271.888 69.2784 272.038 69.5038 272.14 69.7159H272.253V68.2727H274.282V77.142C274.282 77.8883 274.104 78.5057 273.748 78.9943C273.392 79.483 272.905 79.8485 272.288 80.0909C271.67 80.3333 270.969 80.4545 270.185 80.4545ZM270.202 75.2614C270.638 75.2614 271.009 75.1553 271.316 74.9432C271.623 74.7311 271.856 74.4261 272.015 74.0284C272.174 73.6307 272.253 73.1534 272.253 72.5966C272.253 72.0473 272.174 71.5663 272.015 71.1534C271.86 70.7405 271.628 70.4205 271.322 70.1932C271.019 69.9621 270.646 69.8466 270.202 69.8466C269.744 69.8466 269.361 69.9659 269.055 70.2045C268.748 70.4432 268.517 70.7708 268.361 71.1875C268.206 71.6004 268.128 72.0701 268.128 72.5966C268.128 73.1307 268.206 73.5985 268.361 74C268.521 74.3977 268.753 74.7083 269.06 74.9318C269.371 75.1515 269.752 75.2614 270.202 75.2614ZM278.039 71.8864V77H275.982V65.3636H277.993V69.7557H278.095C278.3 69.2633 278.616 68.875 279.044 68.5909C279.476 68.303 280.025 68.1591 280.692 68.1591C281.298 68.1591 281.827 68.286 282.277 68.5398C282.728 68.7936 283.077 69.1648 283.323 69.6534C283.573 70.142 283.698 70.7386 283.698 71.4432V77H281.641V71.7614C281.641 71.1742 281.489 70.7178 281.186 70.392C280.887 70.0625 280.467 69.8977 279.925 69.8977C279.561 69.8977 279.236 69.9773 278.948 70.1364C278.664 70.2917 278.44 70.517 278.277 70.8125C278.118 71.108 278.039 71.4659 278.039 71.8864ZM285.477 77V65.3636H287.534V69.7159H287.619C287.725 69.5038 287.875 69.2784 288.068 69.0398C288.261 68.7973 288.523 68.5909 288.852 68.4205C289.182 68.2462 289.602 68.1591 290.114 68.1591C290.788 68.1591 291.396 68.3314 291.937 68.6761C292.483 69.017 292.915 69.5227 293.233 70.1932C293.555 70.8598 293.716 71.678 293.716 72.6477C293.716 73.6061 293.559 74.4205 293.244 75.0909C292.93 75.7614 292.502 76.2727 291.96 76.625C291.419 76.9773 290.805 77.1534 290.119 77.1534C289.619 77.1534 289.204 77.0701 288.875 76.9034C288.545 76.7367 288.28 76.536 288.079 76.3011C287.883 76.0625 287.729 75.8371 287.619 75.625H287.5V77H285.477ZM287.494 72.6364C287.494 73.2008 287.574 73.6951 287.733 74.1193C287.896 74.5436 288.129 74.875 288.432 75.1136C288.739 75.3485 289.11 75.4659 289.545 75.4659C290 75.4659 290.381 75.3447 290.687 75.1023C290.994 74.8561 291.225 74.5208 291.381 74.0966C291.54 73.6686 291.619 73.1818 291.619 72.6364C291.619 72.0947 291.542 71.6136 291.386 71.1932C291.231 70.7727 291 70.4432 290.693 70.2045C290.386 69.9659 290.004 69.8466 289.545 69.8466C289.106 69.8466 288.733 69.9621 288.426 70.1932C288.119 70.4242 287.886 70.7481 287.727 71.1648C287.572 71.5814 287.494 72.072 287.494 72.6364ZM298.863 77.1705C298.011 77.1705 297.272 76.983 296.647 76.608C296.022 76.233 295.537 75.7083 295.193 75.0341C294.852 74.3598 294.681 73.572 294.681 72.6705C294.681 71.7689 294.852 70.9792 295.193 70.3011C295.537 69.6231 296.022 69.0966 296.647 68.7216C297.272 68.3466 298.011 68.1591 298.863 68.1591C299.716 68.1591 300.454 68.3466 301.079 68.7216C301.704 69.0966 302.187 69.6231 302.528 70.3011C302.873 70.9792 303.045 71.7689 303.045 72.6705C303.045 73.572 302.873 74.3598 302.528 75.0341C302.187 75.7083 301.704 76.233 301.079 76.608C300.454 76.983 299.716 77.1705 298.863 77.1705ZM298.875 75.5227C299.337 75.5227 299.723 75.3958 300.034 75.142C300.344 74.8845 300.575 74.5398 300.727 74.108C300.882 73.6761 300.96 73.1951 300.96 72.6648C300.96 72.1307 300.882 71.6477 300.727 71.2159C300.575 70.7803 300.344 70.4337 300.034 70.1761C299.723 69.9186 299.337 69.7898 298.875 69.7898C298.401 69.7898 298.007 69.9186 297.693 70.1761C297.382 70.4337 297.149 70.7803 296.994 71.2159C296.842 71.6477 296.767 72.1307 296.767 72.6648C296.767 73.1951 296.842 73.6761 296.994 74.108C297.149 74.5398 297.382 74.8845 297.693 75.142C298.007 75.3958 298.401 75.5227 298.875 75.5227ZM304.383 77V68.2727H306.377V69.7273H306.468C306.627 69.2235 306.9 68.8352 307.286 68.5625C307.676 68.286 308.121 68.1477 308.621 68.1477C308.735 68.1477 308.862 68.1534 309.002 68.1648C309.146 68.1723 309.265 68.1856 309.36 68.2045V70.0966C309.273 70.0663 309.135 70.0398 308.945 70.017C308.76 69.9905 308.58 69.9773 308.406 69.9773C308.031 69.9773 307.693 70.0587 307.394 70.2216C307.099 70.3807 306.866 70.6023 306.695 70.8864C306.525 71.1705 306.44 71.4981 306.44 71.8693V77H304.383ZM317.216 70.5795L315.341 70.7841C315.288 70.5947 315.195 70.4167 315.063 70.25C314.934 70.0833 314.76 69.9489 314.54 69.8466C314.32 69.7443 314.052 69.6932 313.733 69.6932C313.305 69.6932 312.945 69.786 312.654 69.9716C312.366 70.1572 312.224 70.3977 312.228 70.6932C312.224 70.947 312.317 71.1534 312.506 71.3125C312.699 71.4716 313.017 71.6023 313.461 71.7045L314.949 72.0227C315.775 72.2008 316.389 72.483 316.79 72.8693C317.195 73.2557 317.4 73.7614 317.404 74.3864C317.4 74.9356 317.239 75.4205 316.921 75.8409C316.606 76.2576 316.169 76.5833 315.608 76.8182C315.048 77.053 314.404 77.1705 313.677 77.1705C312.608 77.1705 311.748 76.947 311.097 76.5C310.445 76.0492 310.057 75.4223 309.932 74.6193L311.938 74.4261C312.029 74.8201 312.222 75.1174 312.517 75.3182C312.813 75.5189 313.197 75.6193 313.671 75.6193C314.159 75.6193 314.552 75.5189 314.847 75.3182C315.146 75.1174 315.296 74.8693 315.296 74.5739C315.296 74.3239 315.199 74.1174 315.006 73.9545C314.817 73.7917 314.521 73.6667 314.12 73.5795L312.631 73.267C311.794 73.0928 311.175 72.7992 310.773 72.3864C310.372 71.9697 310.173 71.4432 310.177 70.8068C310.173 70.2689 310.319 69.803 310.614 69.4091C310.913 69.0114 311.328 68.7045 311.858 68.4886C312.392 68.2689 313.008 68.1591 313.705 68.1591C314.728 68.1591 315.533 68.3769 316.12 68.8125C316.711 69.2481 317.076 69.8371 317.216 70.5795Z" fill="white"/>
<defs>
<linearGradient id="paint0_linear_3485_7788" x1="124.89" y1="54.2573" x2="145.979" y2="53.5764" gradientUnits="userSpaceOnUse">
<stop stop-color="#AEAFAF"/>
<stop offset="1" stop-color="white" stop-opacity="0"/>
</linearGradient>
<linearGradient id="paint1_linear_3485_7788" x1="89.5403" y1="38.6349" x2="124.694" y2="19.5805" gradientUnits="userSpaceOnUse">
<stop stop-color="#007FFD"/>
<stop offset="1" stop-color="#00BCFF"/>
</linearGradient>
<linearGradient id="paint2_linear_3485_7788" x1="117.657" y1="42.062" x2="136.005" y2="23.5025" gradientUnits="userSpaceOnUse">
<stop stop-color="#007FFD"/>
<stop offset="1" stop-color="#00BCFF"/>
</linearGradient>
<linearGradient id="paint3_linear_3485_7788" x1="109.58" y1="16.5063" x2="115.689" y2="16.5063" gradientUnits="userSpaceOnUse">
<stop stop-color="#007FFD"/>
<stop offset="1" stop-color="#00BCFF"/>
</linearGradient>
<linearGradient id="paint4_linear_3485_7788" x1="96.9696" y1="42.8722" x2="103.966" y2="42.6461" gradientUnits="userSpaceOnUse">
<stop stop-color="#007FFD"/>
<stop offset="1" stop-color="#00BCFF"/>
</linearGradient>
<linearGradient id="paint5_linear_3485_7788" x1="96.9764" y1="43.0826" x2="103.973" y2="42.8565" gradientUnits="userSpaceOnUse">
<stop stop-color="#007FFD"/>
<stop offset="1" stop-color="#00BCFF"/>
</linearGradient>
<linearGradient id="paint6_linear_3485_7788" x1="97.1129" y1="47.3161" x2="104.11" y2="47.09" gradientUnits="userSpaceOnUse">
<stop stop-color="#007FFD"/>
<stop offset="1" stop-color="#00BCFF"/>
</linearGradient>
<linearGradient id="paint7_linear_3485_7788" x1="97.1251" y1="47.711" x2="104.122" y2="47.4849" gradientUnits="userSpaceOnUse">
<stop stop-color="#007FFD"/>
<stop offset="1" stop-color="#00BCFF"/>
</linearGradient>
<clipPath id="clip0_3485_7788">
<rect width="56" height="44" fill="white" transform="translate(90 13)"/>
</clipPath>
</defs>
</svg>
