<svg xmlns="http://www.w3.org/2000/svg" width="16" height="10" viewBox="0 0 16 10" fill="none">
  <path fill-rule="evenodd" clip-rule="evenodd" d="M6.9401 0.940112C7.22135 0.659211 7.6026 0.501431 8.0001 0.501431C8.3976 0.501431 8.77885 0.659211 9.0601 0.940112L14.7181 6.59611C14.9994 6.87751 15.1573 7.25911 15.1572 7.65696C15.1571 8.05482 14.999 8.43635 14.7176 8.71761C14.4362 8.99887 14.0546 9.15683 13.6567 9.15674C13.2589 9.15664 12.8774 8.99851 12.5961 8.71711L8.0001 4.12111L3.4041 8.71711C3.12132 8.99049 2.74249 9.14186 2.34919 9.13863C1.9559 9.1354 1.5796 8.97782 1.30136 8.69984C1.02311 8.42186 0.86518 8.04571 0.861578 7.65242C0.857976 7.25912 1.00899 6.88014 1.2821 6.59711L6.9391 0.939111L6.9401 0.940112Z" fill="#0196FB"/>
</svg>