<svg width="20" height="20" viewBox="0 0 20 20" fill="none" xmlns="http://www.w3.org/2000/svg">
<path d="M8.74981 6.66675H11.2498M5.63315 18.3334H14.3665C16.6665 18.3334 17.5831 16.9251 17.6915 15.2084L18.1248 8.32508C18.1518 7.89827 18.091 7.47046 17.9461 7.06809C17.8013 6.66572 17.5754 6.29733 17.2825 5.9857C16.9896 5.67408 16.6359 5.42583 16.2433 5.2563C15.8507 5.08677 15.4275 4.99957 14.9998 5.00008C14.4915 5.00008 14.0248 4.70841 13.7915 4.25841L13.1915 3.05008C12.8081 2.29175 11.8081 1.66675 10.9581 1.66675H9.04981C8.19148 1.66675 7.19148 2.29175 6.80815 3.05008L6.20815 4.25841C5.97481 4.70841 5.50815 5.00008 4.99981 5.00008C3.19148 5.00008 1.75815 6.52508 1.87481 8.32508L2.30815 15.2084C2.40815 16.9251 3.33315 18.3334 5.63315 18.3334Z" stroke="#2D4C65" stroke-width="1.5" stroke-linecap="round" stroke-linejoin="round"/>
<path d="M9.99984 14.9999C11.4915 14.9999 12.7082 13.7833 12.7082 12.2916C12.7082 10.7999 11.4915 9.58325 9.99984 9.58325C8.50817 9.58325 7.2915 10.7999 7.2915 12.2916C7.2915 13.7833 8.50817 14.9999 9.99984 14.9999Z" stroke="#2D4C65" stroke-width="1.5" stroke-linecap="round" stroke-linejoin="round"/>
</svg>
