<svg width="44" height="44" viewBox="0 0 44 44" fill="none" xmlns="http://www.w3.org/2000/svg">
<g filter="url(#filter0_b_742_1779)">
<circle cx="22" cy="22" r="22" fill="#0196FB" fill-opacity="0.1"/>
</g>
<path d="M12 22.0002C12.0005 19.8078 12.7215 17.6763 14.052 15.9338C15.3825 14.1912 17.2488 12.9342 19.3636 12.3562C21.4784 11.7782 23.7246 11.9112 25.7565 12.7348C27.7883 13.5584 29.4932 15.0268 30.6087 16.9142C31.7243 18.8016 32.1886 21.0033 31.9304 23.1804C31.6721 25.3576 30.7056 27.3895 29.1794 28.9635C27.6533 30.5375 25.6521 31.5664 23.484 31.8917C21.3159 32.2171 19.1009 31.8209 17.18 30.7642L13.292 31.9482C13.1186 32.001 12.9341 32.0057 12.7582 31.9617C12.5823 31.9178 12.4217 31.8269 12.2935 31.6987C12.1653 31.5705 12.0744 31.4098 12.0304 31.234C11.9865 31.0581 11.9912 30.8736 12.044 30.7002L13.228 26.8062C12.4199 25.3334 11.9975 23.6801 12 22.0002ZM18 21.0002C18 21.2654 18.1054 21.5197 18.2929 21.7073C18.4804 21.8948 18.7348 22.0002 19 22.0002H25C25.2652 22.0002 25.5196 21.8948 25.7071 21.7073C25.8947 21.5197 26 21.2654 26 21.0002C26 20.7349 25.8947 20.4806 25.7071 20.293C25.5196 20.1055 25.2652 20.0002 25 20.0002H19C18.7348 20.0002 18.4804 20.1055 18.2929 20.293C18.1054 20.4806 18 20.7349 18 21.0002ZM19 24.0002C18.7348 24.0002 18.4804 24.1055 18.2929 24.293C18.1054 24.4806 18 24.7349 18 25.0002C18 25.2654 18.1054 25.5197 18.2929 25.7073C18.4804 25.8948 18.7348 26.0002 19 26.0002H23C23.2652 26.0002 23.5196 25.8948 23.7071 25.7073C23.8947 25.5197 24 25.2654 24 25.0002C24 24.7349 23.8947 24.4806 23.7071 24.293C23.5196 24.1055 23.2652 24.0002 23 24.0002H19Z" fill="#0196FB"/>
<defs>
<filter id="filter0_b_742_1779" x="-8" y="-8" width="60" height="60" filterUnits="userSpaceOnUse" color-interpolation-filters="sRGB">
<feFlood flood-opacity="0" result="BackgroundImageFix"/>
<feGaussianBlur in="BackgroundImageFix" stdDeviation="4"/>
<feComposite in2="SourceAlpha" operator="in" result="effect1_backgroundBlur_742_1779"/>
<feBlend mode="normal" in="SourceGraphic" in2="effect1_backgroundBlur_742_1779" result="shape"/>
</filter>
</defs>
</svg>
