<svg width="70" height="70" viewBox="0 0 70 70" fill="none" xmlns="http://www.w3.org/2000/svg">
    <circle cx="35" cy="35" r="35" fill="#1E1E1E" />
    <g filter="url(#filter0_b_2873_6470)">
        <circle cx="35" cy="35" r="35" fill="url(#paint0_linear_2873_6470)" />
        <circle cx="35" cy="35" r="34.5" stroke="#1E1E1E" />
    </g>
    <path
        d="M50.5 19L34.4234 37.445L27.8206 30.8421M27.1746 37.5167L20.5 30.8421M43.1794 19L34.0646 29.4785"
        stroke="white" stroke-width="2" stroke-miterlimit="10" stroke-linecap="square" />
    <path
        d="M16.9595 45.7363H15.7152C15.6925 45.5753 15.6461 45.4324 15.576 45.3074C15.5059 45.1805 15.416 45.0725 15.3061 44.9835C15.1963 44.8945 15.0694 44.8263 14.9254 44.7789C14.7834 44.7316 14.629 44.7079 14.4624 44.7079C14.1612 44.7079 13.8989 44.7827 13.6754 44.9324C13.4519 45.0801 13.2786 45.296 13.1555 45.5801C13.0324 45.8623 12.9709 46.2051 12.9709 46.6085C12.9709 47.0233 13.0324 47.3717 13.1555 47.6539C13.2805 47.9361 13.4548 48.1492 13.6783 48.2931C13.9018 48.4371 14.1603 48.5091 14.4538 48.5091C14.6186 48.5091 14.7711 48.4873 14.9112 48.4437C15.0533 48.4002 15.1792 48.3367 15.2891 48.2534C15.3989 48.1681 15.4898 48.0649 15.5618 47.9437C15.6357 47.8225 15.6868 47.6842 15.7152 47.5289L16.9595 47.5346C16.9273 47.8017 16.8468 48.0592 16.718 48.3074C16.5911 48.5536 16.4197 48.7742 16.2038 48.9693C15.9898 49.1625 15.7341 49.3159 15.4368 49.4295C15.1413 49.5413 14.8071 49.5971 14.4339 49.5971C13.915 49.5971 13.451 49.4797 13.0419 49.2449C12.6347 49.01 12.3127 48.67 12.076 48.225C11.8411 47.7799 11.7237 47.2411 11.7237 46.6085C11.7237 45.974 11.843 45.4342 12.0817 44.9892C12.3203 44.5441 12.6442 44.2051 13.0533 43.9721C13.4624 43.7373 13.9226 43.6199 14.4339 43.6199C14.7711 43.6199 15.0836 43.6672 15.3714 43.7619C15.6612 43.8566 15.9179 43.9949 16.1413 44.1767C16.3648 44.3566 16.5466 44.5772 16.6868 44.8386C16.8288 45.1 16.9197 45.3992 16.9595 45.7363ZM19.0291 43.6994V49.5176H17.8189V43.6994H19.0291ZM21.9702 49.6028C21.5289 49.6028 21.1473 49.5091 20.8253 49.3216C20.5052 49.1322 20.258 48.8689 20.0838 48.5318C19.9096 48.1928 19.8224 47.7998 19.8224 47.3528C19.8224 46.902 19.9096 46.5081 20.0838 46.171C20.258 45.832 20.5052 45.5687 20.8253 45.3812C21.1473 45.1918 21.5289 45.0971 21.9702 45.0971C22.4115 45.0971 22.7921 45.1918 23.1122 45.3812C23.4342 45.5687 23.6823 45.832 23.8565 46.171C24.0308 46.5081 24.1179 46.902 24.1179 47.3528C24.1179 47.7998 24.0308 48.1928 23.8565 48.5318C23.6823 48.8689 23.4342 49.1322 23.1122 49.3216C22.7921 49.5091 22.4115 49.6028 21.9702 49.6028ZM21.9759 48.6653C22.1766 48.6653 22.3442 48.6085 22.4787 48.4949C22.6132 48.3793 22.7145 48.2221 22.7827 48.0233C22.8527 47.8244 22.8878 47.5981 22.8878 47.3443C22.8878 47.0905 22.8527 46.8642 22.7827 46.6653C22.7145 46.4664 22.6132 46.3092 22.4787 46.1937C22.3442 46.0782 22.1766 46.0204 21.9759 46.0204C21.7732 46.0204 21.6027 46.0782 21.4645 46.1937C21.3281 46.3092 21.2249 46.4664 21.1548 46.6653C21.0866 46.8642 21.0526 47.0905 21.0526 47.3443C21.0526 47.5981 21.0866 47.8244 21.1548 48.0233C21.2249 48.2221 21.3281 48.3793 21.4645 48.4949C21.6027 48.6085 21.7732 48.6653 21.9759 48.6653ZM28.5355 46.3983L27.4276 46.4664C27.4086 46.3717 27.3679 46.2865 27.3054 46.2108C27.2429 46.1331 27.1605 46.0716 27.0582 46.0261C26.9579 45.9788 26.8376 45.9551 26.6974 45.9551C26.5099 45.9551 26.3518 45.9949 26.223 46.0744C26.0942 46.152 26.0298 46.2562 26.0298 46.3869C26.0298 46.4911 26.0715 46.5791 26.1548 46.6511C26.2382 46.7231 26.3812 46.7808 26.5838 46.8244L27.3736 46.9835C27.7978 47.0706 28.1141 47.2108 28.3224 47.4039C28.5308 47.5971 28.6349 47.8509 28.6349 48.1653C28.6349 48.4513 28.5507 48.7022 28.3821 48.9181C28.2154 49.1341 27.9863 49.3026 27.6946 49.4238C27.4048 49.5431 27.0705 49.6028 26.6918 49.6028C26.1141 49.6028 25.6539 49.4825 25.3111 49.242C24.9702 48.9996 24.7704 48.67 24.7116 48.2534L25.902 48.1909C25.938 48.367 26.0251 48.5015 26.1634 48.5943C26.3016 48.6852 26.4787 48.7306 26.6946 48.7306C26.9067 48.7306 27.0772 48.6899 27.206 48.6085C27.3366 48.5252 27.4029 48.4181 27.4048 48.2875C27.4029 48.1776 27.3565 48.0877 27.2656 48.0176C27.1747 47.9456 27.0346 47.8907 26.8452 47.8528L26.0895 47.7022C25.6634 47.617 25.3461 47.4693 25.1378 47.2591C24.9313 47.0488 24.8281 46.7808 24.8281 46.4551C24.8281 46.1748 24.9039 45.9333 25.0554 45.7306C25.2088 45.528 25.4238 45.3717 25.7003 45.2619C25.9787 45.152 26.3045 45.0971 26.6776 45.0971C27.2287 45.0971 27.6624 45.2136 27.9787 45.4466C28.2969 45.6795 28.4825 45.9967 28.5355 46.3983ZM31.3857 49.6028C30.9368 49.6028 30.5504 49.5119 30.2266 49.3301C29.9046 49.1464 29.6565 48.8869 29.4822 48.5517C29.308 48.2145 29.2209 47.8159 29.2209 47.3556C29.2209 46.9068 29.308 46.5128 29.4822 46.1738C29.6565 45.8348 29.9018 45.5706 30.218 45.3812C30.5362 45.1918 30.9093 45.0971 31.3374 45.0971C31.6252 45.0971 31.8932 45.1435 32.1413 45.2363C32.3913 45.3272 32.6091 45.4645 32.7947 45.6483C32.9822 45.832 33.1281 46.063 33.2322 46.3414C33.3364 46.618 33.3885 46.9418 33.3885 47.313V47.6454H29.7038V46.8954H32.2493C32.2493 46.7212 32.2114 46.5668 32.1357 46.4324C32.0599 46.2979 31.9548 46.1928 31.8203 46.117C31.6877 46.0394 31.5334 46.0005 31.3572 46.0005C31.1735 46.0005 31.0107 46.0431 30.8686 46.1284C30.7285 46.2117 30.6186 46.3244 30.5391 46.4664C30.4595 46.6066 30.4188 46.7628 30.4169 46.9352V47.6483C30.4169 47.8642 30.4567 48.0507 30.5362 48.2079C30.6177 48.3651 30.7322 48.4863 30.88 48.5716C31.0277 48.6568 31.2029 48.6994 31.4055 48.6994C31.54 48.6994 31.6631 48.6805 31.7749 48.6426C31.8866 48.6047 31.9822 48.5479 32.0618 48.4721C32.1413 48.3964 32.2019 48.3036 32.2436 48.1937L33.3629 48.2676C33.3061 48.5365 33.1896 48.7714 33.0135 48.9721C32.8393 49.171 32.6139 49.3263 32.3374 49.438C32.0627 49.5479 31.7455 49.6028 31.3857 49.6028ZM35.7862 49.5886C35.4548 49.5886 35.1546 49.5034 34.8857 49.3329C34.6186 49.1606 34.4065 48.9077 34.2493 48.5744C34.094 48.2392 34.0163 47.8282 34.0163 47.3414C34.0163 46.8414 34.0968 46.4257 34.2578 46.0943C34.4188 45.7609 34.6328 45.5119 34.8999 45.3471C35.1688 45.1805 35.4633 45.0971 35.7834 45.0971C36.0277 45.0971 36.2313 45.1388 36.3942 45.2221C36.5589 45.3036 36.6915 45.4058 36.7919 45.5289C36.8942 45.6502 36.9718 45.7695 37.0249 45.8869H37.0618V43.6994H38.2692V49.5176H37.076V48.8187H37.0249C36.968 48.9399 36.8875 49.0602 36.7834 49.1795C36.6811 49.2969 36.5476 49.3945 36.3828 49.4721C36.2199 49.5498 36.0211 49.5886 35.7862 49.5886ZM36.1697 48.6255C36.3648 48.6255 36.5296 48.5725 36.6641 48.4664C36.8004 48.3585 36.9046 48.2079 36.9766 48.0147C37.0504 47.8216 37.0874 47.5952 37.0874 47.3358C37.0874 47.0763 37.0514 46.8509 36.9794 46.6596C36.9074 46.4683 36.8033 46.3206 36.6669 46.2164C36.5305 46.1123 36.3648 46.0602 36.1697 46.0602C35.9709 46.0602 35.8033 46.1142 35.6669 46.2221C35.5305 46.3301 35.4273 46.4797 35.3572 46.671C35.2872 46.8623 35.2521 47.0839 35.2521 47.3358C35.2521 47.5895 35.2872 47.814 35.3572 48.0091C35.4292 48.2022 35.5324 48.3538 35.6669 48.4636C35.8033 48.5716 35.9709 48.6255 36.1697 48.6255ZM43.468 43.6994H44.6839V47.7562C44.6839 48.1312 44.5997 48.457 44.4311 48.7335C44.2644 49.01 44.0324 49.2231 43.7351 49.3727C43.4377 49.5223 43.0921 49.5971 42.6982 49.5971C42.3478 49.5971 42.0296 49.5356 41.7436 49.4125C41.4595 49.2875 41.2341 49.0981 41.0675 48.8443C40.9008 48.5886 40.8184 48.2676 40.8203 47.8812H42.0447C42.0485 48.0346 42.0798 48.1663 42.1385 48.2761C42.1991 48.3841 42.2815 48.4674 42.3857 48.5261C42.4917 48.5829 42.6167 48.6113 42.7607 48.6113C42.9122 48.6113 43.04 48.5791 43.1442 48.5147C43.2502 48.4484 43.3307 48.3519 43.3857 48.225C43.4406 48.0981 43.468 47.9418 43.468 47.7562V43.6994ZM47.6499 49.6028C47.2086 49.6028 46.8269 49.5091 46.505 49.3216C46.1849 49.1322 45.9377 48.8689 45.7635 48.5318C45.5893 48.1928 45.5021 47.7998 45.5021 47.3528C45.5021 46.902 45.5893 46.5081 45.7635 46.171C45.9377 45.832 46.1849 45.5687 46.505 45.3812C46.8269 45.1918 47.2086 45.0971 47.6499 45.0971C48.0911 45.0971 48.4718 45.1918 48.7919 45.3812C49.1139 45.5687 49.362 45.832 49.5362 46.171C49.7105 46.5081 49.7976 46.902 49.7976 47.3528C49.7976 47.7998 49.7105 48.1928 49.5362 48.5318C49.362 48.8689 49.1139 49.1322 48.7919 49.3216C48.4718 49.5091 48.0911 49.6028 47.6499 49.6028ZM47.6555 48.6653C47.8563 48.6653 48.0239 48.6085 48.1584 48.4949C48.2929 48.3793 48.3942 48.2221 48.4624 48.0233C48.5324 47.8244 48.5675 47.5981 48.5675 47.3443C48.5675 47.0905 48.5324 46.8642 48.4624 46.6653C48.3942 46.4664 48.2929 46.3092 48.1584 46.1937C48.0239 46.0782 47.8563 46.0204 47.6555 46.0204C47.4529 46.0204 47.2824 46.0782 47.1442 46.1937C47.0078 46.3092 46.9046 46.4664 46.8345 46.6653C46.7663 46.8642 46.7322 47.0905 46.7322 47.3443C46.7322 47.5981 46.7663 47.8244 46.8345 48.0233C46.9046 48.2221 47.0078 48.3793 47.1442 48.4949C47.2824 48.6085 47.4529 48.6653 47.6555 48.6653ZM50.6072 49.5176V43.6994H51.8175V45.8869H51.8544C51.9074 45.7695 51.9841 45.6502 52.0845 45.5289C52.1868 45.4058 52.3194 45.3036 52.4822 45.2221C52.647 45.1388 52.8516 45.0971 53.0959 45.0971C53.4141 45.0971 53.7076 45.1805 53.9766 45.3471C54.2455 45.5119 54.4605 45.7609 54.6214 46.0943C54.7824 46.4257 54.8629 46.8414 54.8629 47.3414C54.8629 47.8282 54.7843 48.2392 54.6271 48.5744C54.4718 48.9077 54.2597 49.1606 53.9908 49.3329C53.7237 49.5034 53.4245 49.5886 53.093 49.5886C52.8582 49.5886 52.6584 49.5498 52.4936 49.4721C52.3307 49.3945 52.1972 49.2969 52.093 49.1795C51.9889 49.0602 51.9093 48.9399 51.8544 48.8187H51.8004V49.5176H50.6072ZM51.7919 47.3358C51.7919 47.5952 51.8279 47.8216 51.8999 48.0147C51.9718 48.2079 52.076 48.3585 52.2124 48.4664C52.3487 48.5725 52.5144 48.6255 52.7095 48.6255C52.9065 48.6255 53.0732 48.5716 53.2095 48.4636C53.3459 48.3538 53.4491 48.2022 53.5192 48.0091C53.5911 47.814 53.6271 47.5895 53.6271 47.3358C53.6271 47.0839 53.5921 46.8623 53.522 46.671C53.4519 46.4797 53.3487 46.3301 53.2124 46.2221C53.076 46.1142 52.9084 46.0602 52.7095 46.0602C52.5125 46.0602 52.3459 46.1123 52.2095 46.2164C52.075 46.3206 51.9718 46.4683 51.8999 46.6596C51.8279 46.8509 51.7919 47.0763 51.7919 47.3358ZM59.3011 46.3983L58.1932 46.4664C58.1742 46.3717 58.1335 46.2865 58.071 46.2108C58.0085 46.1331 57.9261 46.0716 57.8239 46.0261C57.7235 45.9788 57.6032 45.9551 57.4631 45.9551C57.2756 45.9551 57.1174 45.9949 56.9886 46.0744C56.8598 46.152 56.7955 46.2562 56.7955 46.3869C56.7955 46.4911 56.8371 46.5791 56.9205 46.6511C57.0038 46.7231 57.1468 46.7808 57.3494 46.8244L58.1392 46.9835C58.5634 47.0706 58.8797 47.2108 59.0881 47.4039C59.2964 47.5971 59.4006 47.8509 59.4006 48.1653C59.4006 48.4513 59.3163 48.7022 59.1477 48.9181C58.9811 49.1341 58.7519 49.3026 58.4602 49.4238C58.1705 49.5431 57.8362 49.6028 57.4574 49.6028C56.8797 49.6028 56.4195 49.4825 56.0767 49.242C55.7358 48.9996 55.536 48.67 55.4773 48.2534L56.6676 48.1909C56.7036 48.367 56.7907 48.5015 56.929 48.5943C57.0672 48.6852 57.2443 48.7306 57.4602 48.7306C57.6723 48.7306 57.8428 48.6899 57.9716 48.6085C58.1023 48.5252 58.1686 48.4181 58.1705 48.2875C58.1686 48.1776 58.1222 48.0877 58.0312 48.0176C57.9403 47.9456 57.8002 47.8907 57.6108 47.8528L56.8551 47.7022C56.429 47.617 56.1117 47.4693 55.9034 47.2591C55.697 47.0488 55.5938 46.7808 55.5938 46.4551C55.5938 46.1748 55.6695 45.9333 55.821 45.7306C55.9744 45.528 56.1894 45.3717 56.4659 45.2619C56.7443 45.152 57.0701 45.0971 57.4432 45.0971C57.9943 45.0971 58.428 45.2136 58.7443 45.4466C59.0625 45.6795 59.2481 45.9967 59.3011 46.3983Z"
        fill="white" />
    <defs>
        <filter id="filter0_b_2873_6470" x="-5" y="-5" width="80" height="80"
            filterUnits="userSpaceOnUse" color-interpolation-filters="sRGB">
            <feFlood flood-opacity="0" result="BackgroundImageFix" />
            <feGaussianBlur in="BackgroundImageFix" stdDeviation="2.5" />
            <feComposite in2="SourceAlpha" operator="in" result="effect1_backgroundBlur_2873_6470" />
            <feBlend mode="normal" in="SourceGraphic" in2="effect1_backgroundBlur_2873_6470"
                result="shape" />
        </filter>
        <linearGradient id="paint0_linear_2873_6470" x1="35" y1="0" x2="35" y2="70"
            gradientUnits="userSpaceOnUse">
            <stop stop-color="white" stop-opacity="0.3" />
            <stop offset="1" stop-color="#1B1B1B" stop-opacity="0" />
        </linearGradient>
    </defs>
</svg>