<svg xmlns="http://www.w3.org/2000/svg" width="28" height="28" viewBox="0 0 28 28" fill="none">
    <path d="M20 8L15.7426 19.7898C15.7138 19.8525 15.6677 19.9057 15.6096 19.9429C15.5516 19.9802 15.484 20 15.4151 20C15.3461 20 15.2786 19.9802 15.2205 19.9429C15.1624 19.9057 15.1163 19.8525 15.0876 19.7898L12.7951 15.2049L8.21017 12.9124C8.14746 12.8837 8.09432 12.8376 8.05706 12.7795C8.0198 12.7214 8 12.6539 8 12.5849C8 12.516 8.0198 12.4484 8.05706 12.3904C8.09432 12.3323 8.14746 12.2862 8.21017 12.2574L20 8Z" fill="#0196FB"/>
    <circle cx="14" cy="14" r="13.5" stroke="#0196FB"/>
  </svg>