<svg width="24" height="24" viewBox="0 0 24 24" fill="none" xmlns="http://www.w3.org/2000/svg">
  <path d="M10.0769 5.21429V5.57143H13.9231V5.21429C13.9231 4.74068 13.7205 4.28648 13.3598 3.9516C12.9992 3.61671 12.51 3.42857 12 3.42857C11.49 3.42857 11.0008 3.61671 10.6402 3.9516C10.2795 4.28648 10.0769 4.74068 10.0769 5.21429ZM8.53846 5.57143V5.21429C8.53846 4.3618 8.90316 3.54424 9.55232 2.94144C10.2015 2.33865 11.0819 2 12 2C12.9181 2 13.7985 2.33865 14.4477 2.94144C15.0968 3.54424 15.4615 4.3618 15.4615 5.21429V5.57143H21.2308C21.4348 5.57143 21.6304 5.64668 21.7747 5.78064C21.919 5.91459 22 6.09627 22 6.28571C22 6.47515 21.919 6.65684 21.7747 6.79079C21.6304 6.92475 21.4348 7 21.2308 7H20.0708L18.6154 18.8343C18.5081 19.7058 18.0591 20.5102 17.354 21.0941C16.6489 21.678 15.737 22.0004 14.7923 22H9.20769C8.26297 22.0004 7.35113 21.678 6.64604 21.0941C5.94095 20.5102 5.49194 19.7058 5.38462 18.8343L3.92923 7H2.76923C2.56522 7 2.36956 6.92475 2.2253 6.79079C2.08104 6.65684 2 6.47515 2 6.28571C2 6.09627 2.08104 5.91459 2.2253 5.78064C2.36956 5.64668 2.56522 5.57143 2.76923 5.57143H8.53846ZM10.4615 10.2143C10.4615 10.0248 10.3805 9.84316 10.2362 9.70921C10.092 9.57526 9.89632 9.5 9.69231 9.5C9.4883 9.5 9.29264 9.57526 9.14838 9.70921C9.00412 9.84316 8.92308 10.0248 8.92308 10.2143V17.3571C8.92308 17.5466 9.00412 17.7283 9.14838 17.8622C9.29264 17.9962 9.4883 18.0714 9.69231 18.0714C9.89632 18.0714 10.092 17.9962 10.2362 17.8622C10.3805 17.7283 10.4615 17.5466 10.4615 17.3571V10.2143ZM14.3077 9.5C14.1037 9.5 13.908 9.57526 13.7638 9.70921C13.6195 9.84316 13.5385 10.0248 13.5385 10.2143V17.3571C13.5385 17.5466 13.6195 17.7283 13.7638 17.8622C13.908 17.9962 14.1037 18.0714 14.3077 18.0714C14.5117 18.0714 14.7074 17.9962 14.8516 17.8622C14.9959 17.7283 15.0769 17.5466 15.0769 17.3571V10.2143C15.0769 10.0248 14.9959 9.84316 14.8516 9.70921C14.7074 9.57526 14.5117 9.5 14.3077 9.5Z" fill="#FF5757"/>
</svg>