<svg width="20" height="14" viewBox="0 0 20 14" fill="none" xmlns="http://www.w3.org/2000/svg">
<path d="M15 12.4168C14.6685 12.4168 14.3506 12.2851 14.1162 12.0507C13.8817 11.8163 13.75 11.4984 13.75 11.1668C13.75 10.8353 13.8817 10.5174 14.1162 10.2829C14.3506 10.0485 14.6685 9.91683 15 9.91683C15.3316 9.91683 15.6495 10.0485 15.8839 10.2829C16.1183 10.5174 16.25 10.8353 16.25 11.1668C16.25 11.4984 16.1183 11.8163 15.8839 12.0507C15.6495 12.2851 15.3316 12.4168 15 12.4168ZM16.25 4.91683L17.8834 7.00016H14.1667V4.91683M5.00004 12.4168C4.66852 12.4168 4.35058 12.2851 4.11616 12.0507C3.88174 11.8163 3.75004 11.4984 3.75004 11.1668C3.75004 10.8353 3.88174 10.5174 4.11616 10.2829C4.35058 10.0485 4.66852 9.91683 5.00004 9.91683C5.33156 9.91683 5.6495 10.0485 5.88392 10.2829C6.11835 10.5174 6.25004 10.8353 6.25004 11.1668C6.25004 11.4984 6.11835 11.8163 5.88392 12.0507C5.6495 12.2851 5.33156 12.4168 5.00004 12.4168ZM16.6667 3.66683H14.1667V0.333496H2.50004C1.57504 0.333496 0.833374 1.07516 0.833374 2.00016V11.1668H2.50004C2.50004 11.8299 2.76343 12.4658 3.23227 12.9346C3.70111 13.4034 4.337 13.6668 5.00004 13.6668C5.66308 13.6668 6.29897 13.4034 6.76781 12.9346C7.23665 12.4658 7.50004 11.8299 7.50004 11.1668H12.5C12.5 11.8299 12.7634 12.4658 13.2323 12.9346C13.7011 13.4034 14.337 13.6668 15 13.6668C15.6631 13.6668 16.299 13.4034 16.7678 12.9346C17.2367 12.4658 17.5 11.8299 17.5 11.1668H19.1667V7.00016L16.6667 3.66683Z" fill="#EDEDED"/>
</svg>
