<svg width="60" height="60" viewBox="0 0 60 60" fill="none" xmlns="http://www.w3.org/2000/svg">
<circle cx="30" cy="30" r="30" fill="#A6A6A6"/>
<path d="M40.3402 28.6428L40.3327 28.6396L20.3133 20.3361C20.1449 20.2656 19.9617 20.238 19.78 20.2557C19.5983 20.2733 19.4238 20.3358 19.2722 20.4374C19.112 20.5424 18.9804 20.6855 18.8892 20.854C18.7981 21.0225 18.7502 21.211 18.75 21.4025V26.713C18.7501 26.9749 18.8415 27.2285 19.0086 27.4302C19.1756 27.6319 19.4077 27.769 19.665 27.8178L30.5836 29.8367C30.6265 29.8449 30.6652 29.8677 30.6931 29.9014C30.7209 29.935 30.7362 29.9773 30.7362 30.021C30.7362 30.0646 30.7209 30.1069 30.6931 30.1406C30.6652 30.1742 30.6265 30.1971 30.5836 30.2052L19.6655 32.2241C19.4083 32.2728 19.1761 32.4098 19.009 32.6113C18.8419 32.8128 18.7503 33.0662 18.75 33.328V38.6394C18.7499 38.8223 18.7952 39.0024 18.8818 39.1635C18.9684 39.3246 19.0937 39.4616 19.2464 39.5624C19.4301 39.6844 19.6456 39.7496 19.8661 39.7499C20.0194 39.7497 20.1711 39.719 20.3123 39.6594L40.3313 31.4033L40.3402 31.3991C40.6096 31.2833 40.8392 31.091 41.0006 30.8461C41.1619 30.6011 41.2479 30.3143 41.2479 30.021C41.2479 29.7277 41.1619 29.4408 41.0006 29.1959C40.8392 28.9509 40.6096 28.7586 40.3402 28.6428Z" fill="white"/>
</svg>
