<svg width="10" height="10" viewBox="0 0 10 10" fill="none" xmlns="http://www.w3.org/2000/svg">
<path d="M1 8.5H1.7L6.0125 4.1875L5.3125 3.4875L1 7.8V8.5ZM8.15 3.4625L6.025 1.3625L6.725 0.6625C6.91667 0.470833 7.15217 0.375 7.4315 0.375C7.71083 0.375 7.94617 0.470833 8.1375 0.6625L8.8375 1.3625C9.02917 1.55417 9.12917 1.7855 9.1375 2.0565C9.14583 2.3275 9.05417 2.55867 8.8625 2.75L8.15 3.4625ZM7.425 4.2L2.125 9.5H0V7.375L5.3 2.075L7.425 4.2ZM5.6625 3.8375L5.3125 3.4875L6.0125 4.1875L5.6625 3.8375Z" fill="white"/>
</svg>
