<svg width="24" height="24" viewBox="0 0 24 24" fill="none" xmlns="http://www.w3.org/2000/svg">
<path d="M24 12.9187C24 9.77996 20.8688 7.22246 17.0175 7.22246C15.7013 7.22246 14.445 7.51496 13.3463 8.06996C12.2513 6.09371 9.8175 4.70996 6.99 4.70996C3.135 4.70996 0 7.26371 0 10.4025C0 11.895 0.72375 13.335 2.0025 14.3925L1.92375 16.2187C1.91625 16.4137 2.01375 16.5937 2.175 16.6987C2.26125 16.7512 2.35875 16.7812 2.46 16.7812C2.55 16.7812 2.63625 16.7587 2.715 16.7175L4.51875 15.7387C5.3025 15.9825 6.1275 16.1062 6.9825 16.1062C8.325 16.1062 9.5775 15.7912 10.6462 15.2512C11.7562 17.2837 14.2312 18.6187 17.0138 18.6187C17.865 18.6187 18.69 18.495 19.4738 18.255L21.2775 19.2337C21.3563 19.2787 21.4462 19.2975 21.5325 19.2975C21.63 19.2975 21.7313 19.2712 21.8175 19.215C21.9825 19.1137 22.08 18.93 22.0687 18.7387L21.9938 16.9125C23.2725 15.8512 24 14.4112 24 12.9187ZM6.98625 15.0262C6.16875 15.0262 5.38125 14.8987 4.64625 14.6437C4.50375 14.595 4.34625 14.6062 4.215 14.6812L3.04125 15.3187L3.09 14.1675C3.0975 13.9912 3.01875 13.8225 2.87625 13.7175C1.7175 12.84 1.07625 11.6625 1.07625 10.4062C1.07625 7.85996 3.7275 5.78621 6.98625 5.78621C9.61125 5.78621 11.8425 7.13621 12.6075 8.99621C12.6112 9.00371 12.615 9.00746 12.615 9.01496C12.795 9.45371 12.8925 9.92246 12.8925 10.41C12.8888 12.9525 10.2413 15.0262 6.98625 15.0262ZM21.1238 16.2262C20.985 16.3312 20.9025 16.5 20.91 16.6762L20.955 17.8275L19.7812 17.19C19.65 17.1187 19.4925 17.1037 19.35 17.1525C18.6112 17.4075 17.8275 17.535 17.01 17.535C14.5988 17.535 12.4725 16.4062 11.5612 14.6887C13.0275 13.6425 13.9613 12.1125 13.9613 10.4025C13.9613 9.93746 13.8862 9.49121 13.7587 9.05996C14.7225 8.55746 15.84 8.29121 17.0138 8.29121C20.2725 8.29121 22.9237 10.365 22.9237 12.915C22.9237 14.175 22.2863 15.3487 21.1238 16.2262Z" fill="#0196FB"/>
<path d="M7.15502 11.8987C7.11752 11.8612 7.06877 11.8312 7.00502 11.8162C6.94502 11.7974 6.87002 11.7899 6.77627 11.7899C6.67877 11.7899 6.60002 11.7974 6.53627 11.8162C6.47627 11.8312 6.42752 11.8612 6.39002 11.8987C6.35252 11.9399 6.32627 11.9924 6.31127 12.0562C6.30002 12.1199 6.29252 12.1987 6.29252 12.2962C6.29252 12.3899 6.30002 12.4724 6.31127 12.5362C6.32627 12.5962 6.35252 12.6487 6.39002 12.6862C6.42752 12.7237 6.47627 12.7537 6.53627 12.7687C6.60002 12.7874 6.67502 12.7949 6.77627 12.7949C6.86627 12.7949 6.94502 12.7874 7.00502 12.7687C7.06877 12.7537 7.11752 12.7237 7.15502 12.6862C7.19252 12.6487 7.21877 12.5962 7.23377 12.5362C7.24877 12.4724 7.25627 12.3937 7.25627 12.2962C7.25627 12.2024 7.24877 12.1199 7.23377 12.0562C7.22147 11.9978 7.19435 11.9435 7.15502 11.8987ZM7.91627 8.42242C7.79627 8.29867 7.63877 8.19742 7.44752 8.12242C7.25627 8.05117 7.02752 8.01367 6.75752 8.01367C6.64127 8.01367 6.52502 8.02117 6.41627 8.03992C6.30752 8.05867 6.20627 8.08117 6.12002 8.10742C6.03002 8.13367 5.95127 8.15992 5.88752 8.18992C5.82377 8.21992 5.78252 8.24617 5.76002 8.26867C5.73752 8.29117 5.72252 8.32117 5.71502 8.35867C5.70752 8.39617 5.70752 8.45242 5.70752 8.53492C5.70752 8.60992 5.70752 8.67367 5.71502 8.72617C5.71877 8.77492 5.72627 8.81617 5.73752 8.84242C5.74502 8.86867 5.75627 8.88742 5.77127 8.89867C5.78252 8.90992 5.79752 8.91367 5.81252 8.91367C5.83502 8.91367 5.86877 8.90242 5.91002 8.87992C6.03172 8.81339 6.16156 8.76297 6.29627 8.72992C6.38627 8.70742 6.49127 8.69617 6.60377 8.69617C6.73127 8.69617 6.84377 8.71492 6.93752 8.74867C7.03127 8.78242 7.11377 8.83492 7.17752 8.89867C7.23752 8.96617 7.28252 9.04117 7.31627 9.13492C7.37556 9.32395 7.37687 9.5264 7.32002 9.71617C7.29541 9.80096 7.25192 9.87908 7.19282 9.94467C7.13372 10.0103 7.06054 10.0616 6.97877 10.0949C6.89252 10.1324 6.78752 10.1512 6.66752 10.1512H6.61877C6.57002 10.1512 6.52502 10.1587 6.49127 10.1662C6.45377 10.1774 6.42377 10.1962 6.40127 10.2224C6.37554 10.2536 6.3587 10.2912 6.35252 10.3312C6.34127 10.3762 6.34127 10.4362 6.34127 10.5112L6.37127 11.3174C6.37502 11.3399 6.38252 11.3624 6.39752 11.3774C6.40877 11.3924 6.43127 11.4037 6.46127 11.4149C6.49127 11.4224 6.52877 11.4299 6.58127 11.4337C6.63002 11.4374 6.69377 11.4374 6.77252 11.4374C6.88877 11.4374 6.98252 11.4262 7.04252 11.4074C7.10627 11.3887 7.13627 11.3549 7.14002 11.3174L7.16627 10.6499C7.33502 10.6312 7.48127 10.5899 7.61627 10.5224C7.75127 10.4587 7.86752 10.3724 7.96502 10.2599C8.05877 10.1512 8.13752 10.0199 8.19002 9.86992C8.24252 9.72367 8.26877 9.55117 8.26877 9.36367C8.26877 9.17992 8.24252 9.01117 8.18627 8.84992C8.12627 8.69242 8.03627 8.54617 7.91627 8.42242ZM17.1825 12.3787C16.8825 12.3787 16.6425 12.6187 16.6425 12.9149C16.6425 13.2112 16.8863 13.4512 17.1825 13.4512C17.3247 13.4512 17.4611 13.3947 17.5617 13.2941C17.6623 13.1935 17.7188 13.0571 17.7188 12.9149C17.7188 12.7727 17.6623 12.6363 17.5617 12.5357C17.4611 12.4352 17.3247 12.3787 17.1825 12.3787ZM14.8538 12.3787C14.5538 12.3787 14.3138 12.6187 14.3138 12.9149C14.3138 13.2112 14.5575 13.4512 14.8538 13.4512C14.996 13.4512 15.1324 13.3947 15.233 13.2941C15.3335 13.1935 15.39 13.0571 15.39 12.9149C15.39 12.7727 15.3335 12.6363 15.233 12.5357C15.1324 12.4352 14.996 12.3787 14.8538 12.3787ZM19.665 12.3787C19.365 12.3787 19.125 12.6187 19.125 12.9149C19.125 13.2112 19.3688 13.4512 19.665 13.4512C19.9613 13.4512 20.2013 13.2112 20.2013 12.9149C20.2013 12.6187 19.965 12.3787 19.665 12.3787Z" fill="#0196FB"/>
</svg>
