<svg width="16" height="16" viewBox="0 0 16 16" fill="none" xmlns="http://www.w3.org/2000/svg">
<g clip-path="url(#clip0_3485_7763)">
<path d="M4.5 1L4 1.5V3.027C4.33232 2.99027 4.66768 2.99027 5 3.027V2H14V7H12.293L11 8.293V7H8.973C9.00973 7.33232 9.00973 7.66768 8.973 8H10V9.5L10.854 9.854L12.707 8H14.5L15 7.5V1.5L14.5 1H4.5Z" fill="#0196FB"/>
<path fill-rule="evenodd" clip-rule="evenodd" d="M6.417 10.4288C7.04759 10.016 7.52808 9.41067 7.78699 8.70285C8.04591 7.99503 8.06942 7.22254 7.85404 6.50028C7.63865 5.77802 7.19587 5.14458 6.59156 4.69418C5.98725 4.24378 5.25369 4.00049 4.5 4.00049C3.74631 4.00049 3.01275 4.24378 2.40844 4.69418C1.80413 5.14458 1.36135 5.77802 1.14596 6.50028C0.930575 7.22254 0.95409 7.99503 1.21301 8.70285C1.47192 9.41067 1.95241 10.016 2.583 10.4288C1.81072 10.7926 1.15781 11.3685 0.700454 12.0893C0.243102 12.8101 0.000168547 13.6461 0 14.4998L0 14.9998H1V14.4998C1.03069 13.592 1.41289 12.7317 2.06591 12.1004C2.71894 11.4691 3.5917 11.1162 4.5 11.1162C5.4083 11.1162 6.28106 11.4691 6.93409 12.1004C7.58711 12.7317 7.96931 13.592 8 14.4998V14.9998H9V14.4998C8.99983 13.6461 8.7569 12.8101 8.29955 12.0893C7.84219 11.3685 7.18928 10.7926 6.417 10.4288ZM4.5 9.99982C3.83696 9.99982 3.20107 9.73643 2.73223 9.26758C2.26339 8.79874 2 8.16286 2 7.49982C2 6.83678 2.26339 6.20089 2.73223 5.73205C3.20107 5.26321 3.83696 4.99982 4.5 4.99982C5.16304 4.99982 5.79893 5.26321 6.26777 5.73205C6.73661 6.20089 7 6.83678 7 7.49982C7 8.16286 6.73661 8.79874 6.26777 9.26758C5.79893 9.73643 5.16304 9.99982 4.5 9.99982Z" fill="#0196FB"/>
</g>
<defs>
<clipPath id="clip0_3485_7763">
<rect width="16" height="16" fill="white"/>
</clipPath>
</defs>
</svg>
