<svg width="12" height="13" viewBox="0 0 12 13" fill="none" xmlns="http://www.w3.org/2000/svg">
<path d="M7.3333 6V11.2533C7.35997 11.4533 7.2933 11.6667 7.13997 11.8067C7.07829 11.8685 7.00503 11.9175 6.92438 11.951C6.84373 11.9844 6.75728 12.0016 6.66997 12.0016C6.58265 12.0016 6.4962 11.9844 6.41555 11.951C6.3349 11.9175 6.26164 11.8685 6.19997 11.8067L4.85997 10.4667C4.78725 10.3956 4.73197 10.3087 4.69843 10.2127C4.66489 10.1167 4.65401 10.0142 4.66663 9.91333V6H4.64663L0.806632 1.08C0.698371 0.94102 0.649521 0.764839 0.670757 0.589953C0.691993 0.415068 0.781589 0.255698 0.919965 0.146667C1.04663 0.0533334 1.18663 0 1.3333 0H10.6666C10.8133 0 10.9533 0.0533334 11.08 0.146667C11.2183 0.255698 11.3079 0.415068 11.3292 0.589953C11.3504 0.764839 11.3016 0.94102 11.1933 1.08L7.3533 6H7.3333Z" fill="white"/>
</svg>
