<svg width="18" height="20" viewBox="0 0 18 20" fill="none" xmlns="http://www.w3.org/2000/svg">
<path d="M9 15.5C8.57495 15.5018 8.16082 15.6348 7.81427 15.8809C7.46772 16.1271 7.20568 16.4743 7.064 16.875H6.25C5.70299 16.875 5.17839 16.6577 4.79159 16.2709C4.4048 15.8841 4.1875 15.3595 4.1875 14.8125V13.4375C4.1875 13.2552 4.11507 13.0803 3.98614 12.9514C3.8572 12.8224 3.68234 12.75 3.5 12.75C3.31766 12.75 3.1428 12.8224 3.01386 12.9514C2.88493 13.0803 2.8125 13.2552 2.8125 13.4375V14.8125C2.81359 15.7238 3.17611 16.5976 3.82053 17.242C4.46495 17.8864 5.33865 18.2489 6.25 18.25H7.064C7.19065 18.6056 7.4126 18.9195 7.70559 19.1574C7.99858 19.3954 8.35134 19.5482 8.72532 19.5992C9.09929 19.6502 9.4801 19.5975 9.82612 19.4467C10.1721 19.296 10.4701 19.053 10.6874 18.7444C10.9046 18.4357 11.0329 18.0733 11.0581 17.6967C11.0834 17.3201 11.0046 16.9438 10.8304 16.609C10.6563 16.2741 10.3934 15.9936 10.0706 15.798C9.74781 15.6024 9.37744 15.4993 9 15.5Z" fill="white"/>
<path d="M15.5312 7.25H15.1875V6.5625C15.1875 4.92147 14.5356 3.34766 13.3752 2.18728C12.2148 1.0269 10.641 0.375 9 0.375C7.35897 0.375 5.78516 1.0269 4.62478 2.18728C3.4644 3.34766 2.8125 4.92147 2.8125 6.5625V7.25H2.46875C1.83057 7.25 1.21853 7.50352 0.767274 7.95477C0.316015 8.40603 0.0625 9.01807 0.0625 9.65625V11.7188C0.0625 12.3569 0.316015 12.969 0.767274 13.4202C1.21853 13.8715 1.83057 14.125 2.46875 14.125H4.1875C4.55217 14.125 4.90191 13.9801 5.15977 13.7223C5.41763 13.4644 5.5625 13.1147 5.5625 12.75V8.625C5.5625 8.26033 5.41763 7.91059 5.15977 7.65273C4.90191 7.39487 4.55217 7.25 4.1875 7.25V6.5625C4.1875 5.28615 4.69453 4.06207 5.59705 3.15955C6.49957 2.25703 7.72365 1.75 9 1.75C10.2764 1.75 11.5004 2.25703 12.403 3.15955C13.3055 4.06207 13.8125 5.28615 13.8125 6.5625V7.25C13.4478 7.25 13.0981 7.39487 12.8402 7.65273C12.5824 7.91059 12.4375 8.26033 12.4375 8.625V12.75C12.4375 13.1147 12.5824 13.4644 12.8402 13.7223C13.0981 13.9801 13.4478 14.125 13.8125 14.125H15.5312C16.1694 14.125 16.7815 13.8715 17.2327 13.4202C17.684 12.969 17.9375 12.3569 17.9375 11.7188V9.65625C17.9375 9.01807 17.684 8.40603 17.2327 7.95477C16.7815 7.50352 16.1694 7.25 15.5312 7.25Z" fill="white"/>
</svg>
