<svg width="20" height="20" viewBox="0 0 20 20" fill="none" xmlns="http://www.w3.org/2000/svg">
<g clip-path="url(#clip0_373_6764)">
<path d="M7.49984 18.3334H12.4998C16.6665 18.3334 18.3332 16.6667 18.3332 12.5001V7.50008C18.3332 3.33341 16.6665 1.66675 12.4998 1.66675H7.49984C3.33317 1.66675 1.6665 3.33341 1.6665 7.50008V12.5001C1.6665 16.6667 3.33317 18.3334 7.49984 18.3334Z" stroke="#2D4C65" stroke-width="1.5" stroke-linecap="round" stroke-linejoin="round"/>
<path d="M2.2251 15.7917L6.33343 13.0333C6.99176 12.5917 7.94176 12.6417 8.53343 13.15L8.80843 13.3917C9.45843 13.95 10.5084 13.95 11.1584 13.3917L14.6251 10.4167C15.2751 9.85833 16.3251 9.85833 16.9751 10.4167L18.3334 11.5833M7.5001 8.33333C7.94212 8.33333 8.36605 8.15774 8.67861 7.84518C8.99117 7.53262 9.16676 7.10869 9.16676 6.66667C9.16676 6.22464 8.99117 5.80072 8.67861 5.48816C8.36605 5.17559 7.94212 5 7.5001 5C7.05807 5 6.63415 5.17559 6.32159 5.48816C6.00903 5.80072 5.83343 6.22464 5.83343 6.66667C5.83343 7.10869 6.00903 7.53262 6.32159 7.84518C6.63415 8.15774 7.05807 8.33333 7.5001 8.33333Z" stroke="#2D4C65" stroke-width="1.5" stroke-linecap="round" stroke-linejoin="round"/>
</g>
<defs>
<clipPath id="clip0_373_6764">
<rect width="20" height="20" fill="white"/>
</clipPath>
</defs>
</svg>
