<svg width="35" height="26" viewBox="0 0 35 26" fill="none" xmlns="http://www.w3.org/2000/svg">
<path d="M3.22088 1.30229C3.38495 0.968694 3.74588 0.777288 4.11229 0.826507L17.4998 2.49994L30.8873 0.826507C31.2537 0.782757 31.6146 0.974163 31.7787 1.30229L34.0592 5.86323C34.5513 6.84213 34.0263 8.02885 32.9763 8.32963L24.0404 10.8835C23.2803 11.1023 22.4654 10.7796 22.0607 10.1015L17.4998 2.49994L12.9389 10.1015C12.5342 10.7796 11.7193 11.1023 10.9592 10.8835L2.0287 8.32963C0.973227 8.02885 0.453696 6.84213 0.945884 5.86323L3.22088 1.30229ZM17.5599 5.99994L20.5623 10.9984C21.3771 12.3546 23.0014 12.9999 24.5271 12.5624L31.4998 10.5718V19.7046C31.4998 20.9078 30.6795 21.9578 29.5092 22.2531L18.3474 25.0421C17.7896 25.1843 17.2045 25.1843 16.6521 25.0421L5.49042 22.2531C4.3201 21.9523 3.49979 20.9023 3.49979 19.6992V10.5664L10.4779 12.5624C11.9982 12.9999 13.6279 12.3546 14.4428 10.9984L17.4396 5.99994H17.5599Z" fill="white"/>
</svg>
