<svg width="17" height="25" viewBox="0 0 17 25" fill="none" xmlns="http://www.w3.org/2000/svg">
<g clip-path="url(#clip0_411_12124)">
<path d="M4.61572 18.2793C5.30984 19.1639 5.94158 20.0956 6.50636 21.0679C6.98858 21.9822 7.18961 22.6023 7.54202 23.704C7.75815 24.3127 7.95349 24.4943 8.37346 24.4943C8.83109 24.4943 9.03872 24.1853 9.19913 23.7073C9.53226 22.6669 9.79364 21.8728 10.206 21.1226C11.0152 19.6741 12.0207 18.3869 13.0087 17.1498C13.2762 16.7997 15.0055 14.7599 15.784 13.1505C15.784 13.1505 16.7409 11.3826 16.7409 8.91343C16.7409 6.60381 15.7972 5.00195 15.7972 5.00195L13.0804 5.72954L11.4305 10.0751L11.0223 10.6743L10.9407 10.7829L10.8321 10.9188L10.6416 11.1358L10.3692 11.4081L8.90002 12.605L5.22677 14.7259L4.61572 18.2793Z" fill="#34A853"/>
<path d="M0.824707 12.8525C1.72121 14.9002 3.44999 16.7002 4.61965 18.2799L10.8322 10.9208C10.8322 10.9208 9.957 12.0654 8.36934 12.0654C6.60086 12.0654 5.17217 10.6532 5.17217 8.87251C5.17217 7.65139 5.90682 6.8125 5.90682 6.8125L1.68956 7.94253L0.824707 12.8525Z" fill="#FBBC04"/>
<path d="M10.9016 0.878972C12.965 1.54424 14.731 2.94088 15.7993 5.00037L10.8341 10.9172C10.8341 10.9172 11.5688 10.0631 11.5688 8.84959C11.5688 7.02742 10.0344 5.66615 8.37686 5.66615C6.80941 5.66615 5.90918 6.80893 5.90918 6.80893V3.08141L10.9016 0.878906V0.878972Z" fill="#4285F4"/>
<path d="M1.96289 3.49281C3.19526 2.01834 5.36376 0.5 8.35336 0.5C9.80383 0.5 10.8966 0.880796 10.8966 0.880796L5.90458 6.81167H2.36769L1.96289 3.49281Z" fill="#1A73E8"/>
<path d="M0.824763 12.852C0.824763 12.852 0 11.2369 0 8.89703C0 6.68556 0.859684 4.75248 1.96283 3.49219L5.90734 6.81158L0.824763 12.852Z" fill="#EA4335"/>
</g>
<defs>
<clipPath id="clip0_411_12124">
<rect width="16.7411" height="24" fill="white" transform="translate(0 0.5)"/>
</clipPath>
</defs>
</svg>
