<svg width="17" height="16" viewBox="0 0 17 16" fill="none" xmlns="http://www.w3.org/2000/svg">
<path d="M8.69581 0.634251C8.74219 0.599047 8.78342 0.557534 8.81831 0.510917H10.9533C11.1143 0.50222 11.2757 0.50222 11.4366 0.510917H11.4683C11.9427 0.50958 12.4113 0.61436 12.84 0.817584C13.623 1.12473 14.3003 1.65209 14.79 2.33592C15.1606 2.85373 15.4128 3.44676 15.5286 4.07295C15.6444 4.69914 15.621 5.34313 15.46 5.95925L12.7258 3.26175C12.6088 3.14634 12.451 3.08167 12.2866 3.08175H8.30748C8.17979 3.08694 8.05676 3.13115 7.95498 3.20842L6.38498 4.39842C6.3006 4.46266 6.2044 4.50965 6.10187 4.53671C5.99933 4.56377 5.89247 4.57037 5.78738 4.55614C5.6823 4.5419 5.58105 4.5071 5.48941 4.45373C5.39777 4.40036 5.31755 4.32946 5.25331 4.24508C5.18945 4.16203 5.14268 4.06716 5.11568 3.96593C5.08869 3.86471 5.08201 3.75914 5.09603 3.65532C5.11006 3.5515 5.1445 3.45149 5.19739 3.36105C5.25027 3.27062 5.32054 3.19155 5.40414 3.12842L8.69581 0.634251ZM4.58248 9.86258L4.57081 9.87342L3.75914 10.6801L3.74831 10.6901C3.60617 10.8252 3.417 10.8998 3.22087 10.8979C3.02473 10.896 2.83702 10.8179 2.69748 10.6801C2.62776 10.611 2.57242 10.5287 2.53466 10.4381C2.49689 10.3475 2.47745 10.2503 2.47745 10.1522C2.47745 10.054 2.49689 9.95681 2.53466 9.8662C2.57242 9.77559 2.62776 9.69336 2.69748 9.62425L3.50914 8.81758C3.65051 8.67759 3.84143 8.59905 4.04039 8.59905C4.23935 8.59905 4.43027 8.67759 4.57164 8.81758C4.7106 8.95529 4.78967 9.14223 4.79169 9.33786C4.79372 9.53348 4.71855 9.72202 4.58248 9.86258ZM4.33998 11.2776C4.2039 11.4181 4.12873 11.6067 4.13076 11.8023C4.13279 11.9979 4.21185 12.1849 4.35081 12.3226C4.64414 12.6143 5.11998 12.6143 5.41331 12.3226L6.22498 11.5159C6.30366 11.4379 6.3639 11.3433 6.40129 11.239C6.43869 11.1347 6.45229 11.0233 6.44111 10.9131C6.42993 10.8028 6.39424 10.6965 6.33666 10.6018C6.27907 10.5071 6.20106 10.4265 6.10831 10.3659C5.96593 10.2722 5.79604 10.2295 5.62628 10.2446C5.45652 10.2597 5.29688 10.3319 5.17331 10.4493L5.16248 10.4609L4.35081 11.2668L4.33998 11.2776ZM2.58331 7.50592C2.65303 7.57503 2.70836 7.65726 2.74613 7.74787C2.78389 7.83848 2.80334 7.93567 2.80334 8.03383C2.80334 8.132 2.78389 8.22919 2.74613 8.3198C2.70836 8.41041 2.65303 8.49264 2.58331 8.56175L1.77164 9.36842C1.63024 9.50867 1.43914 9.58736 1.23998 9.58736C1.04081 9.58736 0.849717 9.50867 0.708309 9.36842C0.638592 9.29931 0.583254 9.21708 0.54549 9.12647C0.507725 9.03586 0.488281 8.93867 0.488281 8.8405C0.488281 8.74234 0.507725 8.64514 0.54549 8.55453C0.583254 8.46392 0.638592 8.38169 0.708309 8.31258L1.52081 7.50592C1.66218 7.36592 1.8531 7.28739 2.05206 7.28739C2.25102 7.28739 2.44194 7.36592 2.58331 7.50592ZM7.87748 12.1034C7.94719 12.1725 8.00253 12.2548 8.0403 12.3454C8.07806 12.436 8.0975 12.5332 8.0975 12.6313C8.0975 12.7295 8.07806 12.8267 8.0403 12.9173C8.00253 13.0079 7.94719 13.0901 7.87748 13.1593L7.06581 13.9659C6.92444 14.1059 6.73352 14.1844 6.53456 14.1844C6.3356 14.1844 6.14468 14.1059 6.00331 13.9659C5.89262 13.8562 5.81922 13.7144 5.7935 13.5607C5.76778 13.407 5.79104 13.249 5.85998 13.1093L5.86081 13.1076C5.89715 13.0344 5.9453 12.9677 6.00331 12.9101L6.81498 12.1034C6.95635 11.9634 7.14727 11.8849 7.34623 11.8849C7.54519 11.8849 7.7361 11.9634 7.87748 12.1034ZM2.45331 2.02508C3.00663 1.47537 3.67759 1.05853 4.41556 0.806046C5.15353 0.55356 5.93922 0.472021 6.71331 0.567584L4.64998 2.13175C4.43506 2.29435 4.25443 2.49785 4.11848 2.73055C3.98254 2.96325 3.89397 3.22054 3.85788 3.48761C3.82178 3.75467 3.83888 4.02624 3.90817 4.28668C3.97747 4.54711 4.0976 4.79127 4.26164 5.00508C4.59285 5.43681 5.08137 5.72002 5.6206 5.79292C6.15983 5.86583 6.70601 5.72252 7.13998 5.39425L8.54331 4.33175H12.0308L14.9533 7.21508C14.9627 7.22673 14.9727 7.23786 14.9833 7.24842L15.9416 8.20675C16.1572 8.42533 16.2808 8.71827 16.2868 9.02521C16.2928 9.33215 16.1809 9.62972 15.9741 9.85661C15.7673 10.0835 15.4813 10.2224 15.1752 10.2448C14.869 10.2671 14.5659 10.1712 14.3283 9.97675L14.2483 9.89675C14.2328 9.88101 14.2161 9.86652 14.1983 9.85342L13.2875 8.94342C13.249 8.90362 13.2031 8.87188 13.1522 8.85004C13.1014 8.82821 13.0467 8.81671 12.9914 8.81623C12.9361 8.81575 12.8812 8.82629 12.83 8.84724C12.7788 8.86819 12.7323 8.89913 12.6931 8.93825C12.654 8.97738 12.6231 9.0239 12.6021 9.0751C12.5812 9.12631 12.5706 9.18118 12.5711 9.2365C12.5716 9.29183 12.5831 9.3465 12.6049 9.39734C12.6268 9.44817 12.6585 9.49415 12.6983 9.53258L13.6566 10.4909C13.6916 10.5251 13.7266 10.5584 13.7633 10.5901L13.8 10.6268C13.8802 10.7053 13.9441 10.799 13.9879 10.9023C14.0317 11.0057 14.0546 11.1168 14.0552 11.2291C14.0558 11.3413 14.0341 11.4526 13.9914 11.5565C13.9487 11.6603 13.8859 11.7547 13.8065 11.8341C13.7271 11.9135 13.6327 11.9763 13.5289 12.019C13.425 12.0617 13.3137 12.0834 13.2015 12.0828C13.0892 12.0822 12.9781 12.0593 12.8747 12.0155C12.7714 11.9717 12.6777 11.9078 12.5991 11.8276L12.4575 11.6868C12.3987 11.6281 12.3238 11.5884 12.2423 11.5727C12.1608 11.5569 12.0765 11.5659 12.0001 11.5984C11.9237 11.6309 11.8588 11.6854 11.8136 11.7551C11.7685 11.8247 11.7452 11.9063 11.7466 11.9893C11.7453 12.0456 11.7555 12.1017 11.7766 12.1539C11.7976 12.2062 11.8291 12.2537 11.8691 12.2934L12.055 12.4793C12.1316 12.5514 12.1929 12.6381 12.2353 12.7344C12.2778 12.8306 12.3004 12.9344 12.302 13.0396C12.3036 13.1447 12.2841 13.2492 12.2445 13.3466C12.205 13.4441 12.1463 13.5327 12.0719 13.607C11.9976 13.6814 11.909 13.7401 11.8115 13.7796C11.7141 13.8192 11.6096 13.8387 11.5045 13.8371C11.3993 13.8355 11.2955 13.8129 11.1992 13.7704C11.103 13.728 11.0163 13.6667 10.9441 13.5901H10.9433L10.9333 13.5793L10.7583 13.4043C10.7198 13.3653 10.6739 13.3343 10.6233 13.3132C10.5728 13.2921 10.5185 13.2812 10.4637 13.2812C10.4089 13.2812 10.3547 13.2921 10.3041 13.3132C10.2535 13.3343 10.2077 13.3653 10.1691 13.4043C10.091 13.4824 10.0471 13.5883 10.0471 13.6988C10.0471 13.8093 10.091 13.9153 10.1691 13.9934L10.3508 14.1759C10.4256 14.2498 10.4851 14.3377 10.526 14.4345C10.5668 14.5314 10.5882 14.6354 10.5888 14.7405C10.5895 14.8456 10.5694 14.9498 10.5298 15.0472C10.4902 15.1446 10.4318 15.2332 10.3579 15.308C10.284 15.3828 10.1961 15.4423 10.0993 15.4832C10.0024 15.524 9.89844 15.5453 9.79332 15.546C9.68819 15.5467 9.58397 15.5266 9.4866 15.487C9.38922 15.4474 9.30061 15.389 9.22581 15.3151L8.03331 14.1818L8.47081 13.7468C8.61818 13.6008 8.73516 13.427 8.815 13.2356C8.89483 13.0441 8.93594 12.8388 8.93594 12.6313C8.93594 12.4239 8.89483 12.2185 8.815 12.0271C8.73516 11.8356 8.61818 11.6619 8.47081 11.5159C8.3149 11.3611 8.12858 11.2403 7.92361 11.1611C7.71865 11.0819 7.49949 11.0461 7.27998 11.0559C7.28964 10.8373 7.25341 10.619 7.17361 10.4152C7.09381 10.2114 6.97221 10.0265 6.81664 9.87258C6.66086 9.71781 6.47468 9.59703 6.26986 9.51785C6.06504 9.43868 5.84602 9.40283 5.62664 9.41258C5.63624 9.19406 5.59997 8.97594 5.52017 8.77228C5.44037 8.56862 5.31881 8.38392 5.16331 8.23008C4.96522 8.03364 4.71905 7.89262 4.4494 7.82111C4.17974 7.74961 3.89604 7.75011 3.62664 7.82258C3.58034 7.47968 3.42181 7.16175 3.17581 6.91842C2.90166 6.64668 2.53827 6.48359 2.15302 6.45937C1.76778 6.43516 1.38682 6.55148 1.08081 6.78675C0.883996 5.94191 0.906804 5.06074 1.14706 4.22721C1.38732 3.39368 1.83702 2.63556 2.45331 2.02508Z" fill="#9197B3"/>
</svg>
