<svg width="15" height="14" viewBox="0 0 15 14" fill="none" xmlns="http://www.w3.org/2000/svg">
<g id="ph:handshake-fill" clip-path="url(#clip0_403_4137)">
<path id="Vector" d="M7.05024 11.9187C7.02658 12.0133 6.97196 12.0974 6.89507 12.1574C6.81818 12.2175 6.72342 12.2501 6.62586 12.2501C6.589 12.2503 6.55226 12.2459 6.51649 12.237L4.76649 11.7995C4.71777 11.7872 4.67152 11.7667 4.62977 11.7388L3.31727 10.8638C3.22074 10.7994 3.15375 10.6993 3.13104 10.5855C3.10832 10.4717 3.13174 10.3535 3.19614 10.257C3.26053 10.1605 3.36064 10.0935 3.47443 10.0708C3.58822 10.0481 3.70637 10.0715 3.80289 10.1359L5.05196 10.9688L6.72867 11.3882C6.7847 11.4018 6.83748 11.4263 6.884 11.4604C6.93051 11.4944 6.96984 11.5373 6.99972 11.5866C7.0296 11.6359 7.04945 11.6906 7.05812 11.7476C7.06679 11.8046 7.06411 11.8627 7.05024 11.9187ZM14.3067 6.64353C14.2708 6.75256 14.2137 6.85341 14.1386 6.94023C14.0635 7.02706 13.9719 7.09815 13.8692 7.14939L12.5742 7.79689L11.7495 8.62212L9.56203 10.8096C9.50857 10.863 9.44219 10.9017 9.36935 10.9218C9.29651 10.9419 9.21971 10.9428 9.14641 10.9245L5.64641 10.0495C5.59318 10.0361 5.54292 10.0129 5.49821 9.98111L2.46196 7.81329L1.13414 7.14939C0.926624 7.04565 0.768799 6.86374 0.695371 6.64366C0.621943 6.42359 0.638924 6.18335 0.742581 5.97579L2.10157 3.25837C2.2053 3.05085 2.38721 2.89303 2.60729 2.8196C2.82737 2.74617 3.0676 2.76315 3.27516 2.86681L4.48156 3.46837L7.38 2.6404C7.45863 2.61791 7.542 2.61791 7.62063 2.6404L10.5191 3.46837L11.7255 2.86681C11.933 2.76315 12.1733 2.74617 12.3933 2.8196C12.6134 2.89303 12.7953 3.05085 12.8991 3.25837L14.258 5.97579C14.3099 6.07836 14.3409 6.19018 14.3492 6.30479C14.3576 6.4194 14.3431 6.53453 14.3067 6.64353ZM10.7821 8.34868L9.26672 7.13517C8.19813 8.01017 6.84133 8.12556 5.71696 7.40861C5.60635 7.33825 5.51297 7.24395 5.44371 7.13266C5.37445 7.02137 5.33107 6.89594 5.31679 6.76564C5.30252 6.63533 5.31769 6.50349 5.36121 6.37984C5.40473 6.25619 5.47547 6.1439 5.56821 6.05126C5.56952 6.04967 5.57099 6.0482 5.57258 6.04689L8.02586 3.66743L7.50086 3.51759L4.74352 4.30564L3.24672 7.29869L5.93735 9.22095L9.11688 10.0156L10.7821 8.34868ZM11.7796 7.35118L10.2932 4.37509H8.55305L6.18836 6.67197C6.88071 7.11439 7.96625 7.23634 8.94024 6.2547C9.0163 6.17803 9.11804 6.1322 9.22587 6.12604C9.3337 6.11988 9.44 6.15383 9.5243 6.22134L11.4061 7.72908L11.7796 7.35118Z" fill="#1E1E1E"/>
</g>
<defs>
<clipPath id="clip0_403_4137">
<rect width="14" height="14" fill="white" transform="translate(0.5)"/>
</clipPath>
</defs>
</svg>
