<svg width="24" height="24" viewBox="0 0 24 24" fill="none" xmlns="http://www.w3.org/2000/svg">
<path d="M12 18C11.5363 18.0019 11.0845 18.1471 10.7065 18.4156C10.3284 18.6841 10.0426 19.0628 9.888 19.5H9C8.40326 19.5 7.83097 19.2629 7.40901 18.841C6.98705 18.419 6.75 17.8467 6.75 17.25V15.75C6.75 15.5511 6.67098 15.3603 6.53033 15.2197C6.38968 15.079 6.19891 15 6 15C5.80109 15 5.61032 15.079 5.46967 15.2197C5.32902 15.3603 5.25 15.5511 5.25 15.75V17.25C5.25119 18.2442 5.64666 19.1973 6.34966 19.9003C7.05267 20.6033 8.0058 20.9988 9 21H9.888C10.0262 21.3879 10.2683 21.7303 10.5879 21.9899C10.9075 22.2495 11.2924 22.4162 11.7003 22.4719C12.1083 22.5275 12.5237 22.47 12.9012 22.3055C13.2787 22.1411 13.6037 21.876 13.8408 21.5393C14.0778 21.2026 14.2177 20.8073 14.2452 20.3964C14.2728 19.9856 14.1868 19.5751 13.9968 19.2098C13.8069 18.8445 13.5201 18.5384 13.168 18.3251C12.8158 18.1117 12.4118 17.9993 12 18Z" fill="#0196FB"/>
<path d="M19.125 9H18.75V8.25C18.75 6.45979 18.0388 4.7429 16.773 3.47703C15.5071 2.21116 13.7902 1.5 12 1.5C10.2098 1.5 8.4929 2.21116 7.22703 3.47703C5.96116 4.7429 5.25 6.45979 5.25 8.25V9H4.875C4.17881 9 3.51113 9.27656 3.01884 9.76884C2.52656 10.2611 2.25 10.9288 2.25 11.625V13.875C2.25 14.5712 2.52656 15.2389 3.01884 15.7312C3.51113 16.2234 4.17881 16.5 4.875 16.5H6.75C7.14782 16.5 7.52936 16.342 7.81066 16.0607C8.09196 15.7794 8.25 15.3978 8.25 15V10.5C8.25 10.1022 8.09196 9.72064 7.81066 9.43934C7.52936 9.15804 7.14782 9 6.75 9V8.25C6.75 6.85761 7.30312 5.52226 8.28769 4.53769C9.27226 3.55312 10.6076 3 12 3C13.3924 3 14.7277 3.55312 15.7123 4.53769C16.6969 5.52226 17.25 6.85761 17.25 8.25V9C16.8522 9 16.4706 9.15804 16.1893 9.43934C15.908 9.72064 15.75 10.1022 15.75 10.5V15C15.75 15.3978 15.908 15.7794 16.1893 16.0607C16.4706 16.342 16.8522 16.5 17.25 16.5H19.125C19.8212 16.5 20.4889 16.2234 20.9812 15.7312C21.4734 15.2389 21.75 14.5712 21.75 13.875V11.625C21.75 10.9288 21.4734 10.2611 20.9812 9.76884C20.4889 9.27656 19.8212 9 19.125 9Z" fill="#0196FB"/>
</svg>
