<svg width="211" height="129" viewBox="0 0 211 129" fill="none" xmlns="http://www.w3.org/2000/svg">
<path d="M146.647 97.7913C156.963 86.485 167.972 64.3979 160.309 43.3877C159.519 41.2216 151.993 21.4432 135.35 17.7301C115.078 13.2074 105.668 37.9593 82.4514 37.0941C57.3094 36.1572 48.5303 6.3906 35.4226 9.988C19.923 14.2418 8.26898 62.4305 28.6977 92.0069C53.3077 127.637 118.909 128.193 146.647 97.7913Z" fill="#EFEDEF"/>
<path d="M89.8189 127.071C115.668 127.071 139.797 117.863 154.048 102.243C164.122 91.2023 178.715 65.7855 169.515 40.5594L168.73 40.8481C177.793 65.6957 163.378 90.7746 153.432 101.676C137.993 118.597 110.794 127.909 82.4593 125.981C55.8339 124.168 33.5342 112.952 21.2779 95.2072C6.06837 73.1871 6.80997 41.966 13.9352 22.276C17.6998 11.8725 23.0509 5.02938 28.6166 3.50223L28.3962 2.69189C22.5656 4.29206 17.008 11.3255 13.1495 21.989C5.95331 41.8757 5.21252 73.4209 20.5914 95.6862C32.993 113.641 55.5225 124.989 82.4026 126.819C84.8853 126.988 87.3574 127.072 89.8189 127.071Z" fill="#EFEDEF"/>
<path d="M184.132 127.7L184.484 127.488C184.385 127.323 174.575 110.897 173.048 106.805L172.664 106.95C174.204 111.077 183.727 127.024 184.132 127.7Z" fill="#8B9D36"/>
<path d="M176.18 98.1919C175.765 99.224 175.448 100.293 175.232 101.385C175.012 102.455 174.85 103.535 174.748 104.623C174.642 105.71 174.598 106.802 174.614 107.894C174.62 109.007 174.732 110.118 174.949 111.21C175.366 110.178 175.684 109.109 175.899 108.017C176.12 106.947 176.281 105.866 176.382 104.779C176.485 103.692 176.529 102.6 176.513 101.508C176.506 100.394 176.395 99.2841 176.18 98.1919Z" fill="#8B9D36"/>
<path d="M179.802 103.164C179.297 104.126 178.885 105.134 178.572 106.175C178.256 107.192 177.998 108.227 177.799 109.274C177.597 110.32 177.454 111.377 177.372 112.44C177.278 113.523 177.29 114.613 177.407 115.695C177.915 114.734 178.328 113.726 178.64 112.684C178.955 111.667 179.213 110.632 179.411 109.585C179.611 108.538 179.753 107.481 179.835 106.419C179.928 105.335 179.917 104.245 179.802 103.164Z" fill="#8B9D36"/>
<path d="M181.794 108.955C181.349 109.848 180.998 110.786 180.747 111.753C180.493 112.695 180.298 113.652 180.161 114.618C180.021 115.583 179.942 116.557 179.924 117.532C179.895 118.532 179.972 119.531 180.152 120.514C180.599 119.621 180.951 118.683 181.202 117.716C181.456 116.774 181.651 115.817 181.786 114.851C181.923 113.885 182.002 112.911 182.02 111.936C182.049 110.937 181.973 109.938 181.794 108.955Z" fill="#8B9D36"/>
<path d="M184.309 114.735C183.862 115.483 183.506 116.283 183.247 117.116C182.989 117.921 182.787 118.744 182.644 119.578C182.499 120.411 182.413 121.253 182.389 122.099C182.354 122.972 182.423 123.845 182.597 124.701C183.046 123.953 183.403 123.154 183.661 122.32C183.92 121.515 184.121 120.692 184.262 119.858C184.405 119.025 184.49 118.182 184.515 117.336C184.55 116.464 184.481 115.591 184.309 114.735Z" fill="#8B9D36"/>
<path d="M186.526 118.347C186.07 118.996 185.693 119.698 185.405 120.438C185.122 121.144 184.886 121.869 184.7 122.607C184.515 123.34 184.373 124.082 184.274 124.832C184.228 125.209 184.186 125.585 184.158 125.967C184.143 126.357 184.102 126.746 184.034 127.13C184.129 127.079 184.22 127.021 184.306 126.957L184.528 126.735C184.669 126.583 184.798 126.42 184.915 126.248C185.139 125.917 185.338 125.569 185.51 125.208C185.843 124.504 186.104 123.769 186.291 123.014C186.48 122.264 186.603 121.5 186.658 120.729C186.724 119.933 186.68 119.131 186.526 118.347Z" fill="#8B9D36"/>
<path d="M174.027 109.432C173.283 108.611 172.444 107.881 171.53 107.256C170.649 106.641 169.727 106.088 168.77 105.602C167.814 105.113 166.825 104.692 165.811 104.343C164.768 103.972 163.686 103.727 162.586 103.612C163.329 104.435 164.167 105.166 165.082 105.79C165.962 106.405 166.885 106.957 167.843 107.441C168.8 107.929 169.789 108.348 170.804 108.698C171.846 109.068 172.928 109.314 174.027 109.432Z" fill="#8B9D36"/>
<path d="M176.48 114.033C175.528 113.25 174.495 112.571 173.4 112.007C172.337 111.447 171.24 110.953 170.116 110.529C168.992 110.102 167.844 109.747 166.676 109.465C165.482 109.165 164.26 108.993 163.029 108.955C163.981 109.739 165.013 110.419 166.108 110.983C167.171 111.544 168.269 112.037 169.394 112.459C170.518 112.884 171.667 113.238 172.835 113.52C174.029 113.82 175.251 113.992 176.48 114.033Z" fill="#8B9D36"/>
<path d="M179.367 119.152C178.519 118.395 177.587 117.739 176.59 117.196C175.627 116.658 174.629 116.187 173.602 115.785C172.577 115.38 171.525 115.046 170.454 114.786C169.354 114.507 168.226 114.357 167.092 114.338C167.938 115.097 168.87 115.754 169.867 116.297C170.83 116.835 171.829 117.305 172.856 117.705C173.883 118.108 174.935 118.441 176.006 118.701C177.105 118.98 178.233 119.131 179.367 119.152Z" fill="#8B9D36"/>
<path d="M181.649 123.089C180.91 122.446 180.09 121.904 179.21 121.475C178.368 121.055 177.495 120.702 176.598 120.42C175.701 120.135 174.784 119.924 173.853 119.787C172.887 119.634 171.905 119.611 170.933 119.718C171.671 120.363 172.491 120.907 173.371 121.334C174.213 121.756 175.087 122.108 175.985 122.387C176.882 122.67 177.799 122.881 178.729 123.017C179.695 123.17 180.677 123.194 181.649 123.089Z" fill="#8B9D36"/>
<path d="M183.451 126.622C182.638 125.839 181.739 125.152 180.77 124.576C179.835 124.007 178.862 123.503 177.858 123.067C176.856 122.628 175.825 122.259 174.772 121.964C173.69 121.648 172.576 121.459 171.451 121.403C172.262 122.188 173.161 122.876 174.131 123.452C175.066 124.021 176.039 124.525 177.043 124.959C178.047 125.396 179.078 125.763 180.131 126.059C181.212 126.374 182.326 126.563 183.451 126.622Z" fill="#8B9D36"/>
<path d="M173.232 107.469C173.382 106.37 173.355 105.253 173.152 104.162C172.974 103.133 172.693 102.125 172.313 101.153C171.938 100.179 171.464 99.2469 170.9 98.3701C170.312 97.4298 169.576 96.5917 168.72 95.8887C168.567 96.9885 168.593 98.1061 168.796 99.1976C168.974 100.226 169.257 101.234 169.639 102.205C170.017 103.178 170.492 104.109 171.056 104.987C171.644 105.926 172.379 106.764 173.232 107.469Z" fill="#8B9D36"/>
<path d="M185.637 128.374L186.048 128.367C186.03 127.24 185.543 100.671 180.253 92.2559L179.906 92.4765C185.135 100.794 185.633 128.099 185.637 128.374Z" fill="#50661A"/>
<path d="M181.78 96.0522C181.618 94.8196 181.577 93.5738 181.657 92.333C181.726 91.124 181.859 89.9196 182.057 88.7252C182.249 87.5354 182.51 86.3575 182.816 85.1894C183.123 84.0136 183.509 82.8823 183.923 81.6772C184.039 81.9765 184.128 82.2861 184.187 82.6019C184.254 82.9121 184.302 83.2258 184.332 83.5415C184.396 84.1611 184.424 84.7839 184.416 85.4067C184.397 86.632 184.286 87.8541 184.081 89.0622C183.883 90.2667 183.601 91.4559 183.24 92.6215C182.882 93.8161 182.393 94.9669 181.78 96.0522Z" fill="#50661A"/>
<path d="M175.278 79.2266C176.187 80.1074 176.967 81.114 177.593 82.2158C178.204 83.2609 178.723 84.3571 179.145 85.4921C179.571 86.6257 179.897 87.7948 180.119 88.9858C180.367 90.2307 180.436 91.505 180.322 92.7694C179.41 91.8905 178.629 90.8842 178.003 89.7815C177.392 88.7368 176.874 87.64 176.455 86.5038C176.032 85.3691 175.707 84.1997 175.485 83.0087C175.237 81.7643 175.168 80.4908 175.278 79.2266Z" fill="#50661A"/>
<path d="M170.919 85.999C171.998 86.8698 173.016 87.8129 173.968 88.822C174.91 89.8036 175.81 90.8071 176.689 91.816L179.304 94.8303C179.742 95.3239 180.185 95.8102 180.653 96.2709C181.116 96.759 181.655 97.168 182.248 97.4817C181.886 97.5453 181.515 97.5359 181.157 97.4539C180.795 97.3815 180.443 97.2701 180.105 97.1215C179.444 96.8296 178.816 96.4678 178.232 96.0422C177.097 95.2078 176.062 94.2453 175.146 93.1738C174.235 92.124 173.414 90.9979 172.694 89.8079C171.952 88.6145 171.356 87.3357 170.919 85.999Z" fill="#50661A"/>
<path d="M170.918 92.77C172.248 93.4372 173.516 94.221 174.709 95.1125C175.889 95.9795 177.024 96.9064 178.11 97.8898C179.198 98.8705 180.234 99.9073 181.216 100.996C182.223 102.094 183.131 103.281 183.928 104.541C182.597 103.876 181.328 103.093 180.136 102.201C178.956 101.334 177.821 100.407 176.737 99.4217C175.65 98.4393 174.614 97.4018 173.633 96.3133C172.626 95.2148 171.717 94.0291 170.918 92.77Z" fill="#50661A"/>
<path d="M171.363 98.083C172.703 98.7094 173.984 99.454 175.193 100.308C176.388 101.138 177.54 102.03 178.644 102.978C179.751 103.925 180.807 104.928 181.809 105.985C182.838 107.051 183.77 108.208 184.593 109.441C183.252 108.817 181.969 108.073 180.761 107.218C179.566 106.388 178.414 105.496 177.311 104.546C176.206 103.598 175.151 102.593 174.148 101.537C173.12 100.471 172.188 99.3149 171.363 98.083Z" fill="#50661A"/>
<path d="M171.657 103.761C172.99 104.264 174.274 104.89 175.493 105.631C176.696 106.347 177.861 107.128 178.981 107.969C180.103 108.808 181.179 109.707 182.205 110.663C183.258 111.626 184.22 112.686 185.077 113.829C183.743 113.328 182.458 112.703 181.239 111.962C180.036 111.245 178.872 110.464 177.753 109.621C176.632 108.781 175.557 107.881 174.531 106.925C173.479 105.961 172.517 104.902 171.657 103.761Z" fill="#50661A"/>
<path d="M171.363 107.881C172.758 108.445 174.101 109.13 175.377 109.929C176.638 110.704 177.86 111.543 179.038 112.443C180.218 113.339 181.351 114.296 182.433 115.309C183.542 116.329 184.559 117.445 185.472 118.646C184.077 118.084 182.733 117.4 181.457 116.6C180.195 115.825 178.974 114.985 177.797 114.084C176.619 113.186 175.487 112.229 174.404 111.216C173.296 110.195 172.278 109.08 171.363 107.881Z" fill="#50661A"/>
<path d="M170.329 111.741C171.781 112.419 173.183 113.201 174.524 114.08C175.856 114.937 177.145 115.843 178.401 116.788C179.661 117.728 180.886 118.708 182.09 119.72C183.306 120.724 184.454 121.769 185.712 122.805C184.905 122.671 184.116 122.44 183.363 122.116C182.618 121.803 181.89 121.451 181.182 121.061C179.789 120.278 178.45 119.402 177.173 118.439C175.901 117.481 174.685 116.45 173.531 115.352C172.356 114.249 171.284 113.041 170.329 111.741Z" fill="#50661A"/>
<path d="M169.072 115.749C170.642 116.362 172.164 117.089 173.628 117.924C175.083 118.739 176.495 119.613 177.874 120.533C179.254 121.454 180.6 122.421 181.914 123.436C182.57 123.945 183.22 124.463 183.864 124.99C184.487 125.545 185.148 126.054 185.844 126.513C185.407 126.513 184.975 126.439 184.564 126.292C184.151 126.17 183.751 126.02 183.355 125.865C182.565 125.55 181.802 125.189 181.053 124.808C179.567 124.039 178.126 123.185 176.738 122.25C175.35 121.322 174.009 120.323 172.721 119.259C171.411 118.192 170.19 117.018 169.072 115.749Z" fill="#50661A"/>
<path d="M183.054 100.769C183.121 99.4291 183.318 98.0994 183.643 96.7987C183.95 95.5216 184.329 94.2633 184.779 93.0298C185.225 91.795 185.742 90.5874 186.328 89.413C186.915 88.208 187.619 87.0644 188.43 85.999C188.366 87.3388 188.169 88.6689 187.844 89.9698C187.537 91.2469 187.157 92.505 186.705 93.7378C186.257 94.9718 185.739 96.179 185.153 97.3536C184.566 98.5581 183.863 99.7019 183.054 100.769Z" fill="#50661A"/>
<path d="M183.928 105.403C184.18 104.071 184.56 102.766 185.062 101.508C185.544 100.27 186.094 99.0602 186.711 97.8847C187.325 96.7076 188.006 95.5669 188.75 94.4683C189.499 93.3397 190.356 92.2876 191.309 91.3271C191.06 92.6602 190.681 93.9654 190.178 95.2241C189.697 96.462 189.145 97.6712 188.526 98.8457C187.91 100.022 187.229 101.162 186.485 102.261C185.736 103.389 184.88 104.441 183.928 105.403Z" fill="#50661A"/>
<path d="M184.591 109.886C185.023 108.534 185.579 107.224 186.251 105.975C186.901 104.743 187.616 103.547 188.393 102.392C189.168 101.235 190.005 100.121 190.901 99.0564C191.804 97.963 192.806 96.957 193.896 96.0518C193.466 97.4052 192.911 98.7151 192.238 99.9643C191.589 101.197 190.873 102.392 190.093 103.546C189.317 104.702 188.479 105.815 187.584 106.88C186.681 107.973 185.679 108.979 184.591 109.886Z" fill="#50661A"/>
<path d="M185.08 114.831C185.757 113.369 186.552 111.965 187.456 110.633C188.339 109.309 189.282 108.033 190.283 106.806C191.282 105.576 192.338 104.394 193.452 103.259C194.57 102.102 195.782 101.041 197.075 100.086C196.401 101.549 195.607 102.954 194.701 104.285C193.818 105.61 192.875 106.885 191.872 108.111C190.871 109.339 189.814 110.52 188.701 111.656C187.582 112.811 186.371 113.873 185.08 114.831Z" fill="#50661A"/>
<path d="M185.475 119.96C186.305 118.57 187.246 117.25 188.289 116.014C189.31 114.783 190.385 113.606 191.513 112.484C192.639 111.358 193.817 110.286 195.048 109.268C196.286 108.228 197.607 107.292 198.997 106.471C198.17 107.862 197.229 109.182 196.185 110.418C195.164 111.65 194.089 112.826 192.959 113.947C191.831 115.07 190.652 116.141 189.422 117.161C188.184 118.2 186.864 119.136 185.475 119.96Z" fill="#50661A"/>
<path d="M185.71 123.248C186.631 122.049 187.654 120.933 188.768 119.913C189.855 118.899 190.993 117.942 192.176 117.044C193.357 116.143 194.584 115.303 195.85 114.528C197.131 113.729 198.479 113.045 199.879 112.484C198.96 113.685 197.938 114.801 196.824 115.822C195.736 116.835 194.598 117.792 193.413 118.688C192.231 119.587 191.004 120.426 189.737 121.201C188.457 122 187.109 122.685 185.71 123.248Z" fill="#50661A"/>
<path d="M185.846 125.996C186.95 124.901 188.145 123.903 189.417 123.012C190.666 122.12 191.953 121.294 193.278 120.536C194.601 119.773 195.961 119.076 197.358 118.444C198.768 117.793 200.231 117.265 201.73 116.865C200.627 117.961 199.432 118.96 198.16 119.851C196.911 120.743 195.623 121.568 194.297 122.325C192.973 123.085 191.613 123.781 190.216 124.414C188.806 125.064 187.344 125.594 185.846 125.996Z" fill="#50661A"/>
<path d="M185.743 127.777C187.068 126.858 188.466 126.049 189.922 125.358C191.356 124.663 192.817 124.043 194.303 123.488C195.789 122.933 197.3 122.448 198.837 122.034C200.39 121.603 201.975 121.301 203.577 121.133C202.253 122.054 200.855 122.864 199.399 123.554C197.965 124.249 196.504 124.872 195.016 125.421C193.53 125.974 192.019 126.462 190.481 126.873C188.929 127.303 187.344 127.605 185.743 127.777Z" fill="#50661A"/>
<path d="M186.461 127.634C186.865 126.958 196.388 111.012 197.928 106.884L197.544 106.739C196.017 110.832 186.208 127.257 186.109 127.422L186.461 127.634Z" fill="#5E7C24"/>
<path d="M194.43 98.1919C194.846 99.224 195.163 100.293 195.378 101.385C195.599 102.455 195.761 103.535 195.863 104.623C195.968 105.71 196.013 106.802 195.997 107.894C195.99 109.007 195.878 110.118 195.662 111.21C195.245 110.178 194.926 109.109 194.712 108.017C194.491 106.947 194.33 105.866 194.229 104.779C194.126 103.692 194.082 102.6 194.098 101.508C194.105 100.394 194.216 99.2841 194.43 98.1919Z" fill="#5E7C24"/>
<path d="M190.812 103.164C191.318 104.126 191.73 105.134 192.043 106.175C192.358 107.192 192.616 108.227 192.816 109.274C193.018 110.32 193.16 111.377 193.242 112.44C193.336 113.523 193.324 114.613 193.207 115.695C192.7 114.734 192.287 113.726 191.974 112.684C191.659 111.667 191.402 110.632 191.204 109.585C191.003 108.538 190.861 107.481 190.779 106.419C190.686 105.335 190.697 104.245 190.812 103.164Z" fill="#5E7C24"/>
<path d="M188.815 108.955C189.261 109.848 189.612 110.786 189.863 111.753C190.116 112.695 190.312 113.652 190.449 114.618C190.588 115.583 190.667 116.557 190.686 117.532C190.715 118.532 190.638 119.531 190.457 120.514C190.01 119.621 189.658 118.683 189.408 117.716C189.154 116.774 188.959 115.817 188.824 114.851C188.686 113.885 188.608 112.911 188.589 111.936C188.561 110.937 188.637 109.938 188.815 108.955Z" fill="#5E7C24"/>
<path d="M186.303 114.735C186.75 115.483 187.106 116.283 187.365 117.116C187.623 117.921 187.825 118.744 187.968 119.578C188.113 120.411 188.199 121.253 188.223 122.099C188.258 122.972 188.189 123.845 188.015 124.701C187.566 123.953 187.209 123.154 186.951 122.32C186.692 121.515 186.491 120.692 186.35 119.858C186.207 119.025 186.122 118.182 186.097 117.336C186.062 116.464 186.131 115.591 186.303 114.735Z" fill="#5E7C24"/>
<path d="M184.087 118.347C184.543 118.996 184.919 119.698 185.208 120.438C185.491 121.144 185.727 121.869 185.913 122.607C186.098 123.34 186.24 124.082 186.339 124.832C186.385 125.209 186.427 125.585 186.455 125.967C186.47 126.357 186.511 126.746 186.579 127.13C186.484 127.079 186.393 127.021 186.306 126.957L186.085 126.735C185.944 126.583 185.815 126.42 185.698 126.248C185.473 125.917 185.275 125.569 185.103 125.208C184.77 124.504 184.509 123.769 184.322 123.014C184.132 122.264 184.009 121.5 183.955 120.729C183.888 119.933 183.933 119.131 184.087 118.347Z" fill="#5E7C24"/>
<path d="M196.586 109.432C197.331 108.611 198.169 107.881 199.083 107.256C199.964 106.641 200.886 106.088 201.843 105.602C202.799 105.113 203.788 104.692 204.802 104.343C205.845 103.972 206.927 103.727 208.027 103.612C207.284 104.435 206.446 105.166 205.531 105.79C204.651 106.405 203.728 106.957 202.77 107.441C201.813 107.929 200.824 108.348 199.809 108.698C198.767 109.068 197.685 109.314 196.586 109.432Z" fill="#5E7C24"/>
<path d="M194.129 114.033C195.082 113.25 196.114 112.571 197.209 112.007C198.273 111.447 199.37 110.953 200.494 110.529C201.617 110.102 202.766 109.747 203.934 109.465C205.128 109.165 206.35 108.993 207.58 108.955C206.629 109.739 205.597 110.419 204.502 110.983C203.438 111.544 202.341 112.037 201.216 112.459C200.092 112.884 198.943 113.238 197.775 113.52C196.581 113.82 195.359 113.992 194.129 114.033Z" fill="#5E7C24"/>
<path d="M191.244 119.152C192.092 118.395 193.024 117.739 194.02 117.196C194.983 116.658 195.982 116.187 197.008 115.785C198.034 115.38 199.086 115.046 200.157 114.786C201.256 114.507 202.385 114.357 203.519 114.338C202.672 115.097 201.741 115.754 200.743 116.297C199.78 116.835 198.782 117.305 197.754 117.705C196.728 118.108 195.676 118.441 194.605 118.701C193.505 118.98 192.378 119.131 191.244 119.152Z" fill="#5E7C24"/>
<path d="M188.96 123.089C189.699 122.446 190.518 121.904 191.398 121.475C192.24 121.055 193.113 120.702 194.011 120.42C194.907 120.135 195.825 119.924 196.755 119.787C197.721 119.634 198.703 119.611 199.675 119.718C198.937 120.363 198.118 120.907 197.237 121.334C196.396 121.756 195.522 122.108 194.624 122.387C193.727 122.67 192.809 122.881 191.879 123.017C190.913 123.17 189.932 123.194 188.96 123.089Z" fill="#5E7C24"/>
<path d="M187.158 126.622C187.97 125.839 188.87 125.152 189.838 124.576C190.774 124.007 191.746 123.503 192.75 123.067C193.752 122.628 194.784 122.259 195.837 121.964C196.918 121.648 198.032 121.459 199.157 121.403C198.346 122.188 197.447 122.876 196.478 123.452C195.543 124.021 194.57 124.525 193.565 124.959C192.562 125.396 191.53 125.763 190.477 126.059C189.396 126.374 188.282 126.563 187.158 126.622Z" fill="#5E7C24"/>
<path d="M197.382 107.469C197.232 106.37 197.259 105.253 197.462 104.162C197.64 103.133 197.921 102.125 198.3 101.153C198.676 100.179 199.15 99.2469 199.714 98.3701C200.302 97.4298 201.038 96.5917 201.894 95.8887C202.047 96.9885 202.021 98.1061 201.818 99.1976C201.64 100.226 201.357 101.234 200.975 102.205C200.597 103.178 200.122 104.109 199.558 104.987C198.97 105.926 198.235 106.764 197.382 107.469Z" fill="#5E7C24"/>
<path d="M126.473 30.6899C130.674 30.9412 134.876 31.1391 139.079 31.2834C143.282 31.4395 147.486 31.5464 151.69 31.6439C155.895 31.7256 160.099 31.7968 164.305 31.8191C168.51 31.8533 172.717 31.8331 176.925 31.7587C172.724 31.5064 168.522 31.3082 164.319 31.1639C160.116 31.0081 155.912 30.9012 151.708 30.8047C147.503 30.724 143.299 30.6529 139.093 30.6307C134.887 30.597 130.681 30.6167 126.473 30.6899Z" fill="#F9E0C0"/>
<path d="M160.308 43.3882C164.509 43.6395 168.711 43.8373 172.914 43.9818C177.117 44.1378 181.321 44.2447 185.525 44.3421C189.73 44.4239 193.935 44.4951 198.14 44.5174C202.346 44.5516 206.552 44.5315 210.76 44.457C206.559 44.2047 202.357 44.0064 198.154 43.8621C193.951 43.7063 189.747 43.5994 185.543 43.503C181.339 43.4223 177.134 43.3511 172.928 43.329C168.723 43.2952 164.516 43.3149 160.308 43.3882Z" fill="#F9E0C0"/>
<path d="M145.846 57.5981C150.047 57.8494 154.249 58.0473 158.452 58.1917C162.655 58.3478 166.859 58.4547 171.063 58.5521C175.267 58.6338 179.472 58.7051 183.678 58.7273C187.883 58.7616 192.09 58.7414 196.298 58.6669C192.097 58.4146 187.895 58.2164 183.692 58.0721C179.489 57.9163 175.285 57.8093 171.081 57.713C166.876 57.6323 162.671 57.561 158.466 57.539C154.26 57.5051 150.054 57.5249 145.846 57.5981Z" fill="#F9E0C0"/>
<path d="M0.417923 128.79H206.809C206.92 128.79 207.026 128.745 207.105 128.667C207.183 128.588 207.227 128.481 207.227 128.37C207.227 128.258 207.183 128.151 207.105 128.073C207.026 127.994 206.92 127.95 206.809 127.95H0.417923C0.307083 127.95 0.20079 127.994 0.122406 128.073C0.0440369 128.151 0 128.258 0 128.37C0 128.481 0.0440369 128.588 0.122406 128.667C0.20079 128.745 0.307083 128.79 0.417923 128.79Z" fill="#935B50"/>
<path d="M70.0916 54.5377C66.0578 54.5377 66.0512 48.2388 70.0916 48.2388C74.1254 48.2388 74.1321 54.5377 70.0916 54.5377Z" fill="#5669A5"/>
<path d="M104.286 1.67438C103.018 1.46916 101.719 1.56981 100.496 1.96805C99.9234 2.16668 97.8277 2.89305 96.7925 4.8719C96.3993 5.62343 96.3042 6.53074 96.1137 8.34535C95.9948 9.47879 95.5531 10.2875 95.542 11.6711C95.5551 12.7923 95.7287 13.9057 96.0574 14.9772C96.5495 16.6541 96.2154 17.6015 96.4652 17.9164C97.4721 19.1851 100.57 18.223 100.602 19.8676C100.622 20.8831 98.8796 25.2514 98.9043 26.441C98.9619 29.2133 103.593 26.3523 106.384 22.2418C106.51 22.0553 108.404 20.9634 108.222 19.166C108.125 18.2059 107.352 13.6978 107.435 13.1178C107.734 11.0211 108.789 10.7742 109.641 8.24397C109.871 7.60887 109.936 6.92491 109.828 6.25763C109.72 5.59036 109.443 4.96216 109.024 4.43323C107.815 2.98383 106.139 2.00731 104.286 1.67438Z" fill="#F9977A"/>
<path d="M96.5296 10.6604C96.2953 10.6584 96.1074 10.4194 96.1099 10.1267C96.1124 9.83401 96.3043 9.59835 96.5386 9.60036C96.7728 9.60237 96.9607 9.84129 96.9582 10.134C96.9557 10.4267 96.7638 10.6624 96.5296 10.6604Z" fill="#0A0709"/>
<path d="M100.351 10.6926C100.117 10.6906 99.9291 10.4517 99.9316 10.159C99.9341 9.86624 100.126 9.63058 100.36 9.63259C100.595 9.6346 100.782 9.87352 100.78 10.1662C100.777 10.459 100.586 10.6946 100.351 10.6926Z" fill="#0A0709"/>
<path d="M98.5609 9.19941C98.5093 9.19893 98.4589 9.18335 98.4159 9.15457C98.0421 8.89043 97.5975 8.746 97.1406 8.74025C96.6836 8.7345 96.2357 8.86769 95.8554 9.12235C95.7983 9.16447 95.7269 9.18214 95.6568 9.17146C95.5868 9.16079 95.5238 9.12265 95.4817 9.0654C95.4396 9.00816 95.4218 8.93648 95.4322 8.86606C95.4425 8.79564 95.4803 8.73223 95.5371 8.68973C96.0078 8.37479 96.5613 8.2081 97.1267 8.21097C97.6922 8.21385 98.244 8.38615 98.7114 8.70585C98.7596 8.73791 98.7962 8.78476 98.8157 8.83941C98.8351 8.89407 98.8365 8.95358 98.8196 9.00909C98.8027 9.0646 98.7683 9.11313 98.7217 9.14743C98.6751 9.18173 98.6187 9.19996 98.5609 9.19941Z" fill="#1E1D22"/>
<path d="M102.523 9.23406C102.471 9.23358 102.421 9.218 102.378 9.18922C102.003 8.92791 101.559 8.78514 101.102 8.77925C100.646 8.77336 100.199 8.9046 99.8171 9.15614C99.7889 9.17717 99.7568 9.1924 99.7227 9.20098C99.6886 9.20956 99.6532 9.21131 99.6185 9.20613C99.5837 9.20095 99.5503 9.18895 99.5202 9.1708C99.4901 9.15265 99.4638 9.12872 99.4429 9.10037C99.4219 9.07202 99.4068 9.03981 99.3982 9.00557C99.3897 8.97133 99.388 8.93574 99.3931 8.90082C99.3983 8.86591 99.4102 8.83235 99.4283 8.80207C99.4463 8.7718 99.4702 8.74539 99.4984 8.72437C99.9691 8.40945 100.523 8.24277 101.088 8.24564C101.654 8.24851 102.206 8.42081 102.673 8.74049C102.721 8.77255 102.758 8.81941 102.777 8.87406C102.797 8.92871 102.798 8.98823 102.781 9.04374C102.764 9.09925 102.73 9.14778 102.683 9.18208C102.637 9.21637 102.58 9.23461 102.523 9.23406Z" fill="#1E1D22"/>
<path d="M98.9227 9.31104C99.0617 9.75892 99.0403 10.2416 98.8623 10.6753C98.7078 11.1114 98.4857 11.5202 98.2039 11.8864L97.9803 12.1378C97.953 12.1627 97.931 12.1927 97.9154 12.2263C97.8998 12.2598 97.8911 12.2961 97.8897 12.3331C97.9061 12.5145 97.9932 12.6821 98.1319 12.7995C98.473 13.0569 98.8979 13.1761 99.3224 13.1337C99.1018 13.2223 98.8634 13.2566 98.6269 13.2339C98.3904 13.2112 98.1628 13.132 97.9629 13.003C97.8527 12.9271 97.7603 12.8278 97.6924 12.7122C97.6244 12.5966 97.5825 12.4674 97.5695 12.3338C97.5685 12.182 97.625 12.0355 97.7276 11.9241L97.9436 11.6702C98.2077 11.3272 98.4353 10.9574 98.6227 10.5668C98.8273 10.1806 98.9305 9.74842 98.9227 9.31104Z" fill="#DD765E"/>
<path d="M105.87 9.55169C106.036 9.50355 106.213 9.51414 106.372 9.58169C106.531 9.64465 106.675 9.73995 106.795 9.86156C106.911 9.98094 107.007 10.1198 107.076 10.2718C107.146 10.423 107.185 10.5867 107.19 10.7532C107.072 10.6481 106.96 10.5359 106.856 10.4172C106.75 10.311 106.66 10.1978 106.555 10.1013C106.457 9.99934 106.353 9.90284 106.244 9.81221C106.128 9.7145 106.002 9.62733 105.87 9.55169Z" fill="#DD765E"/>
<path d="M106.198 11.7642C106.089 11.6194 106.011 11.4528 105.97 11.2755C105.93 11.0982 105.927 10.9142 105.963 10.7359C105.993 10.5555 106.059 10.383 106.156 10.2283C106.25 10.0734 106.38 9.9435 106.535 9.84961C106.437 10.1595 106.358 10.4747 106.296 10.7937C106.244 11.115 106.212 11.439 106.198 11.7642Z" fill="#DD765E"/>
<path d="M103.586 13.7168C103.586 13.7168 104.314 10.6749 104.193 9.80114C104.024 8.58365 103.94 7.97494 104.089 7.48135C104.327 6.69129 103.944 6.58485 103.457 5.7294C103 4.92653 101.558 5.56089 101.201 5.42466C100.198 5.04225 100.239 4.61685 99.5588 4.5685C98.8614 4.51893 98.351 4.32933 97.8964 4.77777C97.4328 5.23549 96.5788 6.45545 96.3727 6.24077C95.9391 5.65023 95.6758 4.95111 95.6117 4.22012C95.6126 3.50016 95.7882 2.79128 96.1233 2.15491C96.2916 1.78705 96.9183 0.418109 98.202 0.0622188C98.9413 -0.142795 99.0798 0.215322 100.674 0.323887C102.328 0.436541 102.383 0.0652072 103.247 0.320125C104.204 0.602356 104.164 1.06486 105.796 1.9787C106.337 2.27204 106.893 2.53563 107.463 2.7683C109.513 3.66163 109.784 3.52393 110.253 3.98756C111.265 4.98713 111.084 6.68929 111.04 7.10045C110.917 8.25841 110.464 8.60281 109.468 10.4509C107.892 13.3776 108.193 14.6157 107.621 15.0231C107.341 15.2229 105.878 14.1594 105.889 13.6417C105.904 12.963 106.393 12.7529 106.974 11.7768C107.38 11.0945 107.964 10.115 107.64 9.21983C107.445 8.67869 107.22 8.82433 106.663 8.87138C105.908 8.93524 105.527 9.98871 105.218 10.7616C104.995 11.321 104.896 11.9224 104.927 12.5243C104.996 13.8669 103.321 14.2489 103.586 13.7168Z" fill="#1E1D22"/>
<path d="M100.189 15.014C100.189 15.014 98.505 16.5652 97.0245 14.9868L100.189 15.014Z" fill="#0A0709"/>
<path d="M99.8145 22.9025C99.8145 22.9025 96.8553 31.4999 108.17 18.7285L113.087 22.8304C114.105 23.6951 114.808 24.8765 115.084 26.1876C115.324 28.0475 115.565 29.9075 115.806 31.7675C116.722 38.8389 116.728 45.9992 115.825 53.0722C115.582 54.9797 115.338 56.8873 115.094 58.7949L93.9545 61.7113C95.1437 57.6207 95.846 53.4028 96.0466 49.1459C96.2845 44.0507 95.6564 41.8828 95.8962 37.6566C96.2263 32.5279 97.5577 27.5146 99.8145 22.9025Z" fill="#FFBA55"/>
<path d="M96.7288 57.21C97.1118 56.9894 97.5017 56.7895 97.8861 56.5797L99.0148 55.9124C99.7499 55.4476 100.452 54.9326 101.117 54.3711C101.783 53.8155 102.385 53.1872 102.913 52.4979C103.173 52.1504 103.405 51.7823 103.606 51.3971C103.821 51.0149 103.983 50.6059 104.091 50.1807C103.969 51.0688 103.638 51.9149 103.125 52.6485C102.625 53.3905 102.023 54.0574 101.337 54.6294C100.658 55.2034 99.9238 55.7083 99.1458 56.1367L97.9597 56.7279C97.5479 56.8889 97.142 57.0597 96.7288 57.21Z" fill="#E6952A"/>
<path d="M102.64 17.7441C101.246 18.7104 98.5765 18.6454 98.5765 18.6454L98.5679 18.7078C99.6049 18.8436 100.587 18.9461 100.605 19.8684C100.557 20.3844 100.447 20.8929 100.28 21.3834C102.104 20.3513 102.64 17.7441 102.64 17.7441Z" fill="#DD765E"/>
<path d="M75.0051 92.2456L73.8733 98.0045L62.7802 99.7997L77.6138 104.326L80.7361 93.9942L75.0051 92.2456Z" fill="#F9977A"/>
<path d="M61.1362 99.8527L61.1465 99.8186C61.2255 99.5573 61.3751 99.3231 61.5787 99.1422C61.7824 98.9612 62.032 98.8407 62.2999 98.7939L73.8608 96.7758C73.9739 96.7561 74.0903 96.7769 74.1897 96.8347C74.289 96.8925 74.365 96.9835 74.4043 97.0918L75.5721 100.311C75.6135 100.425 75.6956 100.52 75.8025 100.577C75.9094 100.634 76.0335 100.649 76.1508 100.619L78.8703 99.9343C78.9543 99.9131 79.0423 99.9148 79.1255 99.939C79.2087 99.9632 79.2839 100.009 79.3436 100.072C79.4033 100.135 79.4453 100.213 79.4653 100.298C79.4853 100.382 79.4826 100.471 79.4574 100.554L78.1048 105.03C78.0671 105.155 77.9816 105.259 77.8671 105.321C77.7526 105.382 77.6185 105.396 77.4944 105.358L61.4622 100.466C61.338 100.428 61.2339 100.342 61.1728 100.227C61.1116 100.112 61.0985 99.9775 61.1362 99.8527Z" fill="#065082"/>
<path d="M115.494 54.6032C115.494 54.6032 118.872 69.6476 112.417 69.3779H87.8742L81.2624 96.1901C81.2624 96.1901 78.7202 97.2321 76.5135 96.7679C74.9977 96.449 73.6914 94.996 72.7835 94.2531C72.7835 94.2531 77.6138 55.8137 86.7512 54.6463C98.1491 53.1902 115.494 54.6032 115.494 54.6032Z" fill="#8B9D36"/>
<path d="M87.8751 69.3796C87.3094 68.666 86.804 67.9062 86.364 67.1082C86.1584 66.7141 85.9477 66.3204 85.7638 65.9049C85.5691 65.4927 85.4023 65.0656 85.1782 64.6274C85.1159 65.1107 85.1393 65.6013 85.2475 66.0763C85.3473 66.5558 85.518 67.0177 85.7541 67.4463C85.9894 67.8774 86.2901 68.2691 86.6453 68.6073C86.9909 68.9561 87.4117 69.2204 87.8751 69.3796Z" fill="#5E7C24"/>
<path d="M107.508 28.3121C107.508 28.3121 106.551 26.0193 94.0204 44.1021L98.7815 50.3108C98.7815 50.3108 105.694 44.5951 108.826 39.6609" fill="#FFBA55"/>
<path d="M67.6047 46.3483L56.5529 41.0518L55.9862 53.1881L66.6129 49.7325L67.6047 46.3483Z" fill="#6C7FD8"/>
<path d="M132.078 128.372C123.056 128.372 115.742 121.003 115.742 111.914C115.742 102.824 123.056 95.4556 132.078 95.4556C141.1 95.4556 148.413 102.824 148.413 111.914C148.413 121.003 141.1 128.372 132.078 128.372Z" fill="#1E1D22"/>
<path d="M132.079 120.453C127.396 120.453 123.601 116.628 123.601 111.911C123.601 107.194 127.396 103.37 132.079 103.37C136.761 103.37 140.557 107.194 140.557 111.911C140.557 116.628 136.761 120.453 132.079 120.453Z" fill="#848384"/>
<path d="M132.397 114.053C130.799 114.053 130.796 111.557 132.397 111.557C133.996 111.557 133.999 114.053 132.397 114.053Z" fill="white"/>
<path d="M43.448 128.372C34.4262 128.372 27.1125 121.003 27.1125 111.914C27.1125 102.824 34.4262 95.4556 43.448 95.4556C52.4699 95.4556 59.7836 102.824 59.7836 111.914C59.7836 121.003 52.4699 128.372 43.448 128.372Z" fill="#1E1D22"/>
<path d="M43.4445 120.453C38.7623 120.453 34.9666 116.628 34.9666 111.911C34.9666 107.194 38.7623 103.37 43.4445 103.37C48.1267 103.37 51.9224 107.194 51.9224 111.911C51.9224 116.628 48.1267 120.453 43.4445 120.453Z" fill="#848384"/>
<path d="M43.7654 115.323C40.5384 115.323 40.5331 110.284 43.7654 110.284C46.9924 110.284 46.9978 115.323 43.7654 115.323Z" fill="#1E1D22"/>
<path d="M22.5635 110.037C22.5635 110.037 37.4516 102.537 63.9193 112.537H111.196C111.196 112.537 126.911 122.537 153.379 115.037C153.379 115.037 156.687 109.204 148.416 96.7038C148.416 96.7038 143.454 82.5375 140.145 80.0375L94.5378 80.0615C94.5378 80.0615 95.6021 103.196 79.0598 104.863C62.5175 106.529 64.1717 90.6965 64.1717 90.6965L66.3614 55.6559C66.3992 53.4337 66.5499 51.2149 66.813 49.0082C67.1141 46.435 67.9829 46.7928 66.949 47.3136C65.2948 48.1469 49.0312 65.8711 45.7227 90.8706C45.7227 90.8706 26.699 88.3707 22.5635 110.037Z" fill="#6C7FD8"/>
<path d="M45.7195 90.8706C48.1604 91.5074 50.49 92.5159 52.6271 93.8612C53.6759 94.5223 54.6693 95.2684 55.5974 96.0919C56.5294 96.9029 57.3826 97.801 58.1455 98.7741C58.9268 99.7344 59.6224 100.762 60.2243 101.845C60.3907 102.107 60.5264 102.387 60.6705 102.663C60.809 102.942 60.9677 103.211 61.0904 103.497C61.3378 104.07 61.6153 104.631 61.8334 105.219C62.7401 107.592 63.437 110.041 63.9161 112.537C63.978 109.936 63.621 107.342 62.859 104.856C62.1022 102.324 60.8702 99.9616 59.2294 97.8954C56.7355 94.8003 53.3505 92.5554 49.5379 91.4678C48.2958 91.1052 47.0125 90.9045 45.7195 90.8706Z" fill="#5669A5"/>
<path d="M111.193 112.537C109.725 110.28 108.578 107.829 107.786 105.254C107.013 102.715 106.684 100.004 107.285 97.4921C107.92 94.9822 109.45 92.7943 111.586 91.3449C111.717 91.2511 111.839 91.1463 111.977 91.0611L112.39 90.8053C112.668 90.6378 112.933 90.4519 113.22 90.2985C113.806 90.0106 114.36 89.6754 114.981 89.4389L115.892 89.0535C116.186 88.9309 116.486 88.8234 116.791 88.7315C117.408 88.5384 118.043 88.3794 118.683 88.2438C121.261 87.7015 123.902 87.522 126.53 87.7103C127.848 87.7976 129.16 87.964 130.458 88.2086C131.758 88.4549 133.04 88.7942 134.314 89.167C139.41 90.8448 144.18 93.3945 148.413 96.7037L146.905 95.3448L145.327 94.0648L143.692 92.8511C143.129 92.4733 142.571 92.0828 141.999 91.714C139.687 90.2565 137.224 89.0547 134.655 88.1295C132.062 87.2149 129.365 86.6299 126.627 86.388C123.873 86.1571 121.1 86.3211 118.392 86.8753C117.715 87.0246 117.042 87.1984 116.375 87.4133C116.046 87.5197 115.697 87.639 115.374 87.7811L114.425 88.1916C113.786 88.4417 113.181 88.808 112.561 89.1216C112.255 89.2888 111.966 89.4921 111.668 89.676C111.367 89.8567 111.078 90.0588 110.806 90.2807C108.462 91.9468 106.828 94.4373 106.227 97.2578C105.96 98.643 105.922 100.063 106.117 101.461C106.309 102.832 106.653 104.178 107.142 105.473C107.634 106.75 108.223 107.987 108.904 109.173C109.572 110.357 110.338 111.482 111.193 112.537Z" fill="#5669A5"/>
<path d="M141.951 80.6973H96.8168C94.0762 80.6973 91.8541 78.1634 91.8541 75.0381C91.8541 71.9128 94.0762 69.3789 96.8168 69.3789H141.951C144.691 69.3789 146.913 71.9128 146.913 75.0381C146.913 78.1633 144.691 80.6973 141.951 80.6973Z" fill="#5669A5"/>
<path d="M116.651 94.2534C117.402 95.1424 118.248 95.9465 119.173 96.6515C120.091 97.3682 121.058 98.0207 122.066 98.6042C122.559 98.9181 123.081 99.1726 123.598 99.4428C124.11 99.7214 124.644 99.9521 125.173 100.196C125.437 100.32 125.705 100.434 125.972 100.55L126.787 100.861C127.333 101.06 127.871 101.287 128.424 101.463C130.632 102.183 132.899 102.709 135.198 103.034C136.339 103.223 137.501 103.271 138.648 103.374C139.804 103.41 140.959 103.411 142.11 103.37C140.981 103.101 139.853 102.917 138.733 102.692L137.061 102.328C136.505 102.207 135.945 102.113 135.397 101.96C134.847 101.819 134.296 101.682 133.744 101.558C133.189 101.445 132.652 101.259 132.106 101.112C131.564 100.948 131.008 100.838 130.474 100.652L128.862 100.134C128.32 99.9735 127.796 99.7636 127.262 99.5806L126.466 99.2943C126.205 99.1869 125.946 99.0775 125.682 98.9771C124.622 98.5851 123.6 98.1066 122.57 97.641C122.062 97.3952 121.547 97.1571 121.049 96.8898L120.292 96.5009L119.551 96.0829C118.55 95.5304 117.581 94.9195 116.651 94.2534Z" fill="#5669A5"/>
<path d="M114.718 99.7505C115.469 100.639 116.315 101.444 117.24 102.149C118.158 102.865 119.125 103.518 120.132 104.101C120.625 104.415 121.148 104.67 121.665 104.94C122.177 105.218 122.711 105.449 123.24 105.693C123.504 105.817 123.772 105.931 124.039 106.047L124.854 106.358C125.4 106.557 125.938 106.784 126.491 106.96C128.699 107.681 130.966 108.206 133.265 108.531C134.406 108.72 135.568 108.768 136.715 108.871C137.871 108.907 139.026 108.908 140.177 108.867C139.048 108.598 137.92 108.414 136.8 108.189L135.128 107.825C134.572 107.704 134.012 107.61 133.464 107.457C132.914 107.316 132.363 107.179 131.811 107.055C131.256 106.942 130.719 106.756 130.173 106.609C129.631 106.445 129.075 106.335 128.541 106.149L126.928 105.631C126.387 105.471 125.863 105.261 125.329 105.078L124.533 104.791C124.272 104.684 124.012 104.575 123.749 104.474C122.689 104.082 121.667 103.604 120.637 103.138C120.129 102.892 119.614 102.654 119.116 102.387L118.359 101.998L117.618 101.58C116.616 101.027 115.648 100.417 114.718 99.7505Z" fill="#5669A5"/>
<path d="M56.0457 53.191C55.0099 53.1422 54.2972 50.3857 54.4537 47.0344C54.6103 43.683 55.5769 41.0058 56.6127 41.0546C57.6485 41.1035 58.3613 43.8599 58.2047 47.2113C58.0482 50.5626 57.0816 53.2399 56.0457 53.191Z" fill="#FFBA55"/>
<path d="M56.6145 41.0542C56.7437 41.0911 56.8633 41.1561 56.9648 41.2446C57.0662 41.3331 57.1471 41.4429 57.2017 41.5663C57.3298 41.8023 57.4287 42.0532 57.4961 42.3134C57.6367 42.8385 57.734 43.3744 57.787 43.9157C57.9852 46.0981 57.8821 48.2977 57.4806 50.4517C57.3775 50.9856 57.2307 51.5099 57.0419 52.0195C56.9507 52.2722 56.829 52.5126 56.6795 52.7355C56.6138 52.8532 56.5231 52.955 56.4139 53.0336C56.3047 53.1122 56.1796 53.1658 56.0475 53.1905C56.1935 53.2002 56.3396 53.1758 56.4745 53.119C56.6094 53.0623 56.7293 52.9748 56.8247 52.8635C57.0301 52.6575 57.2065 52.4244 57.3491 52.1706C57.6274 51.669 57.8483 51.1373 58.0077 50.5858C58.6302 48.3892 58.7379 46.0775 58.3222 43.832C58.2149 43.268 58.0446 42.718 57.8144 42.1924C57.6962 41.9262 57.5424 41.6776 57.3573 41.4532C57.2727 41.3334 57.1616 41.235 57.0327 41.1658C56.9038 41.0966 56.7606 41.0584 56.6145 41.0542Z" fill="#E6952A"/>
<path d="M61.0859 53.8962C61.6019 53.4412 62.0761 52.963 62.5421 52.4806L63.9236 51.0341C64.3768 50.5502 64.8389 50.0778 65.3152 49.6298C65.5514 49.406 65.8011 49.1971 66.0629 49.0043C66.319 48.799 66.6222 48.6616 66.9448 48.6045C66.5967 48.5195 66.2304 48.5531 65.9035 48.7002C65.5778 48.8318 65.2678 48.9995 64.9792 49.2003C64.4139 49.5942 63.8913 50.0468 63.4202 50.5506C62.9526 51.0468 62.5201 51.5753 62.126 52.1322C61.7241 52.6856 61.3759 53.2762 61.0859 53.8962Z" fill="#5669A5"/>
<path d="M124.617 68.0153H149.453C149.811 68.0153 150.155 67.8723 150.408 67.6177C150.662 67.3631 150.804 67.0178 150.804 66.6577V48.3809H123.266V66.6577C123.266 67.0178 123.409 67.3631 123.662 67.6177C123.915 67.8723 124.259 68.0153 124.617 68.0153Z" fill="#F73C4F"/>
<path d="M119.93 43.975V46.46C119.907 46.9446 120.075 47.4187 120.399 47.7789C120.722 48.1391 121.175 48.356 121.657 48.3822H152.411C152.893 48.3558 153.345 48.1388 153.668 47.7785C153.991 47.4183 154.159 46.9442 154.135 46.46V43.975C154.158 43.4913 153.99 43.0179 153.667 42.6584C153.344 42.2988 152.892 42.0823 152.411 42.0562H121.657C121.175 42.0822 120.723 42.2985 120.4 42.658C120.076 43.0175 119.908 43.4909 119.93 43.975Z" fill="#B02336"/>
<path d="M136.274 42.0562H137.797V69.1164H136.274V42.0562Z" fill="#E19974"/>
<path d="M123.266 56.8955H150.804V58.5911H123.266V56.8955Z" fill="#E19974"/>
<path d="M123.571 68.0281H139.951L143.645 64.1251C143.7 64.0644 143.768 64.0164 143.843 63.9843C143.918 63.9522 144 63.9368 144.081 63.9392C144.163 63.9416 144.243 63.9617 144.317 63.9981C144.39 64.0345 144.455 64.0864 144.506 64.1503C144.618 64.286 144.677 64.4577 144.673 64.6339C144.669 64.8101 144.602 64.9788 144.484 65.109L141.721 68.0281H146.128V64.9478C146.119 64.8622 146.128 64.7756 146.155 64.6938C146.182 64.612 146.225 64.5366 146.282 64.4727C146.34 64.4088 146.41 64.3577 146.488 64.3227C146.567 64.2877 146.651 64.2697 146.737 64.2697C146.823 64.2697 146.907 64.2877 146.986 64.3227C147.064 64.3577 147.134 64.4088 147.192 64.4727C147.249 64.5366 147.292 64.612 147.319 64.6938C147.346 64.7756 147.355 64.8622 147.346 64.9478V68.0281H150.355C150.522 68.0453 150.677 68.1242 150.789 68.2495C150.902 68.3747 150.964 68.5374 150.964 68.7061C150.964 68.8749 150.902 69.0376 150.789 69.1628C150.677 69.2881 150.522 69.3669 150.355 69.3842H147.346V72.4644C147.355 72.5501 147.346 72.6366 147.319 72.7185C147.292 72.8003 147.249 72.8756 147.192 72.9395C147.134 73.0035 147.064 73.0546 146.986 73.0896C146.907 73.1245 146.823 73.1426 146.737 73.1426C146.651 73.1426 146.567 73.1245 146.488 73.0896C146.41 73.0546 146.34 73.0035 146.282 72.9395C146.225 72.8756 146.182 72.8003 146.155 72.7185C146.128 72.6366 146.119 72.5501 146.128 72.4644V69.3842H140.437L137.369 72.626C137.314 72.6867 137.246 72.7347 137.171 72.7668C137.096 72.7988 137.014 72.8142 136.933 72.8118C136.851 72.8094 136.771 72.7893 136.697 72.7529C136.624 72.7165 136.559 72.6646 136.508 72.6008C136.396 72.4651 136.337 72.2934 136.341 72.1172C136.345 71.941 136.412 71.7723 136.531 71.6421L138.668 69.3842H123.571C123.404 69.3669 123.249 69.288 123.137 69.1628C123.024 69.0376 122.962 68.8748 122.962 68.7061C122.962 68.5374 123.024 68.3747 123.137 68.2494C123.249 68.1242 123.404 68.0453 123.571 68.0281Z" fill="#E19974"/>
<path d="M94.1623 44.4526L75.3074 46.9784C75.3074 46.9784 67.6067 44.1071 66.0383 48.1791C65.8311 48.7415 65.8251 49.3588 66.0213 49.9252C66.4915 51.3417 67.6035 54.1385 68.4179 51.8049L69.2552 49.4055C69.2552 49.4055 72.1455 51.4165 74.938 50.4193C75.9469 50.059 89.4501 52.7016 96.7294 50.9174L98.7825 50.3098L94.1623 44.4526Z" fill="#F9977A"/>
<path d="M107.508 28.3102C107.448 28.2069 107.314 28.2068 107.209 28.2174C107.099 28.2381 106.992 28.269 106.889 28.3099C106.689 28.4059 106.497 28.5181 106.316 28.6454C106.131 28.7666 105.954 28.9005 105.787 29.046C105.62 29.1898 105.44 29.3216 105.283 29.4765C104.63 30.0709 104.012 30.7024 103.412 31.349C102.214 32.6459 101.11 34.0213 100.004 35.393C98.9053 36.7712 97.8444 38.1787 96.8059 39.6012C95.7501 41.012 94.7605 42.4686 93.7363 43.9015L93.5888 44.108L93.7463 44.3125L96.1324 47.4125L98.5321 50.502L98.7352 50.7636L98.9816 50.5531C99.9205 49.7512 100.827 48.9286 101.711 48.0743C102.594 47.2217 103.463 46.3534 104.303 45.458C105.144 44.5631 105.959 43.6425 106.719 42.677C107.489 41.7201 108.192 40.7117 108.826 39.659C108.114 40.6538 107.35 41.6095 106.537 42.5219C105.721 43.4306 104.869 44.3039 104.01 45.1693C103.144 46.0288 102.251 46.8606 101.344 47.6758C100.434 48.4847 99.517 49.2947 98.5815 50.0646L99.0308 50.1158L96.6694 46.9968L94.2945 43.8881L94.3044 44.2989C95.3129 42.8603 96.3069 41.4103 97.3309 39.9835C98.3403 38.5455 99.3808 37.1313 100.416 35.7131C101.467 34.3076 102.526 32.9057 103.659 31.5681C104.217 30.8926 104.793 30.232 105.406 29.607C105.553 29.4437 105.721 29.3057 105.879 29.1536C106.035 29.0016 106.201 28.8594 106.375 28.728C106.543 28.5895 106.722 28.465 106.91 28.3558C107.007 28.3089 107.108 28.271 107.212 28.2425C107.312 28.225 107.441 28.213 107.508 28.3102Z" fill="#E6952A"/>
<path d="M146.713 69.1523C146.589 69.1479 146.471 69.0951 146.384 69.005C146.297 68.9149 146.249 68.7945 146.249 68.6691C146.249 68.5438 146.297 68.4234 146.384 68.3333C146.471 68.2432 146.589 68.1904 146.713 68.186C146.838 68.1904 146.956 68.2432 147.043 68.3333C147.129 68.4234 147.178 68.5438 147.178 68.6691C147.178 68.7945 147.129 68.9149 147.043 69.005C146.956 69.0951 146.838 69.1479 146.713 69.1523Z" fill="#935B50"/>
<path d="M146.713 72.7826C146.589 72.7783 146.471 72.7255 146.384 72.6354C146.297 72.5453 146.249 72.4248 146.249 72.2995C146.249 72.1742 146.297 72.0538 146.384 71.9637C146.471 71.8735 146.589 71.8207 146.713 71.8164C146.838 71.8207 146.956 71.8735 147.043 71.9637C147.129 72.0538 147.178 72.1742 147.178 72.2995C147.178 72.4248 147.129 72.5453 147.043 72.6354C146.956 72.7255 146.838 72.7783 146.713 72.7826Z" fill="#935B50"/>
<path d="M143.974 65.2006C143.849 65.1963 143.731 65.1435 143.644 65.0534C143.558 64.9632 143.509 64.8428 143.509 64.7175C143.509 64.5922 143.558 64.4717 143.644 64.3816C143.731 64.2915 143.849 64.2387 143.974 64.2344C144.098 64.2387 144.216 64.2915 144.303 64.3816C144.39 64.4717 144.438 64.5922 144.438 64.7175C144.438 64.8428 144.39 64.9632 144.303 65.0534C144.216 65.1435 144.098 65.1963 143.974 65.2006Z" fill="#935B50"/>
<path d="M146.713 65.5316C146.589 65.5273 146.471 65.4745 146.384 65.3844C146.297 65.2943 146.249 65.1738 146.249 65.0485C146.249 64.9232 146.297 64.8028 146.384 64.7127C146.471 64.6226 146.589 64.5698 146.713 64.5654C146.838 64.5698 146.956 64.6226 147.043 64.7127C147.129 64.8028 147.178 64.9232 147.178 65.0485C147.178 65.1738 147.129 65.2943 147.043 65.3844C146.956 65.4745 146.838 65.5273 146.713 65.5316Z" fill="#935B50"/>
<path d="M140.463 69.1523C140.338 69.1479 140.22 69.0951 140.134 69.005C140.047 68.9149 139.999 68.7945 139.999 68.6691C139.999 68.5438 140.047 68.4234 140.134 68.3333C140.22 68.2432 140.338 68.1904 140.463 68.186C140.588 68.1904 140.706 68.2432 140.793 68.3333C140.879 68.4234 140.928 68.5438 140.928 68.6691C140.928 68.7945 140.879 68.9149 140.793 69.005C140.706 69.0951 140.588 69.1479 140.463 69.1523Z" fill="#935B50"/>
<path d="M137.035 58.227C136.91 58.2226 136.792 58.1699 136.705 58.0797C136.619 57.9896 136.57 57.8692 136.57 57.7439C136.57 57.6185 136.619 57.4981 136.705 57.408C136.792 57.3179 136.91 57.2651 137.035 57.2607C137.159 57.2651 137.277 57.3179 137.364 57.408C137.451 57.4981 137.499 57.6185 137.499 57.7439C137.499 57.8692 137.451 57.9896 137.364 58.0797C137.277 58.1699 137.159 58.2226 137.035 58.227Z" fill="#935B50"/>
<path d="M137.035 43.4316C136.91 43.4272 136.792 43.3744 136.705 43.2843C136.619 43.1942 136.57 43.0738 136.57 42.9484C136.57 42.8231 136.619 42.7027 136.705 42.6126C136.792 42.5225 136.91 42.4697 137.035 42.4653C137.159 42.4697 137.278 42.5225 137.364 42.6126C137.451 42.7027 137.499 42.8231 137.499 42.9484C137.499 43.0738 137.451 43.1942 137.364 43.2843C137.278 43.3744 137.159 43.4272 137.035 43.4316Z" fill="#935B50"/>
<path d="M124.094 58.227C123.97 58.2226 123.852 58.1699 123.765 58.0797C123.678 57.9896 123.63 57.8692 123.63 57.7439C123.63 57.6185 123.678 57.4981 123.765 57.408C123.852 57.3179 123.97 57.2651 124.094 57.2607C124.219 57.2651 124.337 57.3179 124.424 57.408C124.51 57.4981 124.559 57.6185 124.559 57.7439C124.559 57.8692 124.51 57.9896 124.424 58.0797C124.337 58.1699 124.219 58.2226 124.094 58.227Z" fill="#935B50"/>
<path d="M150.037 58.227C149.913 58.2226 149.795 58.1699 149.708 58.0797C149.621 57.9896 149.573 57.8692 149.573 57.7439C149.573 57.6185 149.621 57.4981 149.708 57.408C149.795 57.3179 149.913 57.2651 150.037 57.2607C150.162 57.2651 150.28 57.3179 150.367 57.408C150.453 57.4981 150.502 57.6185 150.502 57.7439C150.502 57.8692 150.453 57.9896 150.367 58.0797C150.28 58.1699 150.162 58.2226 150.037 58.227Z" fill="#935B50"/>
<path d="M137.035 69.0234C136.91 69.019 136.792 68.9662 136.705 68.8761C136.619 68.786 136.57 68.6656 136.57 68.5403C136.57 68.4149 136.619 68.2945 136.705 68.2044C136.792 68.1142 136.91 68.0615 137.035 68.0571C137.159 68.0615 137.277 68.1142 137.364 68.2044C137.451 68.2945 137.499 68.4149 137.499 68.5403C137.499 68.6656 137.451 68.786 137.364 68.8761C137.277 68.9662 137.159 69.019 137.035 69.0234Z" fill="#935B50"/>
<path d="M137.035 72.5585C136.91 72.5542 136.792 72.5014 136.705 72.4113C136.619 72.3212 136.57 72.2007 136.57 72.0754C136.57 71.9501 136.619 71.8297 136.705 71.7395C136.792 71.6494 136.91 71.5966 137.035 71.5923C137.159 71.5966 137.277 71.6494 137.364 71.7395C137.451 71.8297 137.499 71.9501 137.499 72.0754C137.499 72.2007 137.451 72.3212 137.364 72.4113C137.277 72.5014 137.159 72.5542 137.035 72.5585Z" fill="#935B50"/>
<path d="M150.037 69.1523C149.913 69.1479 149.795 69.0951 149.708 69.005C149.621 68.9149 149.573 68.7945 149.573 68.6691C149.573 68.5438 149.621 68.4234 149.708 68.3333C149.795 68.2432 149.913 68.1904 150.037 68.186C150.162 68.1904 150.28 68.2432 150.367 68.3333C150.453 68.4234 150.502 68.5438 150.502 68.6691C150.502 68.7945 150.453 68.9149 150.367 69.005C150.28 69.0951 150.162 69.1479 150.037 69.1523Z" fill="#935B50"/>
<path d="M124.094 69.1523C123.97 69.1479 123.852 69.0951 123.765 69.005C123.678 68.9149 123.63 68.7945 123.63 68.6691C123.63 68.5438 123.678 68.4234 123.765 68.3333C123.852 68.2432 123.97 68.1904 124.094 68.186C124.219 68.1904 124.337 68.2432 124.424 68.3333C124.51 68.4234 124.559 68.5438 124.559 68.6691C124.559 68.7945 124.51 68.9149 124.424 69.005C124.337 69.0951 124.219 69.1479 124.094 69.1523Z" fill="#935B50"/>
</svg>
