<svg width="25" height="15" viewBox="0 0 25 15" fill="none" xmlns="http://www.w3.org/2000/svg">
<path d="M19.5 12.5V14.5H7.5V12.5C7.5 12.5 7.5 8.5 13.5 8.5C19.5 8.5 19.5 12.5 19.5 12.5ZM16.5 3.5C16.5 2.90666 16.3241 2.32664 15.9944 1.83329C15.6648 1.33994 15.1962 0.955426 14.6481 0.728363C14.0999 0.5013 13.4967 0.44189 12.9147 0.557646C12.3328 0.673401 11.7982 0.959123 11.3787 1.37868C10.9591 1.79824 10.6734 2.33279 10.5576 2.91473C10.4419 3.49667 10.5013 4.09987 10.7284 4.64805C10.9554 5.19623 11.3399 5.66477 11.8333 5.99441C12.3266 6.32405 12.9067 6.5 13.5 6.5C14.2956 6.5 15.0587 6.18393 15.6213 5.62132C16.1839 5.05871 16.5 4.29565 16.5 3.5ZM19.7 8.56C20.2466 9.0643 20.6873 9.67244 20.9964 10.3489C21.3054 11.0254 21.4766 11.7566 21.5 12.5V14.5H24.5V12.5C24.5 12.5 24.5 9.05 19.7 8.56ZM18.5 0.500001C18.1979 0.500182 17.8976 0.547414 17.61 0.640001C18.1951 1.47897 18.5087 2.47718 18.5087 3.5C18.5087 4.52282 18.1951 5.52103 17.61 6.36C17.8976 6.45259 18.1979 6.49982 18.5 6.5C19.2956 6.5 20.0587 6.18393 20.6213 5.62132C21.1839 5.05871 21.5 4.29565 21.5 3.5C21.5 2.70435 21.1839 1.94129 20.6213 1.37868C20.0587 0.816072 19.2956 0.500001 18.5 0.500001ZM8.5 5.5H5.5V2.5H3.5V5.5H0.5V7.5H3.5V10.5H5.5V7.5H8.5V5.5Z" fill="#0196FB"/>
</svg>
