<svg width="43" height="49" viewBox="0 0 43 49" fill="none" xmlns="http://www.w3.org/2000/svg">
<g clip-path="url(#clip0_403_9599)">
<path d="M41.6528 24.0006C39.15 23.8201 37.7038 21.5892 36.3055 19.4317C35.0182 17.4458 33.6872 15.3922 31.4225 15.31C31.2698 15.3046 31.1171 15.3227 30.9702 15.3637C30.9496 15.3659 30.9291 15.3668 30.9084 15.3698L30.2583 15.4656C30.178 15.5994 30.0906 15.729 29.9966 15.8539C29.2816 16.8015 28.2323 17.4201 27.0419 17.5955C26.8178 17.6286 26.5901 17.6453 26.3651 17.6453C25.2508 17.6453 24.2122 17.2337 23.4136 16.5519C21.8945 17.105 21.31 18.6452 20.7908 20.0238C20.002 22.1183 19.1079 24.4924 15.3453 25.8037C14.9882 25.9349 14.6981 26.198 14.5375 26.5364C14.3768 26.8748 14.3585 27.2614 14.4865 27.6129C14.6145 27.9644 14.8785 28.2526 15.2217 28.4154C15.5649 28.5782 15.9597 28.6027 16.3211 28.4834C21.0134 26.8481 22.462 23.7574 23.3317 21.501L23.6186 23.3641L24.598 29.7208V46.802C24.598 48.0163 25.6043 49 26.8449 49C28.0858 49 29.0921 48.0163 29.0921 46.802V30.7136L29.9344 30.5893V46.8018C29.9344 48.0161 30.9407 48.9998 32.1813 48.9998C33.4222 48.9998 34.4285 48.0161 34.4285 46.8018V28.9593C34.4285 28.7215 34.3887 28.493 34.3172 28.2786L33.2466 21.3286L32.9913 19.6716C33.2817 20.08 33.5716 20.5264 33.8494 20.955C35.4657 23.4486 37.4771 26.5519 41.4389 26.8376C41.6293 26.8513 41.8206 26.8282 42.0019 26.7696C42.1832 26.711 42.3509 26.618 42.4955 26.496C42.64 26.374 42.7586 26.2253 42.8444 26.0584C42.9302 25.8916 42.9816 25.7098 42.9956 25.5235C43.0097 25.3373 42.9862 25.1501 42.9263 24.9728C42.8665 24.7954 42.7715 24.6313 42.6468 24.4899C42.522 24.3485 42.3701 24.2325 42.1995 24.1485C42.029 24.0645 41.8432 24.0143 41.6528 24.0006ZM11.0441 13.3362C11.0441 15.5456 12.8749 17.3365 15.1332 17.3365C17.3919 17.3365 19.2224 15.5456 19.2224 13.3362C19.2224 11.1268 17.3919 9.33594 15.1332 9.33594C12.8749 9.33594 11.0441 11.1268 11.0441 13.3362ZM18.1505 14.2106C18.1505 14.2106 17.0079 17.6889 14.1689 15.2649C14.1689 15.2649 16.7302 15.3895 18.1505 14.2106ZM13.3237 33.6706C12.994 34.2361 12.6381 34.9754 12.3161 35.9042H14.8359C14.5613 35.1834 14.2615 34.472 13.9368 33.7714C13.7249 33.7714 13.5183 33.7366 13.3237 33.6706ZM12.6381 46.8601C12.7297 48.0259 13.7251 48.9122 14.9008 48.9122C14.9593 48.9122 15.0182 48.9099 15.0774 48.9054C16.3284 48.8114 17.2645 47.743 17.1684 46.5191C17.1133 45.8248 17.041 45.132 16.9514 44.4411H12.3683C12.4845 45.2444 12.5745 46.0512 12.6381 46.8601ZM8.6457 43.8343C8.34347 43.4485 8.25242 42.9276 8.39581 42.4051L9.68088 37.7285C9.82955 37.1855 10.2085 36.6884 10.7313 36.3431C11.129 34.9715 11.6657 33.7385 12.241 32.7948C7.22995 26.5995 7.73755 19.8897 7.76227 19.6026C7.84332 18.6619 8.66278 17.925 9.628 17.925C9.67979 17.925 9.73177 17.9271 9.78429 17.9314C10.8108 18.0162 11.5771 18.9016 11.4932 19.9054C11.491 19.9354 11.3771 21.7019 11.993 24.1311C12.2069 22.8992 12.4651 21.7366 12.6632 20.7463C13.1846 18.9773 12.5024 16.8595 10.9512 16.481C10.55 16.3832 10.1018 16.3666 9.64236 16.4395C9.56749 16.4413 9.49287 16.4487 9.41918 16.4618C9.10895 16.5188 1.8005 17.9778 0.0205469 28.2279C-0.0440414 28.5998 0.0450317 28.9816 0.268171 29.2892C0.49131 29.5969 0.830237 29.8052 1.21039 29.8684C1.59055 29.9316 1.98079 29.8444 2.29527 29.6261C2.60975 29.4078 2.82271 29.0763 2.8873 28.7044C3.37327 25.9061 4.32322 23.9236 5.37385 22.5233C4.9066 24.6783 4.87534 26.6477 5.20284 29.4011C5.4838 30.8155 6.11589 31.602 6.8841 32.0342C7.39915 34.9795 7.51746 40.6858 2.19142 44.9734C1.22257 45.7534 1.08354 47.154 1.88083 48.1016C2.67812 49.0494 4.10949 49.1858 5.07853 48.4057C6.64421 47.1453 7.94182 45.7102 8.9592 44.1282C8.84063 44.0457 8.73501 43.9467 8.6457 43.8343Z" fill="#4285F4"/>
<path d="M18.6236 37.8343C18.4849 37.3296 18.0971 36.8813 17.6173 36.6042C17.1068 34.7831 16.3973 33.3584 15.7343 32.4492C15.6756 32.6483 15.5823 32.8361 15.4586 33.0043C15.9542 33.7483 16.5205 34.8585 16.9777 36.3554C16.8522 36.3279 16.724 36.3136 16.5954 36.3128H12.1122C11.9836 36.3136 11.8555 36.3279 11.73 36.3554C12.0964 35.1559 12.5326 34.2077 12.9464 33.4939C12.7878 33.3965 12.6451 33.2763 12.523 33.1374C12.0021 34.0177 11.4861 35.1916 11.0903 36.6042C10.6105 36.8813 10.2227 37.3296 10.084 37.8343L8.79931 42.5107C8.56941 43.3476 9.10608 44.0321 9.9917 44.0321H18.7161C19.6017 44.0321 20.1384 43.3474 19.9085 42.5107L18.6236 37.8343ZM11.3513 37.0984H11.836V38.4615H11.3513V37.0984ZM17.3563 38.4615H16.8716V37.0984H17.3563V38.4615Z" fill="#4285F4"/>
<path d="M12.815 32.8442C12.9514 33.0066 13.1229 33.1374 13.3172 33.227C13.5115 33.3167 13.7237 33.363 13.9385 33.3627C14.214 33.3624 14.4838 33.2856 14.7164 33.1412C14.949 32.9969 15.1349 32.7908 15.2524 32.547C15.3699 32.3033 15.4143 32.0319 15.3802 31.7645C15.3462 31.4971 15.2352 31.2446 15.0602 31.0365C10.6739 25.8233 11.0701 19.9674 11.0774 19.8721C11.1087 19.4968 10.9866 19.1246 10.7379 18.8372C10.4891 18.5498 10.134 18.3707 9.75035 18.339C8.95143 18.2743 8.247 18.8541 8.1794 19.6369C8.15486 19.9219 7.63709 26.69 12.815 32.8442ZM26.9803 17.1911C29.2137 16.8618 30.751 14.824 30.4144 12.6393C30.0779 10.4546 27.9949 8.95048 25.7616 9.27975C23.5285 9.60902 21.991 11.6468 22.3274 13.8315C22.664 16.0164 24.7473 17.5203 26.9803 17.1911ZM28.1316 14.3736C28.1316 14.3736 26.989 17.8519 24.1501 15.4279C24.1501 15.4279 26.7113 15.5524 28.1316 14.3736ZM30.5099 2.19464L30.1736 2.18077L30.2691 1.66163H30.5698C31.221 1.66163 31.6314 1.35352 31.6314 0.803078C31.6314 0.377271 31.3448 0.166234 30.8319 0.166234H29.919L29.8694 0.439675L30.0535 0.453365L29.7598 2.09081C29.7458 2.17028 29.7246 2.18415 29.6573 2.19464L29.5441 2.20851L29.4981 2.46808H30.4606L30.5099 2.19464ZM30.4817 0.474166H30.6976C30.9807 0.474166 31.1787 0.522525 31.1787 0.806456C31.1787 1.20808 30.924 1.35334 30.5595 1.35334H30.3223L30.4817 0.474166ZM31.8013 2.13224C31.7588 2.36763 31.8189 2.50951 32.0879 2.50951C32.1728 2.50951 32.3002 2.49564 32.3814 2.47146L32.4276 2.21189C32.4098 2.21544 32.3885 2.21544 32.3709 2.21544H32.2894C32.2293 2.21544 32.2115 2.20495 32.2222 2.13917L32.608 0H32.0065L31.957 0.259573L32.0561 0.273441C32.1233 0.283753 32.1411 0.290687 32.127 0.370337L31.8013 2.13224ZM33.4113 2.51644C33.751 2.51644 34.0023 2.38488 34.0694 2.33989L33.9811 2.05259C33.8857 2.11143 33.7297 2.19464 33.5069 2.19464C33.2063 2.19464 33.1391 1.99392 33.1567 1.77239C33.8466 1.79995 34.296 1.63727 34.296 1.1215C34.296 0.813567 34.105 0.678447 33.7935 0.678447C33.1247 0.678447 32.7356 1.20471 32.7356 1.84155C32.7354 2.22913 32.9337 2.51644 33.4113 2.51644ZM33.7192 0.979623C33.8429 0.979623 33.9173 1.03154 33.9173 1.15972C33.9173 1.42268 33.6236 1.48864 33.2025 1.47815C33.2485 1.22533 33.4466 0.979623 33.7192 0.979623ZM36.1712 0.803078C35.9761 0.723133 35.767 0.680814 35.5555 0.678447C34.8089 0.678447 34.4585 1.19422 34.4585 1.89346C34.4585 2.25349 34.6213 2.51662 35.0353 2.51662C35.276 2.51662 35.4599 2.40923 35.5555 2.2606H35.566C35.5484 2.39554 35.6156 2.50968 35.8244 2.50968C35.8988 2.50968 36.0189 2.49582 36.0862 2.47164L36.1321 2.21562C36.1111 2.21918 36.0932 2.21918 36.0754 2.21918C36.0473 2.22255 36.0118 2.22255 36.0013 2.22255C35.934 2.22255 35.9233 2.20531 35.934 2.15002L36.1712 0.803078ZM35.5767 1.81044C35.5237 2.09081 35.3467 2.21544 35.1593 2.21544C34.9399 2.21544 34.8938 2.04921 34.8938 1.86928C34.8938 1.47121 35.0319 0.983179 35.4811 0.983179C35.5766 0.983179 35.6474 1.0006 35.7147 1.02816L35.5767 1.81044ZM37.7387 1.91071C37.7387 1.59229 37.5123 1.51957 37.2645 1.42605C37.1053 1.37058 36.964 1.32578 36.964 1.1871C36.964 1.02443 37.1161 0.962022 37.2858 0.962022C37.3601 0.962022 37.4343 0.972512 37.477 0.986379C37.5193 1.00362 37.5264 1.02087 37.5159 1.07972L37.4875 1.23191L37.8061 1.20435L37.8841 0.795788C37.746 0.716316 37.5195 0.678091 37.3213 0.678091C36.8295 0.678091 36.5499 0.882372 36.5499 1.2424C36.5499 1.58518 36.8013 1.67514 37.017 1.74785C37.1691 1.80332 37.3073 1.83088 37.3073 1.97631C37.3073 2.15642 37.1586 2.2254 36.9781 2.2254C36.8825 2.2254 36.8048 2.21171 36.7657 2.19428C36.7233 2.17686 36.7126 2.15979 36.7233 2.10788L36.7517 1.93133L36.426 1.95889L36.3482 2.39501C36.4683 2.45741 36.7339 2.51626 36.964 2.51626C37.4699 2.51644 37.7387 2.2846 37.7387 1.91071ZM39.5857 1.1215C39.5857 0.813567 39.3947 0.678447 39.0832 0.678447C38.4144 0.678447 38.0253 1.20471 38.0253 1.84155C38.0253 2.22931 38.2236 2.51662 38.7012 2.51662C39.0409 2.51662 39.2922 2.38505 39.3593 2.34007L39.2709 2.05276C39.1755 2.11161 39.0196 2.19482 38.7968 2.19482C38.4962 2.19482 38.429 1.99409 38.4466 1.77257C39.1365 1.79995 39.5857 1.63727 39.5857 1.1215ZM39.0092 0.979623C39.133 0.979623 39.2073 1.03154 39.2073 1.15972C39.2073 1.42268 38.9137 1.48864 38.4926 1.47815C38.5385 1.22533 38.7366 0.979623 39.0092 0.979623ZM27.4579 5.43895C27.3907 5.81978 27.5393 6.07242 27.9533 6.07242C28.1763 6.07242 28.3957 5.9997 28.5622 5.78155C28.601 5.9581 28.7321 6.07242 29.0116 6.07242C29.6733 6.07242 29.967 5.50811 29.967 4.70166C29.967 4.5596 29.9528 4.38679 29.9421 4.27923H29.5281C29.5423 4.38661 29.5494 4.56316 29.5494 4.71553C29.5494 5.28303 29.3794 5.74013 29.0398 5.74013C28.8026 5.74013 28.8382 5.54634 28.8664 5.36624L29.0647 4.27923H28.647L28.4418 5.42171C28.4028 5.61888 28.2648 5.74013 28.0667 5.74013C27.8296 5.74013 27.8581 5.56358 27.8865 5.37335L28.0208 4.62556C28.0631 4.40048 28.0066 4.25167 27.7412 4.25167C27.6564 4.25167 27.5397 4.26554 27.4652 4.28972L27.4192 4.54591H27.4652C27.4899 4.54591 27.5219 4.54236 27.5361 4.54236C27.5928 4.54236 27.6138 4.55623 27.6031 4.6149L27.4579 5.43895ZM31.8137 4.6773C31.8137 4.36937 31.6226 4.23425 31.3111 4.23425C30.6423 4.23425 30.2532 4.76051 30.2532 5.39735C30.2532 5.78511 30.4515 6.07242 30.9291 6.07242C31.2688 6.07242 31.5201 5.94085 31.5872 5.89587L31.4989 5.60856C31.4035 5.66741 31.2475 5.75062 31.0247 5.75062C30.7241 5.75062 30.6569 5.54989 30.6745 5.32837C31.3642 5.35575 31.8137 5.19307 31.8137 4.6773ZM31.237 4.53542C31.3608 4.53542 31.4351 4.58734 31.4351 4.71553C31.4351 4.97848 31.1414 5.04444 30.7203 5.03395C30.7663 4.78113 30.9644 4.53542 31.237 4.53542ZM32.8468 3.5558H32.2453L32.1958 3.81537L32.2949 3.82924C32.3621 3.83955 32.3799 3.84649 32.3658 3.92614L32.0403 5.68804C31.9978 5.92343 32.0579 6.06531 32.3269 6.06531C32.4118 6.06531 32.5392 6.05144 32.6204 6.02726L32.6666 5.76769C32.6487 5.77124 32.6275 5.77124 32.6098 5.77124H32.5284C32.4683 5.77124 32.4505 5.76075 32.4612 5.69497L32.8468 3.5558ZM34.1103 4.86078L34.4429 4.83998L34.5243 4.36937C34.4003 4.28278 34.2164 4.23425 34.0042 4.23425C33.5016 4.23425 32.9744 4.52511 32.9744 5.38366C32.9744 5.8164 33.2116 6.07242 33.6608 6.07242C33.9296 6.07242 34.1597 5.98246 34.3118 5.87525L34.195 5.58794C34.0358 5.68821 33.8907 5.73675 33.7597 5.73675C33.5085 5.73675 33.413 5.56714 33.413 5.33512C33.413 4.82647 33.6359 4.55978 33.9616 4.55978C34.0076 4.55978 34.0607 4.56334 34.0996 4.5772C34.1455 4.59463 34.1526 4.61863 34.1419 4.67748L34.1103 4.86078ZM36.2757 4.87109C36.2757 4.32759 35.8722 4.23407 35.6282 4.23407C34.931 4.23407 34.6373 4.79144 34.6373 5.41797C34.6373 5.85072 34.8674 6.07224 35.2885 6.07224C35.996 6.07224 36.2757 5.49425 36.2757 4.87109ZM35.0653 5.41122C35.0653 5.09635 35.1538 4.53898 35.5713 4.53898C35.7696 4.53898 35.8475 4.67037 35.8475 4.89189C35.8475 5.19307 35.7519 5.76093 35.3416 5.76093C35.1255 5.76075 35.0653 5.61532 35.0653 5.41122ZM38.6038 5.70884C38.5649 5.92699 38.625 6.06531 38.894 6.06531C38.9791 6.06531 39.0994 6.05144 39.1701 6.02726L39.2162 5.77124C39.195 5.7748 39.1772 5.7748 39.1595 5.7748H39.0923C39.0214 5.7748 39.0143 5.74706 39.0251 5.70208L39.1806 4.83304C39.2515 4.44208 39.1028 4.23425 38.7454 4.23425C38.4906 4.23425 38.303 4.34163 38.1756 4.53205C38.1296 4.33808 37.9881 4.23425 37.7616 4.23425C37.5493 4.23425 37.3371 4.32083 37.2097 4.51462H37.206L37.2413 4.27923H36.6683L36.6221 4.54236L36.7319 4.54929C36.7989 4.5596 36.8167 4.57347 36.8026 4.65312L36.555 6.02388H36.9689L37.16 4.98541C37.2024 4.75002 37.3263 4.56992 37.5422 4.56992C37.7652 4.56992 37.79 4.71535 37.7511 4.92301L37.5528 6.0237H37.9668L38.1649 4.95394C38.204 4.73242 38.3277 4.56974 38.5505 4.56974C38.7594 4.56974 38.7877 4.71517 38.7488 4.91945L38.6038 5.70884ZM41.1054 4.6773C41.1054 4.36937 40.9144 4.23425 40.6029 4.23425C39.9341 4.23425 39.545 4.76051 39.545 5.39735C39.545 5.78511 39.7433 6.07242 40.2209 6.07242C40.5606 6.07242 40.8119 5.94085 40.879 5.89587L40.7906 5.60856C40.6952 5.66741 40.5393 5.75062 40.3165 5.75062C40.0159 5.75062 39.9487 5.54989 39.9663 5.32837C40.656 5.35575 41.1054 5.19307 41.1054 4.6773ZM40.5288 4.53542C40.6525 4.53542 40.7269 4.58734 40.7269 4.71553C40.7269 4.97848 40.4332 5.04444 40.0121 5.03395C40.0581 4.78113 40.2562 4.53542 40.5288 4.53542ZM41.3497 6.06886C41.5301 6.06886 41.647 5.93748 41.647 5.78155C41.647 5.66724 41.569 5.59132 41.4275 5.59132C41.2541 5.59132 41.1303 5.70902 41.1303 5.87169C41.1301 5.99277 41.2045 6.06886 41.3497 6.06886ZM34.9128 7.72036L34.5494 7.72444C34.5779 10.0222 31.8365 11.2669 31.8087 11.279L31.9587 11.6029C32.0806 11.5491 34.9441 10.2519 34.9128 7.72036Z" fill="#4285F4"/>
</g>
<defs>
<clipPath id="clip0_403_9599">
<rect width="43" height="49" fill="white"/>
</clipPath>
</defs>
</svg>
