<svg width="24" height="24" viewBox="0 0 24 24" fill="none" xmlns="http://www.w3.org/2000/svg">
<path d="M18.385 21H15.558C15.416 21 15.297 20.952 15.201 20.856C15.1057 20.76 15.058 20.641 15.058 20.499C15.058 20.3577 15.1057 20.239 15.201 20.143C15.297 20.0477 15.416 20 15.558 20H18.385C18.5383 20 18.6793 19.936 18.808 19.808C18.936 19.6794 19 19.5384 19 19.385V10.615H5V14C5 14.142 4.952 14.2607 4.856 14.356C4.76 14.4514 4.641 14.4994 4.499 14.5C4.35767 14.5 4.239 14.452 4.143 14.356C4.04767 14.2607 4 14.142 4 14V6.61504C4 6.15504 4.15433 5.77104 4.463 5.46304C4.771 5.15438 5.155 5.00004 5.615 5.00004H7.385V3.30804C7.385 3.15471 7.43667 3.02671 7.54 2.92404C7.644 2.82071 7.77267 2.76904 7.926 2.76904C8.07933 2.76904 8.207 2.82071 8.309 2.92404C8.411 3.02738 8.462 3.15538 8.462 3.30804V5.00004H15.615V3.27004C15.615 3.12804 15.663 3.00904 15.759 2.91304C15.855 2.81704 15.974 2.76904 16.116 2.76904C16.258 2.76904 16.3767 2.81704 16.472 2.91304C16.5673 3.00904 16.615 3.12771 16.615 3.26904V5.00004H18.385C18.845 5.00004 19.229 5.15438 19.537 5.46304C19.8457 5.77104 20 6.15504 20 6.61504V19.385C20 19.845 19.846 20.229 19.538 20.537C19.2293 20.8457 18.845 21 18.385 21ZM10.367 19.5H2C1.858 19.5 1.73933 19.452 1.644 19.356C1.548 19.26 1.5 19.1414 1.5 19C1.5 18.8587 1.548 18.74 1.644 18.644C1.74 18.548 1.85867 18.5 2 18.5H10.367L7.647 15.735C7.553 15.6417 7.505 15.531 7.503 15.403C7.501 15.2757 7.54867 15.1624 7.646 15.063C7.73533 14.971 7.849 14.925 7.987 14.925C8.125 14.925 8.241 14.9717 8.335 15.065L11.723 18.435C11.8843 18.5964 11.965 18.7847 11.965 19C11.965 19.2154 11.8843 19.4037 11.723 19.565L8.335 22.954C8.24167 23.0474 8.12767 23.092 7.993 23.088C7.85967 23.0834 7.743 23.031 7.643 22.931C7.55167 22.8397 7.506 22.7294 7.506 22.6C7.506 22.4707 7.55267 22.359 7.646 22.265L10.367 19.5Z" fill="#0196FB"/>
</svg>
