<svg width="18" height="22" viewBox="0 0 18 22" fill="none" xmlns="http://www.w3.org/2000/svg">
<path d="M17.25 11C17.2528 9.66416 16.7462 8.37751 15.8335 7.4021C14.9208 6.42668 13.6706 5.83587 12.3375 5.75C12.15 5.5325 11.97 5.3375 11.8275 5.2025C11.1528 4.56859 10.346 4.09216 9.46503 3.8075C9.64837 3.48495 9.74646 3.12099 9.75003 2.75C9.75003 2.15326 9.51298 1.58097 9.09102 1.15901C8.66906 0.737053 8.09676 0.5 7.50003 0.5C6.90329 0.5 6.33099 0.737053 5.90904 1.15901C5.48708 1.58097 5.25003 2.15326 5.25003 2.75C5.25104 3.12608 5.34921 3.49553 5.53503 3.8225C4.33092 4.21724 3.27384 4.96591 2.50182 5.97074C1.7298 6.97556 1.27873 8.18984 1.20753 9.455L0.750028 17.705C0.743411 17.8076 0.757972 17.9105 0.792809 18.0073C0.827645 18.1041 0.882011 18.1926 0.952528 18.2675C1.02311 18.3415 1.10809 18.4004 1.20224 18.4403C1.2964 18.4803 1.39774 18.5006 1.50003 18.5H3.82503C3.99716 19.3477 4.45708 20.1099 5.12683 20.6573C5.79659 21.2047 6.63501 21.5038 7.50003 21.5038C8.36504 21.5038 9.20346 21.2047 9.87322 20.6573C10.543 20.1099 11.0029 19.3477 11.175 18.5H13.5C13.6023 18.5006 13.7037 18.4803 13.7978 18.4403C13.892 18.4004 13.9769 18.3415 14.0475 18.2675C14.118 18.1926 14.1724 18.1041 14.2072 18.0073C14.2421 17.9105 14.2566 17.8076 14.25 17.705L14.145 15.785C15.0687 15.3715 15.8532 14.6999 16.4041 13.851C16.9549 13.002 17.2487 12.012 17.25 11ZM7.50003 2C7.64836 2 7.79337 2.04399 7.91671 2.1264C8.04004 2.20881 8.13617 2.32594 8.19294 2.46299C8.2497 2.60003 8.26456 2.75083 8.23562 2.89632C8.20668 3.0418 8.13525 3.17544 8.03036 3.28033C7.92547 3.38522 7.79183 3.45665 7.64635 3.48559C7.50086 3.51453 7.35006 3.49968 7.21302 3.44291C7.07597 3.38614 6.95884 3.29001 6.87643 3.16668C6.79401 3.04334 6.75003 2.89834 6.75003 2.75C6.75003 2.55109 6.82905 2.36032 6.9697 2.21967C7.11035 2.07902 7.30112 2 7.50003 2ZM12.705 17H2.29503L2.70753 9.5375C2.75717 8.66578 3.04327 7.82404 3.53513 7.10262C4.02699 6.38121 4.70603 5.80737 5.49936 5.4427C6.29269 5.07803 7.17036 4.9363 8.03815 5.03272C8.90595 5.12914 9.7311 5.46008 10.425 5.99C9.22708 6.36521 8.20322 7.15726 7.5391 8.22253C6.87497 9.2878 6.61453 10.5558 6.80501 11.7966C6.99548 13.0374 7.62426 14.1689 8.57733 14.9859C9.53041 15.8029 10.7447 16.2514 12 16.25C12.2207 16.2465 12.441 16.2314 12.66 16.205L12.705 17ZM14.1675 9.8375L12.6675 12.8375C12.6147 12.9434 12.5376 13.0353 12.4424 13.1057C12.3472 13.1761 12.2368 13.223 12.12 13.2425H12C11.9013 13.2431 11.8035 13.2242 11.7121 13.1868C11.6207 13.1495 11.5376 13.0945 11.4675 13.025L9.96753 11.525C9.8263 11.3838 9.74696 11.1922 9.74696 10.9925C9.74696 10.7928 9.8263 10.6012 9.96753 10.46C10.1088 10.3188 10.3003 10.2394 10.5 10.2394C10.6998 10.2394 10.8913 10.3188 11.0325 10.46L11.7825 11.21L12.8175 9.14C12.8572 9.04479 12.916 8.95878 12.9904 8.88735C13.0648 8.81591 13.1531 8.76059 13.2499 8.72483C13.3466 8.68907 13.4497 8.67366 13.5527 8.67954C13.6556 8.68542 13.7563 8.71247 13.8483 8.75901C13.9404 8.80554 14.0218 8.87056 14.0876 8.95C14.1534 9.02944 14.202 9.12159 14.2306 9.22069C14.2591 9.3198 14.2669 9.42373 14.2535 9.52598C14.2401 9.62824 14.2057 9.72663 14.1525 9.815L14.1675 9.8375Z" fill="white"/>
</svg>
