<svg xmlns="http://www.w3.org/2000/svg" width="30" height="24" viewBox="0 0 30 24" fill="none">
<path d="M2.76076 1.97297C2.90138 1.68703 3.21076 1.52297 3.52482 1.56516L14.9998 2.99953L26.4748 1.56516C26.7889 1.52766 27.0983 1.69172 27.2389 1.97297L29.1936 5.88235C29.6154 6.72141 29.1654 7.7386 28.2654 7.99641L20.6061 10.1855C19.9545 10.373 19.2561 10.0964 18.9092 9.51516L14.9998 2.99953L11.0904 9.51516C10.7436 10.0964 10.0451 10.373 9.39357 10.1855L1.73888 7.99641C0.834195 7.7386 0.388882 6.72141 0.810757 5.88235L2.76076 1.97297ZM15.0514 5.99953L17.6248 10.2839C18.3233 11.4464 19.7154 11.9995 21.0233 11.6245L26.9998 9.91828V17.7464C26.9998 18.7777 26.2967 19.6777 25.2936 19.9308L15.7264 22.3214C15.2483 22.4433 14.7467 22.4433 14.2733 22.3214L4.70607 19.9308C3.70295 19.673 2.99982 18.773 2.99982 17.7417V9.9136L8.98107 11.6245C10.2842 11.9995 11.6811 11.4464 12.3795 10.2839L14.9483 5.99953H15.0514Z" fill="white"/>
</svg>