<svg xmlns="http://www.w3.org/2000/svg" width="24" height="24" viewBox="0 0 24 24" fill="none">
<path fill-rule="evenodd" clip-rule="evenodd" d="M18.3999 4.88086C18.5908 4.88086 18.774 4.95672 18.909 5.09174C19.044 5.22677 19.1199 5.4099 19.1199 5.60086V12.0009C19.1199 12.1918 19.044 12.3749 18.909 12.51C18.774 12.645 18.5908 12.7209 18.3999 12.7209C18.2089 12.7209 18.0258 12.645 17.8908 12.51C17.7557 12.3749 17.6799 12.1918 17.6799 12.0009V7.33846L7.33748 17.6809H11.9999C12.1908 17.6809 12.374 17.7567 12.509 17.8917C12.644 18.0268 12.7199 18.2099 12.7199 18.4009C12.7199 18.5918 12.644 18.775 12.509 18.91C12.374 19.045 12.1908 19.1209 11.9999 19.1209H5.59988C5.40893 19.1209 5.22579 19.045 5.09077 18.91C4.95574 18.775 4.87988 18.5918 4.87988 18.4009V12.0009C4.87988 11.9063 4.89851 11.8127 4.93469 11.7253C4.97087 11.638 5.02391 11.5586 5.09077 11.4917C5.15762 11.4249 5.237 11.3718 5.32435 11.3357C5.41171 11.2995 5.50533 11.2809 5.59988 11.2809C5.69443 11.2809 5.78806 11.2995 5.87542 11.3357C5.96277 11.3718 6.04214 11.4249 6.109 11.4917C6.17586 11.5586 6.22889 11.638 6.26508 11.7253C6.30126 11.8127 6.31988 11.9063 6.31988 12.0009V16.6633L16.6623 6.32086H11.9999C11.8089 6.32086 11.6258 6.245 11.4908 6.10998C11.3557 5.97495 11.2799 5.79182 11.2799 5.60086C11.2799 5.4099 11.3557 5.22677 11.4908 5.09174C11.6258 4.95672 11.8089 4.88086 11.9999 4.88086H18.3999Z" fill="#1E1E1E"/>
</svg>