<svg width="28" height="26" viewBox="0 0 28 26" fill="none" xmlns="http://www.w3.org/2000/svg">
<path d="M24.5234 16.3486C23.8353 18.7167 22.4342 20.8153 20.5108 22.3589C18.5875 23.9024 16.2353 24.8159 13.7743 24.975C11.3134 25.1341 8.86313 24.5311 6.75704 23.2481C4.65095 21.9651 2.99129 20.0644 2.00391 17.8046" stroke="#1E1E1E" stroke-width="0.55814" stroke-linejoin="round" stroke-dasharray="2.79 2.79"/>
<path d="M1.13127 11.2302L1.6833 11.3125L1.13127 11.2302ZM2.94674 6.44802L3.41433 6.75278L2.94674 6.44802ZM6.5889 2.85641L6.88709 3.32822L6.88709 3.32822L6.5889 2.85641ZM11.396 1.10795L11.4706 1.66108L11.396 1.10795ZM16.4945 1.52035L16.332 2.0543L16.332 2.0543L16.4945 1.52035ZM20.9581 4.01867L20.5879 4.43642L20.5879 4.43642L20.9581 4.01867ZM23.9756 8.14896L24.4861 7.92332L23.9756 8.14896ZM24.9989 13.1607L27.0637 7.05559L20.7441 8.32006L24.9989 13.1607ZM2.00854 16.1789C1.55164 14.599 1.44071 12.9392 1.6833 11.3125L0.579233 11.1479C0.312969 12.9332 0.434724 14.755 0.936199 16.489L2.00854 16.1789ZM1.6833 11.3125C1.9259 9.68586 2.51632 8.13062 3.41433 6.75278L2.47914 6.14327C1.49352 7.65553 0.845496 9.3625 0.579233 11.1479L1.6833 11.3125ZM3.41433 6.75278C4.31234 5.37494 5.49684 4.20688 6.88709 3.32822L6.29071 2.3846C4.76482 3.34899 3.46476 4.631 2.47914 6.14327L3.41433 6.75278ZM6.88709 3.32822C8.27735 2.44955 9.84069 1.88092 11.4706 1.66108L11.3214 0.554821C9.53247 0.796107 7.8166 1.42021 6.29071 2.3846L6.88709 3.32822ZM11.4706 1.66108C13.1005 1.44124 14.7586 1.57536 16.332 2.0543L16.657 0.986399C14.9302 0.460738 13.1103 0.313535 11.3214 0.554821L11.4706 1.66108ZM16.332 2.0543C17.9053 2.53323 19.357 3.34573 20.5879 4.43642L21.3282 3.60092C19.9772 2.40382 18.3839 1.51206 16.657 0.986399L16.332 2.0543ZM20.5879 4.43642C21.8189 5.5271 22.8003 6.87035 23.4652 8.3746L24.4861 7.92332C23.7564 6.2723 22.6793 4.79801 21.3282 3.60092L20.5879 4.43642ZM23.4652 8.3746C23.4773 8.402 23.4893 8.42944 23.5012 8.45692L24.5257 8.01366C24.5126 7.9835 24.4994 7.95339 24.4861 7.92332L23.4652 8.3746Z" fill="#1E1E1E"/>
<path d="M11.2908 16.582H9.19221V9.10296H13.5569C15.5327 9.10296 16.5708 9.92901 16.5708 11.3913C16.5708 12.5746 15.9792 13.2778 14.5504 13.4564V13.5681C15.3206 13.769 15.5662 14.1374 15.8452 14.7067L16.7718 16.582H14.3494L13.4564 14.7513C13.1885 14.1932 12.9652 14.0369 12.1504 14.0369H11.2908V16.582ZM11.2908 10.9895V12.4741H13.5345C14.1485 12.4741 14.3717 12.3625 14.3717 11.7262C14.3717 11.1346 14.1485 10.9895 13.5345 10.9895H11.2908Z" fill="#1E1E1E"/>
</svg>
