<svg width="24" height="24" viewBox="0 0 24 24" fill="none" xmlns="http://www.w3.org/2000/svg">
  <path d="M11.25 19C11.25 18.8011 11.329 18.6103 11.4697 18.4697C11.6103 18.329 11.8011 18.25 12 18.25H18C18.0663 18.25 18.1299 18.2237 18.1768 18.1768C18.2237 18.1299 18.25 18.0663 18.25 18V6C18.25 5.9337 18.2237 5.87011 18.1768 5.82322C18.1299 5.77634 18.0663 5.75 18 5.75H12C11.8011 5.75 11.6103 5.67098 11.4697 5.53033C11.329 5.38968 11.25 5.19891 11.25 5C11.25 4.80109 11.329 4.61032 11.4697 4.46967C11.6103 4.32902 11.8011 4.25 12 4.25H18C18.966 4.25 19.75 5.034 19.75 6V18C19.75 18.4641 19.5656 18.9092 19.2374 19.2374C18.9092 19.5656 18.4641 19.75 18 19.75H12C11.8011 19.75 11.6103 19.671 11.4697 19.5303C11.329 19.3897 11.25 19.1989 11.25 19Z" fill="#EA4335"/>
  <path d="M15.6116 13.115C15.6116 13.3802 15.5062 13.6346 15.3187 13.8221C15.1312 14.0097 14.8768 14.115 14.6116 14.115H9.7556C9.7326 14.471 9.7036 14.825 9.6696 15.181L9.6396 15.486C9.62843 15.601 9.58969 15.7115 9.52668 15.8083C9.46367 15.9051 9.37824 15.9852 9.27764 16.042C9.17704 16.0987 9.06424 16.1303 8.94882 16.1342C8.83339 16.138 8.71874 16.1139 8.6146 16.064C6.78658 15.1879 5.13171 13.989 3.7296 12.525L3.6996 12.494C3.57089 12.3598 3.49902 12.181 3.49902 11.995C3.49902 11.809 3.57089 11.6303 3.6996 11.496L3.7296 11.465C5.1317 10.001 6.78657 8.80211 8.6146 7.92602C8.71874 7.87609 8.83339 7.85203 8.94882 7.85587C9.06424 7.8597 9.17704 7.89133 9.27764 7.94805C9.37824 8.00478 9.46367 8.08494 9.52668 8.18172C9.58969 8.27851 9.62843 8.38907 9.6396 8.50402L9.6696 8.80902C9.7036 9.16402 9.7326 9.51902 9.7556 9.87502H14.6116C14.8768 9.87502 15.1312 9.98037 15.3187 10.1679C15.5062 10.3554 15.6116 10.6098 15.6116 10.875V13.115Z" fill="#EA4335"/>
</svg>