<svg width="39" height="40" viewBox="0 0 39 40" fill="none" xmlns="http://www.w3.org/2000/svg">
  <path d="M24.7475 10.5166H14.2129V29.4455H24.7475V10.5166Z" fill="#FF5F00"/>
  <path d="M14.8822 19.981C14.8822 16.135 16.6882 12.7238 19.464 10.5165C17.4239 8.91126 14.8488 7.94141 12.0395 7.94141C5.38438 7.94141 0 13.3258 0 19.981C0 26.6362 5.38438 32.0205 12.0395 32.0205C14.8488 32.0205 17.4239 31.0507 19.464 29.4454C16.6882 27.2716 14.8822 23.827 14.8822 19.981Z" fill="#EB001B"/>
  <path d="M38.9611 19.981C38.9611 26.6362 33.5767 32.0205 26.9215 32.0205C24.1122 32.0205 21.5371 31.0507 19.4971 29.4454C22.3063 27.2381 24.0788 23.827 24.0788 19.981C24.0788 16.135 22.2729 12.7238 19.4971 10.5165C21.5371 8.91126 24.1122 7.94141 26.9215 7.94141C33.5767 7.94141 38.9611 13.3592 38.9611 19.981Z" fill="#F79E1B"/>
</svg>