<svg width="20" height="21" viewBox="0 0 20 21" fill="none" xmlns="http://www.w3.org/2000/svg">
<path d="M6.00001 9.50016C6.00001 9.23494 6.10537 8.98059 6.2929 8.79305C6.48044 8.60551 6.7348 8.50016 7.00001 8.50016H13C13.2652 8.50016 13.5196 8.60551 13.7071 8.79305C13.8947 8.98059 14 9.23494 14 9.50016C14 9.76537 13.8947 10.0197 13.7071 10.2073C13.5196 10.3948 13.2652 10.5002 13 10.5002H7.00001C6.7348 10.5002 6.48044 10.3948 6.2929 10.2073C6.10537 10.0197 6.00001 9.76537 6.00001 9.50016ZM7.00001 12.5002C6.7348 12.5002 6.48044 12.6055 6.2929 12.793C6.10537 12.9806 6.00001 13.2349 6.00001 13.5002C6.00001 13.7654 6.10537 14.0197 6.2929 14.2073C6.48044 14.3948 6.7348 14.5002 7.00001 14.5002H11C11.2652 14.5002 11.5196 14.3948 11.7071 14.2073C11.8947 14.0197 12 13.7654 12 13.5002C12 13.2349 11.8947 12.9806 11.7071 12.793C11.5196 12.6055 11.2652 12.5002 11 12.5002H7.00001ZM1.12522e-05 10.5002C0.000512807 8.30776 0.721494 6.17627 2.052 4.43375C3.3825 2.69123 5.24878 1.43424 7.36361 0.856232C9.47845 0.278228 11.7246 0.411245 13.7565 1.23481C15.7883 2.05838 17.4932 3.52685 18.6087 5.41422C19.7243 7.3016 20.1886 9.50328 19.9304 11.6804C19.6721 13.8576 18.7056 15.8895 17.1794 17.4635C15.6533 19.0375 13.6521 20.0664 11.484 20.3917C9.3159 20.7171 7.10093 20.3209 5.18001 19.2642L1.29201 20.4482C1.11859 20.501 0.934076 20.5057 0.758197 20.4617C0.582319 20.4178 0.421695 20.3269 0.293506 20.1987C0.165318 20.0705 0.0743872 19.9098 0.0304406 19.734C-0.0135059 19.5581 -0.00881522 19.3736 0.0440112 19.2002L1.22801 15.3062C0.41992 13.8334 -0.00251363 12.1801 1.12522e-05 10.5002ZM10 2.50016C8.57989 2.50004 7.18533 2.87795 5.95957 3.59507C4.73381 4.31219 3.72103 5.34268 3.02527 6.58068C2.3295 7.81869 1.97582 9.21959 2.00055 10.6395C2.02529 12.0594 2.42755 13.4471 3.16601 14.6602C3.23932 14.7807 3.2863 14.9153 3.30388 15.0552C3.32146 15.1952 3.30924 15.3373 3.26801 15.4722L2.50201 17.9902L5.01601 17.2242C5.15133 17.1829 5.29385 17.1709 5.43417 17.1888C5.57449 17.2067 5.70941 17.2542 5.83001 17.3282C6.88437 17.9719 8.07348 18.3627 9.30415 18.4699C10.5348 18.5772 11.7736 18.398 12.9234 17.9464C14.0733 17.4948 15.1029 16.783 15.9316 15.8669C16.7603 14.9507 17.3656 13.8551 17.7 12.6659C18.0344 11.4767 18.0889 10.2262 17.8592 9.01245C17.6295 7.79867 17.1218 6.65457 16.3759 5.66983C15.63 4.6851 14.6662 3.88647 13.56 3.33655C12.4539 2.78663 11.2353 2.50035 10 2.50016Z" fill="#CACACA"/>
</svg>
