<svg width="13" height="25" viewBox="0 0 13 25" fill="none" xmlns="http://www.w3.org/2000/svg">
<path d="M3.875 8V7.625H3.5H3.125C1.88461 7.625 0.875 6.61539 0.875 5.375V1.625C0.875 1.42609 0.954018 1.23532 1.09467 1.09467C1.23532 0.954018 1.42609 0.875 1.625 0.875C1.82391 0.875 2.01468 0.954018 2.15533 1.09467C2.29598 1.23532 2.375 1.42609 2.375 1.625V5.375C2.375 5.57391 2.45402 5.76468 2.59467 5.90533C2.73532 6.04598 2.92609 6.125 3.125 6.125H9.875C11.1154 6.125 12.125 7.13461 12.125 8.375V12.875C12.125 13.0739 12.046 13.2647 11.9053 13.4053C11.7647 13.546 11.5739 13.625 11.375 13.625C11.1761 13.625 10.9853 13.546 10.8447 13.4053C10.704 13.2647 10.625 13.0739 10.625 12.875V8.375C10.625 8.17609 10.546 7.98532 10.4053 7.84467C10.2647 7.70402 10.0739 7.625 9.875 7.625H9.5H9.125V8V23.375C9.125 23.5739 9.04598 23.7647 8.90533 23.9053C8.76468 24.046 8.57391 24.125 8.375 24.125C8.17609 24.125 7.98532 24.046 7.84467 23.9053C7.70402 23.7647 7.625 23.5739 7.625 23.375V17.75V17.375H7.25H5.75H5.375V17.75V23.375C5.375 23.5739 5.29598 23.7647 5.15533 23.9053L5.4205 24.1705L5.15533 23.9053C5.01468 24.046 4.82391 24.125 4.625 24.125C4.42609 24.125 4.23532 24.046 4.09467 23.9053C3.95402 23.7647 3.875 23.5739 3.875 23.375V8ZM5.17417 1.42417C5.52581 1.07254 6.00272 0.875 6.5 0.875C6.99728 0.875 7.47419 1.07254 7.82583 1.42417C8.17746 1.77581 8.375 2.25272 8.375 2.75C8.375 3.24728 8.17746 3.72419 7.82583 4.07582C7.47419 4.42746 6.99728 4.625 6.5 4.625C6.00272 4.625 5.52581 4.42746 5.17417 4.07582C4.82254 3.72419 4.625 3.24728 4.625 2.75C4.625 2.25272 4.82254 1.77581 5.17417 1.42417Z" stroke="#CACACA" stroke-width="0.75"/>
</svg>
