<svg width="19" height="21" viewBox="0 0 19 21" fill="none" xmlns="http://www.w3.org/2000/svg">
<path d="M8.4695 1.39292C8.748 1.12962 9.11673 0.98291 9.5 0.98291C9.88327 0.98291 10.252 1.12962 10.5305 1.39292L17.7965 8.26142C18.2465 8.68592 18.5 9.27842 18.5 9.89642V18.2514C18.5 18.8482 18.2629 19.4205 17.841 19.8424C17.419 20.2644 16.8467 20.5014 16.25 20.5014H13.25C12.9544 20.5014 12.6617 20.4432 12.3886 20.33C12.1155 20.2168 11.8674 20.051 11.6585 19.8419C11.4495 19.6328 11.2838 19.3846 11.1708 19.1114C11.0579 18.8383 10.9998 18.5455 11 18.2499V14.4999C11 14.301 10.921 14.1102 10.7803 13.9696C10.6397 13.8289 10.4489 13.7499 10.25 13.7499H8.75C8.55109 13.7499 8.36032 13.8289 8.21967 13.9696C8.07902 14.1102 8 14.301 8 14.4999V18.2499C8 18.8467 7.76295 19.419 7.34099 19.8409C6.91903 20.2629 6.34674 20.4999 5.75 20.4999H2.75C2.15326 20.4999 1.58097 20.2629 1.15901 19.8409C0.737053 19.419 0.5 18.8467 0.5 18.2499V9.89492C0.5 9.27692 0.755 8.68442 1.205 8.25992L8.4695 1.38992V1.39292ZM9.5 2.48192L2.234 9.35192C2.16024 9.42185 2.10146 9.50605 2.06123 9.59939C2.02101 9.69274 2.00017 9.79328 2 9.89492V18.2499C2 18.4488 2.07902 18.6396 2.21967 18.7803C2.36032 18.9209 2.55109 18.9999 2.75 18.9999H5.75C5.94891 18.9999 6.13968 18.9209 6.28033 18.7803C6.42098 18.6396 6.5 18.4488 6.5 18.2499V14.4999C6.5 13.9032 6.73705 13.3309 7.15901 12.9089C7.58097 12.487 8.15326 12.2499 8.75 12.2499H10.25C10.8467 12.2499 11.419 12.487 11.841 12.9089C12.2629 13.3309 12.5 13.9032 12.5 14.4999V18.2499C12.5 18.4488 12.579 18.6396 12.7197 18.7803C12.8603 18.9209 13.0511 18.9999 13.25 18.9999H16.25C16.4489 18.9999 16.6397 18.9209 16.7803 18.7803C16.921 18.6396 17 18.4488 17 18.2499V9.89492C17 9.79303 16.9793 9.6922 16.9391 9.59858C16.8988 9.50496 16.8399 9.42053 16.766 9.35042L9.5 2.48192Z" fill="#CACACA"/>
</svg>
