<svg width="21" height="21" viewBox="0 0 21 21" fill="none" xmlns="http://www.w3.org/2000/svg">
<path d="M18.8999 11.1599C18.7396 10.9774 18.6512 10.7428 18.6512 10.4999C18.6512 10.257 18.7396 10.0224 18.8999 9.8399L20.1799 8.39989C20.3209 8.24256 20.4085 8.0446 20.4301 7.8344C20.4516 7.62421 20.4061 7.41258 20.2999 7.22989L18.2999 3.7699C18.1948 3.58742 18.0348 3.44277 17.8426 3.35658C17.6505 3.27039 17.4361 3.24705 17.2299 3.2899L15.3499 3.6699C15.1107 3.71932 14.8616 3.67948 14.6498 3.5579C14.4379 3.43631 14.2779 3.24138 14.1999 3.0099L13.5899 1.1799C13.5228 0.981274 13.395 0.80876 13.2245 0.686737C13.0541 0.564714 12.8495 0.499354 12.6399 0.499895H8.6399C8.42183 0.488513 8.20603 0.548821 8.02546 0.671609C7.84489 0.794397 7.70948 0.972914 7.6399 1.1799L7.0799 3.0099C7.0019 3.24138 6.84187 3.43631 6.63001 3.5579C6.41815 3.67948 6.16911 3.71932 5.9299 3.6699L3.9999 3.2899C3.80445 3.26228 3.6052 3.29312 3.42724 3.37853C3.24929 3.46395 3.1006 3.60012 2.9999 3.7699L0.999896 7.22989C0.891056 7.41054 0.842118 7.62098 0.860079 7.83112C0.878039 8.04126 0.961979 8.24034 1.0999 8.39989L2.3699 9.8399C2.53022 10.0224 2.61863 10.257 2.61863 10.4999C2.61863 10.7428 2.53022 10.9774 2.3699 11.1599L1.0999 12.5999C0.961979 12.7595 0.878039 12.9585 0.860079 13.1687C0.842118 13.3788 0.891056 13.5892 0.999896 13.7699L2.9999 17.2299C3.10499 17.4124 3.26502 17.557 3.45715 17.6432C3.64928 17.7294 3.86372 17.7527 4.0699 17.7099L5.9499 17.3299C6.18911 17.2805 6.43815 17.3203 6.65001 17.4419C6.86187 17.5635 7.0219 17.7584 7.0999 17.9899L7.7099 19.8199C7.77948 20.0269 7.91489 20.2054 8.09546 20.3282C8.27603 20.451 8.49183 20.5113 8.7099 20.4999H12.7099C12.9195 20.5004 13.1241 20.4351 13.2945 20.3131C13.465 20.191 13.5928 20.0185 13.6599 19.8199L14.2699 17.9899C14.3479 17.7584 14.5079 17.5635 14.7198 17.4419C14.9316 17.3203 15.1807 17.2805 15.4199 17.3299L17.2999 17.7099C17.5061 17.7527 17.7205 17.7294 17.9126 17.6432C18.1048 17.557 18.2648 17.4124 18.3699 17.2299L20.3699 13.7699C20.4761 13.5872 20.5216 13.3756 20.5001 13.1654C20.4785 12.9552 20.3909 12.7572 20.2499 12.5999L18.8999 11.1599ZM17.4099 12.4999L18.2099 13.3999L16.9299 15.6199L15.7499 15.3799C15.0297 15.2327 14.2805 15.355 13.6445 15.7237C13.0085 16.0924 12.53 16.6817 12.2999 17.3799L11.9199 18.4999H9.3599L8.9999 17.3599C8.76975 16.6617 8.29128 16.0724 7.6553 15.7037C7.01932 15.335 6.27012 15.2127 5.5499 15.3599L4.3699 15.5999L3.0699 13.3899L3.8699 12.4899C4.36185 11.9399 4.63383 11.2278 4.63383 10.4899C4.63383 9.75196 4.36185 9.03992 3.8699 8.48989L3.0699 7.5899L4.3499 5.38989L5.5299 5.6299C6.25012 5.77712 6.99932 5.65478 7.6353 5.28609C8.27128 4.91741 8.74975 4.32805 8.9799 3.6299L9.3599 2.4999H11.9199L12.2999 3.63989C12.53 4.33805 13.0085 4.92741 13.6445 5.29609C14.2805 5.66478 15.0297 5.78712 15.7499 5.63989L16.9299 5.3999L18.2099 7.61989L17.4099 8.5199C16.9235 9.06866 16.6549 9.77658 16.6549 10.5099C16.6549 11.2432 16.9235 11.9511 17.4099 12.4999ZM10.6399 6.4999C9.84877 6.4999 9.07541 6.73449 8.41761 7.17402C7.75982 7.61354 7.24713 8.23826 6.94438 8.96916C6.64163 9.70007 6.56241 10.5043 6.71675 11.2803C6.8711 12.0562 7.25206 12.7689 7.81147 13.3283C8.37088 13.8877 9.08361 14.2687 9.85954 14.423C10.6355 14.5774 11.4397 14.4982 12.1706 14.1954C12.9015 13.8927 13.5262 13.38 13.9658 12.7222C14.4053 12.0644 14.6399 11.291 14.6399 10.4999C14.6399 9.43903 14.2185 8.42161 13.4683 7.67147C12.7182 6.92132 11.7008 6.4999 10.6399 6.4999ZM10.6399 12.4999C10.2443 12.4999 9.85765 12.3826 9.52876 12.1628C9.19986 11.9431 8.94351 11.6307 8.79214 11.2653C8.64076 10.8998 8.60116 10.4977 8.67833 10.1097C8.7555 9.72175 8.94598 9.36539 9.22568 9.08568C9.50539 8.80598 9.86175 8.61549 10.2497 8.53832C10.6377 8.46115 11.0398 8.50076 11.4053 8.65214C11.7707 8.80351 12.0831 9.05986 12.3028 9.38875C12.5226 9.71765 12.6399 10.1043 12.6399 10.4999C12.6399 11.0303 12.4292 11.539 12.0541 11.9141C11.679 12.2892 11.1703 12.4999 10.6399 12.4999Z" fill="#CACACA"/>
</svg>
