<svg width="15" height="14" viewBox="0 0 15 14" fill="none" xmlns="http://www.w3.org/2000/svg">
<path d="M7.50065 2.3335C8.11949 2.3335 8.71298 2.57933 9.15057 3.01691C9.58815 3.4545 9.83398 4.04799 9.83398 4.66683C9.83398 5.28567 9.58815 5.87916 9.15057 6.31675C8.71298 6.75433 8.11949 7.00016 7.50065 7.00016C6.88181 7.00016 6.28832 6.75433 5.85073 6.31675C5.41315 5.87916 5.16732 5.28567 5.16732 4.66683C5.16732 4.04799 5.41315 3.4545 5.85073 3.01691C6.28832 2.57933 6.88181 2.3335 7.50065 2.3335ZM7.50065 11.6668C7.50065 11.6668 12.1673 11.6668 12.1673 10.5002C12.1673 9.10016 9.89232 7.5835 7.50065 7.5835C5.10898 7.5835 2.83398 9.10016 2.83398 10.5002C2.83398 11.6668 7.50065 11.6668 7.50065 11.6668Z" fill="white"/>
</svg>
