<svg width="20" height="10" viewBox="0 0 20 10" fill="none" xmlns="http://www.w3.org/2000/svg">
<path d="M18.95 8.60566L16.7722 4.92789L18.9278 1.40011C18.979 1.31604 19.0069 1.21989 19.0087 1.12148C19.0105 1.02308 18.9862 0.925961 18.9381 0.84006C18.8901 0.754159 18.8201 0.682561 18.7353 0.632591C18.6505 0.582621 18.554 0.556074 18.4556 0.555664H1.11111C0.816426 0.555664 0.533811 0.672727 0.325437 0.881101C0.117063 1.08947 0 1.37209 0 1.66678L0 8.33344C0 8.62813 0.117063 8.91074 0.325437 9.11912C0.533811 9.32749 0.816426 9.44455 1.11111 9.44455H18.4722C18.5703 9.44454 18.6666 9.41857 18.7514 9.36928C18.8361 9.31999 18.9063 9.24915 18.9549 9.16394C19.0034 9.07873 19.0285 8.9822 19.0277 8.88415C19.0268 8.78609 19 8.69001 18.95 8.60566ZM5.83889 6.76678H5.21667L3.40556 4.35566V6.77233H2.77778V3.33344H3.40556L5.22222 5.75011V3.33344H5.84444L5.83889 6.76678ZM9.35556 3.889H7.39444V4.71678H9.17222V5.27233H7.39444V6.16678H9.35556V6.72233H6.76667V3.33344H9.35L9.35556 3.889ZM13.9611 6.75566H13.3333L12.4722 4.20566L11.6111 6.76678H10.9889L9.87778 3.33344H10.5556L11.2889 5.79455L12.1333 3.33344H12.8111L13.6222 5.79455L14.3611 3.33344H15.0444L13.9611 6.75566Z" fill="white"/>
</svg>
