<svg width="70" height="70" viewBox="0 0 70 70" fill="none" xmlns="http://www.w3.org/2000/svg">
<circle cx="35" cy="35" r="35" fill="#6D6D6D"/>
<g filter="url(#filter0_b_2873_6450)">
<circle cx="35" cy="35" r="35" fill="url(#paint0_linear_2873_6450)"/>
<circle cx="35" cy="35" r="34.5" stroke="#6D6D6D"/>
</g>
<path d="M51.8612 36.3843L47.9698 29.8126L51.8215 23.5089C51.9129 23.3587 51.9628 23.1869 51.9661 23.011C51.9693 22.8352 51.9258 22.6617 51.84 22.5082C51.7542 22.3547 51.6291 22.2267 51.4776 22.1375C51.3261 22.0482 51.1536 22.0007 50.9777 22H19.9854C19.4588 22 18.9539 22.2092 18.5815 22.5815C18.2092 22.9539 18 23.4588 18 23.9854V35.8979C18 36.4244 18.2092 36.9294 18.5815 37.3018C18.9539 37.6741 19.4588 37.8833 19.9854 37.8833H51.0075C51.1827 37.8833 51.3548 37.8369 51.5062 37.7488C51.6577 37.6607 51.7832 37.5341 51.8699 37.3819C51.9566 37.2296 52.0015 37.0571 52 36.8819C51.9984 36.7067 51.9506 36.535 51.8612 36.3843ZM28.4333 33.0985H27.3215L24.0853 28.7901V33.1084H22.9635V26.9635H24.0853L27.3314 31.2818V26.9635H28.4433L28.4333 33.0985ZM34.7172 27.9562H31.2129V29.4354H34.3896V30.4281H31.2129V32.0263H34.7172V33.019H30.0912V26.9635H34.7072L34.7172 27.9562ZM42.9467 33.0786H41.8249L40.2862 28.5221L38.7476 33.0985H37.6357L35.6503 26.9635H36.8614L38.1718 31.3612L39.6807 26.9635H40.8918L42.3411 31.3612L43.6614 26.9635H44.8825L42.9467 33.0786Z" fill="white"/>
<path d="M14.0775 44.7741C14.0605 44.6023 13.9873 44.4687 13.858 44.3736C13.7288 44.2784 13.5534 44.2308 13.3318 44.2308C13.1812 44.2308 13.0541 44.2521 12.9504 44.2947C12.8467 44.3359 12.7671 44.3935 12.7117 44.4673C12.6578 44.5412 12.6308 44.625 12.6308 44.7188C12.6279 44.7969 12.6443 44.8651 12.6798 44.9233C12.7167 44.9815 12.7671 45.032 12.8311 45.0746C12.895 45.1158 12.9688 45.152 13.0526 45.1832C13.1365 45.2131 13.2259 45.2386 13.3211 45.2599L13.7132 45.3537C13.9035 45.3963 14.0782 45.4531 14.2373 45.5241C14.3964 45.5952 14.5342 45.6825 14.6507 45.7862C14.7671 45.8899 14.8573 46.0121 14.9213 46.1527C14.9866 46.2933 15.02 46.4545 15.0214 46.6364C15.02 46.9034 14.9518 47.1349 14.8169 47.331C14.6833 47.5256 14.4901 47.6768 14.2373 47.7848C13.9859 47.8913 13.6826 47.9446 13.3275 47.9446C12.9752 47.9446 12.6684 47.8906 12.407 47.7827C12.1471 47.6747 11.944 47.5149 11.7977 47.3033C11.6528 47.0902 11.5768 46.8267 11.5697 46.5128H12.4624C12.4724 46.6591 12.5143 46.7812 12.5882 46.8793C12.6634 46.9759 12.7636 47.049 12.8886 47.0987C13.015 47.147 13.1578 47.1712 13.3169 47.1712C13.4731 47.1712 13.6088 47.1484 13.7238 47.103C13.8403 47.0575 13.9305 46.9943 13.9944 46.9134C14.0583 46.8324 14.0903 46.7393 14.0903 46.6342C14.0903 46.5362 14.0612 46.4538 14.0029 46.3871C13.9461 46.3203 13.8623 46.2635 13.7515 46.2166C13.6421 46.1697 13.5079 46.1271 13.3488 46.0888L12.8737 45.9695C12.5058 45.88 12.2153 45.7401 12.0022 45.5497C11.7892 45.3594 11.6833 45.103 11.6847 44.7805C11.6833 44.5163 11.7536 44.2855 11.8957 44.0881C12.0392 43.8906 12.2359 43.7365 12.4859 43.6257C12.7359 43.5149 13.02 43.4595 13.3382 43.4595C13.662 43.4595 13.9447 43.5149 14.1862 43.6257C14.4291 43.7365 14.618 43.8906 14.7529 44.0881C14.8879 44.2855 14.9575 44.5142 14.9617 44.7741H14.0775ZM17.1164 47.9467C16.7797 47.9467 16.49 47.8786 16.2471 47.7422C16.0056 47.6044 15.8195 47.4098 15.6888 47.1584C15.5581 46.9055 15.4928 46.6065 15.4928 46.2614C15.4928 45.9247 15.5581 45.6293 15.6888 45.375C15.8195 45.1207 16.0035 44.9226 16.2407 44.7805C16.4793 44.6385 16.7591 44.5675 17.0802 44.5675C17.2961 44.5675 17.4971 44.6023 17.6831 44.6719C17.8706 44.7401 18.034 44.843 18.1732 44.9808C18.3138 45.1186 18.4232 45.2919 18.5013 45.5007C18.5795 45.7081 18.6185 45.951 18.6185 46.2294V46.4787H15.855V45.9162H17.7641C17.7641 45.7855 17.7357 45.6697 17.6789 45.5689C17.6221 45.468 17.5432 45.3892 17.4424 45.3324C17.343 45.2741 17.2272 45.245 17.0951 45.245C16.9573 45.245 16.8351 45.277 16.7286 45.3409C16.6235 45.4034 16.5411 45.4879 16.4814 45.5945C16.4218 45.6996 16.3912 45.8168 16.3898 45.946V46.4808C16.3898 46.6428 16.4197 46.7827 16.4793 46.9006C16.5404 47.0185 16.6263 47.1094 16.7371 47.1733C16.8479 47.2372 16.9793 47.2692 17.1313 47.2692C17.2322 47.2692 17.3245 47.255 17.4083 47.2266C17.4921 47.1982 17.5638 47.1555 17.6235 47.0987C17.6831 47.0419 17.7286 46.9723 17.7599 46.8899L18.5993 46.9453C18.5567 47.147 18.4694 47.3232 18.3373 47.4737C18.2066 47.6229 18.0376 47.7393 17.8302 47.8232C17.6242 47.9055 17.3863 47.9467 17.1164 47.9467ZM20.1441 47.9446C19.9353 47.9446 19.7492 47.9084 19.5858 47.8359C19.4225 47.7621 19.2932 47.6534 19.1981 47.5099C19.1043 47.3651 19.0574 47.1847 19.0574 46.9688C19.0574 46.7869 19.0908 46.6342 19.1576 46.5107C19.2243 46.3871 19.3153 46.2876 19.4303 46.2124C19.5454 46.1371 19.676 46.0803 19.8224 46.0419C19.9701 46.0036 20.1249 45.9766 20.2868 45.9609C20.4772 45.9411 20.6306 45.9226 20.7471 45.9055C20.8635 45.8871 20.9481 45.8601 21.0006 45.8246C21.0532 45.7891 21.0795 45.7365 21.0795 45.6669V45.6541C21.0795 45.5192 21.0368 45.4148 20.9516 45.3409C20.8678 45.267 20.7485 45.2301 20.5937 45.2301C20.4303 45.2301 20.3003 45.2663 20.2037 45.3388C20.1072 45.4098 20.0432 45.4993 20.012 45.6072L19.1725 45.5391C19.2151 45.3402 19.2989 45.1683 19.4239 45.0234C19.5489 44.8771 19.7101 44.7649 19.9076 44.6868C20.1064 44.6072 20.3366 44.5675 20.5979 44.5675C20.7797 44.5675 20.9537 44.5888 21.1199 44.6314C21.2876 44.674 21.436 44.7401 21.5653 44.8295C21.6959 44.919 21.7989 45.0341 21.8742 45.1747C21.9495 45.3139 21.9871 45.4808 21.9871 45.6754V47.8828H21.1263V47.429H21.1008C21.0482 47.5312 20.9779 47.6214 20.8898 47.6996C20.8018 47.7763 20.6959 47.8366 20.5724 47.8807C20.4488 47.9233 20.306 47.9446 20.1441 47.9446ZM20.404 47.3182C20.5376 47.3182 20.6555 47.2919 20.7577 47.2393C20.86 47.1854 20.9403 47.1129 20.9985 47.022C21.0567 46.9311 21.0858 46.8281 21.0858 46.7131V46.3658C21.0574 46.3842 21.0184 46.4013 20.9687 46.4169C20.9204 46.4311 20.8657 46.4446 20.8046 46.4574C20.7435 46.4687 20.6824 46.4794 20.6214 46.4893C20.5603 46.4979 20.5049 46.5057 20.4552 46.5128C20.3486 46.5284 20.2556 46.5533 20.176 46.5874C20.0965 46.6214 20.0347 46.6676 19.9907 46.7259C19.9466 46.7827 19.9246 46.8537 19.9246 46.9389C19.9246 47.0625 19.9694 47.157 20.0589 47.2223C20.1498 47.2862 20.2648 47.3182 20.404 47.3182ZM22.6913 47.8828V44.6101H23.5713V45.1811H23.6054C23.665 44.978 23.7652 44.8246 23.9058 44.7209C24.0464 44.6158 24.2084 44.5632 24.3916 44.5632C24.4371 44.5632 24.4861 44.5661 24.5386 44.5717C24.5912 44.5774 24.6373 44.5852 24.6771 44.5952V45.4006C24.6345 45.3878 24.5756 45.3764 24.5003 45.3665C24.425 45.3565 24.3561 45.3516 24.2936 45.3516C24.1601 45.3516 24.0407 45.3807 23.9356 45.4389C23.8319 45.4957 23.7496 45.5753 23.6885 45.6776C23.6288 45.7798 23.599 45.8977 23.599 46.0312V47.8828H22.6913ZM26.4727 47.9467C26.1375 47.9467 25.8492 47.8757 25.6077 47.7337C25.3676 47.5902 25.183 47.3913 25.0537 47.1371C24.9259 46.8828 24.8619 46.5902 24.8619 46.2592C24.8619 45.924 24.9266 45.63 25.0558 45.3771C25.1865 45.1229 25.3719 44.9247 25.6119 44.7827C25.852 44.6392 26.1375 44.5675 26.4685 44.5675C26.754 44.5675 27.004 44.6193 27.2185 44.723C27.433 44.8267 27.6027 44.9723 27.7277 45.1598C27.8527 45.3473 27.9216 45.5675 27.9344 45.8203H27.0779C27.0537 45.657 26.9898 45.5256 26.8861 45.4261C26.7838 45.3253 26.6496 45.2749 26.4834 45.2749C26.3428 45.2749 26.2199 45.3132 26.1148 45.3899C26.0111 45.4652 25.9301 45.5753 25.8719 45.7202C25.8137 45.8651 25.7845 46.0405 25.7845 46.2464C25.7845 46.4553 25.8129 46.6328 25.8698 46.7791C25.928 46.9254 26.0097 47.0369 26.1148 47.1136C26.2199 47.1903 26.3428 47.2287 26.4834 47.2287C26.5871 47.2287 26.6801 47.2074 26.7625 47.1648C26.8463 47.1222 26.9152 47.0604 26.9692 46.9794C27.0246 46.897 27.0608 46.7983 27.0779 46.6832H27.9344C27.9202 46.9332 27.852 47.1534 27.7298 47.3438C27.6091 47.5327 27.4422 47.6804 27.2291 47.7869C27.0161 47.8935 26.7639 47.9467 26.4727 47.9467ZM29.4232 45.9908V47.8828H28.5155V43.5192H29.3976V45.1875H29.436C29.5099 44.9943 29.6292 44.843 29.7939 44.7337C29.9587 44.6229 30.1654 44.5675 30.414 44.5675C30.6412 44.5675 30.8394 44.6172 31.0084 44.7166C31.1789 44.8146 31.311 44.956 31.4047 45.1406C31.4999 45.3239 31.5468 45.5433 31.5454 45.799V47.8828H30.6377V45.9609C30.6391 45.7592 30.588 45.6023 30.4843 45.4901C30.382 45.3778 30.2385 45.3217 30.0539 45.3217C29.9303 45.3217 29.8209 45.348 29.7258 45.4006C29.632 45.4531 29.5581 45.5298 29.5042 45.6307C29.4516 45.7301 29.4246 45.8501 29.4232 45.9908ZM37.3153 43.5192V47.8828H36.5184L34.6199 45.1364H34.588V47.8828H33.6654V43.5192H34.4751L36.3586 46.2635H36.3969V43.5192H37.3153ZM39.5519 47.9467C39.2153 47.9467 38.9255 47.8786 38.6826 47.7422C38.4411 47.6044 38.2551 47.4098 38.1244 47.1584C37.9937 46.9055 37.9284 46.6065 37.9284 46.2614C37.9284 45.9247 37.9937 45.6293 38.1244 45.375C38.2551 45.1207 38.439 44.9226 38.6762 44.7805C38.9149 44.6385 39.1947 44.5675 39.5157 44.5675C39.7316 44.5675 39.9326 44.6023 40.1187 44.6719C40.3062 44.7401 40.4695 44.843 40.6088 44.9808C40.7494 45.1186 40.8588 45.2919 40.9369 45.5007C41.015 45.7081 41.0541 45.951 41.0541 46.2294V46.4787H38.2906V45.9162H40.1997C40.1997 45.7855 40.1713 45.6697 40.1144 45.5689C40.0576 45.468 39.9788 45.3892 39.8779 45.3324C39.7785 45.2741 39.6627 45.245 39.5306 45.245C39.3928 45.245 39.2707 45.277 39.1642 45.3409C39.059 45.4034 38.9767 45.4879 38.917 45.5945C38.8573 45.6996 38.8268 45.8168 38.8254 45.946V46.4808C38.8254 46.6428 38.8552 46.7827 38.9149 46.9006C38.9759 47.0185 39.0619 47.1094 39.1727 47.1733C39.2835 47.2372 39.4149 47.2692 39.5669 47.2692C39.6677 47.2692 39.76 47.255 39.8438 47.2266C39.9276 47.1982 39.9994 47.1555 40.059 47.0987C40.1187 47.0419 40.1642 46.9723 40.1954 46.8899L41.0349 46.9453C40.9923 47.147 40.9049 47.3232 40.7728 47.4737C40.6421 47.6229 40.4731 47.7393 40.2657 47.8232C40.0597 47.9055 39.8218 47.9467 39.5519 47.9467ZM42.2686 47.8828L41.3779 44.6101H42.2963L42.8034 46.8089H42.8332L43.3616 44.6101H44.2629L44.7998 46.7962H44.8275L45.3261 44.6101H46.2423L45.3538 47.8828H44.3928L43.8303 45.8246H43.7899L43.2274 47.8828H42.2686ZM49.8794 43.5192H50.7913V46.5618C50.7913 46.843 50.7281 47.0874 50.6017 47.2947C50.4767 47.5021 50.3026 47.6619 50.0796 47.7741C49.8566 47.8864 49.5974 47.9425 49.3019 47.9425C49.0392 47.9425 48.8005 47.8963 48.586 47.804C48.373 47.7102 48.2039 47.5682 48.0789 47.3778C47.9539 47.1861 47.8921 46.9453 47.8936 46.6555H48.8119C48.8147 46.7706 48.8382 46.8693 48.8822 46.9517C48.9276 47.0327 48.9894 47.0952 49.0676 47.1392C49.1471 47.1818 49.2409 47.2031 49.3488 47.2031C49.4624 47.2031 49.5583 47.179 49.6365 47.1307C49.716 47.081 49.7764 47.0085 49.8176 46.9134C49.8588 46.8182 49.8794 46.701 49.8794 46.5618V43.5192ZM53.0157 47.9467C52.6847 47.9467 52.3985 47.8764 52.157 47.7358C51.917 47.5937 51.7316 47.3963 51.6009 47.1435C51.4703 46.8892 51.4049 46.5945 51.4049 46.2592C51.4049 45.9212 51.4703 45.6257 51.6009 45.3729C51.7316 45.1186 51.917 44.9212 52.157 44.7805C52.3985 44.6385 52.6847 44.5675 53.0157 44.5675C53.3467 44.5675 53.6322 44.6385 53.8722 44.7805C54.1137 44.9212 54.2998 45.1186 54.4305 45.3729C54.5612 45.6257 54.6265 45.9212 54.6265 46.2592C54.6265 46.5945 54.5612 46.8892 54.4305 47.1435C54.2998 47.3963 54.1137 47.5937 53.8722 47.7358C53.6322 47.8764 53.3467 47.9467 53.0157 47.9467ZM53.02 47.2436C53.1705 47.2436 53.2963 47.201 53.3971 47.1158C53.498 47.0291 53.574 46.9112 53.6251 46.7621C53.6776 46.6129 53.7039 46.4432 53.7039 46.2528C53.7039 46.0625 53.6776 45.8928 53.6251 45.7436C53.574 45.5945 53.498 45.4766 53.3971 45.3899C53.2963 45.3033 53.1705 45.2599 53.02 45.2599C52.868 45.2599 52.7401 45.3033 52.6365 45.3899C52.5342 45.4766 52.4568 45.5945 52.4042 45.7436C52.3531 45.8928 52.3275 46.0625 52.3275 46.2528C52.3275 46.4432 52.3531 46.6129 52.4042 46.7621C52.4568 46.9112 52.5342 47.0291 52.6365 47.1158C52.7401 47.201 52.868 47.2436 53.02 47.2436ZM55.2338 47.8828V43.5192H56.1414V45.1598H56.1691C56.2089 45.0717 56.2664 44.9822 56.3417 44.8913C56.4184 44.799 56.5178 44.7223 56.64 44.6612C56.7636 44.5987 56.917 44.5675 57.1002 44.5675C57.3389 44.5675 57.559 44.63 57.7607 44.755C57.9624 44.8786 58.1237 45.0653 58.2444 45.3153C58.3651 45.5639 58.4255 45.8757 58.4255 46.2507C58.4255 46.6158 58.3666 46.924 58.2487 47.1754C58.1322 47.4254 57.9731 47.6151 57.7714 47.7443C57.5711 47.8722 57.3467 47.9361 57.0981 47.9361C56.922 47.9361 56.7721 47.907 56.6485 47.8487C56.5264 47.7905 56.4262 47.7173 56.3481 47.6293C56.27 47.5398 56.2103 47.4496 56.1691 47.3587H56.1286V47.8828H55.2338ZM56.1222 46.2464C56.1222 46.4411 56.1492 46.6108 56.2032 46.7557C56.2572 46.9006 56.3353 47.0135 56.4376 47.0945C56.5399 47.174 56.6642 47.2138 56.8105 47.2138C56.9582 47.2138 57.0832 47.1733 57.1855 47.0923C57.2877 47.0099 57.3651 46.8963 57.4177 46.7514C57.4717 46.6051 57.4987 46.4368 57.4987 46.2464C57.4987 46.0575 57.4724 45.8913 57.4198 45.7479C57.3673 45.6044 57.2899 45.4922 57.1876 45.4112C57.0853 45.3303 56.9596 45.2898 56.8105 45.2898C56.6627 45.2898 56.5377 45.3288 56.4355 45.407C56.3346 45.4851 56.2572 45.5959 56.2032 45.7393C56.1492 45.8828 56.1222 46.0518 56.1222 46.2464Z" fill="white"/>
<defs>
<filter id="filter0_b_2873_6450" x="-5" y="-5" width="80" height="80" filterUnits="userSpaceOnUse" color-interpolation-filters="sRGB">
<feFlood flood-opacity="0" result="BackgroundImageFix"/>
<feGaussianBlur in="BackgroundImageFix" stdDeviation="2.5"/>
<feComposite in2="SourceAlpha" operator="in" result="effect1_backgroundBlur_2873_6450"/>
<feBlend mode="normal" in="SourceGraphic" in2="effect1_backgroundBlur_2873_6450" result="shape"/>
</filter>
<linearGradient id="paint0_linear_2873_6450" x1="35" y1="0" x2="35" y2="70" gradientUnits="userSpaceOnUse">
<stop stop-color="white" stop-opacity="0.3"/>
<stop offset="1" stop-color="#1B1B1B" stop-opacity="0"/>
</linearGradient>
</defs>
</svg>
