<svg width="70" height="70" viewBox="0 0 70 70" fill="none" xmlns="http://www.w3.org/2000/svg">
    <circle cx="35" cy="35" r="35" fill="#1E1E1E" />
    <g filter="url(#filter0_b_2873_6543)">
        <circle cx="35" cy="35" r="35" fill="url(#paint0_linear_2873_6543)" />
        <circle cx="35" cy="35" r="34.5" stroke="#1E1E1E" />
    </g>
    <path
        d="M51.8612 34.3843L47.9698 27.8126L51.8215 21.5089C51.9129 21.3587 51.9628 21.1869 51.9661 21.011C51.9693 20.8352 51.9258 20.6617 51.84 20.5082C51.7542 20.3547 51.6291 20.2267 51.4776 20.1375C51.3261 20.0482 51.1536 20.0007 50.9777 20H19.9854C19.4588 20 18.9539 20.2092 18.5815 20.5815C18.2092 20.9539 18 21.4588 18 21.9854V33.8979C18 34.4244 18.2092 34.9294 18.5815 35.3018C18.9539 35.6741 19.4588 35.8833 19.9854 35.8833H51.0075C51.1827 35.8833 51.3548 35.8369 51.5062 35.7488C51.6577 35.6607 51.7832 35.5341 51.8699 35.3819C51.9566 35.2296 52.0015 35.0571 52 34.8819C51.9984 34.7067 51.9506 34.535 51.8612 34.3843ZM28.4333 31.0985H27.3215L24.0853 26.7901V31.1084H22.9635V24.9635H24.0853L27.3314 29.2818V24.9635H28.4433L28.4333 31.0985ZM34.7172 25.9562H31.2129V27.4354H34.3896V28.4281H31.2129V30.0263H34.7172V31.019H30.0912V24.9635H34.7072L34.7172 25.9562ZM42.9467 31.0786H41.8249L40.2862 26.5221L38.7476 31.0985H37.6357L35.6503 24.9635H36.8614L38.1718 29.3612L39.6807 24.9635H40.8918L42.3411 29.3612L43.6614 24.9635H44.8825L42.9467 31.0786Z"
        fill="white" />
    <path
        d="M23.4503 42.0651V47.8833H22.3878L19.8565 44.2214H19.8139V47.8833H18.5838V42.0651H19.6634L22.1747 45.7242H22.2259V42.0651H23.4503ZM26.4325 47.9685C25.9837 47.9685 25.5973 47.8776 25.2734 47.6958C24.9515 47.5121 24.7034 47.2526 24.5291 46.9174C24.3549 46.5803 24.2678 46.1816 24.2678 45.7214C24.2678 45.2725 24.3549 44.8786 24.5291 44.5396C24.7034 44.2005 24.9486 43.9363 25.2649 43.7469C25.5831 43.5575 25.9562 43.4628 26.3842 43.4628C26.6721 43.4628 26.9401 43.5092 27.1882 43.6021C27.4382 43.693 27.656 43.8303 27.8416 44.014C28.0291 44.1977 28.175 44.4288 28.2791 44.7072C28.3833 44.9837 28.4354 45.3075 28.4354 45.6788V46.0111H24.7507V45.2611H27.2962C27.2962 45.0869 27.2583 44.9325 27.1825 44.7981C27.1068 44.6636 27.0017 44.5585 26.8672 44.4827C26.7346 44.4051 26.5803 44.3663 26.4041 44.3663C26.2204 44.3663 26.0575 44.4089 25.9155 44.4941C25.7753 44.5774 25.6655 44.6901 25.5859 44.8322C25.5064 44.9723 25.4657 45.1286 25.4638 45.3009V46.014C25.4638 46.2299 25.5036 46.4164 25.5831 46.5736C25.6645 46.7308 25.7791 46.8521 25.9268 46.9373C26.0746 47.0225 26.2498 47.0651 26.4524 47.0651C26.5869 47.0651 26.71 47.0462 26.8217 47.0083C26.9335 46.9704 27.0291 46.9136 27.1087 46.8378C27.1882 46.7621 27.2488 46.6693 27.2905 46.5594L28.4098 46.6333C28.353 46.9022 28.2365 47.1371 28.0604 47.3378C27.8861 47.5367 27.6607 47.692 27.3842 47.8038C27.1096 47.9136 26.7924 47.9685 26.4325 47.9685ZM30.0547 47.8833L28.8672 43.5197H30.0916L30.7678 46.4515H30.8075L31.5121 43.5197H32.7138L33.4297 46.4344H33.4666L34.1314 43.5197H35.353L34.1683 47.8833H32.8871L32.1371 45.139H32.0831L31.3331 47.8833H30.0547ZM40.2024 42.0651H41.4183V46.1219C41.4183 46.4969 41.334 46.8227 41.1655 47.0992C40.9988 47.3757 40.7668 47.5888 40.4695 47.7384C40.1721 47.888 39.8265 47.9628 39.4325 47.9628C39.0821 47.9628 38.764 47.9013 38.478 47.7782C38.1939 47.6532 37.9685 47.4638 37.8018 47.21C37.6352 46.9543 37.5528 46.6333 37.5547 46.2469H38.7791C38.7829 46.4003 38.8142 46.532 38.8729 46.6418C38.9335 46.7498 39.0159 46.8331 39.12 46.8918C39.2261 46.9486 39.3511 46.9771 39.495 46.9771C39.6465 46.9771 39.7744 46.9449 39.8786 46.8805C39.9846 46.8142 40.0651 46.7176 40.12 46.5907C40.175 46.4638 40.2024 46.3075 40.2024 46.1219V42.0651ZM44.3842 47.9685C43.9429 47.9685 43.5613 47.8748 43.2393 47.6873C42.9193 47.4979 42.6721 47.2346 42.4979 46.8975C42.3236 46.5585 42.2365 46.1655 42.2365 45.7185C42.2365 45.2678 42.3236 44.8738 42.4979 44.5367C42.6721 44.1977 42.9193 43.9344 43.2393 43.7469C43.5613 43.5575 43.9429 43.4628 44.3842 43.4628C44.8255 43.4628 45.2062 43.5575 45.5263 43.7469C45.8482 43.9344 46.0964 44.1977 46.2706 44.5367C46.4448 44.8738 46.532 45.2678 46.532 45.7185C46.532 46.1655 46.4448 46.5585 46.2706 46.8975C46.0964 47.2346 45.8482 47.4979 45.5263 47.6873C45.2062 47.8748 44.8255 47.9685 44.3842 47.9685ZM44.3899 47.031C44.5907 47.031 44.7583 46.9742 44.8928 46.8606C45.0272 46.745 45.1286 46.5878 45.1967 46.389C45.2668 46.1901 45.3018 45.9638 45.3018 45.71C45.3018 45.4562 45.2668 45.2299 45.1967 45.031C45.1286 44.8322 45.0272 44.675 44.8928 44.5594C44.7583 44.4439 44.5907 44.3861 44.3899 44.3861C44.1873 44.3861 44.0168 44.4439 43.8786 44.5594C43.7422 44.675 43.639 44.8322 43.5689 45.031C43.5007 45.2299 43.4666 45.4562 43.4666 45.71C43.4666 45.9638 43.5007 46.1901 43.5689 46.389C43.639 46.5878 43.7422 46.745 43.8786 46.8606C44.0168 46.9742 44.1873 47.031 44.3899 47.031ZM47.3416 47.8833V42.0651H48.5518V44.2526H48.5888C48.6418 44.1352 48.7185 44.0159 48.8189 43.8947C48.9212 43.7716 49.0537 43.6693 49.2166 43.5878C49.3814 43.5045 49.5859 43.4628 49.8303 43.4628C50.1484 43.4628 50.442 43.5462 50.7109 43.7128C50.9799 43.8776 51.1948 44.1267 51.3558 44.46C51.5168 44.7914 51.5973 45.2072 51.5973 45.7072C51.5973 46.1939 51.5187 46.6049 51.3615 46.9401C51.2062 47.2735 50.9941 47.5263 50.7251 47.6986C50.4581 47.8691 50.1589 47.9543 49.8274 47.9543C49.5926 47.9543 49.3928 47.9155 49.228 47.8378C49.0651 47.7602 48.9316 47.6627 48.8274 47.5452C48.7232 47.4259 48.6437 47.3056 48.5888 47.1844H48.5348V47.8833H47.3416ZM48.5263 45.7015C48.5263 45.961 48.5623 46.1873 48.6342 46.3805C48.7062 46.5736 48.8104 46.7242 48.9467 46.8322C49.0831 46.9382 49.2488 46.9913 49.4439 46.9913C49.6409 46.9913 49.8075 46.9373 49.9439 46.8293C50.0803 46.7195 50.1835 46.568 50.2536 46.3748C50.3255 46.1797 50.3615 45.9553 50.3615 45.7015C50.3615 45.4496 50.3265 45.228 50.2564 45.0367C50.1863 44.8454 50.0831 44.6958 49.9467 44.5878C49.8104 44.4799 49.6428 44.4259 49.4439 44.4259C49.2469 44.4259 49.0803 44.478 48.9439 44.5822C48.8094 44.6863 48.7062 44.8341 48.6342 45.0253C48.5623 45.2166 48.5263 45.442 48.5263 45.7015Z"
        fill="white" />
    <defs>
        <filter id="filter0_b_2873_6543" x="-5" y="-5" width="80" height="80"
            filterUnits="userSpaceOnUse" color-interpolation-filters="sRGB">
            <feFlood flood-opacity="0" result="BackgroundImageFix" />
            <feGaussianBlur in="BackgroundImageFix" stdDeviation="2.5" />
            <feComposite in2="SourceAlpha" operator="in" result="effect1_backgroundBlur_2873_6543" />
            <feBlend mode="normal" in="SourceGraphic" in2="effect1_backgroundBlur_2873_6543"
                result="shape" />
        </filter>
        <linearGradient id="paint0_linear_2873_6543" x1="35" y1="0" x2="35" y2="70"
            gradientUnits="userSpaceOnUse">
            <stop stop-color="white" stop-opacity="0.3" />
            <stop offset="1" stop-color="#1B1B1B" stop-opacity="0" />
        </linearGradient>
    </defs>
</svg>