<svg width="250" height="286" viewBox="0 0 250 286" fill="none" xmlns="http://www.w3.org/2000/svg">
<path d="M90.8852 216.505C104.15 224.5 113.613 221.181 117.236 214.769C124.242 202.371 147.537 177.016 184.453 168.447C233.346 157.097 223.135 126.961 193.079 111.147C163.022 95.3327 140.549 73.4511 143.95 49.6587C147.351 25.8663 113.65 17.6643 98.6625 63.4328C88.9773 93.0102 71.6207 100.934 60.5527 102.839C50.1213 104.634 38.7107 106.886 33.1463 115.89C26.3943 126.815 28.7504 137.867 57.0195 145.446C97.0797 156.187 61.1528 198.583 90.8852 216.505Z" fill="#EBF2FF"/>
<path d="M56.4201 164.664C56.9815 164.343 63.3175 161.661 94.838 176.355C94.7461 176.48 94.7071 176.54 94.7071 176.54C94.7071 176.54 61.9385 187.575 55.5181 173.98C53.6009 169.933 54.1502 167.146 56.3654 164.696L56.4201 164.664Z" fill="#5492FD"/>
<path d="M162.363 170.225C155.515 175.982 144.776 180.161 134.413 174.604C136.05 173.558 137.742 172.48 139.467 171.365C149.873 164.679 159.04 169.153 162.363 170.225Z" fill="#5492FD"/>
<path d="M174.63 99.4186C181.626 157.679 164.999 168.253 163.148 169.859C162.612 170.324 162.395 170.29 161.585 170.081L161.571 170.089C158.142 169.18 149.874 164.679 139.467 171.364C137.742 172.479 136.05 173.557 134.413 174.603C123.797 181.336 115.224 186.081 109.047 183.327C103.808 180.655 99.0848 178.342 94.8381 176.355C63.3176 161.661 56.9816 164.343 56.4203 164.664C57.0716 164.309 63.047 160.997 71.0928 155.173C71.1201 155.157 71.1475 155.141 71.1534 155.12C81.9076 147.326 96.3098 135.044 106.662 119.245C113.709 108.501 120.604 81.2653 133.906 75.9213C161.245 65.7225 173.494 87.5681 174.63 99.4186Z" fill="#BBD4FF"/>
<path d="M144.4 98.3965C145.249 96.1557 145.166 94.0472 144.215 93.6872C143.265 93.3272 141.806 94.8519 140.958 97.0928C140.109 99.3336 140.192 101.442 141.142 101.802C142.093 102.162 143.552 100.637 144.4 98.3965Z" fill="white"/>
<path d="M161.807 101.256C162.409 98.9362 162.099 96.849 161.115 96.5939C160.131 96.3387 158.845 98.0122 158.244 100.332C157.643 102.651 157.953 104.738 158.937 104.993C159.921 105.249 161.206 103.575 161.807 101.256Z" fill="white"/>
<path d="M151.212 109.772C151.069 109.772 150.931 109.723 150.82 109.633C150.709 109.544 150.632 109.419 150.601 109.28C150.49 108.775 149.994 107.282 149.208 107.061C148.422 106.839 146.88 107.7 146.257 108.152C146.122 108.249 145.955 108.289 145.791 108.263C145.628 108.237 145.481 108.147 145.384 108.012C145.287 107.878 145.247 107.711 145.273 107.547C145.299 107.383 145.389 107.237 145.523 107.139C145.769 106.961 147.971 105.413 149.548 105.857C151.192 106.321 151.763 108.74 151.823 109.014C151.843 109.105 151.842 109.2 151.82 109.291C151.799 109.382 151.757 109.467 151.699 109.539C151.64 109.612 151.566 109.671 151.481 109.711C151.397 109.751 151.305 109.772 151.211 109.772H151.212Z" fill="white"/>
<path d="M54.32 275V261H56.57L62.99 271.24V261H65.07V275H62.83L56.39 264.76V275H54.32ZM71.6859 275.26C70.7659 275.26 69.9259 275.023 69.1659 274.55C68.4126 274.077 67.8093 273.443 67.3559 272.65C66.9093 271.85 66.6859 270.967 66.6859 270C66.6859 269.267 66.8159 268.583 67.0759 267.95C67.3359 267.31 67.6926 266.75 68.1459 266.27C68.6059 265.783 69.1393 265.403 69.7459 265.13C70.3526 264.857 70.9993 264.72 71.6859 264.72C72.6059 264.72 73.4426 264.957 74.1959 265.43C74.9559 265.903 75.5593 266.54 76.0059 267.34C76.4593 268.14 76.6859 269.027 76.6859 270C76.6859 270.727 76.5559 271.407 76.2959 272.04C76.0359 272.673 75.6759 273.233 75.2159 273.72C74.7626 274.2 74.2326 274.577 73.6259 274.85C73.0259 275.123 72.3793 275.26 71.6859 275.26ZM71.6859 273.18C72.2393 273.18 72.7359 273.033 73.1759 272.74C73.6159 272.447 73.9626 272.06 74.2159 271.58C74.4759 271.093 74.6059 270.567 74.6059 270C74.6059 269.42 74.4726 268.887 74.2059 268.4C73.9459 267.913 73.5959 267.527 73.1559 267.24C72.7159 266.947 72.2259 266.8 71.6859 266.8C71.1393 266.8 70.6426 266.947 70.1959 267.24C69.7559 267.533 69.4059 267.923 69.1459 268.41C68.8926 268.897 68.7659 269.427 68.7659 270C68.7659 270.593 68.8993 271.13 69.1659 271.61C69.4326 272.09 69.7859 272.473 70.2259 272.76C70.6726 273.04 71.1593 273.18 71.6859 273.18ZM83.402 275V261H85.652L92.072 271.24V261H94.152V275H91.912L85.472 264.76V275H83.402ZM100.768 275.26C99.848 275.26 99.008 275.023 98.248 274.55C97.4946 274.077 96.8913 273.443 96.438 272.65C95.9913 271.85 95.768 270.967 95.768 270C95.768 269.267 95.898 268.583 96.158 267.95C96.418 267.31 96.7746 266.75 97.228 266.27C97.688 265.783 98.2213 265.403 98.828 265.13C99.4346 264.857 100.081 264.72 100.768 264.72C101.688 264.72 102.525 264.957 103.278 265.43C104.038 265.903 104.641 266.54 105.088 267.34C105.541 268.14 105.768 269.027 105.768 270C105.768 270.727 105.638 271.407 105.378 272.04C105.118 272.673 104.758 273.233 104.298 273.72C103.845 274.2 103.315 274.577 102.708 274.85C102.108 275.123 101.461 275.26 100.768 275.26ZM100.768 273.18C101.321 273.18 101.818 273.033 102.258 272.74C102.698 272.447 103.045 272.06 103.298 271.58C103.558 271.093 103.688 270.567 103.688 270C103.688 269.42 103.555 268.887 103.288 268.4C103.028 267.913 102.678 267.527 102.238 267.24C101.798 266.947 101.308 266.8 100.768 266.8C100.221 266.8 99.7246 266.947 99.278 267.24C98.838 267.533 98.488 267.923 98.228 268.41C97.9746 268.897 97.848 269.427 97.848 270C97.848 270.593 97.9813 271.13 98.248 271.61C98.5146 272.09 98.868 272.473 99.308 272.76C99.7546 273.04 100.241 273.18 100.768 273.18ZM112.644 267.08H110.544L110.534 275H108.454L108.464 267.08H106.874V265H108.464L108.454 261.86H110.534L110.544 265H112.644V267.08ZM114.005 265H116.085V275H114.005V265ZM115.055 263.35C114.741 263.35 114.478 263.247 114.265 263.04C114.051 262.833 113.945 262.573 113.945 262.26C113.945 261.953 114.051 261.697 114.265 261.49C114.478 261.277 114.741 261.17 115.055 261.17C115.361 261.17 115.621 261.277 115.835 261.49C116.048 261.697 116.155 261.953 116.155 262.26C116.155 262.573 116.048 262.833 115.835 263.04C115.621 263.247 115.361 263.35 115.055 263.35ZM121.809 262.73V265H124.629V267.08H121.809V275H119.729V267.08H118.539V265H119.729V262.73C119.729 262.183 119.862 261.687 120.129 261.24C120.396 260.787 120.752 260.427 121.199 260.16C121.652 259.893 122.156 259.76 122.709 259.76C123.109 259.76 123.499 259.84 123.879 260C124.259 260.16 124.599 260.407 124.899 260.74L123.409 262.21C123.336 262.09 123.232 262 123.099 261.94C122.972 261.873 122.842 261.84 122.709 261.84C122.462 261.84 122.249 261.927 122.069 262.1C121.896 262.273 121.809 262.483 121.809 262.73ZM126.173 265H128.253V275H126.173V265ZM127.223 263.35C126.909 263.35 126.646 263.247 126.433 263.04C126.219 262.833 126.113 262.573 126.113 262.26C126.113 261.953 126.219 261.697 126.433 261.49C126.646 261.277 126.909 261.17 127.223 261.17C127.529 261.17 127.789 261.277 128.003 261.49C128.216 261.697 128.323 261.953 128.323 262.26C128.323 262.573 128.216 262.833 128.003 263.04C127.789 263.247 127.529 263.35 127.223 263.35ZM137.937 272.16L139.797 273.17C139.344 273.803 138.767 274.31 138.067 274.69C137.374 275.07 136.62 275.26 135.807 275.26C134.887 275.26 134.047 275.023 133.287 274.55C132.534 274.077 131.93 273.443 131.477 272.65C131.03 271.85 130.807 270.967 130.807 270C130.807 269.267 130.937 268.583 131.197 267.95C131.457 267.31 131.814 266.75 132.267 266.27C132.727 265.783 133.26 265.403 133.867 265.13C134.474 264.857 135.12 264.72 135.807 264.72C136.62 264.72 137.374 264.91 138.067 265.29C138.767 265.67 139.344 266.18 139.797 266.82L137.937 267.83C137.657 267.497 137.33 267.243 136.957 267.07C136.584 266.89 136.2 266.8 135.807 266.8C135.26 266.8 134.764 266.95 134.317 267.25C133.877 267.543 133.527 267.933 133.267 268.42C133.014 268.9 132.887 269.427 132.887 270C132.887 270.567 133.017 271.093 133.277 271.58C133.537 272.06 133.887 272.447 134.327 272.74C134.774 273.033 135.267 273.18 135.807 273.18C136.22 273.18 136.614 273.087 136.987 272.9C137.36 272.713 137.677 272.467 137.937 272.16ZM149.18 265H151.26V275H149.17L149.09 273.55C148.797 274.063 148.4 274.477 147.9 274.79C147.407 275.103 146.82 275.26 146.14 275.26C145.4 275.26 144.707 275.123 144.06 274.85C143.42 274.57 142.853 274.183 142.36 273.69C141.873 273.197 141.49 272.63 141.21 271.99C140.937 271.343 140.8 270.65 140.8 269.91C140.8 269.197 140.933 268.527 141.2 267.9C141.467 267.267 141.837 266.713 142.31 266.24C142.783 265.767 143.33 265.397 143.95 265.13C144.577 264.857 145.247 264.72 145.96 264.72C146.687 264.72 147.327 264.887 147.88 265.22C148.44 265.547 148.9 265.967 149.26 266.48L149.18 265ZM146.19 273.25C146.79 273.25 147.307 273.1 147.74 272.8C148.18 272.5 148.51 272.097 148.73 271.59C148.957 271.083 149.053 270.523 149.02 269.91C148.98 269.323 148.823 268.79 148.55 268.31C148.283 267.83 147.927 267.45 147.48 267.17C147.033 266.883 146.527 266.74 145.96 266.74C145.367 266.74 144.83 266.89 144.35 267.19C143.877 267.49 143.51 267.893 143.25 268.4C142.99 268.907 142.877 269.47 142.91 270.09C142.95 270.67 143.123 271.2 143.43 271.68C143.743 272.16 144.14 272.543 144.62 272.83C145.107 273.11 145.63 273.25 146.19 273.25ZM158.933 267.08H156.833L156.823 275H154.743L154.753 267.08H153.163V265H154.753L154.743 261.86H156.823L156.833 265H158.933V267.08ZM160.294 265H162.374V275H160.294V265ZM161.344 263.35C161.03 263.35 160.767 263.247 160.554 263.04C160.34 262.833 160.234 262.573 160.234 262.26C160.234 261.953 160.34 261.697 160.554 261.49C160.767 261.277 161.03 261.17 161.344 261.17C161.65 261.17 161.91 261.277 162.124 261.49C162.337 261.697 162.444 261.953 162.444 262.26C162.444 262.573 162.337 262.833 162.124 263.04C161.91 263.247 161.65 263.35 161.344 263.35ZM169.928 275.26C169.008 275.26 168.168 275.023 167.408 274.55C166.655 274.077 166.051 273.443 165.598 272.65C165.151 271.85 164.928 270.967 164.928 270C164.928 269.267 165.058 268.583 165.318 267.95C165.578 267.31 165.935 266.75 166.388 266.27C166.848 265.783 167.381 265.403 167.988 265.13C168.595 264.857 169.241 264.72 169.928 264.72C170.848 264.72 171.685 264.957 172.438 265.43C173.198 265.903 173.801 266.54 174.248 267.34C174.701 268.14 174.928 269.027 174.928 270C174.928 270.727 174.798 271.407 174.538 272.04C174.278 272.673 173.918 273.233 173.458 273.72C173.005 274.2 172.475 274.577 171.868 274.85C171.268 275.123 170.621 275.26 169.928 275.26ZM169.928 273.18C170.481 273.18 170.978 273.033 171.418 272.74C171.858 272.447 172.205 272.06 172.458 271.58C172.718 271.093 172.848 270.567 172.848 270C172.848 269.42 172.715 268.887 172.448 268.4C172.188 267.913 171.838 267.527 171.398 267.24C170.958 266.947 170.468 266.8 169.928 266.8C169.381 266.8 168.885 266.947 168.438 267.24C167.998 267.533 167.648 267.923 167.388 268.41C167.135 268.897 167.008 269.427 167.008 270C167.008 270.593 167.141 271.13 167.408 271.61C167.675 272.09 168.028 272.473 168.468 272.76C168.915 273.04 169.401 273.18 169.928 273.18ZM185.824 269.76V275H183.744V269.8C183.744 269.233 183.624 268.72 183.384 268.26C183.15 267.793 182.827 267.423 182.414 267.15C182.007 266.87 181.544 266.73 181.024 266.73C180.504 266.73 180.047 266.87 179.654 267.15C179.267 267.423 178.964 267.793 178.744 268.26C178.53 268.72 178.424 269.233 178.424 269.8V275H176.344V265H178.424V266.35C178.77 265.843 179.19 265.447 179.684 265.16C180.177 264.867 180.734 264.72 181.354 264.72C182.254 264.72 183.034 264.95 183.694 265.41C184.36 265.87 184.88 266.48 185.254 267.24C185.627 268 185.817 268.84 185.824 269.76ZM191.128 275.19C190.601 275.157 190.088 275.05 189.588 274.87C189.088 274.69 188.648 274.447 188.268 274.14C187.895 273.827 187.615 273.46 187.428 273.04L189.198 272.28C189.285 272.46 189.435 272.637 189.648 272.81C189.868 272.983 190.125 273.127 190.418 273.24C190.711 273.347 191.018 273.4 191.338 273.4C191.651 273.4 191.941 273.357 192.208 273.27C192.481 273.177 192.705 273.037 192.878 272.85C193.051 272.663 193.138 272.44 193.138 272.18C193.138 271.887 193.038 271.66 192.838 271.5C192.645 271.333 192.401 271.207 192.108 271.12C191.815 271.033 191.521 270.95 191.228 270.87C190.575 270.723 189.975 270.523 189.428 270.27C188.888 270.01 188.458 269.68 188.138 269.28C187.818 268.873 187.658 268.377 187.658 267.79C187.658 267.15 187.828 266.597 188.168 266.13C188.515 265.657 188.971 265.293 189.538 265.04C190.105 264.787 190.708 264.66 191.348 264.66C192.148 264.66 192.881 264.83 193.548 265.17C194.215 265.51 194.725 265.977 195.078 266.57L193.428 267.55C193.328 267.35 193.178 267.17 192.978 267.01C192.778 266.85 192.551 266.723 192.298 266.63C192.045 266.53 191.781 266.473 191.508 266.46C191.168 266.447 190.851 266.487 190.558 266.58C190.271 266.667 190.041 266.807 189.868 267C189.695 267.193 189.608 267.44 189.608 267.74C189.608 268.033 189.711 268.253 189.918 268.4C190.125 268.54 190.385 268.653 190.698 268.74C191.018 268.827 191.345 268.923 191.678 269.03C192.271 269.217 192.828 269.447 193.348 269.72C193.868 269.987 194.288 270.317 194.608 270.71C194.928 271.103 195.081 271.583 195.068 272.15C195.068 272.777 194.878 273.327 194.498 273.8C194.125 274.273 193.638 274.633 193.038 274.88C192.438 275.127 191.801 275.23 191.128 275.19Z" fill="#333333"/>
</svg>
