<svg width="151" height="112" viewBox="0 0 151 112" fill="none" xmlns="http://www.w3.org/2000/svg">
  <g clip-path="url(#clip0_1314_5029)">
    <path d="M43.6414 18.4353C43.6414 18.4353 60.7209 31.3808 86.6862 7.17514C109.746 -14.3213 128.575 19.5953 128.706 35.8373C128.877 56.8771 105.647 73.7122 116.92 87.5315C128.194 101.351 94.5629 124.171 76.4375 104.422C53.8901 79.8541 47.7818 99.8152 34.9299 99.8152C25.7059 99.8152 6.76824 76.9237 19.5566 59.893C30.3179 45.5619 24.4489 40.8058 21.6068 35.8373C17.5069 28.6718 27.2433 9.22256 43.6414 18.4353Z" fill="#EBF2FF"/>
    <path d="M112.21 47.0421C113.128 47.3828 114.132 47.4054 115.086 47.1866C119.085 46.2698 132.837 43.8422 130.447 54.4852C129.927 56.5968 121.873 68.4225 133.342 72.7393C134.183 73.0596 135.072 73.2345 135.971 73.2564C139.502 73.329 146.5 72.4963 149.429 69.5185C152.967 65.9214 149.102 67.6273 149.102 67.6273C149.102 67.6273 135.651 73.4898 130.9 67.27C130.371 66.578 130.035 65.5728 129.938 64.7075C129.771 63.2073 130.438 61.2248 131.314 59.499C132.5 57.1632 138.193 46.656 125.833 43.5951C122.985 42.9178 118.85 42.3094 113.517 44.5518C110.407 45.8597 111.096 46.6285 112.21 47.0421Z" fill="#BBD4FF"/>
    <path d="M114.963 43.1202L111.383 44.4585C110.147 44.9204 109.52 46.2955 109.982 47.5299L110.16 48.0035C110.622 49.2378 111.999 49.8639 113.235 49.402L116.815 48.0637C118.051 47.6017 118.678 46.2266 118.215 44.9923L118.038 44.5187C117.575 43.2844 116.199 42.6582 114.963 43.1202Z" fill="#0196FB"/>
    <path d="M92.9876 46.9925L81.1808 51.406C80.5629 51.637 80.2495 52.3245 80.4807 52.9417L80.5273 53.0658C80.7585 53.683 81.4469 53.996 82.0648 53.7651L93.8716 49.3516C94.4895 49.1206 94.8029 48.433 94.5717 47.8159L94.5252 47.6917C94.2939 47.0746 93.6055 46.7615 92.9876 46.9925Z" fill="white"/>
    <path d="M96.2826 55.7864L84.4758 60.1999C83.8579 60.4309 83.5444 61.1185 83.7757 61.7356L83.8222 61.8598C84.0534 62.4769 84.7418 62.79 85.3597 62.559L97.1665 58.1455C97.7845 57.9145 98.0979 57.2269 97.8666 56.6098L97.8201 56.4857C97.5889 55.8685 96.9005 55.5554 96.2826 55.7864Z" fill="white"/>
    <path d="M107.183 40.9908L97.6141 44.5678C96.3783 45.0298 95.7514 46.4049 96.2139 47.6393L99.481 56.3581C99.9435 57.5924 101.32 58.2185 102.556 57.7566L112.125 54.1795C113.361 53.7176 113.988 52.3424 113.525 51.1081L110.258 42.3893C109.796 41.1549 108.419 40.5288 107.183 40.9908Z" fill="#0196FB"/>
    <path d="M98.6027 43.2789L89.0336 46.8559C87.7977 47.3179 87.1708 48.693 87.6334 49.9273L91.5311 60.3292C91.9936 61.5636 93.3704 62.1897 94.6062 61.7277L104.175 58.1507C105.411 57.6887 106.038 56.3136 105.576 55.0793L101.678 44.6774C101.215 43.443 99.8385 42.8169 98.6027 43.2789Z" fill="#0196FB"/>
    <path d="M100.101 41.1672L100.026 41.1953C99.2021 41.5033 98.7841 42.42 99.0925 43.2429L104.553 57.8148C104.861 58.6377 105.779 59.0552 106.603 58.7472L106.678 58.7191C107.502 58.4112 107.92 57.4944 107.611 56.6715L102.151 42.0996C101.843 41.2767 100.925 40.8593 100.101 41.1672Z" fill="#BBD4FF"/>
    <path d="M2.52688 50.4842C2.52688 50.4842 21.745 45.0899 18.9548 57.5179C18.4703 59.4843 11.4954 69.6096 19.8036 74.471C21.5875 75.5149 23.6463 75.9773 25.7137 75.9664C29.4204 75.9472 35.2967 75.2346 37.9366 72.5508C41.4746 68.9536 37.6095 70.6595 37.6095 70.6595C37.6095 70.6595 26.5722 75.1941 20.8939 71.5794C18.9551 70.3452 18.0762 67.9555 18.6027 65.72C18.8718 64.6096 19.2816 63.5381 19.8222 62.5312C21.0571 60.2211 26.701 49.6882 14.3406 46.6273C11.4933 45.95 7.35777 45.3417 2.02538 47.5841C-3.30701 49.8264 2.52688 50.4842 2.52688 50.4842Z" fill="#BBD4FF"/>
    <path d="M40.5208 67.879L36.9408 69.2172C35.705 69.6792 35.0781 71.0543 35.5406 72.2887L35.7181 72.7623C36.1806 73.9966 37.5574 74.6227 38.7932 74.1608L42.3732 72.8225C43.609 72.3605 44.2359 70.9854 43.7734 69.7511L43.5959 69.2775C43.1334 68.0431 41.7566 67.417 40.5208 67.879Z" fill="#0196FB"/>
    <path d="M46.5693 61.9956L41.2635 63.979C40.0277 64.4409 39.4008 65.8161 39.8633 67.0504L42.4218 73.8781C42.8843 75.1124 44.2611 75.7385 45.4969 75.2766L50.8027 73.2932C52.0385 72.8312 52.6654 71.4561 52.2029 70.2218L49.6444 63.3941C49.1819 62.1598 47.8051 61.5336 46.5693 61.9956Z" fill="#0196FB"/>
    <path d="M55.4025 56.739L47.4901 59.6967C46.2543 60.1587 45.6274 61.5338 46.0899 62.7682L49.9876 73.1701C50.4502 74.4044 51.8269 75.0305 53.0628 74.5686L60.9752 71.6108C62.211 71.1488 62.8379 69.7737 62.3754 68.5394L58.4776 58.1375C58.0151 56.9031 56.6383 56.277 55.4025 56.739Z" fill="#0196FB"/>
    <path d="M57.0785 54.5842L57.0035 54.6123C56.1796 54.9203 55.7617 55.837 56.07 56.6599L61.5303 71.2318C61.8387 72.0547 62.7566 72.4721 63.5804 72.1642L63.6555 72.1361C64.4794 71.8281 64.8973 70.9114 64.5889 70.0885L59.1286 55.5166C58.8203 54.6937 57.9024 54.2763 57.0785 54.5842Z" fill="#BBD4FF"/>
    <path d="M77.2827 45.301C76.9978 45.2694 76.7362 45.1287 76.5531 44.9084C76.37 44.688 76.2796 44.4053 76.3009 44.1198L76.8913 33.3493C76.9265 32.706 77.4705 32.2172 78.0878 32.274L78.9479 32.3536C79.5652 32.4105 80.0071 32.9899 79.9208 33.6288L78.47 44.3197C78.4367 44.6045 78.2946 44.8654 78.0735 45.0482C77.8523 45.231 77.5691 45.3216 77.2827 45.301Z" fill="#0196FB"/>
    <path d="M72.1851 46.2299C72.0965 46.2559 72.0036 46.2642 71.9118 46.2544C71.8199 46.2445 71.7309 46.2167 71.6499 46.1725C71.5688 46.1283 71.4972 46.0686 71.4393 45.9967C71.3813 45.9249 71.3381 45.8423 71.312 45.7538L69.2038 39.054C69.1425 38.8635 69.1593 38.6564 69.2507 38.4783C69.342 38.3002 69.5004 38.1655 69.691 38.1039L70.2369 37.9394C70.3305 37.9121 70.4288 37.9045 70.5256 37.917C70.6223 37.9296 70.7154 37.962 70.799 38.0123C70.8825 38.0626 70.9548 38.1297 71.011 38.2093C71.0673 38.2889 71.1065 38.3792 71.1261 38.4747L72.6886 45.3391C72.7322 45.5236 72.7046 45.7177 72.6113 45.8828C72.518 46.0479 72.3658 46.1718 72.1851 46.2299Z" fill="#0196FB"/>
    <path d="M69.3403 50.0934C68.9626 50.5609 68.2029 50.5553 67.6181 50.0807L57.2352 41.6551C56.6151 41.1518 56.432 40.3188 56.8328 39.8232L57.3913 39.1321C57.7921 38.6363 58.6152 38.677 59.2021 39.2215L69.0264 48.3383C69.5796 48.8517 69.7181 49.6259 69.3403 50.0934Z" fill="#0196FB"/>
    <path d="M74.1398 71.8552C74.4072 71.9585 74.6241 72.1613 74.7449 72.421C74.8656 72.6807 74.8807 72.9771 74.7871 73.2478L71.4623 83.5101C71.2637 84.1232 70.6128 84.4567 70.0305 84.2446L69.2189 83.9484C68.6366 83.736 68.3571 83.0627 68.6043 82.4674L72.7406 72.5011C72.8456 72.2342 73.0497 72.018 73.3104 71.8976C73.5711 71.7773 73.8682 71.7621 74.1398 71.8552Z" fill="#0196FB"/>
    <path d="M79.3059 72.2581C79.3982 72.2555 79.4902 72.2712 79.5764 72.3041C79.6627 72.3371 79.7417 72.3867 79.8088 72.4501C79.8759 72.5135 79.9298 72.5895 79.9675 72.6738C80.0052 72.758 80.0259 72.8488 80.0284 72.9411L80.3536 79.9565C80.3642 80.1564 80.2949 80.3522 80.1611 80.5012C80.0272 80.6501 79.8397 80.7399 79.6396 80.7509L79.0697 80.7707C78.9721 80.7732 78.8751 80.7555 78.7848 80.7187C78.6945 80.6818 78.6128 80.6267 78.5448 80.5568C78.4769 80.4868 78.4243 80.4035 78.3902 80.3122C78.3561 80.2209 78.3413 80.1236 78.3468 80.0263L78.5916 72.991C78.5966 72.8015 78.6729 72.6209 78.8053 72.4851C78.9377 72.3493 79.1164 72.2682 79.3059 72.2581Z" fill="#0196FB"/>
    <path d="M83.0443 69.2484C83.5291 68.8927 84.2621 69.0919 84.7062 69.6999L92.5903 80.4942C93.0613 81.1391 93.0253 81.9909 92.5107 82.3681L91.7939 82.8937C91.2798 83.2709 90.4943 83.0217 90.0662 82.3454L82.8984 71.025C82.4954 70.3878 82.5595 69.604 83.0443 69.2484Z" fill="#0196FB"/>
  </g>
  <defs>
    <clipPath id="clip0_1314_5029">
      <rect width="151" height="112" fill="white"/>
    </clipPath>
  </defs>
</svg>