<svg width="101" height="86" viewBox="0 0 101 86" fill="none" xmlns="http://www.w3.org/2000/svg">
<path d="M68.559 3.96288C68.559 3.96288 54.868 21.3049 32.9622 10.9605C11.0565 0.616132 -10.8493 28.6069 8.014 45.6446C26.8773 62.6824 8.41816 72.0446 21.2331 82.4865C35.7982 94.3543 48.4788 70.2886 60.0401 75.7651C85.5566 87.8518 104.46 83.0669 100.201 69.0716C92.7238 44.5046 83.1629 42.9064 90.4648 30.1281C97.7666 17.3497 81.6513 -9.21964 68.559 3.96288Z" fill="#EBF2FF"/>
<path d="M61.1051 51.9271L60.0235 57.7342L54.8716 85.3388L45.5913 83.606L51.5418 51.7178L51.8247 50.1982L61.1051 51.9271Z" fill="#0196FB"/>
<path d="M83.9602 38.04L80.7602 55.1958C80.7508 55.2461 80.7316 55.2941 80.7037 55.3369C80.6758 55.3798 80.6397 55.4168 80.5975 55.4457C80.5553 55.4746 80.5078 55.4949 80.4577 55.5055C80.4077 55.516 80.356 55.5166 80.3057 55.5072L35.3481 47.1222L40.6397 18.751L74.7787 25.1183C80.9664 26.2721 85.0762 32.0562 83.9602 38.04Z" fill="#BBD4FF"/>
<path d="M50.2422 32.2823L47.0672 49.305L23.4688 44.9036L26.6437 27.8809C27.8126 21.6134 34.0431 17.5177 40.5596 18.7331C47.076 19.9484 51.4111 26.0146 50.2422 32.2823Z" fill="#4285F4"/>
<path d="M61.2285 40.24C59.4895 39.9157 58.3421 38.2256 58.6696 36.4704C58.9971 34.7153 60.6764 33.552 62.4154 33.8766C62.9697 33.9807 63.4866 34.2298 63.9134 34.5985C64.3403 34.9673 64.6619 35.4425 64.8455 35.9758L86.8122 40.0728L86.2187 43.2546L64.252 39.1576C63.8886 39.589 63.4173 39.9164 62.8862 40.1065C62.3551 40.2967 61.7832 40.3427 61.2285 40.24Z" fill="#4285F4"/>
<path d="M49.4592 32.5952L46.3658 49.1804L24.1353 45.0342L27.2288 28.4489C28.3677 22.3425 34.2677 18.3202 40.4064 19.4652C46.5452 20.6102 50.5981 26.4887 49.4592 32.5952Z" fill="#0196FB"/>
<path d="M61.8513 38.6322C62.7451 38.6322 63.4697 37.9077 63.4697 37.0139C63.4697 36.1201 62.7451 35.3955 61.8513 35.3955C60.9575 35.3955 60.2329 36.1201 60.2329 37.0139C60.2329 37.9077 60.9575 38.6322 61.8513 38.6322Z" fill="white"/>
<path d="M87.066 40.0617L85.1256 50.4654C85.1172 50.5102 85.0914 50.5498 85.0539 50.5756C85.0163 50.6014 84.97 50.6112 84.9252 50.6028L79.8244 49.6515C79.8155 49.6498 79.8077 49.6447 79.8026 49.6373C79.7975 49.6299 79.7956 49.6207 79.7973 49.6119L81.763 39.0726C81.7646 39.0637 81.7697 39.0559 81.7771 39.0508C81.7846 39.0457 81.7937 39.0438 81.8025 39.0455L87.0389 40.0221C87.0478 40.0238 87.0556 40.0288 87.0607 40.0363C87.0658 40.0437 87.0677 40.0528 87.066 40.0617Z" fill="#0196FB"/>
<path d="M31.492 39.0822C31.7068 40.6623 33.4407 42.5404 33.4407 42.5404C30.7986 42.7277 29.3678 41.2335 28.7521 40.3256C27.9909 40.5456 27.2086 40.6844 26.4181 40.7398C20.9941 41.1243 16.3248 37.5831 15.9876 32.8263C15.6503 28.0696 19.7735 23.9051 25.1976 23.5207C30.6217 23.1364 35.2906 26.6773 35.6278 31.4341C35.8471 34.5282 34.1776 37.3722 31.492 39.0822Z" fill="white"/>
<path d="M47.0901 49.3156C46.8445 49.9373 42.3527 68.4586 27.8171 65.7476C11.878 63.0491 23.4072 44.8984 23.4072 44.8984L47.0901 49.3156Z" fill="#A6C4F8"/>
<path d="M25.8076 33.7626C26.5524 33.7626 27.1562 33.1589 27.1562 32.414C27.1562 31.6692 26.5524 31.0654 25.8076 31.0654C25.0628 31.0654 24.459 31.6692 24.459 32.414C24.459 33.1589 25.0628 33.7626 25.8076 33.7626Z" fill="#0196FB"/>
<path d="M19.7703 33.1744C20.5196 33.1744 21.1271 32.567 21.1271 31.8177C21.1271 31.0684 20.5196 30.4609 19.7703 30.4609C19.021 30.4609 18.4136 31.0684 18.4136 31.8177C18.4136 32.567 19.021 33.1744 19.7703 33.1744Z" fill="#0196FB"/>
<path d="M31.7874 34.3375C32.5367 34.3375 33.1441 33.7301 33.1441 32.9808C33.1441 32.2315 32.5367 31.624 31.7874 31.624C31.0381 31.624 30.4307 32.2315 30.4307 32.9808C30.4307 33.7301 31.0381 34.3375 31.7874 34.3375Z" fill="#0196FB"/>
<path d="M61.1048 51.9271L60.0232 57.7342L51.5415 51.7178L51.8244 50.1982L61.1048 51.9271Z" fill="#4285F4"/>
</svg>
