<svg width="20" height="20" viewBox="0 0 20 20" fill="none" xmlns="http://www.w3.org/2000/svg">
<g clip-path="url(#clip0_403_4142)">
<path d="M18.2509 15.628L18.062 15.4613C17.5261 14.9839 17.0571 14.4364 16.6675 13.8336C16.2421 13.0016 15.9871 12.0931 15.9175 11.1613V8.41688C15.9212 6.95334 15.3903 5.53881 14.4246 4.43909C13.4589 3.33937 12.1248 2.63014 10.6731 2.44466V1.72799C10.6731 1.53129 10.595 1.34265 10.4559 1.20356C10.3168 1.06447 10.1281 0.986328 9.93142 0.986328C9.73472 0.986328 9.54608 1.06447 9.40699 1.20356C9.2679 1.34265 9.18976 1.53129 9.18976 1.72799V2.45577C7.75101 2.65462 6.43307 3.36814 5.48005 4.46417C4.52703 5.56019 4.0035 6.96446 4.00642 8.41688V11.1613C3.93684 12.0931 3.68186 13.0016 3.25642 13.8336C2.87358 14.4349 2.41209 14.9823 1.8842 15.4613L1.69531 15.628V17.1947H18.2509V15.628Z" fill="#1E1E1E"/>
<path d="M8.51172 17.7778C8.56044 18.13 8.73494 18.4526 9.00299 18.6861C9.27104 18.9197 9.61454 19.0483 9.97005 19.0483C10.3256 19.0483 10.6691 18.9197 10.9371 18.6861C11.2052 18.4526 11.3797 18.13 11.4284 17.7778H8.51172Z" fill="#1E1E1E"/>
</g>
<defs>
<clipPath id="clip0_403_4142">
<rect width="20" height="20" fill="white"/>
</clipPath>
</defs>
</svg>
