<svg width="70" height="70" viewBox="0 0 70 70" fill="none" xmlns="http://www.w3.org/2000/svg">
    <circle cx="35" cy="35" r="35" fill="#1E1E1E" />
    <g filter="url(#filter0_b_2873_6460)">
        <circle cx="35" cy="35" r="35" fill="url(#paint0_linear_2873_6460)" />
        <circle cx="35" cy="35" r="34.5" stroke="#1E1E1E" />
    </g>
    <g clip-path="url(#clip0_2873_6460)">
        <path fill-rule="evenodd" clip-rule="evenodd"
            d="M36.5 37C37.2956 37 38.0587 37.3161 38.6213 37.8787C39.1839 38.4413 39.5 39.2044 39.5 40C39.5 40.7956 39.1839 41.5587 38.6213 42.1213C38.0587 42.6839 37.2956 43 36.5 43C35.7044 43 34.9413 42.6839 34.3787 42.1213C33.8161 41.5587 33.5 40.7956 33.5 40C33.5 39.2044 33.8161 38.4413 34.3787 37.8787C34.9413 37.3161 35.7044 37 36.5 37ZM27.1115 32.5C28.1061 32.5 29.0599 32.8951 29.7632 33.5984C30.4664 34.3016 30.8615 35.2554 30.8615 36.25C30.8615 37.2446 30.4664 38.1984 29.7632 38.9016C29.0599 39.6049 28.1061 40 27.1115 40C26.1169 40 25.1631 39.6049 24.4598 38.9016C23.7566 38.1984 23.3615 37.2446 23.3615 36.25C23.3615 35.2554 23.7566 34.3016 24.4598 33.5984C25.1631 32.8951 26.1169 32.5 27.1115 32.5ZM44.4785 33.25C45.2741 33.25 46.0372 33.5661 46.5998 34.1287C47.1624 34.6913 47.4785 35.4544 47.4785 36.25C47.4785 37.0456 47.1624 37.8087 46.5998 38.3713C46.0372 38.9339 45.2741 39.25 44.4785 39.25C43.6829 39.25 42.9198 38.9339 42.3572 38.3713C41.7946 37.8087 41.4785 37.0456 41.4785 36.25C41.4785 35.4544 41.7946 34.6913 42.3572 34.1287C42.9198 33.5661 43.6829 33.25 44.4785 33.25ZM47.75 26.9785C48.3467 26.9785 48.919 27.2156 49.341 27.6375C49.7629 28.0595 50 28.6318 50 29.2285C50 29.8252 49.7629 30.3975 49.341 30.8195C48.919 31.2414 48.3467 31.4785 47.75 31.4785C47.1533 31.4785 46.581 31.2414 46.159 30.8195C45.7371 30.3975 45.5 29.8252 45.5 29.2285C45.5 28.6318 45.7371 28.0595 46.159 27.6375C46.581 27.2156 47.1533 26.9785 47.75 26.9785ZM23.75 22C24.7446 22 25.6984 22.3951 26.4017 23.0983C27.1049 23.8016 27.5 24.7554 27.5 25.75C27.5 26.7446 27.1049 27.6984 26.4017 28.4017C25.6984 29.1049 24.7446 29.5 23.75 29.5C22.7554 29.5 21.8016 29.1049 21.0983 28.4017C20.3951 27.6984 20 26.7446 20 25.75C20 24.7554 20.3951 23.8016 21.0983 23.0983C21.8016 22.3951 22.7554 22 23.75 22ZM46.679 20.8105C47.0768 20.8105 47.4584 20.9685 47.7397 21.2498C48.021 21.5311 48.179 21.9127 48.179 22.3105C48.179 22.7083 48.021 23.0899 47.7397 23.3712C47.4584 23.6525 47.0768 23.8105 46.679 23.8105C46.2812 23.8105 45.8996 23.6525 45.6183 23.3712C45.337 23.0899 45.179 22.7083 45.179 22.3105C45.179 21.9127 45.337 21.5311 45.6183 21.2498C45.8996 20.9685 46.2812 20.8105 46.679 20.8105ZM32 13C33.1935 13 34.3381 13.4741 35.182 14.318C36.0259 15.1619 36.5 16.3065 36.5 17.5C36.5 18.6935 36.0259 19.8381 35.182 20.682C34.3381 21.5259 33.1935 22 32 22C30.8065 22 29.6619 21.5259 28.818 20.682C27.9741 19.8381 27.5 18.6935 27.5 17.5C27.5 16.3065 27.9741 15.1619 28.818 14.318C29.6619 13.4741 30.8065 13 32 13ZM43.25 17.5C43.4489 17.5 43.6397 17.579 43.7803 17.7197C43.921 17.8603 44 18.0511 44 18.25C44 18.4489 43.921 18.6397 43.7803 18.7803C43.6397 18.921 43.4489 19 43.25 19C43.0511 19 42.8603 18.921 42.7197 18.7803C42.579 18.6397 42.5 18.4489 42.5 18.25C42.5 18.0511 42.579 17.8603 42.7197 17.7197C42.8603 17.579 43.0511 17.5 43.25 17.5Z"
            fill="white" />
    </g>
    <path
        d="M19.864 52.0909C19.864 52.7254 19.7437 53.2652 19.5032 53.7102C19.2646 54.1553 18.9388 54.4953 18.5259 54.7301C18.1149 54.9631 17.6528 55.0795 17.1396 55.0795C16.6225 55.0795 16.1585 54.9621 15.7475 54.7273C15.3365 54.4924 15.0117 54.1525 14.7731 53.7074C14.5344 53.2623 14.4151 52.7235 14.4151 52.0909C14.4151 51.4564 14.5344 50.9167 14.7731 50.4716C15.0117 50.0265 15.3365 49.6875 15.7475 49.4545C16.1585 49.2197 16.6225 49.1023 17.1396 49.1023C17.6528 49.1023 18.1149 49.2197 18.5259 49.4545C18.9388 49.6875 19.2646 50.0265 19.5032 50.4716C19.7437 50.9167 19.864 51.4564 19.864 52.0909ZM18.6168 52.0909C18.6168 51.6799 18.5553 51.3333 18.4322 51.0511C18.311 50.7689 18.1396 50.5549 17.918 50.4091C17.6964 50.2633 17.4369 50.1903 17.1396 50.1903C16.8422 50.1903 16.5827 50.2633 16.3612 50.4091C16.1396 50.5549 15.9672 50.7689 15.8441 51.0511C15.7229 51.3333 15.6623 51.6799 15.6623 52.0909C15.6623 52.5019 15.7229 52.8485 15.8441 53.1307C15.9672 53.4129 16.1396 53.6269 16.3612 53.7727C16.5827 53.9186 16.8422 53.9915 17.1396 53.9915C17.4369 53.9915 17.6964 53.9186 17.918 53.7727C18.1396 53.6269 18.311 53.4129 18.4322 53.1307C18.5553 52.8485 18.6168 52.5019 18.6168 52.0909ZM20.7525 56.6364V50.6364H21.9457V51.3693H21.9996C22.0527 51.2519 22.1294 51.1326 22.2298 51.0114C22.332 50.8883 22.4646 50.786 22.6275 50.7045C22.7923 50.6212 22.9968 50.5795 23.2411 50.5795C23.5593 50.5795 23.8529 50.6629 24.1218 50.8295C24.3907 50.9943 24.6057 51.2434 24.7667 51.5767C24.9277 51.9081 25.0082 52.3239 25.0082 52.8239C25.0082 53.3106 24.9296 53.7216 24.7724 54.0568C24.6171 54.3902 24.4049 54.643 24.136 54.8153C23.869 54.9858 23.5697 55.071 23.2383 55.071C23.0034 55.071 22.8036 55.0322 22.6388 54.9545C22.476 54.8769 22.3424 54.7794 22.2383 54.6619C22.1341 54.5426 22.0546 54.4223 21.9996 54.3011H21.9627V56.6364H20.7525ZM21.9371 52.8182C21.9371 53.0777 21.9731 53.304 22.0451 53.4972C22.1171 53.6903 22.2212 53.8409 22.3576 53.9489C22.494 54.0549 22.6597 54.108 22.8548 54.108C23.0517 54.108 23.2184 54.054 23.3548 53.946C23.4911 53.8362 23.5943 53.6847 23.6644 53.4915C23.7364 53.2964 23.7724 53.072 23.7724 52.8182C23.7724 52.5663 23.7373 52.3447 23.6673 52.1534C23.5972 51.9621 23.494 51.8125 23.3576 51.7045C23.2212 51.5966 23.0536 51.5426 22.8548 51.5426C22.6578 51.5426 22.4911 51.5947 22.3548 51.6989C22.2203 51.803 22.1171 51.9508 22.0451 52.142C21.9731 52.3333 21.9371 52.5587 21.9371 52.8182ZM27.8036 55.0852C27.3548 55.0852 26.9684 54.9943 26.6445 54.8125C26.3226 54.6288 26.0745 54.3693 25.9002 54.0341C25.726 53.697 25.6388 53.2983 25.6388 52.8381C25.6388 52.3892 25.726 51.9953 25.9002 51.6562C26.0745 51.3172 26.3197 51.053 26.636 50.8636C26.9542 50.6742 27.3273 50.5795 27.7553 50.5795C28.0432 50.5795 28.3112 50.6259 28.5593 50.7188C28.8093 50.8097 29.0271 50.947 29.2127 51.1307C29.4002 51.3144 29.546 51.5455 29.6502 51.8239C29.7544 52.1004 29.8065 52.4242 29.8065 52.7955V53.1278H26.1218V52.3778H28.6673C28.6673 52.2036 28.6294 52.0492 28.5536 51.9148C28.4779 51.7803 28.3728 51.6752 28.2383 51.5994C28.1057 51.5218 27.9513 51.483 27.7752 51.483C27.5915 51.483 27.4286 51.5256 27.2866 51.6108C27.1464 51.6941 27.0366 51.8068 26.957 51.9489C26.8775 52.089 26.8368 52.2453 26.8349 52.4176V53.1307C26.8349 53.3466 26.8746 53.5331 26.9542 53.6903C27.0356 53.8475 27.1502 53.9688 27.2979 54.054C27.4457 54.1392 27.6209 54.1818 27.8235 54.1818C27.958 54.1818 28.0811 54.1629 28.1928 54.125C28.3046 54.0871 28.4002 54.0303 28.4798 53.9545C28.5593 53.8788 28.6199 53.786 28.6616 53.6761L29.7809 53.75C29.7241 54.0189 29.6076 54.2538 29.4315 54.4545C29.2572 54.6534 29.0318 54.8087 28.7553 54.9205C28.4807 55.0303 28.1635 55.0852 27.8036 55.0852ZM31.8065 52.4773V55H30.5962V50.6364H31.7496V51.4062H31.8008C31.8974 51.1525 32.0593 50.9517 32.2866 50.804C32.5138 50.6544 32.7894 50.5795 33.1133 50.5795C33.4163 50.5795 33.6805 50.6458 33.9059 50.7784C34.1313 50.911 34.3065 51.1004 34.4315 51.3466C34.5565 51.5909 34.619 51.8826 34.619 52.2216V55H33.4087V52.4375C33.4106 52.1705 33.3424 51.9621 33.2042 51.8125C33.0659 51.661 32.8756 51.5852 32.6332 51.5852C32.4703 51.5852 32.3263 51.6203 32.2013 51.6903C32.0782 51.7604 31.9817 51.8627 31.9116 51.9972C31.8434 52.1297 31.8084 52.2898 31.8065 52.4773ZM39.7766 49.1818H40.9925V53.2386C40.9925 53.6136 40.9083 53.9394 40.7397 54.2159C40.573 54.4924 40.341 54.7055 40.0437 54.8551C39.7463 55.0047 39.4007 55.0795 39.0067 55.0795C38.6564 55.0795 38.3382 55.018 38.0522 54.8949C37.7681 54.7699 37.5427 54.5805 37.3761 54.3267C37.2094 54.071 37.127 53.75 37.1289 53.3636H38.3533C38.3571 53.517 38.3884 53.6487 38.4471 53.7585C38.5077 53.8665 38.5901 53.9498 38.6942 54.0085C38.8003 54.0653 38.9253 54.0938 39.0692 54.0938C39.2208 54.0938 39.3486 54.0616 39.4528 53.9972C39.5588 53.9309 39.6393 53.8343 39.6942 53.7074C39.7492 53.5805 39.7766 53.4242 39.7766 53.2386V49.1818ZM43.9585 55.0852C43.5172 55.0852 43.1355 54.9915 42.8136 54.804C42.4935 54.6146 42.2463 54.3513 42.0721 54.0142C41.8978 53.6752 41.8107 53.2822 41.8107 52.8352C41.8107 52.3845 41.8978 51.9905 42.0721 51.6534C42.2463 51.3144 42.4935 51.0511 42.8136 50.8636C43.1355 50.6742 43.5172 50.5795 43.9585 50.5795C44.3997 50.5795 44.7804 50.6742 45.1005 50.8636C45.4225 51.0511 45.6706 51.3144 45.8448 51.6534C46.0191 51.9905 46.1062 52.3845 46.1062 52.8352C46.1062 53.2822 46.0191 53.6752 45.8448 54.0142C45.6706 54.3513 45.4225 54.6146 45.1005 54.804C44.7804 54.9915 44.3997 55.0852 43.9585 55.0852ZM43.9641 54.1477C44.1649 54.1477 44.3325 54.0909 44.467 53.9773C44.6014 53.8617 44.7028 53.7045 44.771 53.5057C44.841 53.3068 44.8761 53.0805 44.8761 52.8267C44.8761 52.5729 44.841 52.3466 44.771 52.1477C44.7028 51.9489 44.6014 51.7917 44.467 51.6761C44.3325 51.5606 44.1649 51.5028 43.9641 51.5028C43.7615 51.5028 43.591 51.5606 43.4528 51.6761C43.3164 51.7917 43.2132 51.9489 43.1431 52.1477C43.0749 52.3466 43.0408 52.5729 43.0408 52.8267C43.0408 53.0805 43.0749 53.3068 43.1431 53.5057C43.2132 53.7045 43.3164 53.8617 43.4528 53.9773C43.591 54.0909 43.7615 54.1477 43.9641 54.1477ZM46.9158 55V49.1818H48.1261V51.3693H48.163C48.216 51.2519 48.2927 51.1326 48.3931 51.0114C48.4954 50.8883 48.628 50.786 48.7908 50.7045C48.9556 50.6212 49.1602 50.5795 49.4045 50.5795C49.7227 50.5795 50.0162 50.6629 50.2852 50.8295C50.5541 50.9943 50.7691 51.2434 50.93 51.5767C51.091 51.9081 51.1715 52.3239 51.1715 52.8239C51.1715 53.3106 51.0929 53.7216 50.9357 54.0568C50.7804 54.3902 50.5683 54.643 50.2994 54.8153C50.0323 54.9858 49.7331 55.071 49.4016 55.071C49.1668 55.071 48.967 55.0322 48.8022 54.9545C48.6393 54.8769 48.5058 54.7794 48.4016 54.6619C48.2975 54.5426 48.2179 54.4223 48.163 54.3011H48.109V55H46.9158ZM48.1005 52.8182C48.1005 53.0777 48.1365 53.304 48.2085 53.4972C48.2804 53.6903 48.3846 53.8409 48.521 53.9489C48.6573 54.0549 48.823 54.108 49.0181 54.108C49.2151 54.108 49.3817 54.054 49.5181 53.946C49.6545 53.8362 49.7577 53.6847 49.8278 53.4915C49.8997 53.2964 49.9357 53.072 49.9357 52.8182C49.9357 52.5663 49.9007 52.3447 49.8306 52.1534C49.7605 51.9621 49.6573 51.8125 49.521 51.7045C49.3846 51.5966 49.217 51.5426 49.0181 51.5426C48.8211 51.5426 48.6545 51.5947 48.5181 51.6989C48.3836 51.803 48.2804 51.9508 48.2085 52.142C48.1365 52.3333 48.1005 52.5587 48.1005 52.8182ZM55.6097 51.8807L54.5018 51.9489C54.4828 51.8542 54.4421 51.7689 54.3796 51.6932C54.3171 51.6155 54.2347 51.554 54.1325 51.5085C54.0321 51.4612 53.9118 51.4375 53.7717 51.4375C53.5842 51.4375 53.426 51.4773 53.2972 51.5568C53.1684 51.6345 53.104 51.7386 53.104 51.8693C53.104 51.9735 53.1457 52.0616 53.229 52.1335C53.3124 52.2055 53.4554 52.2633 53.658 52.3068L54.4478 52.4659C54.872 52.553 55.1883 52.6932 55.3967 52.8864C55.605 53.0795 55.7092 53.3333 55.7092 53.6477C55.7092 53.9337 55.6249 54.1847 55.4563 54.4006C55.2897 54.6165 55.0605 54.785 54.7688 54.9062C54.479 55.0256 54.1448 55.0852 53.766 55.0852C53.1883 55.0852 52.7281 54.965 52.3853 54.7244C52.0444 54.482 51.8446 54.1525 51.7859 53.7358L52.9762 53.6733C53.0122 53.8494 53.0993 53.9839 53.2376 54.0767C53.3758 54.1676 53.5529 54.2131 53.7688 54.2131C53.9809 54.2131 54.1514 54.1723 54.2802 54.0909C54.4109 54.0076 54.4772 53.9006 54.479 53.7699C54.4772 53.66 54.4308 53.5701 54.3398 53.5C54.2489 53.428 54.1088 53.3731 53.9194 53.3352L53.1637 53.1847C52.7376 53.0994 52.4203 52.9517 52.212 52.7415C52.0056 52.5312 51.9023 52.2633 51.9023 51.9375C51.9023 51.6572 51.9781 51.4157 52.1296 51.2131C52.283 51.0104 52.498 50.8542 52.7745 50.7443C53.0529 50.6345 53.3787 50.5795 53.7518 50.5795C54.3029 50.5795 54.7366 50.696 55.0529 50.929C55.3711 51.1619 55.5567 51.4792 55.6097 51.8807Z"
        fill="white" />
    <defs>
        <filter id="filter0_b_2873_6460" x="-5" y="-5" width="80" height="80"
            filterUnits="userSpaceOnUse" color-interpolation-filters="sRGB">
            <feFlood flood-opacity="0" result="BackgroundImageFix" />
            <feGaussianBlur in="BackgroundImageFix" stdDeviation="2.5" />
            <feComposite in2="SourceAlpha" operator="in" result="effect1_backgroundBlur_2873_6460" />
            <feBlend mode="normal" in="SourceGraphic" in2="effect1_backgroundBlur_2873_6460"
                result="shape" />
        </filter>
        <linearGradient id="paint0_linear_2873_6460" x1="35" y1="0" x2="35" y2="70"
            gradientUnits="userSpaceOnUse">
            <stop stop-color="white" stop-opacity="0.3" />
            <stop offset="1" stop-color="#1B1B1B" stop-opacity="0" />
        </linearGradient>
        <clipPath id="clip0_2873_6460">
            <rect width="30" height="30" fill="white" transform="translate(20 13)" />
        </clipPath>
    </defs>
</svg>    