<svg width="36" height="36" viewBox="0 0 36 36" fill="none" xmlns="http://www.w3.org/2000/svg">
<rect width="36" height="36" rx="8" fill="#0196FB" fill-opacity="0.1"/>
<path d="M12.6673 24.0002C12.3007 24.0002 11.9867 23.8695 11.7253 23.6082C11.464 23.3468 11.3335 23.0331 11.334 22.6668V15.3335C11.334 14.9668 11.4647 14.6528 11.726 14.3915C11.9873 14.1302 12.3011 13.9997 12.6673 14.0002H15.334V12.6668C15.334 12.3002 15.4647 11.9862 15.726 11.7248C15.9873 11.4635 16.3011 11.3331 16.6673 11.3335H19.334C19.7007 11.3335 20.0147 11.4642 20.276 11.7255C20.5373 11.9868 20.6678 12.3006 20.6673 12.6668V14.0002H23.334C23.7007 14.0002 24.0147 14.1308 24.276 14.3922C24.5373 14.6535 24.6678 14.9673 24.6673 15.3335V22.6668C24.6673 23.0335 24.5367 23.3475 24.2753 23.6088C24.014 23.8702 23.7002 24.0006 23.334 24.0002H12.6673ZM16.6673 14.0002H19.334V12.6668H16.6673V14.0002Z" fill="#0196FB"/>
</svg>
