<svg width="16" height="16" viewBox="0 0 16 16" fill="none" xmlns="http://www.w3.org/2000/svg">
<path d="M2.66732 14.0002C2.30065 14.0002 1.98665 13.8695 1.72532 13.6082C1.46399 13.3468 1.33354 13.0331 1.33399 12.6668V5.3335C1.33399 4.96683 1.46465 4.65283 1.72599 4.3915C1.98732 4.13016 2.3011 3.99972 2.66732 4.00016H5.33399V2.66683C5.33399 2.30016 5.46465 1.98616 5.72599 1.72483C5.98732 1.4635 6.3011 1.33305 6.66732 1.3335H9.33399C9.70065 1.3335 10.0147 1.46416 10.276 1.7255C10.5373 1.98683 10.6678 2.30061 10.6673 2.66683V4.00016H13.334C13.7007 4.00016 14.0147 4.13083 14.276 4.39216C14.5373 4.6535 14.6678 4.96727 14.6673 5.3335V12.6668C14.6673 13.0335 14.5367 13.3475 14.2753 13.6088C14.014 13.8702 13.7002 14.0006 13.334 14.0002H2.66732ZM2.66732 12.6668H13.334V5.3335H2.66732V12.6668ZM6.66732 4.00016H9.33399V2.66683H6.66732V4.00016Z" fill="white"/>
</svg>
