<svg width="21" height="22" viewBox="0 0 21 22" fill="none" xmlns="http://www.w3.org/2000/svg">
<path d="M4.75 5.75C4.75 5.55109 4.82902 5.36032 4.96967 5.21967C5.11032 5.07902 5.30109 5 5.5 5H8.5C8.69891 5 8.88968 5.07902 9.03033 5.21967C9.17098 5.36032 9.25 5.55109 9.25 5.75C9.25 5.94891 9.17098 6.13968 9.03033 6.28033C8.88968 6.42098 8.69891 6.5 8.5 6.5H5.5C5.30109 6.5 5.11032 6.42098 4.96967 6.28033C4.82902 6.13968 4.75 5.94891 4.75 5.75ZM10.75 8H5.5C5.30109 8 5.11032 8.07902 4.96967 8.21967C4.82902 8.36032 4.75 8.55109 4.75 8.75C4.75 8.94891 4.82902 9.13968 4.96967 9.28033C5.11032 9.42098 5.30109 9.5 5.5 9.5H10.75C10.9489 9.5 11.1397 9.42098 11.2803 9.28033C11.421 9.13968 11.5 8.94891 11.5 8.75C11.5 8.55109 11.421 8.36032 11.2803 8.21967C11.1397 8.07902 10.9489 8 10.75 8ZM10.75 11H5.5C5.30109 11 5.11032 11.079 4.96967 11.2197C4.82902 11.3603 4.75 11.5511 4.75 11.75C4.75 11.9489 4.82902 12.1397 4.96967 12.2803C5.11032 12.421 5.30109 12.5 5.5 12.5H10.75C10.9489 12.5 11.1397 12.421 11.2803 12.2803C11.421 12.1397 11.5 11.9489 11.5 11.75C11.5 11.5511 11.421 11.3603 11.2803 11.2197C11.1397 11.079 10.9489 11 10.75 11ZM20.5 5C20.5019 5.72043 20.3303 6.43073 19.9998 7.07087C19.6693 7.71102 19.1895 8.26218 18.6011 8.67779C18.0126 9.09339 17.3327 9.36122 16.6189 9.45865C15.9051 9.55607 15.1783 9.48022 14.5 9.2375V19.25C14.5 19.8467 14.2629 20.419 13.841 20.841C13.419 21.2629 12.8467 21.5 12.25 21.5H2.5C1.90326 21.5 1.33097 21.2629 0.90901 20.841C0.487053 20.419 0.25 19.8467 0.25 19.25V17.75C0.25 17.5511 0.329018 17.3603 0.46967 17.2197C0.610322 17.079 0.801088 17 1 17H1.75V3.5C1.75 2.70435 2.06607 1.94129 2.62868 1.37868C3.19129 0.816071 3.95435 0.5 4.75 0.5H13.75C13.8682 0.501119 13.9845 0.530664 14.0889 0.58614C14.1933 0.641616 14.2829 0.721397 14.35 0.81875C15.0319 0.547688 15.7698 0.447834 16.4992 0.52792C17.2286 0.608007 17.9272 0.865595 18.534 1.27815C19.1408 1.69071 19.6373 2.24567 19.98 2.89449C20.3228 3.54331 20.5013 4.26623 20.5 5ZM2.5 20H10.138C10.0492 19.7598 10.0025 19.5061 10 19.25V18.5H1.75V19.25C1.75 19.4489 1.82902 19.6397 1.96967 19.7803C2.11032 19.921 2.30109 20 2.5 20ZM13 8.345C12.5588 7.95225 12.1997 7.47607 11.9434 6.94391C11.6871 6.41175 11.5386 5.83413 11.5066 5.24432C11.4745 4.65452 11.5594 4.06421 11.7566 3.50739C11.9537 2.95058 12.259 2.43827 12.655 2H4.75C4.35218 2 3.97064 2.15804 3.68934 2.43934C3.40804 2.72064 3.25 3.10218 3.25 3.5V17H10.75C10.9489 17 11.1397 17.079 11.2803 17.2197C11.421 17.3603 11.5 17.5511 11.5 17.75V19.25C11.5 19.4489 11.579 19.6397 11.7197 19.7803C11.8603 19.921 12.0511 20 12.25 20C12.4489 20 12.6397 19.921 12.7803 19.7803C12.921 19.6397 13 19.4489 13 19.25V8.345ZM19 5C19 4.40666 18.8241 3.82664 18.4944 3.33329C18.1648 2.83994 17.6962 2.45542 17.1481 2.22836C16.5999 2.0013 15.9967 1.94189 15.4147 2.05764C14.8328 2.1734 14.2982 2.45912 13.8787 2.87868C13.4591 3.29824 13.1734 3.83279 13.0576 4.41473C12.9419 4.99667 13.0013 5.59987 13.2284 6.14805C13.4554 6.69623 13.8399 7.16476 14.3333 7.49441C14.8266 7.82405 15.4067 8 16 8C16.7956 8 17.5587 7.68393 18.1213 7.12132C18.6839 6.55871 19 5.79565 19 5ZM17.5 4.25H16.75C16.75 4.05109 16.671 3.86032 16.5303 3.71967C16.3897 3.57902 16.1989 3.5 16 3.5C15.8011 3.5 15.6103 3.57902 15.4697 3.71967C15.329 3.86032 15.25 4.05109 15.25 4.25V5C15.25 5.19891 15.329 5.38968 15.4697 5.53033C15.6103 5.67098 15.8011 5.75 16 5.75H17.5C17.6989 5.75 17.8897 5.67098 18.0303 5.53033C18.171 5.38968 18.25 5.19891 18.25 5C18.25 4.80109 18.171 4.61032 18.0303 4.46967C17.8897 4.32902 17.6989 4.25 17.5 4.25Z" fill="#0196FB"/>
</svg>
