<svg width="24" height="24" viewBox="0 0 24 24" fill="none" xmlns="http://www.w3.org/2000/svg">
<path d="M20.25 12C20.2528 10.6642 19.7462 9.37751 18.8335 8.40209C17.9208 7.42668 16.6706 6.83587 15.3375 6.75C15.15 6.5325 14.97 6.3375 14.8275 6.2025C14.1528 5.56859 13.346 5.09216 12.465 4.8075C12.6484 4.48495 12.7465 4.12099 12.75 3.75C12.75 3.15326 12.513 2.58097 12.091 2.15901C11.6691 1.73705 11.0968 1.5 10.5 1.5C9.90329 1.5 9.33099 1.73705 8.90904 2.15901C8.48708 2.58097 8.25003 3.15326 8.25003 3.75C8.25104 4.12608 8.34921 4.49553 8.53503 4.8225C7.33092 5.21724 6.27384 5.96591 5.50182 6.97074C4.7298 7.97556 4.27873 9.18984 4.20753 10.455L3.75003 18.705C3.74341 18.8076 3.75797 18.9105 3.79281 19.0073C3.82764 19.1041 3.88201 19.1926 3.95253 19.2675C4.02311 19.3415 4.10809 19.4004 4.20224 19.4403C4.2964 19.4803 4.39774 19.5006 4.50003 19.5H6.82503C6.99716 20.3477 7.45708 21.1099 8.12683 21.6573C8.79659 22.2047 9.63501 22.5038 10.5 22.5038C11.365 22.5038 12.2035 22.2047 12.8732 21.6573C13.543 21.1099 14.0029 20.3477 14.175 19.5H16.5C16.6023 19.5006 16.7037 19.4803 16.7978 19.4403C16.892 19.4004 16.9769 19.3415 17.0475 19.2675C17.118 19.1926 17.1724 19.1041 17.2072 19.0073C17.2421 18.9105 17.2566 18.8076 17.25 18.705L17.145 16.785C18.0687 16.3715 18.8532 15.6999 19.4041 14.851C19.9549 14.002 20.2487 13.012 20.25 12ZM10.5 3C10.6484 3 10.7934 3.04399 10.9167 3.1264C11.04 3.20881 11.1362 3.32594 11.1929 3.46299C11.2497 3.60003 11.2646 3.75083 11.2356 3.89632C11.2067 4.0418 11.1352 4.17544 11.0304 4.28033C10.9255 4.38522 10.7918 4.45665 10.6463 4.48559C10.5009 4.51453 10.3501 4.49968 10.213 4.44291C10.076 4.38614 9.95884 4.29001 9.87643 4.16668C9.79401 4.04334 9.75003 3.89834 9.75003 3.75C9.75003 3.55109 9.82905 3.36032 9.9697 3.21967C10.1104 3.07902 10.3011 3 10.5 3ZM15.705 18H5.29503L5.70753 10.5375C5.75717 9.66578 6.04327 8.82404 6.53513 8.10262C7.02699 7.38121 7.70603 6.80737 8.49936 6.4427C9.29269 6.07803 10.1704 5.9363 11.0382 6.03272C11.9059 6.12914 12.7311 6.46008 13.425 6.99C12.2271 7.36521 11.2032 8.15726 10.5391 9.22253C9.87497 10.2878 9.61453 11.5558 9.80501 12.7966C9.99548 14.0374 10.6243 15.1689 11.5773 15.9859C12.5304 16.8029 13.7447 17.2514 15 17.25C15.2207 17.2465 15.441 17.2314 15.66 17.205L15.705 18ZM17.1675 10.8375L15.6675 13.8375C15.6147 13.9434 15.5376 14.0353 15.4424 14.1057C15.3472 14.1761 15.2368 14.223 15.12 14.2425H15C14.9013 14.2431 14.8035 14.2242 14.7121 14.1868C14.6207 14.1495 14.5376 14.0945 14.4675 14.025L12.9675 12.525C12.8263 12.3838 12.747 12.1922 12.747 11.9925C12.747 11.7928 12.8263 11.6012 12.9675 11.46C13.1088 11.3188 13.3003 11.2394 13.5 11.2394C13.6998 11.2394 13.8913 11.3188 14.0325 11.46L14.7825 12.21L15.8175 10.14C15.8572 10.0448 15.916 9.95878 15.9904 9.88735C16.0648 9.81591 16.1531 9.76059 16.2499 9.72483C16.3466 9.68907 16.4497 9.67366 16.5527 9.67953C16.6556 9.68542 16.7563 9.71247 16.8483 9.75901C16.9404 9.80554 17.0218 9.87056 17.0876 9.95C17.1534 10.0294 17.202 10.1216 17.2306 10.2207C17.2591 10.3198 17.2669 10.4237 17.2535 10.526C17.2401 10.6282 17.2057 10.7266 17.1525 10.815L17.1675 10.8375Z" fill="#0196FB"/>
</svg>
