<svg width="31" height="14" viewBox="0 0 31 14" fill="none" xmlns="http://www.w3.org/2000/svg">
<rect width="31" height="14" rx="4" fill="#0196FB"/>
<path d="M7.716 10V8.568H5.32V7.732L7.516 4.4H8.548V7.736H9.06V8.568H8.548V10H7.716ZM6.288 7.732L7.716 7.736L7.708 5.548L6.288 7.732ZM10.2951 10.104C10.1724 10.104 10.0684 10.0613 9.98306 9.976C9.9004 9.89067 9.85906 9.78667 9.85906 9.664C9.85906 9.544 9.9004 9.44133 9.98306 9.356C10.0684 9.27067 10.1724 9.228 10.2951 9.228C10.4177 9.228 10.5217 9.27067 10.6071 9.356C10.6924 9.44133 10.7351 9.544 10.7351 9.664C10.7351 9.78667 10.6924 9.89067 10.6071 9.976C10.5217 10.0613 10.4177 10.104 10.2951 10.104ZM13.3748 10.104C13.0174 10.104 12.6908 10.016 12.3947 9.84C12.0988 9.66133 11.8614 9.424 11.6828 9.128C11.5068 8.82933 11.4188 8.5 11.4188 8.14C11.4188 7.948 11.4414 7.77467 11.4868 7.62C11.5321 7.46533 11.6014 7.30267 11.6948 7.132L13.2708 4.4H14.2388L13.1468 6.288C13.3681 6.24533 13.5841 6.244 13.7948 6.284C14.0081 6.32133 14.2081 6.39467 14.3948 6.504C14.5814 6.61067 14.7454 6.74667 14.8868 6.912C15.0308 7.07467 15.1428 7.26 15.2228 7.468C15.3028 7.676 15.3428 7.9 15.3428 8.14C15.3428 8.40933 15.2908 8.66267 15.1868 8.9C15.0854 9.13733 14.9441 9.34667 14.7628 9.528C14.5841 9.70667 14.3748 9.848 14.1348 9.952C13.8974 10.0533 13.6441 10.104 13.3748 10.104ZM13.3748 9.272C13.5934 9.272 13.7881 9.21867 13.9588 9.112C14.1294 9.00533 14.2641 8.86533 14.3628 8.692C14.4614 8.51867 14.5108 8.33467 14.5108 8.14C14.5108 7.93467 14.4601 7.74667 14.3588 7.576C14.2601 7.40533 14.1254 7.26933 13.9548 7.168C13.7841 7.064 13.5934 7.012 13.3828 7.012C13.1641 7.012 12.9694 7.06533 12.7988 7.172C12.6281 7.27867 12.4934 7.41733 12.3947 7.588C12.2988 7.75867 12.2508 7.94267 12.2508 8.14C12.2508 8.356 12.3028 8.54933 12.4068 8.72C12.5134 8.89067 12.6521 9.02533 12.8228 9.124C12.9934 9.22267 13.1774 9.272 13.3748 9.272Z" fill="white"/>
<path d="M22 8.75626L23.3834 9.59293C23.6367 9.74626 23.9467 9.5196 23.88 9.23293L23.5134 7.6596L24.7367 6.5996C24.96 6.40626 24.84 6.0396 24.5467 6.01626L22.9367 5.8796L22.3067 4.39293C22.1934 4.12293 21.8067 4.12293 21.6934 4.39293L21.0634 5.87626L19.4534 6.01293C19.16 6.03626 19.04 6.40293 19.2634 6.59626L20.4867 7.65626L20.12 9.2296C20.0534 9.51626 20.3634 9.74293 20.6167 9.5896L22 8.75626Z" fill="white"/>
</svg>
