<svg width="28" height="26" viewBox="0 0 28 26" fill="none" xmlns="http://www.w3.org/2000/svg">
<path d="M24.5234 16.3486C23.8353 18.7167 22.4342 20.8153 20.5108 22.3589C18.5875 23.9024 16.2353 24.8159 13.7743 24.975C11.3134 25.1341 8.86313 24.5311 6.75704 23.2481C4.65095 21.9651 2.99129 20.0644 2.00391 17.8046" stroke="white" stroke-width="0.55814" stroke-linejoin="round" stroke-dasharray="2.79 2.79"/>
<path d="M1.13127 11.2297L1.6833 11.312L1.13127 11.2297ZM2.94674 6.44753L3.41433 6.75229L2.94674 6.44753ZM6.5889 2.85592L6.88709 3.32773L6.88709 3.32773L6.5889 2.85592ZM11.396 1.10746L11.4706 1.66059L11.396 1.10746ZM16.4945 1.51986L16.332 2.05381L16.332 2.05381L16.4945 1.51986ZM20.9581 4.01818L20.5879 4.43593L20.5879 4.43593L20.9581 4.01818ZM23.9756 8.14847L24.4861 7.92283L23.9756 8.14847ZM24.9989 13.1603L27.0637 7.0551L20.7441 8.31957L24.9989 13.1603ZM2.00854 16.1784C1.55164 14.5985 1.44071 12.9387 1.6833 11.312L0.579233 11.1474C0.312969 12.9327 0.434724 14.7545 0.936199 16.4886L2.00854 16.1784ZM1.6833 11.312C1.9259 9.68537 2.51632 8.13013 3.41433 6.75229L2.47914 6.14278C1.49352 7.65504 0.845496 9.36202 0.579233 11.1474L1.6833 11.312ZM3.41433 6.75229C4.31234 5.37445 5.49684 4.20639 6.88709 3.32773L6.29071 2.38411C4.76482 3.3485 3.46476 4.63051 2.47914 6.14278L3.41433 6.75229ZM6.88709 3.32773C8.27735 2.44906 9.84069 1.88043 11.4706 1.66059L11.3214 0.554332C9.53247 0.795619 7.8166 1.41972 6.29071 2.38411L6.88709 3.32773ZM11.4706 1.66059C13.1005 1.44076 14.7586 1.57487 16.332 2.05381L16.657 0.985911C14.9302 0.460249 13.1103 0.313047 11.3214 0.554332L11.4706 1.66059ZM16.332 2.05381C17.9053 2.53275 19.357 3.34524 20.5879 4.43593L21.3282 3.60043C19.9772 2.40334 18.3839 1.51157 16.657 0.985911L16.332 2.05381ZM20.5879 4.43593C21.8189 5.52662 22.8003 6.86986 23.4652 8.37411L24.4861 7.92283C23.7564 6.27182 22.6793 4.79753 21.3282 3.60043L20.5879 4.43593ZM23.4652 8.37411C23.4773 8.40151 23.4893 8.42895 23.5012 8.45643L24.5257 8.01317C24.5126 7.98301 24.4994 7.9529 24.4861 7.92283L23.4652 8.37411Z" fill="white"/>
<path d="M11.2903 16.5815H9.19173V9.10247H13.5564C15.5322 9.10247 16.5703 9.92852 16.5703 11.3908C16.5703 12.5741 15.9787 13.2774 14.5499 13.456V13.5676C15.3201 13.7685 15.5657 14.1369 15.8448 14.7062L16.7713 16.5815H14.3489L13.4559 14.7508C13.188 14.1927 12.9648 14.0364 12.1499 14.0364H11.2903V16.5815ZM11.2903 10.989V12.4736H13.5341C14.148 12.4736 14.3713 12.362 14.3713 11.7257C14.3713 11.1341 14.148 10.989 13.5341 10.989H11.2903Z" fill="white"/>
</svg>
