<svg width="70" height="70" viewBox="0 0 70 70" fill="none" xmlns="http://www.w3.org/2000/svg">
    <circle cx="35" cy="35" r="35" fill="#1E1E1E" />
    <g filter="url(#filter0_b_2873_6450)">
        <circle cx="35" cy="35" r="35" fill="url(#paint0_linear_2873_6450)" />
        <circle cx="35" cy="35" r="34.5" stroke="#1E1E1E" />
    </g>
    <path
        d="M51.8612 35.3843L47.9698 28.8126L51.8215 22.5089C51.9129 22.3587 51.9628 22.1869 51.9661 22.011C51.9693 21.8352 51.9258 21.6617 51.84 21.5082C51.7542 21.3547 51.6291 21.2267 51.4776 21.1375C51.3261 21.0482 51.1536 21.0007 50.9777 21H19.9854C19.4588 21 18.9539 21.2092 18.5815 21.5815C18.2092 21.9539 18 22.4588 18 22.9854V34.8979C18 35.4244 18.2092 35.9294 18.5815 36.3018C18.9539 36.6741 19.4588 36.8833 19.9854 36.8833H51.0075C51.1827 36.8833 51.3548 36.8369 51.5062 36.7488C51.6577 36.6607 51.7832 36.5341 51.8699 36.3819C51.9566 36.2296 52.0015 36.0571 52 35.8819C51.9984 35.7067 51.9506 35.535 51.8612 35.3843ZM28.4333 32.0985H27.3215L24.0853 27.7901V32.1084H22.9635V25.9635H24.0853L27.3314 30.2818V25.9635H28.4433L28.4333 32.0985ZM34.7172 26.9562H31.2129V28.4354H34.3896V29.4281H31.2129V31.0263H34.7172V32.019H30.0912V25.9635H34.7072L34.7172 26.9562ZM42.9467 32.0786H41.8249L40.2862 27.5221L38.7476 32.0985H37.6357L35.6503 25.9635H36.8614L38.1718 30.3612L39.6807 25.9635H40.8918L42.3411 30.3612L43.6614 25.9635H44.8825L42.9467 32.0786Z"
        fill="white" />
    <path
        d="M10.5904 44.256C10.5705 44.0555 10.4852 43.8997 10.3344 43.7887C10.1836 43.6777 9.97892 43.6222 9.72039 43.6222C9.54473 43.6222 9.39641 43.647 9.27544 43.6967C9.15446 43.7448 9.06166 43.8119 8.99703 43.8981C8.93405 43.9843 8.90257 44.082 8.90257 44.1914C8.89925 44.2826 8.91831 44.3621 8.95974 44.43C9.00283 44.498 9.06166 44.5568 9.13623 44.6065C9.2108 44.6546 9.29698 44.6969 9.39475 44.7333C9.49253 44.7681 9.59693 44.7979 9.70796 44.8228L10.1653 44.9322C10.3874 44.9819 10.5912 45.0482 10.7769 45.131C10.9625 45.2139 11.1232 45.3158 11.2591 45.4368C11.395 45.5578 11.5002 45.7003 11.5748 45.8643C11.651 46.0284 11.69 46.2165 11.6916 46.4286C11.69 46.7402 11.6104 47.0103 11.453 47.239C11.2972 47.466 11.0718 47.6425 10.7769 47.7685C10.4835 47.8928 10.1297 47.9549 9.71542 47.9549C9.30444 47.9549 8.94648 47.8919 8.64156 47.766C8.33829 47.64 8.10131 47.4536 7.93062 47.2067C7.76159 46.9581 7.67293 46.6507 7.66464 46.2844H8.70619C8.71779 46.4551 8.76668 46.5977 8.85285 46.712C8.94068 46.8247 9.05751 46.91 9.20335 46.968C9.35084 47.0244 9.51739 47.0526 9.70299 47.0526C9.88528 47.0526 10.0435 47.026 10.1778 46.973C10.3137 46.92 10.4189 46.8462 10.4935 46.7518C10.568 46.6573 10.6053 46.5488 10.6053 46.4261C10.6053 46.3118 10.5714 46.2157 10.5034 46.1378C10.4371 46.0599 10.3394 45.9936 10.2101 45.9389C10.0825 45.8842 9.92588 45.8345 9.74028 45.7898L9.18595 45.6506C8.75673 45.5462 8.41784 45.3829 8.16926 45.1609C7.92068 44.9388 7.79722 44.6397 7.79887 44.2635C7.79722 43.9553 7.87925 43.686 8.04497 43.4556C8.21234 43.2253 8.44186 43.0455 8.73353 42.9162C9.0252 42.7869 9.35664 42.7223 9.72785 42.7223C10.1057 42.7223 10.4355 42.7869 10.7172 42.9162C11.0006 43.0455 11.221 43.2253 11.3784 43.4556C11.5359 43.686 11.6171 43.9528 11.622 44.256H10.5904ZM14.1358 47.9574C13.743 47.9574 13.405 47.8778 13.1216 47.7188C12.8399 47.558 12.6228 47.331 12.4703 47.0376C12.3178 46.7427 12.2416 46.3938 12.2416 45.9911C12.2416 45.5984 12.3178 45.2537 12.4703 44.957C12.6228 44.6604 12.8374 44.4292 13.1141 44.2635C13.3925 44.0978 13.719 44.0149 14.0935 44.0149C14.3454 44.0149 14.5799 44.0555 14.797 44.1367C15.0158 44.2163 15.2063 44.3364 15.3687 44.4972C15.5328 44.6579 15.6604 44.8601 15.7516 45.1037C15.8427 45.3456 15.8883 45.629 15.8883 45.9538V46.2447H12.6642V45.5884H14.8915C14.8915 45.436 14.8583 45.3009 14.792 45.1832C14.7257 45.0656 14.6338 44.9736 14.5161 44.9073C14.4001 44.8394 14.265 44.8054 14.1109 44.8054C13.9502 44.8054 13.8077 44.8427 13.6834 44.9173C13.5607 44.9902 13.4646 45.0888 13.395 45.2131C13.3254 45.3357 13.2898 45.4724 13.2881 45.6232V46.2472C13.2881 46.4361 13.3229 46.5993 13.3925 46.7369C13.4638 46.8744 13.5641 46.9805 13.6933 47.055C13.8226 47.1296 13.9759 47.1669 14.1532 47.1669C14.2708 47.1669 14.3786 47.1503 14.4763 47.1172C14.5741 47.084 14.6578 47.0343 14.7274 46.968C14.797 46.9018 14.85 46.8205 14.8865 46.7244L15.8659 46.7891C15.8162 47.0244 15.7143 47.2299 15.5601 47.4055C15.4077 47.5795 15.2105 47.7154 14.9685 47.8132C14.7282 47.9093 14.4507 47.9574 14.1358 47.9574ZM17.6681 47.9549C17.4245 47.9549 17.2074 47.9126 17.0168 47.8281C16.8262 47.742 16.6754 47.6152 16.5644 47.4478C16.455 47.2788 16.4003 47.0683 16.4003 46.8164C16.4003 46.6043 16.4393 46.4261 16.5172 46.282C16.5951 46.1378 16.7011 46.0218 16.8354 45.9339C16.9696 45.8461 17.1221 45.7798 17.2927 45.7351C17.4651 45.6903 17.6457 45.6589 17.8347 45.6406C18.0567 45.6174 18.2357 45.5959 18.3716 45.576C18.5075 45.5545 18.6061 45.523 18.6674 45.4815C18.7287 45.4401 18.7594 45.3788 18.7594 45.2976V45.2827C18.7594 45.1252 18.7097 45.0034 18.6102 44.9173C18.5124 44.8311 18.3732 44.788 18.1926 44.788C18.002 44.788 17.8504 44.8303 17.7377 44.9148C17.625 44.9976 17.5504 45.102 17.514 45.228L16.5346 45.1484C16.5843 44.9164 16.6821 44.7159 16.8279 44.5469C16.9737 44.3762 17.1618 44.2453 17.3922 44.1541C17.6242 44.0613 17.8927 44.0149 18.1976 44.0149C18.4097 44.0149 18.6127 44.0398 18.8066 44.0895C19.0021 44.1392 19.1753 44.2163 19.3261 44.3207C19.4786 44.4251 19.5987 44.5593 19.6866 44.7234C19.7744 44.8858 19.8183 45.0805 19.8183 45.3075V47.8828H18.8141V47.3533H18.7842C18.7229 47.4727 18.6409 47.5779 18.5381 47.669C18.4354 47.7585 18.3119 47.829 18.1677 47.8803C18.0236 47.93 17.857 47.9549 17.6681 47.9549ZM17.9714 47.2241C18.1271 47.2241 18.2647 47.1934 18.384 47.1321C18.5033 47.0691 18.597 46.9846 18.6649 46.8786C18.7329 46.7725 18.7668 46.6523 18.7668 46.5181V46.1129C18.7337 46.1345 18.6881 46.1544 18.6301 46.1726C18.5738 46.1892 18.51 46.2049 18.4387 46.2198C18.3674 46.2331 18.2962 46.2455 18.2249 46.2571C18.1537 46.267 18.089 46.2762 18.031 46.2844C17.9067 46.3027 17.7982 46.3317 17.7054 46.3714C17.6126 46.4112 17.5405 46.4651 17.4891 46.533C17.4378 46.5993 17.4121 46.6822 17.4121 46.7816C17.4121 46.9258 17.4643 47.036 17.5687 47.1122C17.6747 47.1868 17.809 47.2241 17.9714 47.2241ZM20.6399 47.8828V44.0646H21.6665V44.7308H21.7063C21.7759 44.4938 21.8927 44.3149 22.0568 44.1939C22.2208 44.0713 22.4098 44.0099 22.6235 44.0099C22.6766 44.0099 22.7337 44.0133 22.7951 44.0199C22.8564 44.0265 22.9102 44.0356 22.9566 44.0472V44.9869C22.9069 44.9719 22.8381 44.9587 22.7503 44.9471C22.6625 44.9355 22.5821 44.9297 22.5092 44.9297C22.3534 44.9297 22.2142 44.9637 22.0916 45.0316C21.9706 45.0979 21.8745 45.1907 21.8032 45.31C21.7336 45.4293 21.6988 45.5669 21.6988 45.7227V47.8828H20.6399ZM25.0515 47.9574C24.6604 47.9574 24.324 47.8745 24.0423 47.7088C23.7622 47.5414 23.5468 47.3094 23.396 47.0128C23.2468 46.7161 23.1723 46.3748 23.1723 45.9886C23.1723 45.5975 23.2477 45.2545 23.3985 44.9595C23.5509 44.6629 23.7672 44.4317 24.0473 44.266C24.3273 44.0986 24.6604 44.0149 25.0466 44.0149C25.3797 44.0149 25.6713 44.0754 25.9216 44.1964C26.1718 44.3174 26.3698 44.4872 26.5157 44.706C26.6615 44.9247 26.7419 45.1816 26.7568 45.4766H25.7575C25.7293 45.286 25.6548 45.1327 25.5338 45.0167C25.4145 44.899 25.2579 44.8402 25.064 44.8402C24.8999 44.8402 24.7566 44.8849 24.6339 44.9744C24.5129 45.0623 24.4185 45.1907 24.3505 45.3597C24.2826 45.5288 24.2486 45.7334 24.2486 45.9737C24.2486 46.2173 24.2818 46.4245 24.3481 46.5952C24.416 46.7659 24.5113 46.896 24.6339 46.9854C24.7566 47.0749 24.8999 47.1197 25.064 47.1197C25.1849 47.1197 25.2935 47.0948 25.3896 47.0451C25.4874 46.9954 25.5678 46.9233 25.6307 46.8288C25.6954 46.7327 25.7376 46.6175 25.7575 46.4833H26.7568C26.7402 46.775 26.6607 47.0318 26.5182 47.2539C26.3773 47.4743 26.1826 47.6467 25.934 47.771C25.6854 47.8952 25.3913 47.9574 25.0515 47.9574ZM28.4937 45.6754V47.8828H27.4348V42.7919H28.4639V44.7383H28.5087C28.5948 44.5129 28.734 44.3364 28.9263 44.2088C29.1185 44.0795 29.3596 44.0149 29.6496 44.0149C29.9148 44.0149 30.146 44.0729 30.3432 44.1889C30.542 44.3033 30.6962 44.4682 30.8055 44.6836C30.9166 44.8974 30.9713 45.1534 30.9696 45.4517V47.8828H29.9106V45.6406C29.9123 45.4053 29.8526 45.2222 29.7317 45.0913C29.6123 44.9603 29.445 44.8949 29.2295 44.8949C29.0854 44.8949 28.9578 44.9255 28.8467 44.9869C28.7373 45.0482 28.6512 45.1377 28.5882 45.2553C28.5269 45.3713 28.4954 45.5114 28.4937 45.6754ZM37.7011 42.7919V47.8828H36.7714L34.5566 44.6786H34.5193V47.8828H33.443V42.7919H34.3876L36.585 45.9936H36.6297V42.7919H37.7011ZM40.3106 47.9574C39.9178 47.9574 39.5798 47.8778 39.2964 47.7188C39.0147 47.558 38.7976 47.331 38.6451 47.0376C38.4926 46.7427 38.4164 46.3938 38.4164 45.9911C38.4164 45.5984 38.4926 45.2537 38.6451 44.957C38.7976 44.6604 39.0122 44.4292 39.2889 44.2635C39.5673 44.0978 39.8938 44.0149 40.2683 44.0149C40.5202 44.0149 40.7547 44.0555 40.9718 44.1367C41.1906 44.2163 41.3811 44.3364 41.5435 44.4972C41.7076 44.6579 41.8352 44.8601 41.9264 45.1037C42.0175 45.3456 42.0631 45.629 42.0631 45.9538V46.2447H38.839V45.5884H41.0663C41.0663 45.436 41.0331 45.3009 40.9668 45.1832C40.9006 45.0656 40.8086 44.9736 40.6909 44.9073C40.5749 44.8394 40.4399 44.8054 40.2857 44.8054C40.125 44.8054 39.9825 44.8427 39.8582 44.9173C39.7355 44.9902 39.6394 45.0888 39.5698 45.2131C39.5002 45.3357 39.4646 45.4724 39.4629 45.6232V46.2472C39.4629 46.4361 39.4977 46.5993 39.5673 46.7369C39.6386 46.8744 39.7389 46.9805 39.8681 47.055C39.9974 47.1296 40.1507 47.1669 40.328 47.1669C40.4457 47.1669 40.5534 47.1503 40.6511 47.1172C40.7489 47.084 40.8326 47.0343 40.9022 46.968C40.9718 46.9018 41.0248 46.8205 41.0613 46.7244L42.0407 46.7891C41.991 47.0244 41.8891 47.2299 41.735 47.4055C41.5825 47.5795 41.3853 47.7154 41.1433 47.8132C40.903 47.9093 40.6255 47.9574 40.3106 47.9574ZM43.48 47.8828L42.4409 44.0646H43.5123L44.1039 46.63H44.1387L44.7552 44.0646H45.8067L46.4331 46.6151H46.4654L47.0471 44.0646H48.116L47.0794 47.8828H45.9583L45.3021 45.4815H45.2548L44.5986 47.8828H43.48ZM52.3592 42.7919H53.4232V46.3416C53.4232 46.6697 53.3494 46.9548 53.2019 47.1967C53.0561 47.4387 52.8531 47.6251 52.5929 47.756C52.3327 47.887 52.0303 47.9524 51.6856 47.9524C51.379 47.9524 51.1006 47.8986 50.8504 47.7908C50.6018 47.6815 50.4046 47.5157 50.2587 47.2937C50.1129 47.07 50.0408 46.7891 50.0425 46.451H51.1139C51.1172 46.5852 51.1445 46.7004 51.1959 46.7965C51.2489 46.891 51.321 46.9639 51.4122 47.0153C51.505 47.065 51.6143 47.0898 51.7403 47.0898C51.8729 47.0898 51.9847 47.0617 52.0759 47.0053C52.1687 46.9473 52.2391 46.8628 52.2872 46.7518C52.3352 46.6407 52.3592 46.504 52.3592 46.3416V42.7919ZM56.0183 47.9574C55.6322 47.9574 55.2983 47.8754 55.0166 47.7113C54.7365 47.5456 54.5202 47.3152 54.3678 47.0202C54.2153 46.7236 54.1391 46.3797 54.1391 45.9886C54.1391 45.5942 54.2153 45.2495 54.3678 44.9545C54.5202 44.6579 54.7365 44.4276 55.0166 44.2635C55.2983 44.0978 55.6322 44.0149 56.0183 44.0149C56.4045 44.0149 56.7376 44.0978 57.0176 44.2635C57.2993 44.4276 57.5164 44.6579 57.6689 44.9545C57.8214 45.2495 57.8976 45.5942 57.8976 45.9886C57.8976 46.3797 57.8214 46.7236 57.6689 47.0202C57.5164 47.3152 57.2993 47.5456 57.0176 47.7113C56.7376 47.8754 56.4045 47.9574 56.0183 47.9574ZM56.0233 47.1371C56.199 47.1371 56.3456 47.0874 56.4633 46.9879C56.581 46.8868 56.6696 46.7493 56.7293 46.5753C56.7906 46.4013 56.8212 46.2032 56.8212 45.9812C56.8212 45.7591 56.7906 45.5611 56.7293 45.3871C56.6696 45.2131 56.581 45.0755 56.4633 44.9744C56.3456 44.8733 56.199 44.8228 56.0233 44.8228C55.846 44.8228 55.6968 44.8733 55.5759 44.9744C55.4565 45.0755 55.3662 45.2131 55.3049 45.3871C55.2453 45.5611 55.2154 45.7591 55.2154 45.9812C55.2154 46.2032 55.2453 46.4013 55.3049 46.5753C55.3662 46.7493 55.4565 46.8868 55.5759 46.9879C55.6968 47.0874 55.846 47.1371 56.0233 47.1371ZM58.606 47.8828V42.7919H59.665V44.706H59.6973C59.7437 44.6032 59.8108 44.4988 59.8987 44.3928C59.9881 44.285 60.1042 44.1955 60.2467 44.1243C60.3908 44.0514 60.5698 44.0149 60.7836 44.0149C61.062 44.0149 61.3189 44.0878 61.5542 44.2337C61.7895 44.3778 61.9776 44.5958 62.1185 44.8874C62.2593 45.1774 62.3298 45.5412 62.3298 45.9787C62.3298 46.4046 62.261 46.7642 62.1234 47.0575C61.9876 47.3492 61.802 47.5704 61.5666 47.7212C61.333 47.8704 61.0711 47.945 60.7811 47.945C60.5756 47.945 60.4008 47.911 60.2566 47.843C60.1141 47.7751 59.9973 47.6897 59.9061 47.587C59.815 47.4826 59.7454 47.3774 59.6973 47.2713H59.6501V47.8828H58.606ZM59.6426 45.9737C59.6426 46.2008 59.6741 46.3988 59.7371 46.5678C59.8001 46.7369 59.8912 46.8686 60.0105 46.9631C60.1298 47.0559 60.2748 47.1023 60.4455 47.1023C60.6179 47.1023 60.7637 47.055 60.883 46.9606C61.0024 46.8645 61.0927 46.7319 61.154 46.5629C61.217 46.3922 61.2484 46.1958 61.2484 45.9737C61.2484 45.7533 61.2178 45.5594 61.1565 45.392C61.0952 45.2247 61.0048 45.0937 60.8855 44.9993C60.7662 44.9048 60.6195 44.8576 60.4455 44.8576C60.2732 44.8576 60.1274 44.9032 60.008 44.9943C59.8904 45.0855 59.8001 45.2147 59.7371 45.3821C59.6741 45.5495 59.6426 45.7467 59.6426 45.9737Z"
        fill="white" />
    <defs>
        <filter id="filter0_b_2873_6450" x="-5" y="-5" width="80" height="80"
            filterUnits="userSpaceOnUse" color-interpolation-filters="sRGB">
            <feFlood flood-opacity="0" result="BackgroundImageFix" />
            <feGaussianBlur in="BackgroundImageFix" stdDeviation="2.5" />
            <feComposite in2="SourceAlpha" operator="in" result="effect1_backgroundBlur_2873_6450" />
            <feBlend mode="normal" in="SourceGraphic" in2="effect1_backgroundBlur_2873_6450"
                result="shape" />
        </filter>
        <linearGradient id="paint0_linear_2873_6450" x1="35" y1="0" x2="35" y2="70"
            gradientUnits="userSpaceOnUse">
            <stop stop-color="white" stop-opacity="0.3" />
            <stop offset="1" stop-color="#1B1B1B" stop-opacity="0" />
        </linearGradient>
    </defs>
</svg>    