<svg width="13" height="25" viewBox="0 0 13 25" fill="none" xmlns="http://www.w3.org/2000/svg">
<path d="M1.625 0.5C1.32663 0.5 1.04048 0.618526 0.829505 0.829505C0.618526 1.04048 0.5 1.32663 0.5 1.625V5.375C0.5 6.8225 1.6775 8 3.125 8H3.5V23.375C3.5 23.6734 3.61853 23.9595 3.8295 24.1705C4.04048 24.3815 4.32663 24.5 4.625 24.5C4.92337 24.5 5.20952 24.3815 5.4205 24.1705C5.63147 23.9595 5.75 23.6734 5.75 23.375V17.75H7.25V23.375C7.25 23.6734 7.36853 23.9595 7.57951 24.1705C7.79048 24.3815 8.07663 24.5 8.375 24.5C8.67337 24.5 8.95952 24.3815 9.17049 24.1705C9.38147 23.9595 9.5 23.6734 9.5 23.375V8H9.875C9.97446 8 10.0698 8.03951 10.1402 8.10983C10.2105 8.18016 10.25 8.27554 10.25 8.375V12.875C10.25 13.1734 10.3685 13.4595 10.5795 13.6705C10.7905 13.8815 11.0766 14 11.375 14C11.6734 14 11.9595 13.8815 12.1705 13.6705C12.3815 13.4595 12.5 13.1734 12.5 12.875V8.375C12.5 6.9275 11.3225 5.75 9.875 5.75H3.125C3.02554 5.75 2.93016 5.71049 2.85983 5.64016C2.78951 5.56984 2.75 5.47446 2.75 5.375V1.625C2.75 1.32663 2.63147 1.04048 2.4205 0.829505C2.20952 0.618526 1.92337 0.5 1.625 0.5ZM6.5 0.5C5.90326 0.5 5.33097 0.737053 4.90901 1.15901C4.48705 1.58097 4.25 2.15326 4.25 2.75C4.25 3.34674 4.48705 3.91903 4.90901 4.34099C5.33097 4.76295 5.90326 5 6.5 5C7.09674 5 7.66903 4.76295 8.09099 4.34099C8.51295 3.91903 8.75 3.34674 8.75 2.75C8.75 2.15326 8.51295 1.58097 8.09099 1.15901C7.66903 0.737053 7.09674 0.5 6.5 0.5Z" fill="#0196FB"/>
</svg>
