<svg width="19" height="21" viewBox="0 0 19 21" fill="none" xmlns="http://www.w3.org/2000/svg">
<path d="M10.5305 1.39292C10.252 1.12962 9.88327 0.98291 9.5 0.98291C9.11674 0.98291 8.74801 1.12962 8.4695 1.39292L1.2035 8.25992C0.981023 8.47045 0.803873 8.72419 0.682905 9.00559C0.561937 9.28699 0.499698 9.59013 0.500001 9.89642V18.2514C0.500399 18.8479 0.737627 19.4198 1.15954 19.8414C1.58145 20.2631 2.15352 20.4999 2.75 20.4999H5C5.59674 20.4999 6.16904 20.2629 6.59099 19.8409C7.01295 19.419 7.25 18.8467 7.25 18.2499V14.4999C7.25 14.301 7.32902 14.1102 7.46967 13.9696C7.61032 13.8289 7.80109 13.7499 8 13.7499H11C11.1989 13.7499 11.3897 13.8289 11.5303 13.9696C11.671 14.1102 11.75 14.301 11.75 14.4999V18.2499C11.75 18.8467 11.9871 19.419 12.409 19.8409C12.831 20.2629 13.4033 20.4999 14 20.4999H16.25C16.8467 20.4999 17.419 20.2629 17.841 19.8409C18.263 19.419 18.5 18.8467 18.5 18.2499V9.89492C18.4999 9.58877 18.4373 9.28585 18.3161 9.00472C18.1949 8.72359 18.0176 8.47015 17.795 8.25992L10.5305 1.38992V1.39292Z" fill="#0196FB"/>
</svg>
