<svg width="20" height="21" viewBox="0 0 20 21" fill="none" xmlns="http://www.w3.org/2000/svg">
<path d="M1.12522e-05 10.5002C0.000512807 8.30776 0.721494 6.17627 2.052 4.43375C3.3825 2.69123 5.24878 1.43424 7.36361 0.856232C9.47845 0.278228 11.7246 0.411245 13.7565 1.23481C15.7883 2.05838 17.4932 3.52685 18.6087 5.41422C19.7243 7.3016 20.1886 9.50328 19.9304 11.6804C19.6721 13.8576 18.7056 15.8895 17.1794 17.4635C15.6533 19.0375 13.6521 20.0664 11.484 20.3917C9.3159 20.7171 7.10093 20.3209 5.18001 19.2642L1.29201 20.4482C1.11859 20.501 0.934076 20.5057 0.758197 20.4617C0.582319 20.4178 0.421695 20.3269 0.293506 20.1987C0.165318 20.0705 0.0743872 19.9098 0.0304406 19.734C-0.0135059 19.5581 -0.00881522 19.3736 0.0440112 19.2002L1.22801 15.3062C0.41992 13.8334 -0.00251363 12.1801 1.12522e-05 10.5002ZM6.00001 9.50016C6.00001 9.76537 6.10537 10.0197 6.2929 10.2073C6.48044 10.3948 6.7348 10.5002 7.00001 10.5002H13C13.2652 10.5002 13.5196 10.3948 13.7071 10.2073C13.8947 10.0197 14 9.76537 14 9.50016C14 9.23494 13.8947 8.98059 13.7071 8.79305C13.5196 8.60551 13.2652 8.50016 13 8.50016H7.00001C6.7348 8.50016 6.48044 8.60551 6.2929 8.79305C6.10537 8.98059 6.00001 9.23494 6.00001 9.50016ZM7.00001 12.5002C6.7348 12.5002 6.48044 12.6055 6.2929 12.793C6.10537 12.9806 6.00001 13.2349 6.00001 13.5002C6.00001 13.7654 6.10537 14.0197 6.2929 14.2073C6.48044 14.3948 6.7348 14.5002 7.00001 14.5002H11C11.2652 14.5002 11.5196 14.3948 11.7071 14.2073C11.8947 14.0197 12 13.7654 12 13.5002C12 13.2349 11.8947 12.9806 11.7071 12.793C11.5196 12.6055 11.2652 12.5002 11 12.5002H7.00001Z" fill="#0196FB"/>
</svg>
