<svg width="20" height="21" viewBox="0 0 20 21" fill="none" xmlns="http://www.w3.org/2000/svg">
<path d="M10.0121 7.65449C9.31132 7.65449 8.65507 7.92637 8.15819 8.42324C7.66366 8.92012 7.38944 9.57637 7.38944 10.2771C7.38944 10.9779 7.66366 11.6342 8.15819 12.1311C8.65507 12.6256 9.31132 12.8998 10.0121 12.8998C10.7129 12.8998 11.3691 12.6256 11.866 12.1311C12.3605 11.6342 12.6348 10.9779 12.6348 10.2771C12.6348 9.57637 12.3605 8.92012 11.866 8.42324C11.6233 8.17869 11.3345 7.98479 11.0162 7.85282C10.6979 7.72085 10.3566 7.65344 10.0121 7.65449ZM19.6754 13.174L18.1426 11.8639C18.2152 11.4186 18.2527 10.9639 18.2527 10.5115C18.2527 10.0592 18.2152 9.60215 18.1426 9.15918L19.6754 7.84902C19.7912 7.7499 19.874 7.61787 19.913 7.4705C19.9519 7.32314 19.9451 7.16741 19.8933 7.02402L19.8723 6.96309C19.4504 5.78345 18.8183 4.69001 18.0066 3.73574L17.9644 3.68652C17.8659 3.57063 17.7345 3.48732 17.5877 3.44757C17.4408 3.40783 17.2853 3.41351 17.1418 3.46387L15.2387 4.14121C14.5355 3.56465 13.7527 3.10996 12.9043 2.79355L12.5363 0.803711C12.5086 0.65381 12.4358 0.515904 12.3278 0.408315C12.2198 0.300726 12.0816 0.228547 11.9316 0.201367L11.8683 0.189648C10.6496 -0.0306641 9.36522 -0.0306641 8.14647 0.189648L8.08319 0.201367C7.93318 0.228547 7.795 0.300726 7.68699 0.408315C7.57898 0.515904 7.50627 0.65381 7.4785 0.803711L7.10819 2.80293C6.26779 3.12186 5.4849 3.57544 4.79022 4.1459L2.87303 3.46387C2.72952 3.41311 2.57395 3.40722 2.42701 3.44699C2.28006 3.48676 2.1487 3.57031 2.05038 3.68652L2.00819 3.73574C1.19794 4.69103 0.566013 5.7842 0.142565 6.96309L0.121471 7.02402C0.0160025 7.31699 0.102721 7.64512 0.33944 7.84902L1.891 9.17324C1.81835 9.61387 1.78319 10.0639 1.78319 10.5092C1.78319 10.9592 1.81835 11.4092 1.891 11.8451L0.344128 13.1693C0.228336 13.2685 0.145463 13.4005 0.106527 13.5479C0.067592 13.6952 0.0744392 13.851 0.126159 13.9943L0.147253 14.0553C0.571471 15.2342 1.19725 16.324 2.01288 17.2826L2.05507 17.3318C2.15363 17.4477 2.285 17.531 2.43185 17.5708C2.57871 17.6105 2.73416 17.6049 2.87772 17.5545L4.79491 16.8725C5.49335 17.4467 6.27147 17.9014 7.11288 18.2154L7.48319 20.2146C7.51095 20.3645 7.58367 20.5025 7.69168 20.61C7.79968 20.7176 7.93787 20.7898 8.08788 20.817L8.15116 20.8287C9.3819 21.0502 10.6423 21.0502 11.873 20.8287L11.9363 20.817C12.0863 20.7898 12.2245 20.7176 12.3325 20.61C12.4405 20.5025 12.5132 20.3645 12.541 20.2146L12.909 18.2248C13.7574 17.9061 14.5402 17.4537 15.2433 16.8771L17.1465 17.5545C17.29 17.6053 17.4456 17.6111 17.5925 17.5714C17.7394 17.5316 17.8708 17.4481 17.9691 17.3318L18.0113 17.2826C18.8269 16.3193 19.4527 15.2342 19.8769 14.0553L19.898 13.9943C19.9988 13.7037 19.9121 13.3779 19.6754 13.174ZM10.0121 14.3975C7.73632 14.3975 5.89178 12.5529 5.89178 10.2771C5.89178 8.00137 7.73632 6.15684 10.0121 6.15684C12.2879 6.15684 14.1324 8.00137 14.1324 10.2771C14.1324 12.5529 12.2879 14.3975 10.0121 14.3975Z" fill="#0196FB"/>
</svg>
