<svg width="12" height="12" viewBox="0 0 12 12" fill="none" xmlns="http://www.w3.org/2000/svg">
<g clip-path="url(#clip0_411_11380)">
<path d="M10.4455 1.003L10.4985 1L10.5635 1.004L10.6085 1.012L10.67 1.0295L10.7235 1.0525L10.7735 1.081L10.8185 1.1145L10.8595 1.152L10.8855 1.1815L10.9265 1.2395L10.9525 1.2875C10.976 1.3375 10.991 1.3905 10.9975 1.4455L11 1.4985C11 1.536 10.996 1.573 10.988 1.6085L10.9705 1.67L7.7045 10.7085C7.64258 10.8433 7.54329 10.9575 7.41842 11.0375C7.29354 11.1175 7.14832 11.16 7 11.16C6.86641 11.1604 6.73499 11.1262 6.61854 11.0608C6.50209 10.9953 6.40458 10.9008 6.3355 10.7865L6.303 10.723L4.627 7.372L1.292 5.704C1.1686 5.64756 1.06218 5.55972 0.983383 5.44925C0.904588 5.33877 0.856178 5.20955 0.842996 5.0745L0.839996 5C0.839996 4.72 0.990496 4.464 1.2605 4.315L1.3305 4.28L10.339 1.027L10.392 1.012L10.4455 1.003Z" fill="#0196FB"/>
</g>
<defs>
<clipPath id="clip0_411_11380">
<rect width="12" height="12" fill="white"/>
</clipPath>
</defs>
</svg>
