<svg width="24" height="24" viewBox="0 0 24 24" fill="none" xmlns="http://www.w3.org/2000/svg">
  <path d="M12.0116 9.15449C11.3108 9.15449 10.6546 9.42637 10.1577 9.92324C9.66317 10.4201 9.38895 11.0764 9.38895 11.7771C9.38895 12.4779 9.66317 13.1342 10.1577 13.6311C10.6546 14.1256 11.3108 14.3998 12.0116 14.3998C12.7124 14.3998 13.3686 14.1256 13.8655 13.6311C14.36 13.1342 14.6343 12.4779 14.6343 11.7771C14.6343 11.0764 14.36 10.4201 13.8655 9.92324C13.6228 9.67869 13.334 9.48479 13.0157 9.35282C12.6975 9.22085 12.3561 9.15344 12.0116 9.15449ZM21.6749 14.674L20.1421 13.3639C20.2147 12.9186 20.2522 12.4639 20.2522 12.0115C20.2522 11.5592 20.2147 11.1021 20.1421 10.6592L21.6749 9.34902C21.7907 9.2499 21.8736 9.11787 21.9125 8.9705C21.9514 8.82314 21.9446 8.66741 21.8929 8.52402L21.8718 8.46309C21.4499 7.28345 20.8178 6.19001 20.0061 5.23574L19.964 5.18652C19.8654 5.07063 19.734 4.98732 19.5872 4.94757C19.4403 4.90783 19.2849 4.91351 19.1413 4.96387L17.2382 5.64121C16.535 5.06465 15.7522 4.60996 14.9038 4.29355L14.5358 2.30371C14.5081 2.15381 14.4354 2.0159 14.3273 1.90832C14.2193 1.80073 14.0811 1.72855 13.9311 1.70137L13.8679 1.68965C12.6491 1.46934 11.3647 1.46934 10.146 1.68965L10.0827 1.70137C9.93269 1.72855 9.79451 1.80073 9.6865 1.90832C9.57849 2.0159 9.50578 2.15381 9.47801 2.30371L9.1077 4.30293C8.2673 4.62186 7.48441 5.07544 6.78973 5.6459L4.87255 4.96387C4.72903 4.91311 4.57346 4.90722 4.42652 4.94699C4.27958 4.98676 4.14821 5.07031 4.04989 5.18652L4.0077 5.23574C3.19745 6.19103 2.56553 7.2842 2.14208 8.46309L2.12098 8.52402C2.01551 8.81699 2.10223 9.14512 2.33895 9.34902L3.89051 10.6732C3.81786 11.1139 3.7827 11.5639 3.7827 12.0092C3.7827 12.4592 3.81786 12.9092 3.89051 13.3451L2.34364 14.6693C2.22785 14.7685 2.14497 14.9005 2.10604 15.0479C2.0671 15.1952 2.07395 15.351 2.12567 15.4943L2.14676 15.5553C2.57098 16.7342 3.19676 17.824 4.01239 18.7826L4.05458 18.8318C4.15314 18.9477 4.28451 19.031 4.43136 19.0708C4.57822 19.1105 4.73367 19.1049 4.87723 19.0545L6.79442 18.3725C7.49286 18.9467 8.27098 19.4014 9.11239 19.7154L9.4827 21.7146C9.51046 21.8645 9.58318 22.0025 9.69119 22.11C9.7992 22.2176 9.93738 22.2898 10.0874 22.317L10.1507 22.3287C11.3814 22.5502 12.6418 22.5502 13.8725 22.3287L13.9358 22.317C14.0858 22.2898 14.224 22.2176 14.332 22.11C14.44 22.0025 14.5128 21.8645 14.5405 21.7146L14.9085 19.7248C15.7569 19.4061 16.5397 18.9537 17.2429 18.3771L19.146 19.0545C19.2895 19.1053 19.4451 19.1111 19.592 19.0714C19.739 19.0316 19.8703 18.9481 19.9686 18.8318L20.0108 18.7826C20.8265 17.8193 21.4522 16.7342 21.8765 15.5553L21.8975 15.4943C21.9983 15.2037 21.9116 14.8779 21.6749 14.674ZM12.0116 15.8975C9.73583 15.8975 7.8913 14.0529 7.8913 11.7771C7.8913 9.50137 9.73583 7.65684 12.0116 7.65684C14.2874 7.65684 16.1319 9.50137 16.1319 11.7771C16.1319 14.0529 14.2874 15.8975 12.0116 15.8975Z" fill="#1E1E1E"/>
</svg>