<svg width="18" height="18" viewBox="0 0 18 18" fill="none" xmlns="http://www.w3.org/2000/svg">
<path fill-rule="evenodd" clip-rule="evenodd" d="M13.8 3.66016C13.9433 3.66016 14.0806 3.71705 14.1819 3.81832C14.2831 3.91959 14.34 4.05694 14.34 4.20016V9.00016C14.34 9.14337 14.2831 9.28072 14.1819 9.38199C14.0806 9.48326 13.9433 9.54016 13.8 9.54016C13.6568 9.54016 13.5195 9.48326 13.4182 9.38199C13.3169 9.28072 13.26 9.14337 13.26 9.00016V5.50336L5.50323 13.2602H9.00003C9.14325 13.2602 9.2806 13.317 9.38187 13.4183C9.48314 13.5196 9.54003 13.6569 9.54003 13.8002C9.54003 13.9434 9.48314 14.0807 9.38187 14.182C9.2806 14.2833 9.14325 14.3402 9.00003 14.3402H4.20003C4.05682 14.3402 3.91947 14.2833 3.8182 14.182C3.71693 14.0807 3.66003 13.9434 3.66003 13.8002V9.00016C3.66003 8.92924 3.674 8.85902 3.70114 8.79351C3.72828 8.72799 3.76805 8.66846 3.8182 8.61832C3.86834 8.56817 3.92787 8.5284 3.99339 8.50126C4.0589 8.47412 4.12912 8.46016 4.20003 8.46016C4.27095 8.46016 4.34117 8.47412 4.40668 8.50126C4.4722 8.5284 4.53173 8.56817 4.58187 8.61832C4.63202 8.66846 4.67179 8.72799 4.69893 8.79351C4.72607 8.85902 4.74003 8.92924 4.74003 9.00016V12.497L12.4968 4.74016H9.00003C8.85682 4.74016 8.71947 4.68326 8.6182 4.58199C8.51693 4.48072 8.46003 4.34337 8.46003 4.20016C8.46003 4.05694 8.51693 3.91959 8.6182 3.81832C8.71947 3.71705 8.85682 3.66016 9.00003 3.66016H13.8Z" fill="#9197B3"/>
</svg>
