<svg width="208" height="232" viewBox="0 0 208 232" fill="none" xmlns="http://www.w3.org/2000/svg">
<g clip-path="url(#clip0_1314_5027)">
<path d="M67.4903 81.5898L40.1671 192.673C39.0158 197.345 39.3611 202.264 41.1533 206.726C42.9455 211.187 46.0925 214.961 50.1426 217.506C60.5652 224.046 77.7962 231.125 104.146 231.937C132.076 232.797 150.656 224.701 161.643 217.353C165.526 214.753 168.516 211.005 170.204 206.623C171.892 202.24 172.195 197.438 171.071 192.875L143.697 81.5898" fill="#F4F4F4"/>
<path d="M105.593 86.7497C141.82 86.7497 171.187 76.7569 171.187 64.4303C171.187 52.1036 141.82 42.1108 105.593 42.1108C69.3671 42.1108 40 52.1036 40 64.4303C40 76.7569 69.3671 86.7497 105.593 86.7497Z" fill="#757575"/>
<path d="M105.594 87.1199C88.0339 87.1199 71.5203 84.7914 59.0947 80.5622C46.5446 76.2917 39.6328 70.5623 39.6328 64.4291C39.6328 58.2959 46.544 52.5664 59.0947 48.2959C71.5203 44.068 88.0339 41.7383 105.594 41.7383C123.153 41.7383 139.667 44.0671 152.093 48.2959C164.642 52.5664 171.554 58.2959 171.554 64.4291C171.554 70.5623 164.643 76.2917 152.093 80.5622C139.667 84.7914 123.153 87.1199 105.594 87.1199ZM105.594 42.4811C88.1115 42.4811 71.6813 44.7958 59.329 48.9987C47.1013 53.1595 40.367 58.6398 40.367 64.43C40.367 70.2203 47.1013 75.7006 59.329 79.8614C71.6813 84.0643 88.1118 86.379 105.594 86.379C123.075 86.379 139.506 84.0643 151.858 79.8614C164.086 75.7006 170.82 70.2203 170.82 64.43C170.82 58.6398 164.086 53.1595 151.858 48.9987C139.506 44.7958 123.075 42.4811 105.594 42.4811Z" fill="#757575"/>
<path d="M105.594 78.2467C153.19 78.2467 191.775 67.5362 191.775 54.3241C191.775 41.1119 153.19 30.4014 105.594 30.4014C57.9972 30.4014 19.4126 41.1119 19.4126 54.3241C19.4126 67.5362 57.9972 78.2467 105.594 78.2467Z" fill="#0196FB"/>
<path d="M105.593 78.6171C82.5415 78.6171 60.8648 76.1239 44.5567 71.5969C28.1052 67.0302 19.0449 60.8961 19.0449 54.3231C19.0449 47.75 28.1052 41.6169 44.5567 37.0492C60.8648 32.5222 82.5415 30.0293 105.593 30.0293C128.645 30.0293 150.322 32.5222 166.63 37.0492C183.081 41.6159 192.142 47.7504 192.142 54.3231C192.142 60.8958 183.081 67.0293 166.63 71.5969C150.322 76.1239 128.645 78.6171 105.593 78.6171ZM105.593 30.7718C82.6055 30.7718 60.998 33.2557 44.7513 37.7654C36.8729 39.9522 30.6937 42.4949 26.3847 45.3227C22.0015 48.1995 19.7792 51.2278 19.7792 54.324C19.7792 57.4202 22.0015 60.4489 26.3847 63.3253C30.6937 66.1531 36.8729 68.6959 44.7513 70.8829C60.998 75.3933 82.6043 77.8763 105.593 77.8763C128.583 77.8763 150.189 75.3927 166.435 70.8829C174.314 68.6959 180.493 66.1531 184.802 63.3253C189.185 60.4489 191.407 57.4202 191.407 54.324C191.407 51.2278 189.185 48.1995 184.802 45.3227C180.493 42.4949 174.314 39.9522 166.435 37.7654C150.189 33.2557 128.581 30.773 105.593 30.773V30.7718Z" fill="#757575"/>
<path d="M145.246 40.3813C145.246 50.9571 127.081 53.4483 108.138 53.901C87.4992 54.3939 65.9414 50.7952 65.9414 40.3813C65.9711 29.7894 70.1619 19.6415 77.5951 12.1624C85.0283 4.68332 95.0973 0.483398 105.595 0.483398C116.092 0.483398 126.161 4.68332 133.594 12.1624C141.027 19.6415 145.218 29.7894 145.248 40.3813H145.246Z" fill="white"/>
<path d="M140.1 38.2873C140.004 38.2873 139.913 38.2498 139.844 38.1828C139.776 38.1158 139.736 38.0246 139.733 37.9284C139.621 34.1321 138.878 30.3818 137.534 26.8344C137.499 26.7427 137.501 26.6407 137.541 26.551C137.581 26.4613 137.654 26.3911 137.745 26.356C137.836 26.3209 137.937 26.3237 138.026 26.3637C138.115 26.4038 138.184 26.4778 138.219 26.5695C139.593 30.1945 140.352 34.0266 140.467 37.9057C140.47 38.0038 140.434 38.0992 140.367 38.1707C140.301 38.2423 140.209 38.2842 140.111 38.2873H140.1Z" fill="#757575"/>
<path d="M134.617 20.625C134.555 20.6251 134.495 20.6098 134.441 20.5804C134.388 20.551 134.342 20.5085 134.309 20.4567C129.464 12.9951 121.924 7.73653 113.295 5.80082C113.202 5.77767 113.122 5.7189 113.071 5.63701C113.021 5.55513 113.004 5.45659 113.024 5.36235C113.044 5.2681 113.1 5.18559 113.18 5.13235C113.26 5.0791 113.357 5.05933 113.451 5.07724C122.269 7.05488 129.973 12.4279 134.923 20.0521C134.96 20.1079 134.98 20.1726 134.983 20.2392C134.986 20.3059 134.97 20.372 134.939 20.4307C134.908 20.4894 134.861 20.5384 134.804 20.5726C134.747 20.6068 134.683 20.6249 134.617 20.625Z" fill="#757575"/>
<path d="M104.293 54.3169C86.7612 54.3169 73.4144 51.3419 68.1851 46.1918C66.4519 44.4842 65.5734 42.5291 65.5734 40.381C65.5586 35.0686 66.5828 29.8054 68.5873 24.893C70.5919 19.9806 73.5374 15.5156 77.2551 11.7538C80.9727 7.99203 85.3895 5.0074 90.2523 2.97095C95.1151 0.93449 100.328 -0.11377 105.593 -0.11377C110.858 -0.11377 116.072 0.93449 120.934 2.97095C125.797 5.0074 130.214 7.99203 133.932 11.7538C137.649 15.5156 140.595 19.9806 142.599 24.893C144.604 29.8054 145.628 35.0686 145.613 40.381C145.613 45.3697 141.671 49.041 133.897 51.293C127.915 53.0258 119.492 53.9999 108.146 54.2708C106.841 54.3015 105.557 54.3169 104.293 54.3169ZM105.593 0.740102C95.1769 0.751955 85.1912 4.93213 77.8261 12.3635C70.4611 19.795 66.3182 29.8707 66.3064 40.3804C66.3064 42.3215 67.1107 44.0981 68.6971 45.6611C74.1632 51.0476 88.9024 53.9884 108.128 53.5303C123.905 53.1538 144.881 51.3803 144.881 40.3814C144.869 29.8715 140.726 19.7954 133.361 12.364C125.996 4.93249 116.009 0.752491 105.594 0.741061L105.593 0.740102Z" fill="#757575"/>
<path d="M41.425 57.5264C44.2688 57.5264 46.5742 55.2003 46.5742 52.3308C46.5742 49.4614 44.2688 47.1353 41.425 47.1353C38.5812 47.1353 36.2759 49.4614 36.2759 52.3308C36.2759 55.2003 38.5812 57.5264 41.425 57.5264Z" fill="white"/>
<path d="M41.425 57.8967C40.3339 57.8967 39.2674 57.5703 38.3603 56.9586C37.4531 56.347 36.7461 55.4778 36.3286 54.4607C35.9111 53.4436 35.8018 52.3245 36.0147 51.2448C36.2275 50.1651 36.7529 49.1733 37.5244 48.3949C38.2958 47.6165 39.2787 47.0864 40.3488 46.8716C41.4188 46.6568 42.528 46.7671 43.5359 47.1883C44.5439 47.6096 45.4054 48.323 46.0116 49.2384C46.6177 50.1537 46.9412 51.2298 46.9412 52.3307C46.9395 53.8064 46.3578 55.2211 45.3237 56.2646C44.2895 57.308 42.8874 57.895 41.425 57.8967ZM41.425 47.5052C40.4791 47.5052 39.5545 47.7882 38.768 48.3184C37.9816 48.8487 37.3686 49.6023 37.0066 50.484C36.6447 51.3658 36.55 52.336 36.7345 53.2721C36.919 54.2081 37.3745 55.0679 38.0433 55.7428C38.7121 56.4177 39.5643 56.8772 40.492 57.0634C41.4196 57.2496 42.3812 57.1541 43.2551 56.7888C44.1289 56.4236 44.8758 55.8051 45.4013 55.0116C45.9268 54.218 46.2073 53.2851 46.2073 52.3307C46.206 51.0513 45.7018 49.8246 44.8052 48.9199C43.9086 48.0153 42.6929 47.5065 41.425 47.5052Z" fill="#757575"/>
<path d="M105.593 72.4058C108.437 72.4058 110.743 70.0797 110.743 67.2102C110.743 64.3408 108.437 62.0146 105.593 62.0146C102.75 62.0146 100.444 64.3408 100.444 67.2102C100.444 70.0797 102.75 72.4058 105.593 72.4058Z" fill="white"/>
<path d="M105.593 72.7761C104.502 72.7761 103.436 72.4496 102.529 71.838C101.622 71.2264 100.915 70.3571 100.497 69.3401C100.08 68.323 99.9703 67.2039 100.183 66.1242C100.396 65.0445 100.921 64.0527 101.693 63.2743C102.464 62.4959 103.447 61.9658 104.517 61.751C105.587 61.5362 106.696 61.6465 107.704 62.0677C108.712 62.489 109.574 63.2024 110.18 64.1177C110.786 65.0331 111.11 66.1092 111.11 67.2101C111.108 68.6857 110.526 70.1005 109.492 71.144C108.458 72.1874 107.056 72.7744 105.593 72.7761ZM105.593 62.3849C104.648 62.3849 103.723 62.6679 102.937 63.1981C102.15 63.7283 101.537 64.4819 101.175 65.3636C100.813 66.2452 100.719 67.2154 100.903 68.1514C101.088 69.0874 101.543 69.9472 102.212 70.622C102.881 71.2968 103.733 71.7563 104.66 71.9425C105.588 72.1287 106.55 72.0331 107.423 71.6679C108.297 71.3027 109.044 70.6843 109.57 69.8908C110.095 69.0973 110.375 68.1644 110.375 67.2101C110.374 65.9308 109.87 64.7043 108.973 63.7997C108.077 62.8951 106.861 62.3863 105.593 62.3849Z" fill="#757575"/>
<path d="M169.751 57.5264C172.594 57.5264 174.9 55.2003 174.9 52.3308C174.9 49.4614 172.594 47.1353 169.751 47.1353C166.907 47.1353 164.602 49.4614 164.602 52.3308C164.602 55.2003 166.907 57.5264 169.751 57.5264Z" fill="white"/>
<path d="M169.751 57.8967C168.66 57.8967 167.593 57.5703 166.686 56.9586C165.779 56.347 165.072 55.4778 164.654 54.4607C164.237 53.4436 164.128 52.3245 164.34 51.2448C164.553 50.1651 165.079 49.1733 165.85 48.3949C166.622 47.6165 167.604 47.0864 168.674 46.8716C169.745 46.6568 170.854 46.7671 171.862 47.1883C172.87 47.6096 173.731 48.323 174.337 49.2384C174.943 50.1537 175.267 51.2298 175.267 52.3307C175.265 53.8064 174.684 55.2211 173.649 56.2646C172.615 57.308 171.213 57.895 169.751 57.8967ZM169.751 47.5052C168.805 47.5052 167.88 47.7882 167.094 48.3184C166.307 48.8487 165.694 49.6023 165.332 50.484C164.97 51.3658 164.876 52.336 165.06 53.2721C165.245 54.2081 165.7 55.0679 166.369 55.7428C167.038 56.4177 167.89 56.8772 168.818 57.0634C169.745 57.2496 170.707 57.1541 171.581 56.7888C172.455 56.4236 173.202 55.8051 173.727 55.0116C174.253 54.218 174.533 53.2851 174.533 52.3307C174.532 51.0513 174.027 49.8246 173.131 48.9199C172.234 48.0153 171.019 47.5065 169.751 47.5052Z" fill="#757575"/>
<path d="M142.386 67.2105C145.23 67.2105 147.535 64.8844 147.535 62.0149C147.535 59.1455 145.23 56.8193 142.386 56.8193C139.542 56.8193 137.237 59.1455 137.237 62.0149C137.237 64.8844 139.542 67.2105 142.386 67.2105Z" fill="white"/>
<path d="M142.386 67.5808C141.295 67.5808 140.228 67.2543 139.321 66.6427C138.414 66.0311 137.707 65.1618 137.29 64.1448C136.872 63.1277 136.763 62.0086 136.976 60.9289C137.188 59.8492 137.714 58.8574 138.485 58.079C139.257 57.3006 140.24 56.7704 141.31 56.5557C142.38 56.3409 143.489 56.4511 144.497 56.8724C145.505 57.2937 146.366 58.0071 146.972 58.9224C147.579 59.8378 147.902 60.9139 147.902 62.0148C147.9 63.4904 147.319 64.9052 146.285 65.9486C145.25 66.9921 143.848 67.5791 142.386 67.5808ZM142.386 57.1893C141.44 57.1892 140.515 57.4722 139.729 58.0024C138.942 58.5325 138.329 59.2862 137.967 60.1679C137.605 61.0496 137.511 62.0199 137.695 62.956C137.88 63.892 138.335 64.7519 139.004 65.4268C139.673 66.1017 140.525 66.5613 141.452 66.7475C142.38 66.9337 143.342 66.8382 144.216 66.4729C145.089 66.1077 145.836 65.4892 146.362 64.6957C146.887 63.9021 147.168 62.9692 147.168 62.0148C147.167 60.7354 146.662 59.5088 145.766 58.6041C144.869 57.6995 143.654 57.1906 142.386 57.1893Z" fill="#757575"/>
<path d="M68.801 67.9176C71.6448 67.9176 73.9501 65.5914 73.9501 62.722C73.9501 59.8525 71.6448 57.5264 68.801 57.5264C65.9572 57.5264 63.6519 59.8525 63.6519 62.722C63.6519 65.5914 65.9572 67.9176 68.801 67.9176Z" fill="white"/>
<path d="M68.8009 68.2883C67.7099 68.2883 66.6434 67.9618 65.7363 67.3502C64.8291 66.7386 64.1221 65.8694 63.7046 64.8523C63.2871 63.8352 63.1778 62.7161 63.3907 61.6364C63.6035 60.5567 64.1289 59.5649 64.9003 58.7865C65.6718 58.0081 66.6547 57.478 67.7248 57.2632C68.7948 57.0484 69.9039 57.1587 70.9119 57.5799C71.9199 58.0012 72.7814 58.7146 73.3875 59.63C73.9937 60.5453 74.3172 61.6214 74.3172 62.7223C74.3155 64.198 73.7338 65.6127 72.6997 66.6562C71.6655 67.6996 70.2634 68.2866 68.8009 68.2883ZM68.8009 57.8968C67.855 57.8965 66.9302 58.1792 66.1435 58.7093C65.3569 59.2393 64.7437 59.9929 64.3815 60.8746C64.0193 61.7563 63.9243 62.7266 64.1087 63.6628C64.2931 64.599 64.7485 65.4589 65.4173 66.134C66.0861 66.809 66.9382 67.2687 67.866 67.455C68.7937 67.6412 69.7554 67.5457 70.6293 67.1805C71.5033 66.8153 72.2502 66.1967 72.7758 65.4031C73.3013 64.6095 73.5817 63.6764 73.5817 62.722C73.5803 61.4429 73.0763 60.2166 72.18 59.312C71.2838 58.4074 70.0686 57.8985 68.8009 57.8968Z" fill="#757575"/>
<path d="M160.193 35.8147C159.81 36.9875 159.024 37.984 157.979 38.6257C156.933 39.2674 155.695 39.5122 154.486 39.3163C153.278 39.1205 152.178 38.4967 151.384 37.5569C150.59 36.617 150.153 35.4225 150.153 34.1875C150.153 34.0714 150.158 33.9578 150.165 33.8442C153.682 34.437 157.032 35.0937 160.193 35.8147Z" fill="white"/>
<path d="M155.302 39.7527C153.839 39.7513 152.437 39.1644 151.403 38.1209C150.369 37.0773 149.787 35.6624 149.786 34.1867C149.786 34.0626 149.791 33.9407 149.799 33.8191L149.825 33.4106L150.225 33.4781C153.761 34.0741 157.143 34.7385 160.275 35.4525L160.669 35.5427L160.543 35.9301C160.18 37.0434 159.478 38.0125 158.537 38.699C157.596 39.3856 156.463 39.7544 155.302 39.7527ZM150.521 34.2798C150.542 35.3835 150.938 36.4465 151.642 37.2916C152.346 38.1366 153.316 38.7126 154.39 38.9235C155.464 39.1344 156.577 38.9674 157.543 38.4503C158.51 37.9333 159.272 37.0975 159.702 36.0823C156.823 35.4346 153.739 34.829 150.521 34.2798Z" fill="#757575"/>
<path d="M60.4802 34.1875C60.4799 35.4121 60.051 36.5972 59.2692 37.5338C58.4873 38.4704 57.4028 39.0984 56.2069 39.3068C55.011 39.5153 53.7805 39.2909 52.7325 38.6733C51.6846 38.0556 50.8865 37.0844 50.479 35.9309C53.6283 35.2047 56.9663 34.5381 60.4729 33.938C60.4777 34.0196 60.4802 34.1034 60.4802 34.1875Z" fill="white"/>
<path d="M55.3317 39.7529C54.1934 39.7512 53.0832 39.3953 52.1527 38.7335C51.2223 38.0718 50.5168 37.1365 50.1325 36.0553L49.9937 35.6625L50.3966 35.5697C53.5615 34.8401 56.9308 34.1683 60.4108 33.573L60.8141 33.5039L60.8388 33.9156C60.8442 34.0045 60.8467 34.096 60.8467 34.1875C60.8451 35.6629 60.2635 37.0774 59.2296 38.1207C58.1957 39.1641 56.7939 39.751 55.3317 39.7529ZM50.9818 36.1954C51.4295 37.182 52.1936 37.9876 53.1508 38.4822C54.108 38.9767 55.2025 39.1313 56.2575 38.9211C57.3125 38.7108 58.2665 38.148 58.9655 37.3233C59.6645 36.4987 60.0677 35.4605 60.11 34.3762C56.9473 34.9245 53.881 35.5355 50.9818 36.1954Z" fill="#757575"/>
<path d="M3.74635 81.9604C3.69816 81.9604 3.65043 81.9508 3.60591 81.9322C3.56139 81.9136 3.52094 81.8863 3.48687 81.8519C3.45281 81.8175 3.4258 81.7767 3.40738 81.7317C3.38897 81.6868 3.37951 81.6386 3.37955 81.59V71.1396C3.37811 71.0901 3.38653 71.0407 3.40433 70.9945C3.42212 70.9484 3.44892 70.9062 3.48313 70.8707C3.51735 70.8351 3.55829 70.8069 3.60353 70.7876C3.64877 70.7683 3.69739 70.7583 3.74651 70.7583C3.79563 70.7583 3.84425 70.7683 3.88949 70.7876C3.93473 70.8069 3.97567 70.8351 4.00989 70.8707C4.04411 70.9062 4.0709 70.9484 4.0887 70.9945C4.10649 71.0407 4.11491 71.0901 4.11347 71.1396V81.59C4.11351 81.6386 4.10404 81.6868 4.08561 81.7318C4.06717 81.7767 4.04013 81.8176 4.00604 81.852C3.97194 81.8864 3.93145 81.9137 3.88689 81.9323C3.84233 81.9509 3.79457 81.9605 3.74635 81.9604Z" fill="#0196FB"/>
<path d="M7.1258 76.7355H0.367116C0.269751 76.7355 0.176374 76.6965 0.107526 76.627C0.0386782 76.5575 0 76.4633 0 76.3651C0 76.2668 0.0386782 76.1726 0.107526 76.1031C0.176374 76.0337 0.269751 75.9946 0.367116 75.9946H7.1258C7.22317 75.9946 7.31654 76.0337 7.38539 76.1031C7.45424 76.1726 7.49292 76.2668 7.49292 76.3651C7.49292 76.4633 7.45424 76.5575 7.38539 76.627C7.31654 76.6965 7.22317 76.7355 7.1258 76.7355Z" fill="#0196FB"/>
<path d="M77.9304 121.563C77.8822 121.563 77.8345 121.553 77.79 121.535C77.7455 121.516 77.705 121.489 77.671 121.454C77.6369 121.42 77.6099 121.379 77.5915 121.334C77.5731 121.289 77.5636 121.241 77.5636 121.193V110.742C77.5622 110.693 77.5706 110.643 77.5884 110.597C77.6062 110.551 77.633 110.509 77.6672 110.473C77.7014 110.438 77.7424 110.409 77.7876 110.39C77.8329 110.371 77.8815 110.361 77.9306 110.361C77.9797 110.361 78.0283 110.371 78.0736 110.39C78.1188 110.409 78.1598 110.438 78.194 110.473C78.2282 110.509 78.255 110.551 78.2728 110.597C78.2906 110.643 78.299 110.693 78.2976 110.742V121.193C78.2976 121.241 78.2881 121.289 78.2697 121.334C78.2513 121.379 78.2242 121.42 78.1901 121.455C78.156 121.489 78.1155 121.516 78.071 121.535C78.0264 121.553 77.9787 121.563 77.9304 121.563Z" fill="#0196FB"/>
<path d="M81.3099 116.338H74.5512C74.4538 116.338 74.3605 116.299 74.2916 116.23C74.2228 116.16 74.1841 116.066 74.1841 115.968C74.1841 115.869 74.2228 115.775 74.2916 115.706C74.3605 115.636 74.4538 115.597 74.5512 115.597H81.3099C81.4072 115.597 81.5006 115.636 81.5695 115.706C81.6383 115.775 81.677 115.869 81.677 115.968C81.677 116.066 81.6383 116.16 81.5695 116.23C81.5006 116.299 81.4072 116.338 81.3099 116.338Z" fill="#0196FB"/>
<path d="M22.7678 224.247C22.7196 224.247 22.6719 224.237 22.6274 224.218C22.5829 224.2 22.5424 224.172 22.5084 224.138C22.4743 224.104 22.4473 224.063 22.4289 224.018C22.4105 223.973 22.401 223.925 22.401 223.876V213.426C22.3996 213.376 22.408 213.327 22.4258 213.281C22.4436 213.234 22.4704 213.192 22.5046 213.157C22.5388 213.121 22.5798 213.093 22.625 213.074C22.6703 213.054 22.7189 213.044 22.768 213.044C22.8171 213.044 22.8657 213.054 22.911 213.074C22.9562 213.093 22.9972 213.121 23.0314 213.157C23.0656 213.192 23.0924 213.234 23.1102 213.281C23.128 213.327 23.1364 213.376 23.135 213.426V223.876C23.135 223.925 23.1255 223.973 23.1071 224.018C23.0887 224.063 23.0616 224.104 23.0275 224.138C22.9934 224.173 22.9529 224.2 22.9084 224.218C22.8638 224.237 22.8161 224.247 22.7678 224.247Z" fill="#0196FB"/>
<path d="M26.1473 219.022H19.3886C19.2912 219.022 19.1979 218.983 19.129 218.913C19.0602 218.844 19.0215 218.749 19.0215 218.651C19.0215 218.553 19.0602 218.459 19.129 218.389C19.1979 218.32 19.2912 218.281 19.3886 218.281H26.1473C26.2446 218.281 26.338 218.32 26.4069 218.389C26.4757 218.459 26.5144 218.553 26.5144 218.651C26.5144 218.749 26.4757 218.844 26.4069 218.913C26.338 218.983 26.2446 219.022 26.1473 219.022Z" fill="#0196FB"/>
<path d="M180.039 140.165C179.942 140.165 179.848 140.126 179.779 140.056C179.711 139.987 179.672 139.892 179.672 139.794V123.898C179.672 123.8 179.711 123.705 179.779 123.636C179.848 123.566 179.942 123.527 180.039 123.527C180.136 123.527 180.23 123.566 180.299 123.636C180.367 123.705 180.406 123.8 180.406 123.898V139.794C180.406 139.892 180.367 139.987 180.298 140.056C180.23 140.125 180.136 140.165 180.039 140.165Z" fill="#0196FB"/>
<path d="M185.18 132.216H174.899C174.802 132.216 174.709 132.177 174.64 132.108C174.571 132.038 174.532 131.944 174.532 131.846C174.532 131.748 174.571 131.654 174.64 131.584C174.709 131.515 174.802 131.476 174.899 131.476H185.18C185.278 131.476 185.371 131.515 185.44 131.584C185.509 131.654 185.548 131.748 185.548 131.846C185.548 131.944 185.509 132.038 185.44 132.108C185.371 132.177 185.278 132.216 185.18 132.216Z" fill="#0196FB"/>
<path d="M52.1098 186.497C52.0124 186.497 51.9191 186.458 51.8502 186.389C51.7814 186.319 51.7427 186.225 51.7427 186.127V170.23C51.7427 170.132 51.7814 170.038 51.8502 169.968C51.9191 169.899 52.0124 169.86 52.1098 169.86C52.2072 169.86 52.3005 169.899 52.3694 169.968C52.4382 170.038 52.4769 170.132 52.4769 170.23V186.127C52.4768 186.225 52.4381 186.319 52.3693 186.389C52.3005 186.458 52.2071 186.497 52.1098 186.497Z" fill="#0196FB"/>
<path d="M57.2513 178.549H46.9701C46.8728 178.549 46.7794 178.51 46.7105 178.44C46.6417 178.371 46.603 178.277 46.603 178.179C46.603 178.08 46.6417 177.986 46.7105 177.917C46.7794 177.847 46.8728 177.808 46.9701 177.808H57.2513C57.3487 177.808 57.442 177.847 57.5109 177.917C57.5797 177.986 57.6184 178.08 57.6184 178.179C57.6184 178.277 57.5797 178.371 57.5109 178.44C57.442 178.51 57.3487 178.549 57.2513 178.549Z" fill="#0196FB"/>
<path d="M158.948 213.047C158.85 213.047 158.757 213.008 158.688 212.939C158.619 212.869 158.581 212.775 158.581 212.677V196.781C158.581 196.682 158.619 196.588 158.688 196.519C158.757 196.449 158.85 196.41 158.948 196.41C159.045 196.41 159.138 196.449 159.207 196.519C159.276 196.588 159.315 196.682 159.315 196.781V212.677C159.315 212.775 159.276 212.869 159.207 212.939C159.138 213.008 159.045 213.047 158.948 213.047Z" fill="#0196FB"/>
<path d="M164.089 205.099H153.808C153.711 205.099 153.617 205.06 153.548 204.991C153.48 204.921 153.441 204.827 153.441 204.729C153.441 204.631 153.48 204.536 153.548 204.467C153.617 204.397 153.711 204.358 153.808 204.358H164.089C164.187 204.358 164.28 204.397 164.349 204.467C164.418 204.536 164.456 204.631 164.456 204.729C164.456 204.827 164.418 204.921 164.349 204.991C164.28 205.06 164.187 205.099 164.089 205.099Z" fill="#0196FB"/>
<path d="M205.063 89.9088C205.015 89.9088 204.967 89.8993 204.922 89.8807C204.878 89.8621 204.837 89.8348 204.803 89.8004C204.769 89.766 204.742 89.7251 204.724 89.6802C204.705 89.6352 204.696 89.587 204.696 89.5384V81.5902C204.696 81.4919 204.734 81.3977 204.803 81.3282C204.872 81.2588 204.966 81.2197 205.063 81.2197C205.16 81.2197 205.254 81.2588 205.323 81.3282C205.391 81.3977 205.43 81.4919 205.43 81.5902V89.5384C205.43 89.587 205.421 89.6352 205.402 89.6802C205.384 89.7251 205.357 89.766 205.323 89.8004C205.288 89.8348 205.248 89.8621 205.203 89.8807C205.159 89.8993 205.111 89.9088 205.063 89.9088Z" fill="#0196FB"/>
<path d="M207.633 85.9347H202.493C202.444 85.9347 202.397 85.9251 202.352 85.9065C202.308 85.8879 202.267 85.8606 202.233 85.8262C202.199 85.7918 202.172 85.751 202.153 85.706C202.135 85.6611 202.125 85.6129 202.125 85.5643C202.125 85.5156 202.135 85.4675 202.153 85.4225C202.172 85.3776 202.199 85.3367 202.233 85.3023C202.267 85.2679 202.308 85.2407 202.352 85.222C202.397 85.2034 202.444 85.1938 202.493 85.1938H207.633C207.731 85.1938 207.824 85.2329 207.893 85.3023C207.962 85.3718 208 85.466 208 85.5643C208 85.6625 207.962 85.7567 207.893 85.8262C207.824 85.8957 207.731 85.9347 207.633 85.9347Z" fill="#0196FB"/>
</g>
<defs>
<clipPath id="clip0_1314_5027">
<rect width="208" height="232" fill="white"/>
</clipPath>
</defs>
</svg>
