<svg width="280" height="280" viewBox="0 0 280 280" fill="none" xmlns="http://www.w3.org/2000/svg">
<path d="M129.016 54.2006C129.016 54.2006 120.31 99.0514 70.2483 100.823C20.1868 102.595 6.48769 174.804 57.3081 188.216C108.129 201.628 83.0925 236.339 116.543 243.37C154.562 251.36 155.034 195.114 181.471 194.209C239.82 192.214 270.014 165.491 248.913 143.817C211.872 105.77 192.789 111.903 194.084 81.4977C195.38 51.0926 140.567 17.5607 129.016 54.2006Z" fill="#DEE9FF"/>
<path d="M208.291 193.613C219.303 193.613 228.231 184.685 228.231 173.673C228.231 162.66 219.303 153.733 208.291 153.733C197.278 153.733 188.351 162.66 188.351 173.673C188.351 184.685 197.278 193.613 208.291 193.613Z" fill="#0196FB" stroke="white" stroke-width="15" stroke-miterlimit="10"/>
<path d="M215.972 172.003H210.294C210.25 172.003 210.207 171.994 210.166 171.978C210.126 171.961 210.089 171.936 210.058 171.905C210.027 171.874 210.002 171.837 209.985 171.797C209.969 171.756 209.96 171.713 209.96 171.669V165.991C209.96 165.548 209.784 165.124 209.471 164.81C209.158 164.497 208.733 164.321 208.29 164.321C207.847 164.321 207.422 164.497 207.109 164.81C206.796 165.124 206.62 165.548 206.62 165.991V171.669C206.62 171.713 206.612 171.756 206.595 171.797C206.578 171.837 206.553 171.874 206.522 171.905C206.491 171.936 206.454 171.961 206.414 171.978C206.373 171.994 206.33 172.003 206.286 172.003H200.609C200.169 172.007 199.748 172.185 199.438 172.497C199.128 172.81 198.954 173.233 198.954 173.673C198.954 174.113 199.128 174.536 199.438 174.848C199.748 175.161 200.169 175.339 200.609 175.343H206.287C206.375 175.343 206.46 175.378 206.523 175.441C206.586 175.503 206.621 175.588 206.621 175.677V181.355C206.621 181.798 206.797 182.222 207.11 182.536C207.423 182.849 207.848 183.025 208.291 183.025C208.734 183.025 209.158 182.849 209.471 182.536C209.785 182.222 209.961 181.798 209.961 181.355V175.677C209.961 175.588 209.996 175.503 210.058 175.441C210.121 175.378 210.206 175.343 210.295 175.343H215.972C216.413 175.339 216.834 175.161 217.143 174.848C217.453 174.536 217.627 174.113 217.627 173.673C217.627 173.233 217.453 172.81 217.143 172.497C216.834 172.185 216.413 172.007 215.972 172.003Z" fill="white"/>
<g clip-path="url(#clip0_1331_7050)">
<path d="M65.7354 191.064C64.2146 189.543 64.8738 187.713 66.9354 185.652C69.8908 182.696 74.5216 179.86 79.0763 178.503L69.9107 169.338C65.3959 171.279 61.6999 173.961 58.4721 177.188C50.577 185.084 49.461 194.468 56.3645 201.372C67.1286 212.136 80.1912 195.641 84.8325 200.283C86.6263 202.077 85.6561 204.217 83.4781 206.395C80.2502 209.623 74.8015 212.419 69.7406 213.892L79.023 223.175C84.2 221.118 88.5186 218.125 91.8632 214.78C99.9525 206.691 101.497 197.113 94.5156 190.131C82.8543 178.548 70.1037 195.432 65.7354 191.064ZM73.656 146.404L66.1946 157.921L97.3962 189.201C103.169 194.973 111.737 194.907 117.492 189.151C120.681 185.962 122.43 183.044 123.011 181.058L115.094 173.141C114.357 174.892 110.006 182.831 104.233 177.059L90.3877 163.213L97.7769 155.824L89.4697 147.517L82.0805 154.906L73.656 146.404ZM104.451 138.308L100.943 136.044L92.5422 144.444L126.669 178.571L136.391 168.848L113.264 145.72C112.555 140.423 116.99 137.08 118.625 136.303L109.654 127.332C107.942 128.109 102.533 131.801 104.451 138.308ZM112.026 124.96L121.788 115.199L155.914 149.325L146.153 159.087L112.026 124.96ZM109.062 121.996L116.718 110.128L108.8 102.211L101.106 114.04L109.062 121.996ZM141.426 94.2345C137.615 98.0458 136.959 102.29 136.846 104.899L133.922 102.987L125.366 111.543L170.842 157.018L178.498 145.229L167.499 134.152C169.913 133.766 173.417 133.148 176.84 129.726C183.801 122.764 184.524 110.809 172.161 98.4455C160.811 87.1737 148.232 87.4285 141.426 94.2345ZM165.965 123.44C163.67 125.735 161.49 126.277 159.543 126.196L145.034 111.765C144.914 109.623 145.534 107.443 147.751 105.226C151.29 101.687 157.718 103.215 162.828 108.324C168.054 113.551 169.543 119.862 165.965 123.44ZM203.197 68.1895C193.212 58.205 180.511 55.1492 171.294 64.3662C162.038 73.6225 164.316 87.1015 174.223 97.0078C185.962 108.747 198.502 108.064 207.991 98.5746C212.619 93.9464 215.066 89.3932 216.229 85.2667L208.429 77.4662C207.11 81.4367 204.896 85.2894 201.046 89.1396C197.273 92.9122 192.602 94.9306 187.573 90.7561L206.59 71.7384C206.083 71.2311 204.133 69.1255 203.197 68.1895ZM180.279 83.6965C175.872 79.2894 176.723 74.7725 179.173 72.3223C181.545 69.9502 185.906 69.2553 190.313 73.6625L180.279 83.6965Z" fill="#0196FB"/>
</g>
<defs>
<clipPath id="clip0_1331_7050">
<rect width="198" height="83" fill="white" transform="translate(33 178.007) rotate(-45)"/>
</clipPath>
</defs>
</svg>
