<svg width="39" height="14" viewBox="0 0 39 14" fill="none" xmlns="http://www.w3.org/2000/svg">
  <g clip-path="url(#clip0_403_8157)">
    <path d="M25.4021 0.678223C22.633 0.678223 20.1583 2.11442 20.1583 4.76789C20.1583 7.81091 24.5472 8.02107 24.5472 9.5498C24.5472 10.1935 23.81 10.7697 22.5509 10.7697C20.7639 10.7697 19.4284 9.96457 19.4284 9.96457L18.8569 12.6422C18.8569 12.6422 20.3954 13.3223 22.4381 13.3223C25.4657 13.3223 27.848 11.8156 27.848 9.11679C27.848 5.90127 23.4409 5.69732 23.4409 4.27843C23.4409 3.77413 24.046 3.22166 25.3016 3.22166C26.7181 3.22166 27.8739 3.80721 27.8739 3.80721L28.4332 1.22108C28.4332 1.22108 27.1756 0.678223 25.4021 0.678223ZM0.0670691 0.873421L0 1.26378C0 1.26378 1.165 1.4771 2.21426 1.90269C3.56524 2.39067 3.66151 2.67478 3.88903 3.55713L6.3684 13.121H9.6921L14.8125 0.873421H11.4964L8.20628 9.20061L6.86373 2.14207C6.7406 1.33425 6.11691 0.873421 5.3535 0.873421H0.0670691ZM16.1459 0.873421L13.5446 13.121H16.7067L19.2989 0.873382H16.1459V0.873421ZM33.7821 0.873421C33.0196 0.873421 32.6156 1.2819 32.3192 1.9957L27.6864 13.121H31.0025L31.6441 11.2667H35.6839L36.0741 13.121H39L36.4474 0.873421H33.7821ZM34.2134 4.18234L35.1963 8.77822H32.563L34.2134 4.18234Z" fill="#1434CB"/>
  </g>
  <defs>
    <clipPath id="clip0_403_8157">
      <rect width="39" height="12.675" fill="white" transform="translate(0 0.662598)"/>
    </clipPath>
  </defs>
</svg>